<?xml version="1.0" standalone="no"?>
<!DOCTYPE svg PUBLIC "-//W3C//DTD SVG 1.1//EN" "http://www.w3.org/Graphics/SVG/1.1/DTD/svg11.dtd" >
<svg xmlns="http://www.w3.org/2000/svg" xmlns:xlink="http://www.w3.org/1999/xlink" version="1.1">
<metadata>
Created by FontForge 20170731 at Fri Nov 17 13:43:37 2023
 By Aleksey,,,
Leksen Design
</metadata>
<defs>
<font id="NordiquePro-Semibold" horiz-adv-x="1167" >
  <font-face 
    font-family="Nordique Pro Semibold"
    font-weight="600"
    font-stretch="normal"
    units-per-em="2048"
    panose-1="0 0 7 0 0 0 0 0 0 0"
    ascent="1638"
    descent="-410"
    x-height="1024"
    cap-height="1434"
    bbox="-410 -1442 6056 2609"
    underline-thickness="102"
    underline-position="-307"
    unicode-range="U+0020-25CA"
  />
<missing-glyph horiz-adv-x="1024" 
d="M840 1638v-2048h-650v2048h650zM682 1501h-338v-67h133v-76h-135v-68h340v68h-135v76h135v67zM547 1237h-205v-213h340v70h-135v143zM477 1167v-73h-67v73h67zM682 969h-340v-68h135v-76h-135v-67h205v143h135v68zM682 846h-68v-135h-272v-70h340v205zM682 596h-205v-115
h70v47h67v-96h-204v164h-68v-231h340v231zM682 242h-340v-232h340v232zM614 174v-96h-204v96h204zM682 -37h-340v-67h143l-143 -97v-67h340v67h-209l143 97h66v67z" />
    <glyph glyph-name="f_f.liga" unicode="ff" horiz-adv-x="1200" 
d="M195 0v829h-154v195h158q17 191 124 300t293 116v-195q-93 -9 -152 -66t-65 -155h351q17 191 123.5 300t291.5 116v-195q-92 -9 -151.5 -66.5t-63.5 -154.5h215v-195h-219v-829h-201v829h-350v-829h-200z" />
    <glyph glyph-name="f_f_i.liga" unicode="ffi" horiz-adv-x="1583" 
d="M195 0v829h-154v195h158q17 191 124 300t293 116v-195q-93 -9 -152 -66t-65 -155h351q17 191 123.5 300t291.5 116v-195q-92 -9 -151.5 -66.5t-63.5 -154.5h215v-195h-219v-829h-201v829h-350v-829h-200zM1399 1165q-53 0 -88 35.5t-35 87.5t35 87.5t88 35.5
q51 0 86 -35.5t35 -87.5t-35 -87.5t-86 -35.5zM1298 0v1024h201v-1024h-201z" />
    <glyph glyph-name="f_f_l.liga" unicode="ffl" horiz-adv-x="1552" 
d="M195 0v829h-154v195h158q17 191 124 300t293 116v-195q-93 -9 -152 -66t-65 -155h351q17 191 123.5 300t291.5 116v-195q-92 -9 -151.5 -66.5t-63.5 -154.5h215v-195h-219v-829h-201v829h-350v-829h-200zM1290 0v1434h201v-1434h-201z" />
    <glyph glyph-name="f_i.liga" unicode="fi" horiz-adv-x="1042" 
d="M195 0v829h-154v195h158q17 191 124 300t293 116v-195q-93 -9 -152 -66t-65 -155h217v-195h-221v-829h-200zM860 1165q-52 0 -87.5 35.5t-35.5 87.5t35.5 87.5t87.5 35.5q51 0 86 -35.5t35 -87.5t-35 -87.5t-86 -35.5zM760 0v1024h201v-1024h-201z" />
    <glyph glyph-name="f_l.liga" unicode="fl" horiz-adv-x="993" 
d="M195 0v829h-154v195h158q17 191 124 300t293 116v-195q-93 -9 -152 -66t-65 -155h217v-195h-221v-829h-200zM932 0h-201v1434h201v-1434z" />
    <glyph glyph-name=".notdef" horiz-adv-x="1024" 
d="M840 1638v-2048h-650v2048h650zM682 1501h-338v-67h133v-76h-135v-68h340v68h-135v76h135v67zM547 1237h-205v-213h340v70h-135v143zM477 1167v-73h-67v73h67zM682 969h-340v-68h135v-76h-135v-67h205v143h135v68zM682 846h-68v-135h-272v-70h340v205zM682 596h-205v-115
h70v47h67v-96h-204v164h-68v-231h340v231zM682 242h-340v-232h340v232zM614 174v-96h-204v96h204zM682 -37h-340v-67h143l-143 -97v-67h340v67h-209l143 97h66v67z" />
    <glyph glyph-name=".null" horiz-adv-x="0" 
 />
    <glyph glyph-name="nonmarkingreturn" horiz-adv-x="682" 
 />
    <glyph glyph-name="space" unicode=" " horiz-adv-x="542" 
 />
    <glyph glyph-name="exclam" unicode="!" horiz-adv-x="342" 
d="M272 410h-200v1024h200v-1024zM70 250v-250h200v250h-200z" />
    <glyph glyph-name="quotedbl" unicode="&#x22;" horiz-adv-x="542" 
d="M51 1434h172l-30 -363h-109zM319 1434h173l-31 -363h-109z" />
    <glyph glyph-name="numbersign" unicode="#" horiz-adv-x="1241" 
d="M1151 850h-197l-57 -266h197l-37 -181h-195l-65 -309h-201l66 309h-209l-66 -309h-201l66 309h-201l39 181h197l57 266h-199l41 180h195l63 309h201l-63 -309h209l63 309h201l-64 -309h199zM696 584l58 266h-209l-58 -266h209z" />
    <glyph glyph-name="dollar" unicode="$" horiz-adv-x="1064" 
d="M1014 414q0 -176 -114 -289.5t-294 -134.5v-94h-172v96q-167 31 -275 153.5t-108 292.5h195q0 -96 52 -163.5t136 -86.5v510q-59 19 -102 37t-90.5 49t-77 67.5t-49 92.5t-19.5 125q0 157 91.5 255t246.5 120v90h172v-90q159 -24 254.5 -134t95.5 -278h-194q0 79 -44 139
t-112 74v-411q40 -11 66 -19t64 -22t63 -26.5t57 -32.5t52.5 -41t42.5 -50.5t34.5 -62.5t20.5 -75.5t8 -90.5zM291 1073q0 -69 38.5 -112.5t104.5 -71.5v360q-62 -14 -102.5 -62.5t-40.5 -113.5zM606 178q95 9 154 72t59 164q0 50 -16.5 89t-48.5 66t-66 44.5t-82 33.5v-469
z" />
    <glyph glyph-name="percent" unicode="%" horiz-adv-x="1718" 
d="M395 668q-147 0 -245.5 106t-98.5 281t98.5 281t245.5 106q145 0 243.5 -106t98.5 -281t-98.5 -281t-243.5 -106zM334 0l850 1434h211l-850 -1434h-211zM397 825q82 0 132.5 63t50.5 167t-50.5 166.5t-132.5 62.5q-84 0 -135 -62.5t-51 -166.5t51 -167t135 -63zM1325 -10
q-147 0 -245.5 106t-98.5 281t98.5 281t245.5 106q145 0 243.5 -106t98.5 -281t-98.5 -281t-243.5 -106zM1327 147q82 0 132 63t50 167t-50 166.5t-132 62.5q-84 0 -135 -62.5t-51 -166.5t51 -167t135 -63z" />
    <glyph glyph-name="ampersand" unicode="&#x26;" horiz-adv-x="1181" 
d="M1083 307l-67 -67l114 -144l-141 -96l-94 121q-140 -137 -358 -137q-133 0 -243.5 55t-176.5 157t-66 232q0 156 76 259t201 147l-56 69q-98 125 -98 227q0 142 106 231t257 89q160 0 253 -94t93 -254h-187q0 74 -43 113.5t-116 39.5q-72 0 -117 -38.5t-45 -106.5
q0 -70 96 -192l418 -525l59 58zM537 178q66 0 130 24.5t107 67.5l-313 394q-100 -12 -154.5 -77t-54.5 -159q0 -113 79.5 -181.5t205.5 -68.5z" />
    <glyph glyph-name="quotesingle" unicode="'" horiz-adv-x="303" 
d="M66 1434h172l-31 -363h-109z" />
    <glyph glyph-name="parenleft" unicode="(" horiz-adv-x="579" 
d="M580 1509q-134 -158 -231 -423t-97 -535q0 -272 97 -537.5t231 -423.5h-224q-130 151 -217.5 416.5t-87.5 544.5q0 277 87.5 542t217.5 416h224z" />
    <glyph glyph-name="parenright" unicode=")" horiz-adv-x="579" 
d="M0 1509h223q130 -151 217.5 -416t87.5 -542q0 -279 -87.5 -544.5t-217.5 -416.5h-223q134 158 231 423.5t97 537.5q0 270 -97 535t-231 423z" />
    <glyph glyph-name="asterisk" unicode="*" horiz-adv-x="466" 
d="M233 1188l72 -94l70 49l-70 94l111 39l-31 76l-111 -37v119h-84v-121l-114 37l-25 -78l113 -37l-70 -96l72 -47z" />
    <glyph glyph-name="plus" unicode="+" horiz-adv-x="940" 
d="M889 635v-195h-318v-321h-200v321h-320v195h320v321h200v-321h318z" />
    <glyph glyph-name="comma" unicode="," horiz-adv-x="342" 
d="M23 -154q125 5 196.5 54t71.5 161v177h-201v-148v-38t-1.5 -32t-5.5 -32.5t-11.5 -23t-19.5 -22t-29 -12.5v-84z" />
    <glyph glyph-name="hyphen" unicode="-" horiz-adv-x="659" 
d="M608 629v-195h-557v195h557z" />
    <glyph glyph-name="period" unicode="." horiz-adv-x="303" 
d="M51 250v-250h201v250h-201z" />
    <glyph glyph-name="slash" unicode="/" horiz-adv-x="731" 
d="M711 1434h-209l-482 -1434h209z" />
    <glyph glyph-name="zero" unicode="0" horiz-adv-x="1193" 
d="M598 1452q163 0 287.5 -94.5t191 -261t66.5 -379.5t-66.5 -379.5t-191 -261t-287.5 -94.5t-288 94.5t-192 261t-67 379.5t67 379.5t192 261t288 94.5zM598 1257q-154 0 -250 -148t-96 -392t96.5 -392.5t249.5 -148.5q152 0 248 148.5t96 392.5t-96 392t-248 148z" />
    <glyph glyph-name="one" unicode="1" horiz-adv-x="571" 
d="M283 1434h200v-1434h-200v1153q-47 -38 -117.5 -59.5t-140.5 -26.5v193q50 5 103.5 23.5t101 59t53.5 91.5z" />
    <glyph glyph-name="two" unicode="2" horiz-adv-x="960" 
d="M51 0v55q0 112 36 208.5t93.5 164.5t126.5 128t138.5 112.5t127 104.5t93.5 116t36 135q0 95 -65.5 163t-159.5 68q-91 0 -158 -69.5t-67 -161.5h-201q0 177 124.5 301.5t301.5 124.5q176 0 301 -126t125 -300q0 -83 -30 -155.5t-79.5 -127.5t-110 -105.5t-124.5 -99
t-119.5 -97.5t-99 -112t-59.5 -132h628v-195h-858z" />
    <glyph glyph-name="three" unicode="3" horiz-adv-x="1009" 
d="M508 -14q-94 0 -180 31.5t-150 86.5t-102.5 135.5t-38.5 172.5h201q0 -101 79 -166.5t187 -65.5q123 0 195.5 73t72.5 196q0 129 -84.5 203.5t-218.5 74.5h-49l-2 166h43q91 0 155 51.5t64 136.5q0 79 -47 130t-125 51q-82 0 -130 -48t-48 -112h-201q0 151 110 249.5
t265 98.5q158 0 267.5 -92t109.5 -240q0 -203 -183 -305q128 -45 201.5 -142t73.5 -249q0 -124 -63 -224.5t-169.5 -156t-232.5 -55.5z" />
    <glyph glyph-name="four" unicode="4" horiz-adv-x="1103" 
d="M1073 543v-189h-180v-354h-201v354h-651v189l651 891h201v-891h180zM274 543h418v555z" />
    <glyph glyph-name="five" unicode="5" horiz-adv-x="1159" 
d="M580 -16q-229 0 -379 149t-150 379h201q0 -147 92 -240.5t238 -93.5t235.5 90t89.5 238t-92 236.5t-244 88.5q-114 0 -204 -69l-148 108l150 564h653v-195h-506l-61 -238q58 25 114 25q232 0 385.5 -146.5t153.5 -373.5q0 -230 -148.5 -376t-379.5 -146z" />
    <glyph glyph-name="six" unicode="6" horiz-adv-x="1159" 
d="M580 -16q-144 0 -265.5 69t-192.5 190.5t-71 268.5q0 154 69.5 312.5t180 282.5t251.5 213t279 114v-189q-111 -31 -220 -102.5t-179 -161.5q83 49 176 49q142 0 258 -73.5t179 -191.5t63 -253q0 -144 -70.5 -265.5t-192 -192t-265.5 -70.5zM582 178q135 0 230 97.5
t95 236.5q0 141 -93.5 237.5t-231.5 96.5t-233 -96.5t-97 -237.5q0 -139 96.5 -236.5t233.5 -97.5z" />
    <glyph glyph-name="seven" unicode="7" horiz-adv-x="1007" 
d="M27 1434h927v-185l-639 -1249h-206l641 1249h-723v185z" />
    <glyph glyph-name="eight" unicode="8" horiz-adv-x="1048" 
d="M524 -16q-203 0 -338 129t-135 315q0 117 56.5 214t154.5 155q-70 52 -108.5 125.5t-38.5 160.5q0 154 114 260.5t295 106.5q179 0 293.5 -106.5t114.5 -260.5q0 -86 -38.5 -160t-107.5 -124q98 -58 154.5 -155.5t56.5 -215.5q0 -186 -135 -315t-338 -129zM524 897
q92 0 146.5 49t54.5 131q0 80 -54.5 129t-146.5 49t-146 -49t-54 -129q0 -82 53.5 -131t146.5 -49zM522 178q116 0 191 72.5t75 183.5q0 113 -74.5 185.5t-191.5 72.5q-115 0 -189.5 -72.5t-74.5 -185.5q0 -111 74.5 -183.5t189.5 -72.5z" />
    <glyph glyph-name="nine" unicode="9" horiz-adv-x="1159" 
d="M410 -16l266 415q-42 -22 -96 -22q-144 0 -266 70.5t-192.5 192t-70.5 265.5q0 108 42 206t112.5 168.5t168.5 112.5t206 42q218 0 373 -155t155 -374q0 -166 -98 -307l-392 -614h-208zM578 571q139 0 234 97t95 237q0 138 -96.5 236t-232.5 98q-135 0 -230.5 -97.5
t-95.5 -236.5q0 -141 94 -237.5t232 -96.5z" />
    <glyph glyph-name="colon" unicode=":" horiz-adv-x="303" 
d="M51 1020v-250h201v250h-201zM51 250v-250h201v250h-201z" />
    <glyph glyph-name="semicolon" unicode=";" horiz-adv-x="344" 
d="M82 983v-250h201v250h-201zM14 -154q125 5 197 54t72 161v177h-201v-148v-32.5t-1 -28t-3.5 -28.5t-7.5 -23t-12 -21.5t-18 -14.5t-26 -12v-84z" />
    <glyph glyph-name="less" unicode="&#x3c;" horiz-adv-x="837" 
d="M51 496l735 -332v207l-495 223l495 223v207l-735 -332v-196z" />
    <glyph glyph-name="equal" unicode="=" horiz-adv-x="837" 
d="M786 897v-195h-735v195h735zM786 535v-195h-735v195h735z" />
    <glyph glyph-name="greater" unicode="&#x3e;" horiz-adv-x="837" 
d="M786 496v196l-735 332v-207l496 -223l-496 -223v-207z" />
    <glyph glyph-name="question" unicode="?" horiz-adv-x="1079" 
d="M387 358q0 108 24.5 188.5t63 126.5t85.5 80t94 59t85.5 52t63 69.5t24.5 102.5q0 104 -81.5 161.5t-210.5 57.5q-127 0 -210 -61t-83 -158h-201q0 125 68 220.5t179.5 144.5t246.5 49q101 0 190 -27t157 -78t107 -131t39 -178q0 -90 -24 -154.5t-62 -101t-84.5 -64.5
t-93 -55.5t-85.5 -62t-64 -95t-27 -145.5h-201zM385 0v223h201v-223h-201z" />
    <glyph glyph-name="at" unicode="@" horiz-adv-x="1523" 
d="M788 -16q-151 0 -287 57t-235 154.5t-157 233.5t-58 288t58 288t157 233.5t235 154.5t287 57t280 -52t217.5 -140.5t138 -209t49.5 -255.5q0 -116 -42.5 -213.5t-124.5 -157.5t-186 -60q-131 0 -190 119q-97 -119 -242 -119q-122 0 -190 77.5t-68 193.5q0 56 18.5 116.5
t55 118t86 103t118 73t144.5 27.5q102 0 162 -67l14 40h121l-123 -397q-22 -71 4.5 -124.5t99.5 -53.5q86 0 137.5 89t51.5 239q0 96 -39 184.5t-107.5 155.5t-169 107t-215.5 40q-154 0 -284 -75.5t-205.5 -206t-75.5 -285.5t75.5 -285.5t205.5 -206t284 -75.5
q196 0 347 116h237q-102 -131 -254.5 -206.5t-329.5 -75.5zM688 477q75 0 136 53.5t83 122.5l74 240q-40 63 -123 63q-88 0 -159.5 -49t-108.5 -122.5t-37 -151.5q0 -156 135 -156z" />
    <glyph glyph-name="A" unicode="A" horiz-adv-x="1306" 
d="M1100 0l-133 348h-627l-133 -348h-207l553 1434h201l553 -1434h-207zM408 535h491l-246 630z" />
    <glyph glyph-name="B" unicode="B" horiz-adv-x="1038" 
d="M725 782q128 -51 195 -145.5t67 -222.5q0 -183 -118 -298.5t-294 -115.5h-514v1434h418q187 0 292.5 -90.5t105.5 -249.5q0 -214 -152 -312zM479 1249h-217v-381h238q72 0 124 61.5t52 135.5q0 83 -48 133.5t-149 50.5zM573 184q92 0 152.5 75t60.5 185q0 94 -61 160
t-168 66h-295v-486h311z" />
    <glyph glyph-name="C" unicode="C" horiz-adv-x="1511" 
d="M788 -16q-151 0 -287.5 57t-235 154.5t-156.5 233.5t-58 288t58 288t156.5 233.5t235 154.5t287.5 57q229 0 411.5 -125.5t260.5 -327.5h-217q-68 118 -188.5 187t-266.5 69q-111 0 -210.5 -41.5t-171 -113t-113 -171t-41.5 -210.5q0 -148 70.5 -271.5t194 -194.5
t271.5 -71q143 0 261 66.5t190 179.5h217q-79 -199 -259.5 -320.5t-408.5 -121.5z" />
    <glyph glyph-name="D" unicode="D" horiz-adv-x="1269" 
d="M481 1434q152 0 288.5 -54.5t235.5 -149t156.5 -228t57.5 -285.5t-57.5 -285.5t-156.5 -228t-235.5 -149t-288.5 -54.5h-420v1434h420zM481 190q151 0 274 68t193 189t70 270t-70.5 269.5t-193 188.5t-273.5 68h-219v-1053h219z" />
    <glyph glyph-name="E" unicode="E" horiz-adv-x="956" 
d="M905 1239h-643v-391h565v-195h-565v-458h643v-195h-844v1434h844v-195z" />
    <glyph glyph-name="F" unicode="F" horiz-adv-x="956" 
d="M905 1239h-643v-391h565v-195h-565v-653h-201v1434h844v-195z" />
    <glyph glyph-name="G" unicode="G" horiz-adv-x="1572" 
d="M1522 674q-5 -131 -61 -255.5t-149.5 -221t-230.5 -155t-293 -58.5q-151 0 -287 57t-235 154.5t-157 233.5t-58 288t58 288t157 233.5t235 154.5t287 57q220 0 398 -115t264 -305h-225q-77 108 -188.5 165.5t-248.5 57.5q-229 0 -382.5 -153t-153.5 -383t153.5 -383.5
t382.5 -153.5q166 0 298 88.5t188 231.5h-367v174h615z" />
    <glyph glyph-name="H" unicode="H" horiz-adv-x="1187" 
d="M926 1434h200v-1434h-200v659h-664v-659h-201v1434h201v-588h664v588z" />
    <glyph glyph-name="I" unicode="I" horiz-adv-x="323" 
d="M262 0h-201v1434h201v-1434z" />
    <glyph glyph-name="J" unicode="J" horiz-adv-x="573" 
d="M61 -16v194q120 0 185 75t65 212v969h201v-969q0 -232 -124 -356.5t-327 -124.5z" />
    <glyph glyph-name="K" unicode="K" horiz-adv-x="1050" 
d="M1040 0h-225l-442 668l-111 -125v-543h-201v1434h201v-590l496 590h229l-491 -607z" />
    <glyph glyph-name="L" unicode="L" horiz-adv-x="915" 
d="M262 195h602v-195h-803v1434h201v-1239z" />
    <glyph glyph-name="M" unicode="M" horiz-adv-x="1585" 
d="M1323 1434h201v-1434h-201v983l-444 -983h-172l-445 983v-983h-201v1434h201l531 -1145z" />
    <glyph glyph-name="N" unicode="N" horiz-adv-x="1282" 
d="M1020 1434h201v-1434h-201l-758 1071v-1071h-201v1434h201l758 -1074v1074z" />
    <glyph glyph-name="O" unicode="O" horiz-adv-x="1576" 
d="M788 -16q-151 0 -287.5 57t-235 154.5t-156.5 233.5t-58 288t58 288t156.5 233.5t235 154.5t287.5 57q152 0 288.5 -57t235 -154.5t156.5 -233.5t58 -288t-58 -288t-156.5 -233.5t-235 -154.5t-288.5 -57zM788 180q149 0 272.5 71t194 194.5t70.5 271.5t-70.5 271
t-194 194t-272.5 71q-111 0 -210.5 -41.5t-171 -113t-113 -171t-41.5 -210.5q0 -148 70.5 -271.5t194 -194.5t271.5 -71z" />
    <glyph glyph-name="P" unicode="P" horiz-adv-x="1036" 
d="M61 0v1434h463q192 0 326.5 -128t134.5 -317q0 -126 -62 -232.5t-168 -168.5t-231 -62h-262v-526h-201zM262 707h262q115 0 187.5 81.5t72.5 200.5q0 117 -71.5 190.5t-188.5 73.5h-262v-546z" />
    <glyph glyph-name="Q" unicode="Q" horiz-adv-x="1576" 
d="M1288 -20l-108 114q-174 -110 -392 -110q-151 0 -287.5 57t-235 154.5t-156.5 233.5t-58 288t58 288t156.5 233.5t235 154.5t287.5 57q152 0 288.5 -57t235 -154.5t156.5 -233.5t58 -288q0 -142 -50 -270t-141 -226l105 -112zM788 180q145 0 263 70l-115 123l151 131
l115 -125q123 142 123 338q0 148 -70.5 271t-194 194t-272.5 71q-111 0 -210.5 -41.5t-171 -113t-113 -171t-41.5 -210.5q0 -148 70.5 -271.5t194 -194.5t271.5 -71z" />
    <glyph glyph-name="R" unicode="R" horiz-adv-x="1036" 
d="M61 0v1434h463q192 0 326.5 -128t134.5 -317q0 -173 -105.5 -295t-244.5 -149l317 -545h-217l-297 526h-176v-526h-201zM262 707h262q115 0 187.5 81.5t72.5 200.5q0 117 -71.5 190.5t-188.5 73.5h-262v-546z" />
    <glyph glyph-name="S" unicode="S" horiz-adv-x="1064" 
d="M1014 414q0 87 -24.5 154t-66 109t-95.5 72.5t-113 49t-118.5 34.5t-113.5 33.5t-95.5 41.5t-66 63.5t-24.5 93.5q0 86 62.5 138t166.5 52q107 0 168.5 -56.5t61.5 -166.5h200q0 191 -118.5 304.5t-311.5 113.5q-195 0 -312.5 -101t-117.5 -280q0 -80 24.5 -142t66 -101
t95.5 -68.5t113.5 -49t118.5 -37.5t113 -38.5t95.5 -47.5t66 -70.5t24.5 -100.5q0 -117 -75 -176.5t-199 -59.5q-129 0 -208 70.5t-79 189.5h-201q0 -129 64.5 -233.5t174.5 -162.5t242 -58q205 0 343.5 118.5t138.5 311.5z" />
    <glyph glyph-name="T" unicode="T" horiz-adv-x="1044" 
d="M1024 1434v-195h-401v-1239h-201v1239h-402v195h1004z" />
    <glyph glyph-name="U" unicode="U" horiz-adv-x="1138" 
d="M61 1434h201v-949q0 -146 87.5 -226.5t223.5 -80.5q134 0 219 80.5t85 226.5v949h200v-949q0 -100 -27.5 -183.5t-74.5 -141.5t-111.5 -98.5t-137.5 -59t-153 -18.5t-154 18.5t-139.5 59t-114 98.5t-76.5 141.5t-28 183.5v949z" />
    <glyph glyph-name="V" unicode="V" horiz-adv-x="1306" 
d="M1307 1434h-222l-432 -1135l-432 1135h-221l553 -1434h201z" />
    <glyph glyph-name="W" unicode="W" horiz-adv-x="2027" 
d="M1815 1434h213l-447 -1434h-201l-366 1096l-371 -1096h-201l-442 1434h213l330 -1096l381 1096h180l377 -1096z" />
    <glyph glyph-name="X" unicode="X" horiz-adv-x="1241" 
d="M1241 0h-227l-393 559l-394 -559h-227l510 735l-479 699h227l363 -516l364 516h227l-479 -699z" />
    <glyph glyph-name="Y" unicode="Y" horiz-adv-x="1189" 
d="M967 1434h223l-496 -777v-657h-200v657l-494 777h223l371 -574z" />
    <glyph glyph-name="Z" unicode="Z" horiz-adv-x="1191" 
d="M1130 1434v-195l-815 -1044h813v-195h-1067v195l813 1044h-770v195h1026z" />
    <glyph glyph-name="bracketleft" unicode="[" horiz-adv-x="495" 
d="M475 1315h-192v-1530h192v-195h-393v1919h393v-194z" />
    <glyph glyph-name="backslash" unicode="\" horiz-adv-x="790" 
d="M49 1434l481 -1434h209l-481 1434h-209z" />
    <glyph glyph-name="bracketright" unicode="]" horiz-adv-x="495" 
d="M27 1315v194h393v-1919h-393v195h192v1530h-192z" />
    <glyph glyph-name="asciicircum" unicode="^" horiz-adv-x="962" 
d="M580 1434h-197l-332 -736h207l223 496l224 -496h206z" />
    <glyph glyph-name="underscore" unicode="_" horiz-adv-x="819" 
d="M819 -113v-194h-819v194h819z" />
    <glyph glyph-name="grave" unicode="`" horiz-adv-x="307" 
d="M178 1782l121 -203h-145l-146 203h170z" />
    <glyph glyph-name="a" unicode="a" 
d="M580 -16q-143 0 -265 70.5t-193 192t-71 265.5t71 265.5t193 192t265 70.5t264 -70.5t191.5 -192t70.5 -265.5v-512h-201v162q-38 -77 -128 -127.5t-197 -50.5zM582 178q139 0 232 97t93 237q0 141 -92.5 237.5t-232.5 96.5t-235 -97t-95 -237t95.5 -237t234.5 -97z" />
    <glyph glyph-name="b" unicode="b" 
d="M61 512v922h203v-541q124 147 324 147q143 0 264.5 -70.5t192.5 -192t71 -265.5t-71 -265.5t-192.5 -192t-264.5 -70.5t-264.5 70.5t-192 192t-70.5 265.5zM588 846q-138 0 -233 -97t-95 -237t94.5 -237t233.5 -97q140 0 233.5 96.5t93.5 237.5q0 140 -94 237t-233 97z
" />
    <glyph glyph-name="c" unicode="c" horiz-adv-x="1120" 
d="M580 -16q-144 0 -266 70.5t-192.5 192t-70.5 265.5t70.5 265.5t192.5 192t266 70.5q166 0 299 -94t188 -244h-215q-44 66 -114.5 105t-155.5 39q-140 0 -235 -97t-95 -237t95.5 -237t234.5 -97q84 0 153 37t113 102h219q-56 -149 -188.5 -241t-298.5 -92z" />
    <glyph glyph-name="d" unicode="d" 
d="M1106 512q0 -144 -70.5 -265.5t-191.5 -192t-264 -70.5t-265 70.5t-193 192t-71 265.5t71 265.5t193 192t265 70.5q199 0 323 -147v541h203v-922zM580 846q-139 0 -233.5 -97t-94.5 -237t94 -237t234 -97q139 0 233 97t94 237t-94.5 237t-232.5 97z" />
    <glyph glyph-name="e" unicode="e" horiz-adv-x="1150" 
d="M51 510q0 143 68 264.5t188 193.5t264 72q99 0 192.5 -35.5t167 -100t119.5 -162t50 -212.5q0 -52 -6 -92h-828q12 -115 96.5 -187.5t208.5 -72.5q150 0 246 103l240 -2q-67 -133 -196 -214t-283 -81q-145 0 -266.5 70.5t-191 191.5t-69.5 264zM266 602h619
q-28 106 -113 175t-194 69q-117 0 -200 -68t-112 -176z" />
    <glyph glyph-name="f" unicode="f" horiz-adv-x="636" 
d="M195 0v829h-154v195h158q17 191 124 300t293 116v-195q-93 -9 -152 -66t-65 -155h217v-195h-221v-829h-200z" />
    <glyph glyph-name="g" unicode="g" horiz-adv-x="1169" 
d="M580 -410q-159 0 -290.5 87.5t-193.5 230.5h242q96 -123 242 -123q135 0 229 80.5t94 206.5v47q-132 -135 -323 -135q-144 0 -266 70.5t-192.5 192t-70.5 265.5t70.5 265.5t192.5 192t266 70.5t265.5 -70.5t192 -192t70.5 -265.5v-393q0 -144 -70.5 -266t-192 -192.5
t-265.5 -70.5zM582 178q139 0 232 97t93 237q0 141 -92.5 237.5t-232.5 96.5t-235 -97t-95 -237t95.5 -237t234.5 -97z" />
    <glyph glyph-name="h" unicode="h" horiz-adv-x="1024" 
d="M512 1040q100 0 181.5 -30.5t142 -90.5t94 -157t33.5 -223v-539h-201v539q0 307 -250 307q-122 0 -186 -75.5t-64 -227.5v-543h-201v1434h201v-502q87 108 250 108z" />
    <glyph glyph-name="i" unicode="i" horiz-adv-x="366" 
d="M184 1165q-52 0 -87.5 35.5t-35.5 87.5t35.5 87.5t87.5 35.5q51 0 86 -35.5t35 -87.5t-35 -87.5t-86 -35.5zM84 0v1024h201v-1024h-201z" />
    <glyph glyph-name="j" unicode="j" horiz-adv-x="333" 
d="M168 1165q-52 0 -87.5 35.5t-35.5 87.5t35.5 87.5t87.5 35.5q51 0 86 -35.5t35 -87.5t-35 -87.5t-86 -35.5zM-139 -410v197q207 21 207 291v948h200v-948q0 -234 -109.5 -355.5t-297.5 -132.5z" />
    <glyph glyph-name="k" unicode="k" horiz-adv-x="985" 
d="M61 0v1434h201v-799l400 389h256l-394 -391l461 -633h-223l-375 506l-125 -121v-385h-201z" />
    <glyph glyph-name="l" unicode="l" horiz-adv-x="323" 
d="M262 0h-201v1434h201v-1434z" />
    <glyph glyph-name="m" unicode="m" horiz-adv-x="1699" 
d="M1194 1040q201 0 322.5 -126.5t121.5 -374.5v-539h-200v539q0 307 -244 307q-118 0 -181 -76.5t-63 -230.5v-539h-200v539q0 307 -244 307q-118 0 -181 -76.5t-63 -230.5v-539h-201v539q0 248 122 374.5t323 126.5q114 0 204 -48t140 -142q50 94 140 142t204 48z" />
    <glyph glyph-name="n" unicode="n" horiz-adv-x="1024" 
d="M963 0v539q0 126 -33.5 223t-94 157t-142 90.5t-181.5 30.5t-181.5 -30.5t-142 -90.5t-94 -157t-33.5 -223v-539h201v539q0 307 250 307t250 -307v-539h201z" />
    <glyph glyph-name="o" unicode="o" horiz-adv-x="1159" 
d="M580 1040q144 0 265.5 -70.5t192 -192t70.5 -265.5t-70.5 -265.5t-192 -192t-265.5 -70.5t-266 70.5t-192.5 192t-70.5 265.5t70.5 265.5t192.5 192t266 70.5zM582 846q-140 0 -235 -97t-95 -237t95.5 -237t234.5 -97t232 97t93 237q0 141 -92.5 237.5t-232.5 96.5z" />
    <glyph glyph-name="p" unicode="p" 
d="M61 512q0 144 70.5 265.5t192 192t264.5 70.5t264.5 -70.5t192.5 -192t71 -265.5t-71 -265.5t-192.5 -192t-264.5 -70.5q-200 0 -324 147v-541h-203v922zM588 178q139 0 233 97t94 237q0 141 -93.5 237.5t-233.5 96.5q-139 0 -233.5 -97t-94.5 -237t95 -237t233 -97z" />
    <glyph glyph-name="q" unicode="q" 
d="M1106 512v-922h-203v541q-124 -147 -323 -147q-143 0 -265 70.5t-193 192t-71 265.5t71 265.5t193 192t265 70.5t264 -70.5t191.5 -192t70.5 -265.5zM580 178q138 0 232.5 97t94.5 237t-94 237t-233 97q-140 0 -234 -97t-94 -237t94.5 -237t233.5 -97z" />
    <glyph glyph-name="r" unicode="r" horiz-adv-x="573" 
d="M61 0v535q0 245 118 369t313 124h20v-194h-20q-110 0 -170 -74t-60 -225v-535h-201z" />
    <glyph glyph-name="s" unicode="s" horiz-adv-x="884" 
d="M442 -16q-108 0 -197.5 36.5t-146.5 111t-57 175.5h192q0 -65 60 -104t153 -39t145 37t52 98q0 37 -20.5 63t-54.5 41.5t-78 27t-92.5 22t-97 23t-92 34t-77.5 51.5t-54 78.5t-20 112.5q0 127 109 207.5t270 80.5q164 0 269.5 -81.5t105.5 -225.5h-193q0 58 -54 93.5
t-132 35.5q-75 0 -124.5 -34.5t-49.5 -90.5q0 -36 25 -61.5t66 -38.5t93 -26t106.5 -23.5t107.5 -33t94 -52.5t67 -83t27 -124q1 -151 -110.5 -231t-291.5 -80z" />
    <glyph glyph-name="t" unicode="t" horiz-adv-x="626" 
d="M606 829h-221v-344q0 -144 55 -216t166 -81v-194q-94 4 -169.5 35t-132.5 89.5t-88 151t-32 213.5v346h-151v195h151v367h201v-367h221v-195z" />
    <glyph glyph-name="u" unicode="u" horiz-adv-x="1024" 
d="M963 1024h-201v-539q0 -307 -250 -307t-250 307v539h-201v-539q0 -126 33.5 -223t94 -157t142 -90.5t181.5 -30.5t181.5 30.5t142 90.5t94 157t33.5 223v539z" />
    <glyph glyph-name="v" unicode="v" horiz-adv-x="1026" 
d="M412 0l-412 1024h211l301 -764l303 764h211l-414 -1024h-200z" />
    <glyph glyph-name="w" unicode="w" horiz-adv-x="1536" 
d="M1331 1024h205l-338 -1024h-201l-229 719l-229 -719h-201l-338 1024h205l233 -760l230 760h200l230 -760z" />
    <glyph glyph-name="x" unicode="x" horiz-adv-x="989" 
d="M989 0h-229l-264 367l-265 -367h-231l381 532l-350 492h227l236 -328l239 328h228l-351 -492z" />
    <glyph glyph-name="y" unicode="y" horiz-adv-x="1024" 
d="M512 -410q-154 0 -268 86.5t-168 231.5h225q73 -123 211 -123q115 0 181.5 68t66.5 174v55q-43 -46 -108 -72t-140 -26q-100 0 -181.5 30.5t-142 90.5t-94 157t-33.5 223v539h201v-539q0 -307 250 -307q121 0 185.5 74t64.5 221v551h201v-973q0 -198 -127.5 -329.5
t-323.5 -131.5z" />
    <glyph glyph-name="z" unicode="z" horiz-adv-x="903" 
d="M295 195h567v-195h-821v195l547 634h-518v195h774v-195z" />
    <glyph glyph-name="braceleft" unicode="{" horiz-adv-x="579" 
d="M61 522q109 -3 109 -217q0 -54 -5 -146t-5 -118q0 -95 32 -174t77 -127t103 -83t100 -50t77 -21v56q-4 1 -11 4t-26.5 15.5t-37.5 29.5t-39.5 49t-37 71.5t-26.5 99.5t-11 130q0 78 5.5 154.5t5.5 111.5q0 83 -24 151t-75 91q51 23 75 91t24 151q0 35 -5.5 111.5
t-5.5 154.5q0 70 10.5 130t27 100t36.5 71.5t40.5 49t37 29t26.5 15.5l11 4v55q-35 -6 -77 -20.5t-100 -50t-103 -83t-77 -126.5t-32 -174q0 -26 5 -118t5 -146q0 -212 -109 -215v-56z" />
    <glyph glyph-name="bar" unicode="|" horiz-adv-x="323" 
d="M262 -246h-201v1782h201v-1782z" />
    <glyph glyph-name="braceright" unicode="}" horiz-adv-x="579" 
d="M518 524v56q-108 3 -108 215q0 54 5 146t5 118q0 95 -32 174t-77 126.5t-103 83t-100 50t-77 20.5v-55q8 -2 20.5 -8t45 -34t57 -67.5t45 -116.5t20.5 -173q0 -78 -5 -154.5t-5 -111.5q0 -84 23.5 -151.5t74.5 -90.5q-51 -23 -74.5 -90.5t-23.5 -151.5q0 -35 5 -111.5
t5 -154.5q0 -70 -10.5 -130t-27 -100t-36.5 -71.5t-40 -49t-36.5 -29t-26.5 -15.5l-11 -4v-56q35 6 77 21t100 50t103 83t77 127t32 174q0 26 -5 118t-5 146q0 214 108 217z" />
    <glyph glyph-name="asciitilde" unicode="~" horiz-adv-x="884" 
d="M580 397q-43 0 -82.5 17.5t-64.5 38t-60 38t-70 17.5q-41 0 -68.5 -21.5t-56.5 -62.5l-127 102q44 80 110.5 131.5t141.5 51.5q43 0 84.5 -17.5t69 -38t61 -38t62.5 -17.5q41 0 68.5 21.5t56.5 62.5l129 -102q-46 -82 -111.5 -132.5t-142.5 -50.5z" />
    <glyph glyph-name="exclamdown" unicode="&#xa1;" horiz-adv-x="342" 
d="M70 1184h200v250h-200v-250zM272 1024v-1024h-200v1024h200z" />
    <glyph glyph-name="cent" unicode="&#xa2;" horiz-adv-x="1099" 
d="M647 184q129 25 201 133h219q-50 -132 -163 -221t-257 -108v-113h-186v121q-179 42 -294.5 185.5t-115.5 330.5t115.5 330.5t294.5 185.5v123h186v-115q145 -19 258.5 -110t161.5 -224h-215q-77 115 -205 138v-656zM252 512q0 -107 57.5 -191.5t151.5 -119.5v622
q-94 -35 -151.5 -119.5t-57.5 -191.5z" />
    <glyph glyph-name="sterling" unicode="&#xa3;" horiz-adv-x="1003" 
d="M694 -16q-57 0 -171 28.5t-173 28.5q-138 0 -241 -41v55q129 221 129 459q0 32 -7 64h-180v194h113q-34 77 -49 133t-15 119q0 174 125 300t301 126q177 0 301.5 -124.5t124.5 -301.5h-200q0 93 -67 162t-159 69q-95 0 -160 -67.5t-65 -163.5q0 -47 12 -95.5t21.5 -71.5
t36.5 -85h260v-194h-197q4 -39 4 -113q-4 -117 -49 -217q33 -19 41 -27q37 0 116.5 -21.5t147.5 -21.5q111 0 240 68v-201q-125 -61 -240 -61z" />
    <glyph glyph-name="currency" unicode="&#xa4;" horiz-adv-x="1169" 
d="M1114 719q0 -186 -115 -330l97 -96l-142 -141l-106 108q-123 -74 -264 -74q-142 0 -265 74l-106 -108l-141 141l96 96q-115 144 -115 330q0 182 115 323l-96 97l141 141l104 -104q123 71 267 71q143 0 266 -71l104 104l142 -141l-97 -97q115 -141 115 -323zM258 717
q0 -138 97 -236t233 -98q135 0 230 97.5t95 236.5q0 141 -93.5 237.5t-231.5 96.5q-139 0 -234.5 -97t-95.5 -237z" />
    <glyph glyph-name="yen" unicode="&#xa5;" horiz-adv-x="1189" 
d="M1190 1434l-488 -766h263v-138h-271v-110h271v-139h-271v-281h-200v281h-267v139h267v110h-267v138h258l-485 766h223l371 -574l373 574h223z" />
    <glyph glyph-name="brokenbar" unicode="&#xa6;" horiz-adv-x="323" 
d="M262 842h-201v471h201v-471zM262 -41h-201v471h201v-471z" />
    <glyph glyph-name="section" unicode="&#xa7;" horiz-adv-x="1226" 
d="M621 -410q-85 0 -163.5 22.5t-142.5 66t-104 114t-43 158.5l199 -2q3 -53 40.5 -91.5t90 -55.5t110.5 -17q106 0 173 49.5t67 132.5q0 59 -34 106t-90.5 77.5t-128 60t-146 53.5t-146 58.5t-128 74t-90.5 100.5t-34 138q0 101 53 179.5t142 119.5q-68 75 -68 180
q0 104 56 181.5t146 116t198 38.5q198 0 304.5 -94t112.5 -236l-207 2q-10 61 -70.5 97t-137.5 36q-87 0 -144 -41.5t-57 -113.5q0 -49 27.5 -87t73.5 -63.5t105.5 -47.5t126 -42.5t132.5 -44t125.5 -57.5t105.5 -77t73.5 -108.5t27.5 -146.5q0 -101 -47 -178t-128 -123
q48 -70 48 -170q0 -111 -61 -196t-157.5 -127t-209.5 -42zM874 256q103 65 103 170q0 70 -38 117t-106.5 75.5t-143.5 51t-170.5 61t-166.5 88.5q-48 -24 -77 -67t-29 -93q0 -60 29 -102.5t75 -66.5t112 -48t131.5 -44t143 -57t137.5 -85z" />
    <glyph glyph-name="dieresis" unicode="&#xa8;" horiz-adv-x="536" 
d="M119 1550q-40 0 -67 27.5t-27 67.5q0 41 27 68.5t67 27.5q41 0 68.5 -27.5t27.5 -68.5q0 -40 -27.5 -67.5t-68.5 -27.5zM416 1550q-40 0 -67 27.5t-27 67.5q0 41 27 68.5t67 27.5q41 0 68.5 -27.5t27.5 -68.5q0 -40 -27.5 -67.5t-68.5 -27.5z" />
    <glyph glyph-name="copyright" unicode="&#xa9;" horiz-adv-x="1576" 
d="M788 -16q-151 0 -287 57t-235 154.5t-157 233.5t-58 288t58 288t157 233.5t235 154.5t287 57q152 0 288.5 -57t235 -154.5t156.5 -233.5t58 -288t-58 -288t-156.5 -233.5t-235 -154.5t-288.5 -57zM788 150q155 0 284.5 75t204.5 205.5t75 286.5t-75 286.5t-204.5 205.5
t-284.5 75t-285 -75.5t-205 -206t-75 -285.5t75 -285.5t205 -206t285 -75.5zM791 340q-163 0 -270 106t-107 271q0 161 113 269t264 108q126 0 211 -65t126 -159h-147q-70 91 -188 91q-103 0 -171.5 -68.5t-68.5 -173.5q0 -108 67.5 -177t172.5 -69q115 0 186 92h154
q-41 -93 -127.5 -159t-214.5 -66z" />
    <glyph glyph-name="ordfeminine" unicode="&#xaa;" horiz-adv-x="899" 
d="M838 1057v-385h-172v102q-73 -110 -222 -110q-163 0 -278 115t-115 278t115 278t278 115t278.5 -115t115.5 -278zM444 856q83 0 140 58t57 143t-57 142.5t-140 57.5t-139.5 -57.5t-56.5 -142.5t56.5 -143t139.5 -58z" />
    <glyph glyph-name="guillemotleft" unicode="&#xab;" horiz-adv-x="847" 
d="M387 184l-336 326v94l336 326v-191l-194 -182l194 -182v-191zM797 184l-336 326v94l336 326v-191l-195 -182l195 -182v-191z" />
    <glyph glyph-name="logicalnot" unicode="&#xac;" horiz-adv-x="1105" 
d="M51 715h1004v-490h-201v295h-803v195z" />
    <glyph glyph-name="registered" unicode="&#xae;" horiz-adv-x="1576" 
d="M788 -16q-151 0 -287 57t-235 154.5t-157 233.5t-58 288t58 288t157 233.5t235 154.5t287 57q152 0 288.5 -57t235 -154.5t156.5 -233.5t58 -288t-58 -288t-156.5 -233.5t-235 -154.5t-288.5 -57zM788 150q116 0 220.5 44.5t180 120.5t119.5 181t44 221t-44 221
t-119.5 181t-180 120.5t-220.5 44.5q-155 0 -285 -75.5t-205 -206t-75 -285.5t75 -285.5t205 -206t285 -75.5zM545 317v805h278q118 0 194.5 -67.5t76.5 -182.5q0 -190 -172 -245l176 -310h-150l-164 299h-102v-299h-137zM682 737h147q65 0 101.5 34t36.5 101
q0 64 -36.5 95.5t-101.5 31.5h-147v-262z" />
    <glyph glyph-name="macron" unicode="&#xaf;" horiz-adv-x="598" 
d="M547 1636v-80h-496v80h496z" />
    <glyph glyph-name="degree" unicode="&#xb0;" horiz-adv-x="583" 
d="M293 952q-100 0 -171 71t-71 171q0 98 71 169t171 71q98 0 168.5 -71t70.5 -169q0 -100 -70.5 -171t-168.5 -71zM293 1075q47 0 81 35t34 84q0 47 -34 82t-81 35q-49 0 -83 -34.5t-34 -82.5q0 -50 34 -84.5t83 -34.5z" />
    <glyph glyph-name="plusminus" unicode="&#xb1;" horiz-adv-x="940" 
d="M889 815v-194h-318v-322h-200v322h-320v194h320v322h200v-322h318zM51 0v195h838v-195h-838z" />
    <glyph glyph-name="acute" unicode="&#xb4;" horiz-adv-x="307" 
d="M129 1761h170l-145 -202h-146z" />
    <glyph glyph-name="paragraph" unicode="&#xb6;" horiz-adv-x="1142" 
d="M1069 1434v-1434h-160v1280h-155v-1280h-160v350q-147 0 -272 73t-198 198t-73 272q0 146 73 270.5t198 197.5t272 73h475z" />
    <glyph glyph-name="periodcentered" unicode="&#xb7;" horiz-adv-x="303" 
d="M51 809v-250h201v250h-201z" />
    <glyph glyph-name="cedilla" unicode="&#xb8;" horiz-adv-x="397" 
d="M199 -362q-62 0 -105 43t-43 104h80q0 -29 19.5 -48.5t48.5 -19.5t48 19.5t19 48.5t-19 48.5t-48 19.5q-18 0 -33 -9l-68 62l45 94h84l-37 -70q4 2 15 2q61 0 101 -42.5t40 -104.5q0 -61 -43 -104t-104 -43z" />
    <glyph glyph-name="ordmasculine" unicode="&#xba;" horiz-adv-x="888" 
d="M444 664q-163 0 -278 115t-115 278t115 278t278 115t278.5 -115t115.5 -278t-115.5 -278t-278.5 -115zM444 856q83 0 140 58t57 143t-57 142.5t-140 57.5t-139.5 -57.5t-56.5 -142.5t56.5 -143t139.5 -58z" />
    <glyph glyph-name="guillemotright" unicode="&#xbb;" horiz-adv-x="847" 
d="M51 184v191l195 182l-195 182v191l336 -326v-94zM461 184v191l194 182l-194 182v191l336 -326v-94z" />
    <glyph glyph-name="onequarter" unicode="&#xbc;" horiz-adv-x="1370" 
d="M252 1434h158v-766h-158v540q-52 -43 -115 -59l-51 141q128 55 166 144zM1204 1434h-211l-850 -1434h211zM1296 301v-137h-79v-164h-146v164h-344v137l344 465h146v-465h79zM885 301h186v248z" />
    <glyph glyph-name="onehalf" unicode="&#xbd;" horiz-adv-x="1474" 
d="M252 1434h158v-766h-158v540q-52 -43 -115 -59l-51 141q128 55 166 144zM1206 1434h-211l-850 -1434h211zM868 0v88q0 59 41 112.5t99.5 94t117 78t99.5 79.5t41 83q0 43 -32.5 66.5t-90.5 23.5q-57 0 -90 -28.5t-33 -76.5h-156q0 117 80 186.5t199 69.5q120 0 198 -66
t78 -175q0 -55 -26.5 -104t-66 -81.5t-85.5 -64t-85.5 -54t-66 -49t-26.5 -51.5h358v-131h-553z" />
    <glyph glyph-name="threequarters" unicode="&#xbe;" horiz-adv-x="1482" 
d="M317 666q-122 0 -194 64t-72 181h154q0 -49 30.5 -77.5t81.5 -28.5q54 0 85.5 31.5t31.5 85.5q0 58 -37.5 89t-99.5 31h-8v91h8q117 0 117 90q0 38 -23 60t-65 22q-44 0 -68.5 -22.5t-24.5 -63.5h-153q0 101 67 161t170 60q100 0 169 -47.5t69 -135.5q0 -117 -94 -155
q127 -45 127 -195q0 -115 -73.5 -178t-197.5 -63zM1313 1434h-211l-850 -1434h211zM1411 301v-137h-80v-164h-145v164h-344v137l344 465h145v-465h80zM999 301h187v248z" />
    <glyph glyph-name="questiondown" unicode="&#xbf;" horiz-adv-x="1079" 
d="M694 1434v-224h-200v224h200zM692 1075q0 -108 -24.5 -188.5t-63 -126.5t-85.5 -80t-94 -59t-85.5 -52t-63 -69.5t-24.5 -102.5q0 -104 82 -161.5t211 -57.5q127 0 210 61t83 158h200q0 -125 -67.5 -220.5t-179 -144t-246.5 -48.5q-102 0 -190.5 27t-156.5 78
t-107.5 130.5t-39.5 177.5q0 90 24 154.5t62 101t84.5 64.5t93.5 55.5t86 62t64 95t27 145.5h200z" />
    <glyph glyph-name="Agrave" unicode="&#xc0;" horiz-adv-x="1306" 
d="M612 1759l121 -203h-145l-146 203h170zM1100 0l-133 348h-627l-133 -348h-207l553 1434h201l553 -1434h-207zM408 535h491l-246 630z" />
    <glyph glyph-name="Aacute" unicode="&#xc1;" horiz-adv-x="1306" 
d="M707 1761h170l-146 -202h-145zM1100 0l-133 348h-627l-133 -348h-207l553 1434h201l553 -1434h-207zM408 535h491l-246 630z" />
    <glyph glyph-name="Acircumflex" unicode="&#xc2;" horiz-adv-x="1306" 
d="M379 1556l217 189h119l215 -189h-154l-121 97l-123 -97h-153zM1100 0l-133 348h-627l-133 -348h-207l553 1434h201l553 -1434h-207zM408 535h491l-246 630z" />
    <glyph glyph-name="Atilde" unicode="&#xc3;" horiz-adv-x="1306" 
d="M362 1552q0 51 16.5 89t43.5 58.5t56 30t59 9.5q43 0 76.5 -15t51 -33.5t43.5 -33.5t56 -15q35 0 61.5 27t26.5 72h96q0 -97 -53.5 -143t-120.5 -46q-35 0 -64 10t-48.5 24t-36.5 28.5t-37.5 24.5t-42.5 10q-35 0 -61.5 -26t-26.5 -71h-95zM1100 0l-133 348h-627
l-133 -348h-207l553 1434h201l553 -1434h-207zM408 535h491l-246 630z" />
    <glyph glyph-name="Adieresis" unicode="&#xc4;" horiz-adv-x="1306" 
d="M504 1550q-40 0 -67 27.5t-27 67.5q0 41 27 68.5t67 27.5q41 0 68.5 -27.5t27.5 -68.5q0 -40 -27.5 -67.5t-68.5 -27.5zM801 1550q-40 0 -67 27.5t-27 67.5q0 41 27 68.5t67 27.5q41 0 68.5 -27.5t27.5 -68.5q0 -40 -27.5 -67.5t-68.5 -27.5zM1100 0l-133 348h-627
l-133 -348h-207l553 1434h201l553 -1434h-207zM408 535h491l-246 630z" />
    <glyph glyph-name="Aring" unicode="&#xc5;" horiz-adv-x="1306" 
d="M653 1800q55 0 93 -38t38 -93t-38 -93t-93 -38t-93 38t-38 93t38 93t93 38zM653 1726q-26 0 -41.5 -16t-15.5 -41q0 -26 16 -41.5t41 -15.5q26 0 42 16t16 41q0 26 -16.5 41.5t-41.5 15.5zM1100 0l-133 348h-627l-133 -348h-207l553 1434h201l553 -1434h-207zM408 535
h491l-246 630z" />
    <glyph glyph-name="AE" unicode="&#xc6;" horiz-adv-x="1884" 
d="M1833 1239h-684v-391h606v-195h-606v-458h684v-195h-885v354h-483l-227 -354h-238l913 1434h920v-195zM588 549h360v571z" />
    <glyph glyph-name="Ccedilla" unicode="&#xc7;" horiz-adv-x="1511" 
d="M788 180q143 0 261 66.5t190 179.5h217q-74 -187 -238 -306t-374 -134l-35 -68q4 2 14 2q61 0 101.5 -42.5t40.5 -104.5q0 -61 -43.5 -104.5t-104.5 -43.5t-104 43t-43 105h80q0 -29 19 -48.5t48 -19.5t48.5 19.5t19.5 48.5t-19.5 48t-48.5 19q-20 0 -33 -8l-67 62l43 90
q-195 7 -357.5 105.5t-257 264.5t-94.5 363q0 152 58 288t156.5 233.5t235 154.5t287.5 57q229 0 411.5 -125.5t260.5 -327.5h-217q-68 118 -188.5 187t-266.5 69q-111 0 -210.5 -41.5t-171 -113t-113 -171t-41.5 -210.5q0 -148 70.5 -271.5t194 -194.5t271.5 -71z" />
    <glyph glyph-name="Egrave" unicode="&#xc8;" horiz-adv-x="956" 
d="M494 1761l120 -202h-145l-145 202h170zM905 1239h-643v-391h565v-195h-565v-458h643v-195h-844v1434h844v-195z" />
    <glyph glyph-name="Eacute" unicode="&#xc9;" horiz-adv-x="956" 
d="M502 1761h170l-146 -202h-145zM905 1239h-643v-391h565v-195h-565v-458h643v-195h-844v1434h844v-195z" />
    <glyph glyph-name="Ecircumflex" unicode="&#xca;" horiz-adv-x="956" 
d="M209 1559l217 188h119l215 -188h-154l-121 96l-123 -96h-153zM905 1239h-643v-391h565v-195h-565v-458h643v-195h-844v1434h844v-195z" />
    <glyph glyph-name="Edieresis" unicode="&#xcb;" horiz-adv-x="956" 
d="M334 1550q-40 0 -67 27.5t-27 67.5q0 41 27 68.5t67 27.5q41 0 68.5 -27.5t27.5 -68.5q0 -40 -27.5 -67.5t-68.5 -27.5zM631 1550q-40 0 -67 27.5t-27 67.5q0 41 27 68.5t67 27.5q41 0 68.5 -27.5t27.5 -68.5q0 -40 -27.5 -67.5t-68.5 -27.5zM905 1239h-643v-391h565
v-195h-565v-458h643v-195h-844v1434h844v-195z" />
    <glyph glyph-name="Igrave" unicode="&#xcc;" horiz-adv-x="323" 
d="M125 1767l121 -202h-146l-145 202h170zM262 0h-201v1434h201v-1434z" />
    <glyph glyph-name="Iacute" unicode="&#xcd;" horiz-adv-x="323" 
d="M207 1761h170l-146 -202h-145zM262 0h-201v1434h201v-1434z" />
    <glyph glyph-name="Icircumflex" unicode="&#xce;" horiz-adv-x="323" 
d="M-111 1538l217 188h119l215 -188h-153l-121 96l-123 -96h-154zM262 0h-201v1434h201v-1434z" />
    <glyph glyph-name="Idieresis" unicode="&#xcf;" horiz-adv-x="323" 
d="M12 1550q-40 0 -67 27.5t-27 67.5q0 41 27 68.5t67 27.5q41 0 69 -27.5t28 -68.5q0 -40 -28 -67.5t-69 -27.5zM309 1550q-40 0 -67 27.5t-27 67.5q0 41 27 68.5t67 27.5q41 0 69 -27.5t28 -68.5q0 -40 -28 -67.5t-69 -27.5zM262 0h-201v1434h201v-1434z" />
    <glyph glyph-name="Eth" unicode="&#xd0;" horiz-adv-x="1298" 
d="M510 1434q204 0 372.5 -92.5t266.5 -257.5t98 -367t-98 -367t-266.5 -257.5t-372.5 -92.5h-420v596h-90v186h90v652h420zM510 190q151 0 274 68t193 189t70 270t-70.5 269.5t-193 188.5t-273.5 68h-219v-461h323v-186h-323v-406h219z" />
    <glyph glyph-name="Ntilde" unicode="&#xd1;" horiz-adv-x="1282" 
d="M377 1552q0 97 53.5 142t120.5 45q43 0 76.5 -15t51 -33.5t43.5 -33.5t56 -15q35 0 61.5 27t26.5 72h97q0 -97 -54 -143t-121 -46q-35 0 -64 10t-48.5 24t-36.5 28.5t-37.5 24.5t-42.5 10q-35 0 -61.5 -26t-26.5 -71h-94zM1020 1434h201v-1434h-201l-758 1071v-1071h-201
v1434h201l758 -1074v1074z" />
    <glyph glyph-name="Ograve" unicode="&#xd2;" horiz-adv-x="1576" 
d="M764 1761l121 -202h-146l-145 202h170zM788 -16q-151 0 -287.5 57t-235 154.5t-156.5 233.5t-58 288t58 288t156.5 233.5t235 154.5t287.5 57q152 0 288.5 -57t235 -154.5t156.5 -233.5t58 -288t-58 -288t-156.5 -233.5t-235 -154.5t-288.5 -57zM788 180q149 0 272.5 71
t194 194.5t70.5 271.5t-70.5 271t-194 194t-272.5 71q-111 0 -210.5 -41.5t-171 -113t-113 -171t-41.5 -210.5q0 -148 70.5 -271.5t194 -194.5t271.5 -71z" />
    <glyph glyph-name="Oacute" unicode="&#xd3;" horiz-adv-x="1576" 
d="M842 1761h170l-146 -202h-145zM788 -16q-151 0 -287.5 57t-235 154.5t-156.5 233.5t-58 288t58 288t156.5 233.5t235 154.5t287.5 57q152 0 288.5 -57t235 -154.5t156.5 -233.5t58 -288t-58 -288t-156.5 -233.5t-235 -154.5t-288.5 -57zM788 180q149 0 272.5 71
t194 194.5t70.5 271.5t-70.5 271t-194 194t-272.5 71q-111 0 -210.5 -41.5t-171 -113t-113 -171t-41.5 -210.5q0 -148 70.5 -271.5t194 -194.5t271.5 -71z" />
    <glyph glyph-name="Ocircumflex" unicode="&#xd4;" horiz-adv-x="1576" 
d="M514 1550l217 189h119l215 -189h-154l-120 97l-123 -97h-154zM788 -16q-151 0 -287.5 57t-235 154.5t-156.5 233.5t-58 288t58 288t156.5 233.5t235 154.5t287.5 57q152 0 288.5 -57t235 -154.5t156.5 -233.5t58 -288t-58 -288t-156.5 -233.5t-235 -154.5t-288.5 -57z
M788 180q149 0 272.5 71t194 194.5t70.5 271.5t-70.5 271t-194 194t-272.5 71q-111 0 -210.5 -41.5t-171 -113t-113 -171t-41.5 -210.5q0 -148 70.5 -271.5t194 -194.5t271.5 -71z" />
    <glyph glyph-name="Otilde" unicode="&#xd5;" horiz-adv-x="1576" 
d="M498 1554q0 97 53.5 142t120.5 45q43 0 76.5 -15t51 -33t43.5 -33t56 -15q35 0 61.5 26.5t26.5 71.5h96q0 -97 -53.5 -143t-120.5 -46q-35 0 -64 10t-48.5 24t-36.5 28.5t-37.5 24.5t-42.5 10q-35 0 -61.5 -26t-26.5 -71h-94zM788 -16q-151 0 -287.5 57t-235 154.5
t-156.5 233.5t-58 288t58 288t156.5 233.5t235 154.5t287.5 57q152 0 288.5 -57t235 -154.5t156.5 -233.5t58 -288t-58 -288t-156.5 -233.5t-235 -154.5t-288.5 -57zM788 180q149 0 272.5 71t194 194.5t70.5 271.5t-70.5 271t-194 194t-272.5 71q-111 0 -210.5 -41.5
t-171 -113t-113 -171t-41.5 -210.5q0 -148 70.5 -271.5t194 -194.5t271.5 -71z" />
    <glyph glyph-name="Odieresis" unicode="&#xd6;" horiz-adv-x="1576" 
d="M639 1550q-40 0 -67 27.5t-27 67.5q0 41 27 68.5t67 27.5q41 0 68.5 -27.5t27.5 -68.5q0 -40 -27.5 -67.5t-68.5 -27.5zM936 1550q-40 0 -67 27.5t-27 67.5q0 41 27 68.5t67 27.5q41 0 68.5 -27.5t27.5 -68.5q0 -40 -27.5 -67.5t-68.5 -27.5zM788 -16q-151 0 -287.5 57
t-235 154.5t-156.5 233.5t-58 288t58 288t156.5 233.5t235 154.5t287.5 57q152 0 288.5 -57t235 -154.5t156.5 -233.5t58 -288t-58 -288t-156.5 -233.5t-235 -154.5t-288.5 -57zM788 180q149 0 272.5 71t194 194.5t70.5 271.5t-70.5 271t-194 194t-272.5 71
q-111 0 -210.5 -41.5t-171 -113t-113 -171t-41.5 -210.5q0 -148 70.5 -271.5t194 -194.5t271.5 -71z" />
    <glyph glyph-name="multiply" unicode="&#xd7;" horiz-adv-x="860" 
d="M201 106l-150 125l252 299l-252 301l150 123l227 -272l231 274l150 -127l-252 -299l252 -299l-150 -125l-229 273z" />
    <glyph glyph-name="Oslash" unicode="&#xd8;" horiz-adv-x="1576" 
d="M1362 1182q164 -204 164 -465q0 -152 -58 -288t-156.5 -233.5t-235 -154.5t-288.5 -57q-245 0 -442 145l-113 -119l-143 140l115 118q-154 197 -154 449q0 152 58 288t157 233.5t235 154.5t287 57q241 0 426 -133l103 104l145 -137zM252 717q0 -168 94 -305l733 764
q-127 84 -291 84q-231 0 -383.5 -154.5t-152.5 -388.5zM788 174q153 0 276 70.5t192 194.5t69 278q0 179 -102 321l-742 -770q134 -94 307 -94z" />
    <glyph glyph-name="Ugrave" unicode="&#xd9;" horiz-adv-x="1138" 
d="M565 1761l121 -202h-145l-146 202h170zM61 1434h201v-949q0 -146 87.5 -226.5t223.5 -80.5q134 0 219 80.5t85 226.5v949h200v-949q0 -100 -27.5 -183.5t-74.5 -141.5t-111.5 -98.5t-137.5 -59t-153 -18.5t-154 18.5t-139.5 59t-114 98.5t-76.5 141.5t-28 183.5v949z" />
    <glyph glyph-name="Uacute" unicode="&#xda;" horiz-adv-x="1138" 
d="M608 1761h170l-145 -202h-146zM61 1434h201v-949q0 -146 87.5 -226.5t223.5 -80.5q134 0 219 80.5t85 226.5v949h200v-949q0 -100 -27.5 -183.5t-74.5 -141.5t-111.5 -98.5t-137.5 -59t-153 -18.5t-154 18.5t-139.5 59t-114 98.5t-76.5 141.5t-28 183.5v949z" />
    <glyph glyph-name="Ucircumflex" unicode="&#xdb;" horiz-adv-x="1138" 
d="M295 1556l217 189h119l215 -189h-154l-121 97l-122 -97h-154zM61 1434h201v-949q0 -146 87.5 -226.5t223.5 -80.5q134 0 219 80.5t85 226.5v949h200v-949q0 -100 -27.5 -183.5t-74.5 -141.5t-111.5 -98.5t-137.5 -59t-153 -18.5t-154 18.5t-139.5 59t-114 98.5
t-76.5 141.5t-28 183.5v949z" />
    <glyph glyph-name="Udieresis" unicode="&#xdc;" horiz-adv-x="1138" 
d="M420 1550q-40 0 -67 27.5t-27 67.5q0 41 27 68.5t67 27.5q41 0 68.5 -27.5t27.5 -68.5q0 -40 -27.5 -67.5t-68.5 -27.5zM717 1550q-40 0 -67 27.5t-27 67.5q0 41 27 68.5t67 27.5q41 0 68.5 -27.5t27.5 -68.5q0 -40 -27.5 -67.5t-68.5 -27.5zM61 1434h201v-949
q0 -146 87.5 -226.5t223.5 -80.5q134 0 219 80.5t85 226.5v949h200v-949q0 -100 -27.5 -183.5t-74.5 -141.5t-111.5 -98.5t-137.5 -59t-153 -18.5t-154 18.5t-139.5 59t-114 98.5t-76.5 141.5t-28 183.5v949z" />
    <glyph glyph-name="Yacute" unicode="&#xdd;" horiz-adv-x="1189" 
d="M623 1761h170l-146 -202h-145zM967 1434h223l-496 -777v-657h-200v657l-494 777h223l371 -574z" />
    <glyph glyph-name="Thorn" unicode="&#xde;" horiz-adv-x="1036" 
d="M524 1231q192 0 326.5 -128t134.5 -317q0 -126 -62 -232.5t-168 -168t-231 -61.5h-262v-324h-201v1434h201v-203h262zM524 518q109 0 184.5 78t75.5 190q0 107 -74.5 178.5t-185.5 71.5h-262v-518h262z" />
    <glyph glyph-name="germandbls" unicode="&#xdf;" horiz-adv-x="1038" 
d="M61 0v1094q0 159 105.5 249.5t292.5 90.5q206 0 312 -92t106 -269q0 -114 -53 -193t-119 -98q128 -31 205 -121.5t77 -240.5q0 -186 -111.5 -303t-300.5 -117h-167v195h137q102 0 171.5 68.5t69.5 174.5q0 99 -68.5 165.5t-176.5 66.5h-133v196h67q95 3 148 53.5
t53 133.5q0 87 -56 135.5t-155 48.5q-93 0 -148 -50t-55 -134v-1053h-201z" />
    <glyph glyph-name="agrave" unicode="&#xe0;" 
d="M588 1352l121 -203h-146l-145 203h170zM580 -16q-143 0 -265 70.5t-193 192t-71 265.5t71 265.5t193 192t265 70.5t264 -70.5t191.5 -192t70.5 -265.5v-512h-201v162q-38 -77 -128 -127.5t-197 -50.5zM582 178q139 0 232 97t93 237q0 141 -92.5 237.5t-232.5 96.5
t-235 -97t-95 -237t95.5 -237t234.5 -97z" />
    <glyph glyph-name="aacute" unicode="&#xe1;" 
d="M606 1352h170l-145 -203h-146zM580 -16q-143 0 -265 70.5t-193 192t-71 265.5t71 265.5t193 192t265 70.5t264 -70.5t191.5 -192t70.5 -265.5v-512h-201v162q-38 -77 -128 -127.5t-197 -50.5zM582 178q139 0 232 97t93 237q0 141 -92.5 237.5t-232.5 96.5t-235 -97
t-95 -237t95.5 -237t234.5 -97z" />
    <glyph glyph-name="acircumflex" unicode="&#xe2;" 
d="M305 1147l217 188h119l215 -188h-154l-120 96l-123 -96h-154zM580 -16q-143 0 -265 70.5t-193 192t-71 265.5t71 265.5t193 192t265 70.5t264 -70.5t191.5 -192t70.5 -265.5v-512h-201v162q-38 -77 -128 -127.5t-197 -50.5zM582 178q139 0 232 97t93 237
q0 141 -92.5 237.5t-232.5 96.5t-235 -97t-95 -237t95.5 -237t234.5 -97z" />
    <glyph glyph-name="atilde" unicode="&#xe3;" 
d="M287 1149q0 51 16.5 89t43.5 58t55.5 29.5t58.5 9.5q43 0 76.5 -15t51 -33t43.5 -33t56 -15q35 0 61.5 26.5t26.5 71.5h96q0 -97 -53.5 -142.5t-120.5 -45.5q-43 0 -78 15t-54 33t-44.5 33t-52.5 15q-35 0 -61.5 -25.5t-26.5 -70.5h-94zM580 -16q-143 0 -265 70.5
t-193 192t-71 265.5t71 265.5t193 192t265 70.5t264 -70.5t191.5 -192t70.5 -265.5v-512h-201v162q-38 -77 -128 -127.5t-197 -50.5zM582 178q139 0 232 97t93 237q0 141 -92.5 237.5t-232.5 96.5t-235 -97t-95 -237t95.5 -237t234.5 -97z" />
    <glyph glyph-name="adieresis" unicode="&#xe4;" 
d="M430 1151q-40 0 -67 27t-27 67q0 41 27 68.5t67 27.5q41 0 68.5 -27.5t27.5 -68.5q0 -40 -27.5 -67t-68.5 -27zM727 1151q-40 0 -67 27t-27 67q0 41 27 68.5t67 27.5q41 0 68.5 -27.5t27.5 -68.5q0 -40 -27.5 -67t-68.5 -27zM580 -16q-143 0 -265 70.5t-193 192
t-71 265.5t71 265.5t193 192t265 70.5t264 -70.5t191.5 -192t70.5 -265.5v-512h-201v162q-38 -77 -128 -127.5t-197 -50.5zM582 178q139 0 232 97t93 237q0 141 -92.5 237.5t-232.5 96.5t-235 -97t-95 -237t95.5 -237t234.5 -97z" />
    <glyph glyph-name="aring" unicode="&#xe5;" 
d="M580 1409q56 0 93.5 -37.5t37.5 -93.5t-37.5 -93.5t-93.5 -37.5t-93.5 37.5t-37.5 93.5t37.5 93.5t93.5 37.5zM580 1335q-26 0 -42 -16t-16 -41q0 -26 16.5 -41.5t41.5 -15.5q26 0 41.5 16t15.5 41q0 26 -16 41.5t-41 15.5zM580 -16q-143 0 -265 70.5t-193 192t-71 265.5
t71 265.5t193 192t265 70.5t264 -70.5t191.5 -192t70.5 -265.5v-512h-201v162q-38 -77 -128 -127.5t-197 -50.5zM582 178q139 0 232 97t93 237q0 141 -92.5 237.5t-232.5 96.5t-235 -97t-95 -237t95.5 -237t234.5 -97z" />
    <glyph glyph-name="ae" unicode="&#xe6;" horiz-adv-x="2144" 
d="M580 -16q-143 0 -265 70.5t-193 192t-71 265.5t71 265.5t193 192t265 70.5q168 0 302.5 -96t190.5 -250q56 154 190.5 250t303.5 96q215 0 365.5 -147.5t156.5 -362.5q0 -59 -8 -106h-826q19 -109 104 -177.5t210 -68.5q158 0 250 119l233 -10q-65 -136 -196.5 -219.5
t-288.5 -83.5q-148 0 -271 74t-190 198v-256h-201v162q-38 -77 -128 -127.5t-197 -50.5zM582 178q139 0 232 97t93 237q0 141 -92.5 237.5t-232.5 96.5t-235 -97t-95 -237t95.5 -237t234.5 -97zM1255 602h619q-27 107 -109.5 175.5t-195.5 68.5q-115 0 -200.5 -68.5
t-113.5 -175.5z" />
    <glyph glyph-name="ccedilla" unicode="&#xe7;" horiz-adv-x="1120" 
d="M582 178q84 0 153 37t113 102h219q-53 -140 -173.5 -230.5t-272.5 -100.5l-29 -56q4 2 14 2q61 0 101.5 -42.5t40.5 -104.5q0 -61 -43 -104t-105 -43t-104.5 43t-42.5 104h79q0 -29 19.5 -48.5t48.5 -19.5t48.5 19.5t19.5 48.5t-19.5 48.5t-48.5 19.5q-18 0 -33 -9
l-67 62l39 80q-206 15 -347 166t-141 360q0 144 70.5 265.5t192.5 192t266 70.5q166 0 299 -94t188 -244h-215q-44 66 -114.5 105t-155.5 39q-140 0 -235 -97t-95 -237t95.5 -237t234.5 -97z" />
    <glyph glyph-name="egrave" unicode="&#xe8;" horiz-adv-x="1150" 
d="M559 1350l121 -203h-145l-146 203h170zM51 510q0 143 68 264.5t188 193.5t264 72q99 0 192.5 -35.5t167 -100t119.5 -162t50 -212.5q0 -52 -6 -92h-828q12 -115 96.5 -187.5t208.5 -72.5q150 0 246 103l240 -2q-67 -133 -196 -214t-283 -81q-145 0 -266.5 70.5
t-191 191.5t-69.5 264zM266 602h619q-28 106 -113 175t-194 69q-117 0 -200 -68t-112 -176z" />
    <glyph glyph-name="eacute" unicode="&#xe9;" horiz-adv-x="1150" 
d="M616 1348h170l-145 -203h-145zM51 510q0 143 68 264.5t188 193.5t264 72q99 0 192.5 -35.5t167 -100t119.5 -162t50 -212.5q0 -52 -6 -92h-828q12 -115 96.5 -187.5t208.5 -72.5q150 0 246 103l240 -2q-67 -133 -196 -214t-283 -81q-145 0 -266.5 70.5t-191 191.5
t-69.5 264zM266 602h619q-28 106 -113 175t-194 69q-117 0 -200 -68t-112 -176z" />
    <glyph glyph-name="ecircumflex" unicode="&#xea;" horiz-adv-x="1150" 
d="M293 1147l217 188h119l215 -188h-154l-121 96l-123 -96h-153zM51 510q0 143 68 264.5t188 193.5t264 72q99 0 192.5 -35.5t167 -100t119.5 -162t50 -212.5q0 -52 -6 -92h-828q12 -115 96.5 -187.5t208.5 -72.5q150 0 246 103l240 -2q-67 -133 -196 -214t-283 -81
q-145 0 -266.5 70.5t-191 191.5t-69.5 264zM266 602h619q-28 106 -113 175t-194 69q-117 0 -200 -68t-112 -176z" />
    <glyph glyph-name="edieresis" unicode="&#xeb;" horiz-adv-x="1150" 
d="M428 1149q-40 0 -67 27t-27 67q0 41 27 68.5t67 27.5q41 0 68.5 -27.5t27.5 -68.5q0 -40 -27.5 -67t-68.5 -27zM725 1149q-40 0 -67 27t-27 67q0 41 27 68.5t67 27.5q41 0 68.5 -27.5t27.5 -68.5q0 -40 -27.5 -67t-68.5 -27zM51 510q0 143 68 264.5t188 193.5t264 72
q99 0 192.5 -35.5t167 -100t119.5 -162t50 -212.5q0 -52 -6 -92h-828q12 -115 96.5 -187.5t208.5 -72.5q150 0 246 103l240 -2q-67 -133 -196 -214t-283 -81q-145 0 -266.5 70.5t-191 191.5t-69.5 264zM266 602h619q-28 106 -113 175t-194 69q-117 0 -200 -68t-112 -176z
" />
    <glyph glyph-name="igrave" unicode="&#xec;" horiz-adv-x="323" 
d="M139 1352l121 -203h-145l-146 203h170zM262 0h-201v1024h201v-1024z" />
    <glyph glyph-name="iacute" unicode="&#xed;" horiz-adv-x="323" 
d="M209 1350h170l-146 -203h-145zM262 0h-201v1024h201v-1024z" />
    <glyph glyph-name="icircumflex" unicode="&#xee;" horiz-adv-x="323" 
d="M-111 1147l217 188h119l215 -188h-153l-121 96l-123 -96h-154zM262 0h-201v1024h201v-1024z" />
    <glyph glyph-name="idieresis" unicode="&#xef;" horiz-adv-x="323" 
d="M16 1149q-40 0 -67 27t-27 67q0 41 27 68.5t67 27.5q41 0 69 -27.5t28 -68.5q0 -40 -28 -67t-69 -27zM313 1149q-40 0 -67 27t-27 67q0 41 27 68.5t67 27.5q41 0 69 -27.5t28 -68.5q0 -40 -28 -67t-69 -27zM262 0h-201v1024h201v-1024z" />
    <glyph glyph-name="eth" unicode="&#xf0;" horiz-adv-x="1159" 
d="M580 -16q-144 0 -266 70.5t-192.5 192t-70.5 265.5t70.5 265.5t192.5 192t266 70.5q58 0 116 -43q-100 125 -180 179l-57 -76l-90 53l53 74q-35 21 -94 41v166q99 -10 182 -54l55 76l94 -49l-55 -76q95 -59 183 -146t160.5 -192.5t116.5 -231.5t44 -249
q0 -147 -71 -268.5t-192 -190.5t-265 -69zM578 178q136 0 232.5 98.5t96.5 235.5q-2 141 -96.5 237.5t-232.5 96.5t-232 -96.5t-94 -237.5q0 -139 95.5 -236.5t230.5 -97.5z" />
    <glyph glyph-name="ntilde" unicode="&#xf1;" horiz-adv-x="1024" 
d="M221 1147q0 51 16.5 89t43.5 58t55.5 29.5t58.5 9.5q43 0 76.5 -15t51.5 -33t44 -33t56 -15q35 0 61.5 26.5t26.5 71.5h96q0 -97 -53.5 -142.5t-120.5 -45.5q-43 0 -78 15t-54 33t-45 33t-53 15q-35 0 -61.5 -25.5t-26.5 -70.5h-94zM963 0v539q0 126 -33.5 223t-94 157
t-142 90.5t-181.5 30.5t-181.5 -30.5t-142 -90.5t-94 -157t-33.5 -223v-539h201v539q0 307 250 307t250 -307v-539h201z" />
    <glyph glyph-name="ograve" unicode="&#xf2;" horiz-adv-x="1159" 
d="M559 1352l121 -203h-145l-146 203h170zM580 1040q144 0 265.5 -70.5t192 -192t70.5 -265.5t-70.5 -265.5t-192 -192t-265.5 -70.5t-266 70.5t-192.5 192t-70.5 265.5t70.5 265.5t192.5 192t266 70.5zM582 846q-140 0 -235 -97t-95 -237t95.5 -237t234.5 -97t232 97
t93 237q0 141 -92.5 237.5t-232.5 96.5z" />
    <glyph glyph-name="oacute" unicode="&#xf3;" horiz-adv-x="1159" 
d="M604 1350h170l-145 -203h-146zM580 1040q144 0 265.5 -70.5t192 -192t70.5 -265.5t-70.5 -265.5t-192 -192t-265.5 -70.5t-266 70.5t-192.5 192t-70.5 265.5t70.5 265.5t192.5 192t266 70.5zM582 846q-140 0 -235 -97t-95 -237t95.5 -237t234.5 -97t232 97t93 237
q0 141 -92.5 237.5t-232.5 96.5z" />
    <glyph glyph-name="ocircumflex" unicode="&#xf4;" horiz-adv-x="1159" 
d="M305 1147l217 188h119l215 -188h-154l-120 96l-123 -96h-154zM580 1040q144 0 265.5 -70.5t192 -192t70.5 -265.5t-70.5 -265.5t-192 -192t-265.5 -70.5t-266 70.5t-192.5 192t-70.5 265.5t70.5 265.5t192.5 192t266 70.5zM582 846q-140 0 -235 -97t-95 -237t95.5 -237
t234.5 -97t232 97t93 237q0 141 -92.5 237.5t-232.5 96.5z" />
    <glyph glyph-name="otilde" unicode="&#xf5;" horiz-adv-x="1159" 
d="M289 1149q0 51 16.5 89t43.5 58t55.5 29.5t58.5 9.5q43 0 76.5 -15t51 -33t43.5 -33t56 -15q35 0 61.5 26.5t26.5 71.5h96q0 -97 -53.5 -142.5t-120.5 -45.5q-43 0 -78 15t-54 33t-44.5 33t-52.5 15q-35 0 -61.5 -25.5t-26.5 -70.5h-94zM580 1040q144 0 265.5 -70.5
t192 -192t70.5 -265.5t-70.5 -265.5t-192 -192t-265.5 -70.5t-266 70.5t-192.5 192t-70.5 265.5t70.5 265.5t192.5 192t266 70.5zM582 846q-140 0 -235 -97t-95 -237t95.5 -237t234.5 -97t232 97t93 237q0 141 -92.5 237.5t-232.5 96.5z" />
    <glyph glyph-name="odieresis" unicode="&#xf6;" horiz-adv-x="1159" 
d="M430 1149q-40 0 -67 27t-27 67q0 41 27 68.5t67 27.5q41 0 68.5 -27.5t27.5 -68.5q0 -40 -27.5 -67t-68.5 -27zM727 1149q-40 0 -67 27t-27 67q0 41 27 68.5t67 27.5q41 0 68.5 -27.5t27.5 -68.5q0 -40 -27.5 -67t-68.5 -27zM580 1040q144 0 265.5 -70.5t192 -192
t70.5 -265.5t-70.5 -265.5t-192 -192t-265.5 -70.5t-266 70.5t-192.5 192t-70.5 265.5t70.5 265.5t192.5 192t266 70.5zM582 846q-140 0 -235 -97t-95 -237t95.5 -237t234.5 -97t232 97t93 237q0 141 -92.5 237.5t-232.5 96.5z" />
    <glyph glyph-name="divide" unicode="&#xf7;" horiz-adv-x="837" 
d="M420 786q-40 0 -67 28t-27 69q0 40 27 67t67 27q41 0 68.5 -27t27.5 -67q0 -41 -27.5 -69t-68.5 -28zM786 662v-195h-735v195h735zM420 150q-40 0 -67 27.5t-27 68.5q0 40 27 67t67 27q41 0 68.5 -27t27.5 -67q0 -41 -27.5 -68.5t-68.5 -27.5z" />
    <glyph glyph-name="oslash" unicode="&#xf8;" horiz-adv-x="1163" 
d="M1010 823q102 -142 102 -311q0 -144 -70.5 -265.5t-192 -192t-265.5 -70.5q-167 0 -305 98l-70 -72l-137 140l73 73q-90 129 -90 289q0 144 70.5 265.5t192.5 192t266 70.5q153 0 280 -84l72 72l139 -139zM256 512q0 -76 43 -135l418 430q-58 39 -131 39q-140 0 -235 -97
t-95 -237zM586 178q137 0 231 97t94 237q0 96 -47 164l-442 -451q71 -47 164 -47z" />
    <glyph glyph-name="ugrave" unicode="&#xf9;" horiz-adv-x="1024" 
d="M485 1352l121 -203h-145l-146 203h170zM963 1024h-201v-539q0 -307 -250 -307t-250 307v539h-201v-539q0 -126 33.5 -223t94 -157t142 -90.5t181.5 -30.5t181.5 30.5t142 90.5t94 157t33.5 223v539z" />
    <glyph glyph-name="uacute" unicode="&#xfa;" horiz-adv-x="1024" 
d="M530 1352h170l-145 -203h-145zM963 1024h-201v-539q0 -307 -250 -307t-250 307v539h-201v-539q0 -126 33.5 -223t94 -157t142 -90.5t181.5 -30.5t181.5 30.5t142 90.5t94 157t33.5 223v539z" />
    <glyph glyph-name="ucircumflex" unicode="&#xfb;" horiz-adv-x="1024" 
d="M238 1147l217 188h118l215 -188h-153l-121 96l-123 -96h-153zM963 1024h-201v-539q0 -307 -250 -307t-250 307v539h-201v-539q0 -126 33.5 -223t94 -157t142 -90.5t181.5 -30.5t181.5 30.5t142 90.5t94 157t33.5 223v539z" />
    <glyph glyph-name="udieresis" unicode="&#xfc;" horiz-adv-x="1024" 
d="M362 1149q-40 0 -67 27t-27 67q0 41 27 68.5t67 27.5q41 0 69 -27.5t28 -68.5q0 -40 -28 -67t-69 -27zM659 1149q-40 0 -67 27t-27 67q0 41 27 68.5t67 27.5q41 0 69 -27.5t28 -68.5q0 -40 -28 -67t-69 -27zM963 1024h-201v-539q0 -307 -250 -307t-250 307v539h-201v-539
q0 -126 33.5 -223t94 -157t142 -90.5t181.5 -30.5t181.5 30.5t142 90.5t94 157t33.5 223v539z" />
    <glyph glyph-name="yacute" unicode="&#xfd;" horiz-adv-x="1024" 
d="M528 1352h170l-145 -203h-145zM512 -410q-154 0 -268 86.5t-168 231.5h225q73 -123 211 -123q115 0 181.5 68t66.5 174v55q-43 -46 -108 -72t-140 -26q-100 0 -181.5 30.5t-142 90.5t-94 157t-33.5 223v539h201v-539q0 -307 250 -307q121 0 185.5 74t64.5 221v551h201
v-973q0 -198 -127.5 -329.5t-323.5 -131.5z" />
    <glyph glyph-name="thorn" unicode="&#xfe;" horiz-adv-x="1161" 
d="M582 1040q144 0 265.5 -70.5t192 -192t70.5 -265.5t-70.5 -265.5t-192 -192t-265.5 -70.5q-92 0 -175 38t-145 103v-535h-201v1844h201v-531q61 64 144.5 100.5t175.5 36.5zM582 178q139 0 233 97t94 237q0 141 -93.5 237.5t-233.5 96.5q-139 0 -233.5 -97t-94.5 -237
t95 -237t233 -97z" />
    <glyph glyph-name="ydieresis" unicode="&#xff;" horiz-adv-x="1024" 
d="M362 1151q-40 0 -67 27t-27 67q0 41 27 68.5t67 27.5q41 0 69 -27.5t28 -68.5q0 -40 -28 -67t-69 -27zM659 1151q-40 0 -67 27t-27 67q0 41 27 68.5t67 27.5q41 0 69 -27.5t28 -68.5q0 -40 -28 -67t-69 -27zM512 -410q-154 0 -268 86.5t-168 231.5h225q73 -123 211 -123
q115 0 181.5 68t66.5 174v55q-43 -46 -108 -72t-140 -26q-100 0 -181.5 30.5t-142 90.5t-94 157t-33.5 223v539h201v-539q0 -307 250 -307q121 0 185.5 74t64.5 221v551h201v-973q0 -198 -127.5 -329.5t-323.5 -131.5z" />
    <glyph glyph-name="dotlessi" unicode="&#x131;" horiz-adv-x="323" 
d="M262 0h-201v1024h201v-1024z" />
    <glyph glyph-name="Ldot" unicode="&#x13f;" horiz-adv-x="915" 
d="M262 195h602v-195h-803v1434h201v-1239zM610 809v-250h201v250h-201z" />
    <glyph glyph-name="ldot" unicode="&#x140;" horiz-adv-x="577" 
d="M262 0h-201v1434h201v-1434zM334 809v-250h201v250h-201z" />
    <glyph glyph-name="Lslash" unicode="&#x141;" horiz-adv-x="958" 
d="M291 195h602v-195h-803v489l-104 -65v199l104 63v748h201v-654l362 221v-198l-362 -219v-389z" />
    <glyph glyph-name="lslash" unicode="&#x142;" horiz-adv-x="481" 
d="M446 979v-199l-104 -61v-719h-201v606l-106 -61v198l106 62v629h201v-516z" />
    <glyph glyph-name="OE" unicode="&#x152;" horiz-adv-x="2123" 
d="M2073 1239h-684v-494h606v-194h-606v-356h684v-195h-885v96q-179 -112 -400 -112q-151 0 -287 57t-235 154.5t-157 233.5t-58 288t58 288t157 233.5t235 154.5t287 57q220 0 400 -113v97h885v-195zM788 174q130 0 235 41.5t165 122.5v758q-62 80 -166.5 122t-233.5 42
q-231 0 -383.5 -154.5t-152.5 -388.5t152.5 -388.5t383.5 -154.5z" />
    <glyph glyph-name="oe" unicode="&#x153;" horiz-adv-x="2144" 
d="M580 -16q-144 0 -266 70.5t-192.5 192t-70.5 265.5t70.5 265.5t192.5 192t266 70.5q168 0 303.5 -96t191.5 -250q56 154 191 250t303 96q215 0 365.5 -146.5t156.5 -361.5q3 -59 -8 -108h-826q21 -110 105 -178t209 -68q161 0 250 119l233 -10q-65 -136 -196.5 -219.5
t-288.5 -83.5q-168 0 -303 96t-191 250q-56 -154 -191.5 -250t-303.5 -96zM582 178q139 0 232 97t93 237q0 141 -92.5 237.5t-232.5 96.5t-235 -97t-95 -237t95.5 -237t234.5 -97zM1257 602h619q-27 107 -109.5 175.5t-195.5 68.5q-115 0 -200.5 -68.5t-113.5 -175.5z" />
    <glyph glyph-name="Scaron" unicode="&#x160;" horiz-adv-x="1064" 
d="M252 1745h154l122 -96l121 96h154l-215 -189h-119zM1014 414q0 87 -24.5 154t-66 109t-95.5 72.5t-113 49t-118.5 34.5t-113.5 33.5t-95.5 41.5t-66 63.5t-24.5 93.5q0 86 62.5 138t166.5 52q107 0 168.5 -56.5t61.5 -166.5h200q0 191 -118.5 304.5t-311.5 113.5
q-195 0 -312.5 -101t-117.5 -280q0 -80 24.5 -142t66 -101t95.5 -68.5t113.5 -49t118.5 -37.5t113 -38.5t95.5 -47.5t66 -70.5t24.5 -100.5q0 -117 -75 -176.5t-199 -59.5q-129 0 -208 70.5t-79 189.5h-201q0 -129 64.5 -233.5t174.5 -162.5t242 -58q205 0 343.5 118.5
t138.5 311.5z" />
    <glyph glyph-name="scaron" unicode="&#x161;" horiz-adv-x="884" 
d="M164 1333h153l123 -96l121 96h154l-215 -188h-119zM442 -16q-108 0 -197.5 36.5t-146.5 111t-57 175.5h192q0 -65 60 -104t153 -39t145 37t52 98q0 37 -20.5 63t-54.5 41.5t-78 27t-92.5 22t-97 23t-92 34t-77.5 51.5t-54 78.5t-20 112.5q0 127 109 207.5t270 80.5
q164 0 269.5 -81.5t105.5 -225.5h-193q0 58 -54 93.5t-132 35.5q-75 0 -124.5 -34.5t-49.5 -90.5q0 -36 25 -61.5t66 -38.5t93 -26t106.5 -23.5t107.5 -33t94 -52.5t67 -83t27 -124q1 -151 -110.5 -231t-291.5 -80z" />
    <glyph glyph-name="Wcircumflex" unicode="&#x174;" horiz-adv-x="2027" 
d="M739 1556l217 189h119l215 -189h-153l-121 97l-123 -97h-154zM1815 1434h213l-447 -1434h-201l-366 1096l-371 -1096h-201l-442 1434h213l330 -1096l381 1096h180l377 -1096z" />
    <glyph glyph-name="wcircumflex" unicode="&#x175;" horiz-adv-x="1536" 
d="M494 1147l217 188h118l215 -188h-153l-121 96l-123 -96h-153zM1331 1024h205l-338 -1024h-201l-229 719l-229 -719h-201l-338 1024h205l233 -760l230 760h200l230 -760z" />
    <glyph glyph-name="Ycircumflex" unicode="&#x176;" horiz-adv-x="1189" 
d="M319 1556l218 189h118l215 -189h-153l-121 97l-123 -97h-154zM967 1434h223l-496 -777v-657h-200v657l-494 777h223l371 -574z" />
    <glyph glyph-name="ycircumflex" unicode="&#x177;" horiz-adv-x="1024" 
d="M238 1147l217 188h118l215 -188h-153l-121 96l-123 -96h-153zM512 -410q-154 0 -268 86.5t-168 231.5h225q73 -123 211 -123q115 0 181.5 68t66.5 174v55q-43 -46 -108 -72t-140 -26q-100 0 -181.5 30.5t-142 90.5t-94 157t-33.5 223v539h201v-539q0 -307 250 -307
q121 0 185.5 74t64.5 221v551h201v-973q0 -198 -127.5 -329.5t-323.5 -131.5z" />
    <glyph glyph-name="Ydieresis" unicode="&#x178;" horiz-adv-x="1189" 
d="M446 1554q-40 0 -67 27.5t-27 67.5q0 41 27 68.5t67 27.5q41 0 69 -27.5t28 -68.5q0 -40 -28 -67.5t-69 -27.5zM743 1554q-40 0 -67 27.5t-27 67.5q0 41 27 68.5t67 27.5q41 0 69 -27.5t28 -68.5q0 -40 -28 -67.5t-69 -27.5zM967 1434h223l-496 -777v-657h-200v657
l-494 777h223l371 -574z" />
    <glyph glyph-name="Zcaron" unicode="&#x17d;" horiz-adv-x="1191" 
d="M322 1745h153l123 -96l121 96h153l-215 -189h-118zM1130 1434v-195l-815 -1044h813v-195h-1067v195l813 1044h-770v195h1026z" />
    <glyph glyph-name="zcaron" unicode="&#x17e;" horiz-adv-x="903" 
d="M182 1337h154l123 -96l121 96h153l-215 -188h-119zM295 195h567v-195h-821v195l547 634h-518v195h774v-195z" />
    <glyph glyph-name="florin" unicode="&#x192;" horiz-adv-x="1077" 
d="M287 -410q-147 0 -248 91l63 135q57 -45 140 -45q118 0 131 120l96 938h-225l14 195h231l21 197q23 227 283 227q147 0 245 -88l-63 -135q-61 45 -133 45q-121 0 -137 -123l-15 -123h287l-14 -195h-291l-105 -1009q-12 -116 -84.5 -173t-195.5 -57z" />
    <glyph glyph-name="circumflex" unicode="&#x2c6;" horiz-adv-x="583" 
d="M16 1495l217 188h119l215 -188h-153l-121 96l-123 -96h-154z" />
    <glyph glyph-name="caron" unicode="&#x2c7;" horiz-adv-x="583" 
d="M16 1745h154l123 -96l121 96h153l-215 -189h-119z" />
    <glyph glyph-name="breve" unicode="&#x2d8;" horiz-adv-x="417" 
d="M209 1542q-72 0 -122 51t-50 123h90q0 -37 23.5 -61.5t58.5 -24.5t57.5 24.5t22.5 61.5h92q0 -72 -50.5 -123t-121.5 -51z" />
    <glyph glyph-name="dotaccent" unicode="&#x2d9;" horiz-adv-x="292" 
d="M145 1540q-40 0 -67 27.5t-27 68.5q0 40 27 67.5t67 27.5q41 0 69 -27.5t28 -67.5q0 -41 -28 -68.5t-69 -27.5z" />
    <glyph glyph-name="ring" unicode="&#x2da;" horiz-adv-x="331" 
d="M166 1776q56 0 93.5 -38t37.5 -93q0 -56 -38 -94t-93 -38t-93 38t-38 94q0 55 37.5 93t93.5 38zM166 1702q-26 0 -41.5 -16t-15.5 -41q0 -26 16 -42t41 -16q26 0 41.5 16.5t15.5 41.5q0 26 -16 41.5t-41 15.5z" />
    <glyph glyph-name="ogonek" unicode="&#x2db;" horiz-adv-x="397" 
d="M199 -362q-62 0 -105 43t-43 104q0 39 17.5 76.5t44.5 65.5t48 44.5t40 28.5h104q-170 -102 -170 -215q0 -26 19 -45t45 -19t44.5 19t18.5 45h84q0 -61 -43 -104t-104 -43z" />
    <glyph glyph-name="tilde" unicode="&#x2dc;" horiz-adv-x="688" 
d="M51 1552q0 97 53.5 142t120.5 45q43 0 76.5 -15t51.5 -33.5t44 -33.5t56 -15q35 0 61.5 27t26.5 72h96q0 -97 -53.5 -143t-120.5 -46q-43 0 -78 15t-54 33.5t-45 33.5t-53 15q-35 0 -61.5 -26t-26.5 -71h-94z" />
    <glyph glyph-name="hungarumlaut" unicode="&#x2dd;" horiz-adv-x="548" 
d="M152 1761h137l-131 -202h-107zM360 1761h138l-131 -202h-107z" />
    <glyph glyph-name="Wgrave" unicode="&#x1e80;" horiz-adv-x="2027" 
d="M997 1761l121 -202h-145l-146 202h170zM1815 1434h213l-447 -1434h-201l-366 1096l-371 -1096h-201l-442 1434h213l330 -1096l381 1096h180l377 -1096z" />
    <glyph glyph-name="wgrave" unicode="&#x1e81;" horiz-adv-x="1536" 
d="M733 1352l121 -203h-145l-146 203h170zM1331 1024h205l-338 -1024h-201l-229 719l-229 -719h-201l-338 1024h205l233 -760l230 760h200l230 -760z" />
    <glyph glyph-name="Wacute" unicode="&#x1e82;" horiz-adv-x="2027" 
d="M1049 1761h170l-146 -202h-145zM1815 1434h213l-447 -1434h-201l-366 1096l-371 -1096h-201l-442 1434h213l330 -1096l381 1096h180l377 -1096z" />
    <glyph glyph-name="wacute" unicode="&#x1e83;" horiz-adv-x="1536" 
d="M801 1352h170l-146 -203h-145zM1331 1024h205l-338 -1024h-201l-229 719l-229 -719h-201l-338 1024h205l233 -760l230 760h200l230 -760z" />
    <glyph glyph-name="Wdieresis" unicode="&#x1e84;" horiz-adv-x="2027" 
d="M864 1556q-40 0 -67 27.5t-27 67.5q0 41 27 68.5t67 27.5q41 0 69 -27.5t28 -68.5q0 -40 -28 -67.5t-69 -27.5zM1161 1556q-40 0 -67 27.5t-27 67.5q0 41 27 68.5t67 27.5q41 0 68.5 -27.5t27.5 -68.5q0 -40 -27.5 -67.5t-68.5 -27.5zM1815 1434h213l-447 -1434h-201
l-366 1096l-371 -1096h-201l-442 1434h213l330 -1096l381 1096h180l377 -1096z" />
    <glyph glyph-name="wdieresis" unicode="&#x1e85;" horiz-adv-x="1536" 
d="M618 1149q-40 0 -67 27t-27 67q0 41 27 68.5t67 27.5q41 0 69 -27.5t28 -68.5q0 -40 -28 -67t-69 -27zM915 1149q-40 0 -67 27t-27 67q0 41 27 68.5t67 27.5q41 0 69 -27.5t28 -68.5q0 -40 -28 -67t-69 -27zM1331 1024h205l-338 -1024h-201l-229 719l-229 -719h-201
l-338 1024h205l233 -760l230 760h200l230 -760z" />
    <glyph glyph-name="Ygrave" unicode="&#x1ef2;" horiz-adv-x="1189" 
d="M586 1761l121 -202h-146l-145 202h170zM967 1434h223l-496 -777v-657h-200v657l-494 777h223l371 -574z" />
    <glyph glyph-name="ygrave" unicode="&#x1ef3;" horiz-adv-x="1024" 
d="M483 1352l121 -203h-145l-146 203h170zM512 -410q-154 0 -268 86.5t-168 231.5h225q73 -123 211 -123q115 0 181.5 68t66.5 174v55q-43 -46 -108 -72t-140 -26q-100 0 -181.5 30.5t-142 90.5t-94 157t-33.5 223v539h201v-539q0 -307 250 -307q121 0 185.5 74t64.5 221
v551h201v-973q0 -198 -127.5 -329.5t-323.5 -131.5z" />
    <glyph glyph-name="endash" unicode="&#x2013;" horiz-adv-x="1062" 
d="M1012 629v-195h-961v195h961z" />
    <glyph glyph-name="emdash" unicode="&#x2014;" horiz-adv-x="1619" 
d="M1569 629v-195h-1518v195h1518z" />
    <glyph glyph-name="quoteleft" unicode="&#x2018;" horiz-adv-x="370" 
d="M319 1440q-125 -5 -196.5 -54t-71.5 -161v-176h201v147v38t1.5 32t5.5 32.5t11.5 23t19.5 22t29 12.5v84z" />
    <glyph glyph-name="quoteright" unicode="&#x2019;" horiz-adv-x="370" 
d="M51 1042q125 5 196.5 54t71.5 161v177h-200v-148v-32.5t-1 -28t-3.5 -28.5t-7.5 -23t-12 -21.5t-18 -14.5t-26 -12v-84z" />
    <glyph glyph-name="quotesinglbase" unicode="&#x201a;" horiz-adv-x="389" 
d="M47 -154q125 5 196.5 54t71.5 161v177h-200v-148v-32.5t-1 -28t-3.5 -28.5t-7.5 -23t-12 -21.5t-18 -14.5t-26 -12v-84z" />
    <glyph glyph-name="quotedblleft" unicode="&#x201c;" horiz-adv-x="718" 
d="M319 1440q-125 -5 -196.5 -54t-71.5 -161v-176h201v147v38t1.5 32t5.5 32.5t11.5 23t19.5 22t29 12.5v84zM668 1440q-125 -5 -197 -54t-72 -161v-176h201v147v32.5t1 28t3.5 28.5t7.5 23t12 21.5t18 14.5t26 12v84z" />
    <glyph glyph-name="quotedblright" unicode="&#x201d;" horiz-adv-x="718" 
d="M51 1042q125 5 196.5 54t71.5 161v177h-200v-148v-32.5t-1 -28t-3.5 -28.5t-7.5 -23t-12 -21.5t-18 -14.5t-26 -12v-84zM399 1042q125 5 197 54t72 161v177h-201v-148v-32.5t-1 -28t-3.5 -28.5t-7.5 -23t-12 -21.5t-18 -14.5t-26 -12v-84z" />
    <glyph glyph-name="quotedblbase" unicode="&#x201e;" horiz-adv-x="718" 
d="M51 -154q125 5 196.5 54t71.5 161v177h-200v-148v-32.5t-1 -28t-3.5 -28.5t-7.5 -23t-12 -21.5t-18 -14.5t-26 -12v-84zM399 -154q125 5 197 54t72 161v177h-201v-148v-32.5t-1 -28t-3.5 -28.5t-7.5 -23t-12 -21.5t-18 -14.5t-26 -12v-84z" />
    <glyph glyph-name="dagger" unicode="&#x2020;" horiz-adv-x="778" 
d="M727 1024v-195h-238v-1013h-200v1013h-238v195h238v410h200v-410h238z" />
    <glyph glyph-name="daggerdbl" unicode="&#x2021;" horiz-adv-x="778" 
d="M727 829h-238v-184h238v-194h-238v-635h-200v635h-238v194h238v184h-238v195h238v410h200v-410h238v-195z" />
    <glyph glyph-name="bullet" unicode="&#x2022;" horiz-adv-x="366" 
d="M184 526q-56 0 -94.5 39t-38.5 94q0 56 39 95t94 39q54 0 92.5 -39.5t38.5 -94.5t-38.5 -94t-92.5 -39z" />
    <glyph glyph-name="ellipsis" unicode="&#x2026;" horiz-adv-x="1183" 
d="M123 0v250h201v-250h-201zM492 0v250h200v-250h-200zM860 0v250h201v-250h-201z" />
    <glyph glyph-name="perthousand" unicode="&#x2030;" horiz-adv-x="2471" 
d="M395 668q-147 0 -245.5 106t-98.5 281t98.5 281t245.5 106q145 0 243.5 -106t98.5 -281t-98.5 -281t-243.5 -106zM334 0l850 1434h211l-850 -1434h-211zM397 825q82 0 132.5 63t50.5 167t-50.5 166.5t-132.5 62.5q-84 0 -135 -62.5t-51 -166.5t51 -167t135 -63zM1325 -10
q-147 0 -245.5 106t-98.5 281t98.5 281t245.5 106q145 0 243.5 -106t98.5 -281t-98.5 -281t-243.5 -106zM2079 -10q-147 0 -245.5 106t-98.5 281t98.5 281t245.5 106q145 0 243.5 -106t98.5 -281t-98.5 -281t-243.5 -106zM1327 147q82 0 132 63t50 167t-50 166.5t-132 62.5
q-84 0 -135 -62.5t-51 -166.5t51 -167t135 -63zM2079 147q82 0 132 63t50 167t-50 166.5t-132 62.5q-84 0 -135.5 -62.5t-51.5 -166.5t51.5 -167t135.5 -63z" />
    <glyph glyph-name="guilsinglleft" unicode="&#x2039;" horiz-adv-x="438" 
d="M51 510v94l336 326v-191l-194 -182l194 -182v-191z" />
    <glyph glyph-name="guilsinglright" unicode="&#x203a;" horiz-adv-x="438" 
d="M387 510l-336 -326v191l195 182l-195 182v191l336 -326v-94z" />
    <glyph glyph-name="fraction" unicode="&#x2044;" horiz-adv-x="241" 
d="M651 1434h-211l-850 -1434h211z" />
    <glyph glyph-name="Euro" unicode="&#x20ac;" horiz-adv-x="1624" 
d="M905 174q150 0 269 67.5t186 186.5h215q-79 -200 -260.5 -322t-409.5 -122q-249 0 -443.5 145t-260.5 377h-156l49 143h78q-4 23 -4 68q0 33 2 49h-125l49 145h103q62 237 258 388t450 151q229 0 412.5 -125.5t259.5 -327.5h-213q-65 122 -186 192.5t-273 70.5
q-176 0 -310.5 -96.5t-186.5 -252.5h735l-49 -145h-723q-2 -16 -2 -49q0 -45 4 -68h708l-49 -143h-620q56 -151 188 -241.5t305 -90.5z" />
    <glyph glyph-name="trademark" unicode="&#x2122;" horiz-adv-x="1724" 
d="M727 1434v-125h-272v-715h-131v715h-273v125h676zM1536 1434h127v-840h-131l4 522l-236 -522h-129l-210 510v-510h-132v840h132l276 -666z" />
    <glyph glyph-name="product" unicode="&#x220f;" horiz-adv-x="1394" 
d="M1343 1415v-194h-180v-1467h-200v1467h-531v-1467h-201v1467h-180v194h1292z" />
    <glyph glyph-name="minus" unicode="&#x2212;" horiz-adv-x="837" 
d="M786 662v-195h-735v195h735z" />
    <glyph glyph-name="integral" unicode="&#x222b;" horiz-adv-x="964" 
d="M326 -410q-114 0 -188 50.5t-87 142.5h117q8 -30 34 -49t62 -19q52 0 84.5 30t32.5 93v1389q0 110 76.5 166.5t191.5 56.5q102 0 177 -50t85 -145h-114q-7 33 -34 51.5t-65 18.5q-54 0 -85 -29t-31 -88v-1388q0 -111 -73 -170.5t-183 -59.5z" />
    <glyph glyph-name="approxequal" unicode="&#x2248;" horiz-adv-x="884" 
d="M580 621q-43 0 -82.5 17t-64.5 38t-60 38t-70 17q-41 0 -68.5 -21.5t-56.5 -62.5l-127 103q44 80 110 131t142 51q43 0 84.5 -17.5t69 -38t61 -38t62.5 -17.5q41 0 68.5 21.5t56.5 62.5l129 -102q-46 -81 -111.5 -131.5t-142.5 -50.5zM580 225q-43 0 -82.5 17.5t-64.5 38
t-60 38t-70 17.5q-41 0 -68.5 -21.5t-56.5 -62.5l-127 102q44 80 110.5 131.5t141.5 51.5q43 0 84.5 -17.5t69 -38t61 -38t62.5 -17.5q41 0 68.5 21.5t56.5 62.5l129 -102q-46 -82 -111.5 -132.5t-142.5 -50.5z" />
    <glyph glyph-name="notequal" unicode="&#x2260;" horiz-adv-x="837" 
d="M786 702h-227l-74 -167h301v-195h-385l-82 -190l-186 49l62 141h-144v195h228l71 167h-299v195h383l86 197l187 -52l-64 -145h143v-195z" />
    <glyph glyph-name="lessequal" unicode="&#x2264;" horiz-adv-x="837" 
d="M51 565l735 -291v207l-475 183l475 182v207l-735 -291v-197zM51 195h735v-195h-735v195z" />
    <glyph glyph-name="greaterequal" unicode="&#x2265;" horiz-adv-x="837" 
d="M786 565v197l-735 291v-207l475 -182l-475 -183v-207zM786 195v-195h-735v195h735z" />
    <glyph glyph-name="lozenge" unicode="&#x25ca;" horiz-adv-x="997" 
d="M541 -63h-82l-408 788l408 725h84l403 -725zM270 723l228 -442l227 442l-227 405z" />
    <glyph glyph-name="A.alt" horiz-adv-x="1165" 
d="M586 1450q101 0 190 -31t160 -90.5t112.5 -157.5t41.5 -223v-948h-201v618h-615v-618h-200v948q0 125 42.5 223t115.5 157.5t163 90.5t191 31zM274 805h615v143q0 146 -84.5 226.5t-218.5 80.5q-136 0 -224 -80.5t-88 -226.5v-143z" />
    <glyph glyph-name="M.alt" horiz-adv-x="1849" 
d="M1352 1450q203 0 319.5 -126t116.5 -376v-948h-201v948q0 143 -75.5 225t-200.5 82q-127 0 -206 -82.5t-79 -224.5v-948h-203v948q0 143 -75.5 225t-200.5 82q-127 0 -206 -82.5t-79 -224.5v-948h-201v948q0 248 125.5 375t331.5 127q159 0 253.5 -56.5t154.5 -176.5
q73 121 171 177t255 56z" />
    <glyph glyph-name="N.alt" horiz-adv-x="1138" 
d="M61 0v948q0 125 42.5 223t115.5 157.5t163 90.5t191 31t190 -31t160 -90.5t112.5 -157.5t41.5 -223v-948h-200v948q0 146 -85 226.5t-219 80.5q-136 0 -223.5 -80.5t-87.5 -226.5v-948h-201z" />
    <glyph glyph-name="W.alt" horiz-adv-x="1849" 
d="M1352 -16q-157 0 -255 56t-171 177q-60 -120 -154.5 -176.5t-253.5 -56.5q-206 0 -331.5 126.5t-125.5 374.5v949h201v-949q0 -142 79 -224.5t206 -82.5q125 0 200.5 82t75.5 225v949h203v-949q0 -142 79 -224.5t206 -82.5q125 0 200.5 82t75.5 225v949h201v-949
q0 -250 -116 -375.5t-320 -125.5z" />
    <glyph glyph-name="a.salt" 
d="M580 1790q23 0 39 -17t16 -40t-16 -39.5t-39 -16.5t-39.5 16.5t-16.5 39.5t16.5 40t39.5 17zM580 1602q30 0 50.5 -21t20.5 -51q0 -31 -20 -51.5t-51 -20.5q-30 0 -51 21t-21 51q0 29 21.5 50.5t50.5 21.5zM580 1386q44 0 76 -33t32 -79q0 -45 -32 -78t-76 -33
q-45 0 -78 33t-33 78q0 46 32.5 79t78.5 33zM580 1339q-26 0 -45 -18.5t-19 -46.5q0 -27 18.5 -45.5t45.5 -18.5q28 0 46.5 18t18.5 46t-18.5 46.5t-46.5 18.5zM580 -16q-143 0 -265 70.5t-193 192t-71 265.5t71 265.5t193 192t265 70.5t264 -70.5t191.5 -192t70.5 -265.5
v-512h-201v162q-38 -77 -128 -127.5t-197 -50.5zM582 178q139 0 232 97t93 237q0 141 -92.5 237.5t-232.5 96.5t-235 -97t-95 -237t95.5 -237t234.5 -97z" />
    <glyph glyph-name="a.salt2" 
d="M578 1989q23 0 39 -16.5t16 -39.5q0 -22 -16 -38.5t-39 -16.5t-39.5 16.5t-16.5 38.5q0 23 16.5 39.5t39.5 16.5zM578 1804q31 0 51 -21t20 -52q0 -29 -20.5 -49.5t-50.5 -20.5q-29 0 -50.5 20.5t-21.5 49.5q0 31 21 52t51 21zM580 1587q44 0 76 -33t32 -79
q0 -44 -32 -76.5t-76 -32.5q-46 0 -78.5 32.5t-32.5 76.5q0 46 32.5 79t78.5 33zM578 1542q-28 0 -46 -19t-18 -48q0 -27 18.5 -45.5t45.5 -18.5q28 0 46.5 18.5t18.5 45.5q0 29 -18.5 48t-46.5 19zM326 1407q46 0 98 -47q30 -24 52.5 -57t33.5 -63.5t17.5 -57t8.5 -42.5
l1 -16q0 -8 -5 -8q-2 0 -10 8q-35 42 -83.5 77.5t-84 54t-61 43t-25.5 53.5q0 23 18 39t40 16zM831 1407q22 0 39 -16t17 -39q0 -29 -25.5 -53.5t-61 -43t-84 -54t-83.5 -77.5q-4 -8 -8 -8q-7 0 -7 8q0 6 1.5 16.5t8.5 41t18.5 58.5t34 62t52.5 58q52 47 98 47zM580 -16
q-143 0 -265 70.5t-193 192t-71 265.5t71 265.5t193 192t265 70.5t264 -70.5t191.5 -192t70.5 -265.5v-512h-201v162q-38 -77 -128 -127.5t-197 -50.5zM582 178q139 0 232 97t93 237q0 141 -92.5 237.5t-232.5 96.5t-235 -97t-95 -237t95.5 -237t234.5 -97z" />
    <glyph glyph-name="a.swsh" 
d="M578 1884q14 0 24 -10t10 -25q0 -12 -10.5 -22t-23.5 -10t-23 10t-10 22q0 15 9.5 25t23.5 10zM578 1655q-20 0 -33 12t-13 31t13 32t33 13q19 0 32 -13t13 -32t-13 -31t-32 -12zM578 1450q-29 0 -48.5 20t-19.5 48t19.5 47.5t48.5 19.5q28 0 48.5 -19.5t20.5 -47.5
t-20.5 -48t-48.5 -20zM578 1470q20 0 33.5 14t13.5 34t-13.5 33.5t-33.5 13.5t-33 -13.5t-13 -33.5t13 -34t33 -14zM547 1255q-1 0 -2 1.5t-2.5 3.5t-3.5 4q-24 31 -59 56.5t-60.5 38.5t-44.5 30.5t-19 37.5q0 17 12 29t29 12q30 0 72 -34q35 -28 55.5 -70.5t23.5 -71.5
l3 -28q0 -9 -4 -9zM805 1427q0 -20 -18.5 -37.5t-44 -30.5t-60.5 -38.5t-59 -56.5q-1 -1 -2.5 -3t-2.5 -3l-2 -2t-2 -1q-6 0 -6 9q1 12 4 31.5t24 65t56 73.5q42 34 72 34q17 0 29 -12t12 -29zM551 1188q0 -4 -8 -4q-73 0 -168 -51q-19 -10 -44.5 -27t-42.5 -24t-40 -7
q-27 0 -44.5 16t-17.5 42q0 42 32.5 70t75.5 38t93 10q49 0 106.5 -24t57.5 -39zM973 1133q0 -26 -17 -42t-43 -16q-23 0 -40 7t-42.5 24t-44.5 27q-95 51 -168 51q-10 0 -10 4q0 15 58.5 39t107.5 24q50 0 92.5 -10t74.5 -38t32 -70zM580 -16q-143 0 -265 70.5t-193 192
t-71 265.5t71 265.5t193 192t265 70.5t264 -70.5t191.5 -192t70.5 -265.5v-512h-201v162q-38 -77 -128 -127.5t-197 -50.5zM582 178q139 0 232 97t93 237q0 141 -92.5 237.5t-232.5 96.5t-235 -97t-95 -237t95.5 -237t234.5 -97z" />
    <glyph glyph-name="c.salt" horiz-adv-x="1120" 
d="M573 1790q23 0 39.5 -17t16.5 -40t-16.5 -39.5t-39.5 -16.5t-39 16.5t-16 39.5t16 40t39 17zM573 1602q30 0 51 -21t21 -51q0 -31 -20.5 -51.5t-51.5 -20.5q-29 0 -50 21t-21 51q0 29 21 50.5t50 21.5zM573 1386q44 0 76.5 -33t32.5 -79q0 -44 -32.5 -77.5t-76.5 -33.5
q-45 0 -77.5 33t-32.5 78q0 46 32 79t78 33zM573 1339q-26 0 -44.5 -18.5t-18.5 -46.5t18 -46t45 -18q28 0 47 18t19 46t-19 46.5t-47 18.5zM580 -16q-144 0 -266 70.5t-192.5 192t-70.5 265.5t70.5 265.5t192.5 192t266 70.5q166 0 299 -94t188 -244h-215
q-44 66 -114.5 105t-155.5 39q-140 0 -235 -97t-95 -237t95.5 -237t234.5 -97q84 0 153 37t113 102h219q-56 -149 -188.5 -241t-298.5 -92z" />
    <glyph glyph-name="c.salt2" horiz-adv-x="1120" 
d="M571 1989q23 0 39.5 -16.5t16.5 -39.5q0 -22 -16.5 -38.5t-39.5 -16.5t-39 16.5t-16 38.5q0 23 16 39.5t39 16.5zM571 1804q31 0 51.5 -21t20.5 -52q0 -29 -20.5 -49.5t-51.5 -20.5q-29 0 -50 20.5t-21 49.5q0 31 21 52t50 21zM573 1587q44 0 76.5 -33t32.5 -79
q0 -44 -32.5 -76.5t-76.5 -32.5q-45 0 -77.5 32t-32.5 77q0 46 32 79t78 33zM571 1542q-28 0 -45.5 -19t-17.5 -48q0 -27 18 -45.5t45 -18.5q28 0 47 19t19 45q0 29 -19 48t-47 19zM319 1407q47 0 99 -47q47 -38 75 -97t33 -99l4 -40q0 -8 -4 -8q-2 0 -10 8
q-35 42 -83.5 77.5t-84 54t-61 43t-25.5 53.5q0 23 17.5 39t39.5 16zM825 1407q22 0 39 -16t17 -39q0 -29 -25.5 -53.5t-61 -43t-84 -54t-83.5 -77.5q-4 -8 -9 -8q-6 0 -6 8q0 6 1.5 16.5t8.5 41t18.5 58.5t34 62t52.5 58q52 47 98 47zM580 -16q-144 0 -266 70.5t-192.5 192
t-70.5 265.5t70.5 265.5t192.5 192t266 70.5q166 0 299 -94t188 -244h-215q-44 66 -114.5 105t-155.5 39q-140 0 -235 -97t-95 -237t95.5 -237t234.5 -97q84 0 153 37t113 102h219q-56 -149 -188.5 -241t-298.5 -92z" />
    <glyph glyph-name="c.swsh" horiz-adv-x="1120" 
d="M569 1884q14 0 24.5 -10t10.5 -25q0 -12 -11 -22t-24 -10t-22.5 10t-9.5 22q0 15 9 25t23 10zM569 1655q-20 0 -32.5 12t-12.5 31t12.5 32t32.5 13q19 0 32 -13t13 -32t-13 -31t-32 -12zM569 1450q-29 0 -48 20t-19 48t19 47.5t48 19.5q28 0 49 -20t21 -47q0 -28 -21 -48
t-49 -20zM569 1470q20 0 33.5 14t13.5 34t-13.5 33.5t-33.5 13.5t-32.5 -13.5t-12.5 -33.5q0 -21 12.5 -34.5t32.5 -13.5zM539 1255l-9 9q-24 31 -59 56.5t-60.5 38.5t-44 30.5t-18.5 37.5q0 17 12 29t29 12q30 0 72 -34q35 -28 55.5 -70.5t23.5 -71.5l3 -28q0 -9 -4 -9z
M797 1427q0 -20 -19 -37.5t-44.5 -30.5t-60.5 -38.5t-59 -56.5q-2 -2 -3.5 -4t-2.5 -3.5t-2 -1.5q-6 0 -6 9q1 12 4 31.5t24 65t56 73.5q42 34 72 34q17 0 29 -12t12 -29zM543 1188q0 -4 -8 -4q-73 0 -168 -51q-19 -10 -44.5 -27t-42.5 -24t-40 -7q-27 0 -44.5 16t-17.5 42
q0 42 32.5 70t75.5 38t93 10q49 0 106.5 -24t57.5 -39zM965 1133q0 -26 -17 -42t-43 -16q-23 0 -40 7t-42.5 24t-44.5 27q-95 51 -168 51q-10 0 -10 4q0 15 58.5 39t107.5 24q50 0 92.5 -10t74.5 -38t32 -70zM580 -16q-144 0 -266 70.5t-192.5 192t-70.5 265.5t70.5 265.5
t192.5 192t266 70.5q166 0 299 -94t188 -244h-215q-44 66 -114.5 105t-155.5 39q-140 0 -235 -97t-95 -237t95.5 -237t234.5 -97q84 0 153 37t113 102h219q-56 -149 -188.5 -241t-298.5 -92z" />
    <glyph glyph-name="e.salt" horiz-adv-x="1150" 
d="M575 1790q23 0 39.5 -17t16.5 -40t-16.5 -39.5t-39.5 -16.5t-39 16.5t-16 39.5t16 40t39 17zM575 1602q30 0 51 -21t21 -51q0 -31 -20.5 -51.5t-51.5 -20.5q-29 0 -50 21t-21 51q0 29 21 50.5t50 21.5zM575 1386q44 0 76.5 -33t32.5 -79q0 -44 -32.5 -77.5t-76.5 -33.5
q-45 0 -77.5 33t-32.5 78q0 46 32 79t78 33zM575 1339q-26 0 -44.5 -18.5t-18.5 -46.5t18 -46t45 -18q28 0 47 18t19 46t-19 46.5t-47 18.5zM51 510q0 143 68 264.5t188 193.5t264 72q99 0 192.5 -35.5t167 -100t119.5 -162t50 -212.5q0 -52 -6 -92h-828
q12 -115 96.5 -187.5t208.5 -72.5q150 0 246 103l240 -2q-67 -133 -196 -214t-283 -81q-145 0 -266.5 70.5t-191 191.5t-69.5 264zM266 602h619q-28 106 -113 175t-194 69q-117 0 -200 -68t-112 -176z" />
    <glyph glyph-name="e.salt2" horiz-adv-x="1150" 
d="M578 1989q23 0 39 -16.5t16 -39.5q0 -22 -16 -38.5t-39 -16.5t-39.5 16.5t-16.5 38.5q0 23 16.5 39.5t39.5 16.5zM578 1804q31 0 51 -21t20 -52q0 -29 -20.5 -49.5t-50.5 -20.5q-29 0 -50.5 20.5t-21.5 49.5q0 31 21 52t51 21zM580 1587q44 0 76 -33t32 -79
q0 -44 -32 -76.5t-76 -32.5q-46 0 -78.5 32.5t-32.5 76.5q0 46 32.5 79t78.5 33zM578 1542q-28 0 -46 -19t-18 -48q0 -27 18.5 -45.5t45.5 -18.5q28 0 46.5 18.5t18.5 45.5q0 29 -18.5 48t-46.5 19zM326 1407q46 0 98 -47q30 -24 52.5 -57t33.5 -63.5t17.5 -57t8.5 -42.5
l1 -16q0 -8 -5 -8q-2 0 -10 8q-35 42 -83.5 77.5t-84 54t-61 43t-25.5 53.5q0 23 18 39t40 16zM831 1407q22 0 39 -16t17 -39q0 -29 -25.5 -53.5t-61 -43t-84 -54t-83.5 -77.5q-4 -8 -8 -8q-7 0 -7 8q0 6 1.5 16.5t8.5 41t18.5 58.5t34 62t52.5 58q52 47 98 47zM51 510
q0 143 68 264.5t188 193.5t264 72q99 0 192.5 -35.5t167 -100t119.5 -162t50 -212.5q0 -52 -6 -92h-828q12 -115 96.5 -187.5t208.5 -72.5q150 0 246 103l240 -2q-67 -133 -196 -214t-283 -81q-145 0 -266.5 70.5t-191 191.5t-69.5 264zM266 602h619q-28 106 -113 175
t-194 69q-117 0 -200 -68t-112 -176z" />
    <glyph glyph-name="e.swsh" horiz-adv-x="1150" 
d="M573 1884q14 0 24.5 -10t10.5 -25q0 -12 -11 -22t-24 -10t-22.5 10t-9.5 22q0 15 9 25t23 10zM573 1655q-20 0 -32.5 12t-12.5 31t12.5 32t32.5 13q19 0 32 -13t13 -32t-13 -31t-32 -12zM573 1450q-29 0 -48 20t-19 48t19 47.5t48 19.5q28 0 49 -20t21 -47q0 -28 -21 -48
t-49 -20zM573 1470q20 0 34 14t14 34t-14 33.5t-34 13.5t-32.5 -13.5t-12.5 -33.5q0 -21 12.5 -34.5t32.5 -13.5zM543 1255q-1 0 -2 1.5t-2.5 3.5t-3.5 4q-24 31 -59 56.5t-60.5 38.5t-44.5 30.5t-19 37.5q0 17 12 29t29 12q30 0 72 -34q35 -28 55.5 -70.5t23.5 -71.5l3 -28
q0 -9 -4 -9zM801 1427q0 -20 -19 -37.5t-44.5 -30.5t-60.5 -38.5t-59 -56.5q-2 -2 -3.5 -4t-2.5 -3.5t-2 -1.5q-6 0 -6 9q1 12 4 31.5t24 65t56 73.5q42 34 72 34q17 0 29 -12t12 -29zM547 1188q0 -4 -8 -4q-73 0 -168 -51q-19 -10 -44.5 -27t-42.5 -24t-40 -7
q-27 0 -44.5 16t-17.5 42q0 42 32.5 70t75.5 38t93 10q49 0 106.5 -24t57.5 -39zM969 1133q0 -26 -17 -42t-43 -16q-23 0 -40 7t-42.5 24t-44.5 27q-95 51 -168 51q-10 0 -10 4q0 15 58.5 39t107.5 24q50 0 92.5 -10t74.5 -38t32 -70zM51 510q0 143 68 264.5t188 193.5
t264 72q99 0 192.5 -35.5t167 -100t119.5 -162t50 -212.5q0 -52 -6 -92h-828q12 -115 96.5 -187.5t208.5 -72.5q150 0 246 103l240 -2q-67 -133 -196 -214t-283 -81q-145 0 -266.5 70.5t-191 191.5t-69.5 264zM266 602h619q-28 106 -113 175t-194 69q-117 0 -200 -68
t-112 -176z" />
    <glyph glyph-name="g.salt" horiz-adv-x="1169" 
d="M580 1790q23 0 39 -17t16 -40t-16 -39.5t-39 -16.5t-39.5 16.5t-16.5 39.5t16.5 40t39.5 17zM580 1602q30 0 50.5 -21t20.5 -51q0 -31 -20 -51.5t-51 -20.5q-30 0 -51 21t-21 51q0 29 21.5 50.5t50.5 21.5zM580 1386q44 0 76 -33t32 -79q0 -45 -32 -78t-76 -33
q-45 0 -78 33t-33 78q0 46 32.5 79t78.5 33zM580 1339q-26 0 -45 -18.5t-19 -46.5q0 -27 18.5 -45.5t45.5 -18.5q28 0 46.5 18t18.5 46t-18.5 46.5t-46.5 18.5zM580 -410q-159 0 -290.5 87.5t-193.5 230.5h242q96 -123 242 -123q135 0 229 80.5t94 206.5v47
q-132 -135 -323 -135q-144 0 -266 70.5t-192.5 192t-70.5 265.5t70.5 265.5t192.5 192t266 70.5t265.5 -70.5t192 -192t70.5 -265.5v-393q0 -144 -70.5 -266t-192 -192.5t-265.5 -70.5zM582 178q139 0 232 97t93 237q0 141 -92.5 237.5t-232.5 96.5t-235 -97t-95 -237
t95.5 -237t234.5 -97z" />
    <glyph glyph-name="g.salt2" horiz-adv-x="1169" 
d="M580 1987q23 0 39 -16.5t16 -39.5q0 -22 -16 -38.5t-39 -16.5t-39.5 16.5t-16.5 38.5q0 23 16.5 39.5t39.5 16.5zM580 1802q31 0 51 -21t20 -52q0 -29 -20.5 -49.5t-50.5 -20.5q-29 0 -50.5 20.5t-21.5 49.5q0 31 21 52t51 21zM582 1585q44 0 76 -33t32 -79
q0 -44 -32 -76.5t-76 -32.5q-46 0 -78.5 32.5t-32.5 76.5q0 46 32.5 79t78.5 33zM580 1540q-28 0 -46 -19t-18 -48q0 -27 18.5 -45.5t45.5 -18.5q28 0 46.5 18.5t18.5 45.5q0 29 -18.5 48t-46.5 19zM328 1405q46 0 98 -47q30 -24 52.5 -57t33.5 -63.5t17.5 -57t8.5 -42.5
l1 -16q0 -8 -4 -8q-3 0 -11 8q-35 42 -83.5 77.5t-84 54t-61 43t-25.5 53.5q0 23 18 39t40 16zM834 1405q22 0 38.5 -16t16.5 -39q0 -29 -25.5 -53.5t-61 -43t-84 -54t-83.5 -77.5q-4 -8 -8 -8q-6 0 -6 8q0 6 1.5 16.5t8.5 41t18 58.5t33.5 62t52.5 58q52 47 99 47z
M580 -410q-159 0 -290.5 87.5t-193.5 230.5h242q96 -123 242 -123q135 0 229 80.5t94 206.5v47q-132 -135 -323 -135q-144 0 -266 70.5t-192.5 192t-70.5 265.5t70.5 265.5t192.5 192t266 70.5t265.5 -70.5t192 -192t70.5 -265.5v-393q0 -144 -70.5 -266t-192 -192.5
t-265.5 -70.5zM582 178q139 0 232 97t93 237q0 141 -92.5 237.5t-232.5 96.5t-235 -97t-95 -237t95.5 -237t234.5 -97z" />
    <glyph glyph-name="g.swsh" horiz-adv-x="1169" 
d="M578 1884q14 0 24 -10t10 -25q0 -12 -10.5 -22t-23.5 -10t-23 10t-10 22q0 15 9.5 25t23.5 10zM578 1655q-20 0 -33 12t-13 31t13 32t33 13q19 0 32 -13t13 -32t-13 -31t-32 -12zM578 1450q-29 0 -48.5 20t-19.5 48t19.5 47.5t48.5 19.5q28 0 48.5 -19.5t20.5 -47.5
t-20.5 -48t-48.5 -20zM578 1470q20 0 33.5 14t13.5 34t-13.5 33.5t-33.5 13.5t-33 -13.5t-13 -33.5t13 -34t33 -14zM547 1255q-1 0 -2 1.5t-2.5 3.5t-3.5 4q-24 31 -59 56.5t-60.5 38.5t-44.5 30.5t-19 37.5q0 17 12 29t29 12q30 0 72 -34q35 -28 55.5 -70.5t23.5 -71.5
l3 -28q0 -9 -4 -9zM805 1427q0 -20 -18.5 -37.5t-44 -30.5t-60.5 -38.5t-59 -56.5q-1 -1 -2.5 -3t-2.5 -3l-2 -2t-2 -1q-6 0 -6 9q1 12 4 31.5t24 65t56 73.5q42 34 72 34q17 0 29 -12t12 -29zM551 1188q0 -4 -8 -4q-73 0 -168 -51q-19 -10 -44.5 -27t-42.5 -24t-40 -7
q-27 0 -44.5 16t-17.5 42q0 42 32.5 70t75.5 38t93 10q49 0 106.5 -24t57.5 -39zM973 1133q0 -26 -17 -42t-43 -16q-23 0 -40 7t-42.5 24t-44.5 27q-95 51 -168 51q-10 0 -10 4q0 15 58.5 39t107.5 24q50 0 92.5 -10t74.5 -38t32 -70zM580 -410q-159 0 -290.5 87.5
t-193.5 230.5h242q96 -123 242 -123q135 0 229 80.5t94 206.5v47q-132 -135 -323 -135q-144 0 -266 70.5t-192.5 192t-70.5 265.5t70.5 265.5t192.5 192t266 70.5t265.5 -70.5t192 -192t70.5 -265.5v-393q0 -144 -70.5 -266t-192 -192.5t-265.5 -70.5zM582 178q139 0 232 97
t93 237q0 141 -92.5 237.5t-232.5 96.5t-235 -97t-95 -237t95.5 -237t234.5 -97z" />
    <glyph glyph-name="n.salt" horiz-adv-x="1024" 
d="M512 1790q23 0 39 -17t16 -40t-16 -39.5t-39 -16.5t-39 16.5t-16 39.5t16 40t39 17zM512 1602q30 0 51 -21t21 -51q0 -31 -20.5 -51.5t-51.5 -20.5q-30 0 -51 21t-21 51q0 29 21.5 50.5t50.5 21.5zM512 1386q44 0 76.5 -33t32.5 -79q0 -44 -32.5 -77.5t-76.5 -33.5
q-45 0 -78 33t-33 78q0 46 32.5 79t78.5 33zM512 1339q-26 0 -44.5 -18.5t-18.5 -46.5t18.5 -46t44.5 -18q28 0 47 18t19 46t-19 46.5t-47 18.5zM963 0v539q0 126 -33.5 223t-94 157t-142 90.5t-181.5 30.5t-181.5 -30.5t-142 -90.5t-94 -157t-33.5 -223v-539h201v539
q0 307 250 307t250 -307v-539h201z" />
    <glyph glyph-name="n.salt2" horiz-adv-x="1024" 
d="M512 1989q23 0 39 -16.5t16 -39.5q0 -22 -16 -38.5t-39 -16.5t-39 16.5t-16 38.5q0 23 16 39.5t39 16.5zM512 1804q31 0 51.5 -21t20.5 -52q0 -29 -20.5 -49.5t-51.5 -20.5q-29 0 -50.5 20.5t-21.5 49.5q0 31 21 52t51 21zM514 1587q44 0 76.5 -33t32.5 -79
q0 -44 -32.5 -76.5t-76.5 -32.5q-46 0 -78.5 32.5t-32.5 76.5q0 46 32.5 79t78.5 33zM512 1542q-28 0 -45.5 -19t-17.5 -48q0 -27 18 -45.5t45 -18.5q28 0 47 19t19 45q0 29 -19 48t-47 19zM260 1407q46 0 98 -47q30 -24 52.5 -57t33.5 -63.5t17.5 -57t8.5 -42.5l1 -16
q0 -8 -4 -8q-2 0 -10 8q-35 42 -83.5 77.5t-84 54t-61 43t-25.5 53.5q0 23 17.5 39t39.5 16zM766 1407q22 0 38.5 -16t16.5 -39q0 -29 -25.5 -53.5t-61 -43t-84 -54t-83.5 -77.5q-4 -8 -8 -8q-6 0 -6 8q0 6 1.5 16.5t8.5 41t18.5 58.5t34 62t52.5 58q52 47 98 47zM963 0v539
q0 126 -33.5 223t-94 157t-142 90.5t-181.5 30.5t-181.5 -30.5t-142 -90.5t-94 -157t-33.5 -223v-539h201v539q0 307 250 307t250 -307v-539h201z" />
    <glyph glyph-name="n.swsh" horiz-adv-x="1024" 
d="M524 1884q14 0 24.5 -10t10.5 -25q0 -12 -11 -22t-24 -10t-22.5 10t-9.5 22q0 15 9 25t23 10zM524 1655q-20 0 -32.5 12t-12.5 31t12.5 32t32.5 13q19 0 32 -13t13 -32t-13 -31t-32 -12zM524 1450q-29 0 -48 20t-19 48t19 47.5t48 19.5q28 0 49 -20t21 -47q0 -28 -21 -48
t-49 -20zM524 1470q20 0 33.5 14t13.5 34t-13.5 33.5t-33.5 13.5t-32.5 -13.5t-12.5 -33.5q0 -21 12.5 -34.5t32.5 -13.5zM494 1255l-9 9q-24 31 -59 56.5t-60.5 38.5t-44 30.5t-18.5 37.5q0 17 12 29t29 12q30 0 72 -34q35 -28 55.5 -70.5t23.5 -71.5l3 -28q0 -9 -4 -9z
M752 1427q0 -20 -19 -37.5t-44.5 -30.5t-60.5 -38.5t-59 -56.5q-2 -2 -3.5 -4t-2.5 -3.5t-2 -1.5q-6 0 -6 9q1 12 4 31.5t24 65t56 73.5q42 34 72 34q17 0 29 -12t12 -29zM498 1188q0 -4 -9 -4q-72 0 -167 -51q-19 -10 -44.5 -27t-42.5 -24t-40 -7q-27 0 -44.5 16t-17.5 42
q0 42 32.5 70t75.5 38t93 10q49 0 106.5 -24t57.5 -39zM920 1133q0 -26 -17 -42t-43 -16q-23 0 -40 7t-42.5 24t-44.5 27q-95 51 -168 51q-10 0 -10 4q0 15 58.5 39t107.5 24q50 0 92.5 -10t74.5 -38t32 -70zM963 0v539q0 126 -33.5 223t-94 157t-142 90.5t-181.5 30.5
t-181.5 -30.5t-142 -90.5t-94 -157t-33.5 -223v-539h201v539q0 307 250 307t250 -307v-539h201z" />
    <glyph glyph-name="o.salt" horiz-adv-x="1159" 
d="M580 1790q23 0 39 -17t16 -40t-16 -39.5t-39 -16.5t-39.5 16.5t-16.5 39.5t16.5 40t39.5 17zM580 1602q30 0 50.5 -21t20.5 -51q0 -31 -20 -51.5t-51 -20.5q-30 0 -51 21t-21 51q0 29 21.5 50.5t50.5 21.5zM580 1386q44 0 76 -33t32 -79q0 -45 -32 -78t-76 -33
q-45 0 -78 33t-33 78q0 46 32.5 79t78.5 33zM580 1339q-26 0 -45 -18.5t-19 -46.5q0 -27 18.5 -45.5t45.5 -18.5q28 0 46.5 18t18.5 46t-18.5 46.5t-46.5 18.5zM580 1040q144 0 265.5 -70.5t192 -192t70.5 -265.5t-70.5 -265.5t-192 -192t-265.5 -70.5t-266 70.5t-192.5 192
t-70.5 265.5t70.5 265.5t192.5 192t266 70.5zM582 846q-140 0 -235 -97t-95 -237t95.5 -237t234.5 -97t232 97t93 237q0 141 -92.5 237.5t-232.5 96.5z" />
    <glyph glyph-name="o.salt2" horiz-adv-x="1159" 
d="M580 1989q23 0 39 -16.5t16 -39.5q0 -22 -16 -38.5t-39 -16.5t-39.5 16.5t-16.5 38.5q0 23 16.5 39.5t39.5 16.5zM580 1804q31 0 51 -21t20 -52q0 -29 -20.5 -49.5t-50.5 -20.5q-29 0 -50.5 20.5t-21.5 49.5q0 31 21 52t51 21zM582 1587q44 0 76 -33t32 -79
q0 -44 -32 -76.5t-76 -32.5q-46 0 -78.5 32.5t-32.5 76.5q0 46 32.5 79t78.5 33zM580 1542q-28 0 -46 -19t-18 -48q0 -27 18.5 -45.5t45.5 -18.5q28 0 46.5 18.5t18.5 45.5q0 29 -18.5 48t-46.5 19zM328 1407q46 0 98 -47q30 -24 52.5 -57t33.5 -63.5t17.5 -57t8.5 -42.5
l1 -16q0 -8 -4 -8q-3 0 -11 8q-35 42 -83.5 77.5t-84 54t-61 43t-25.5 53.5q0 23 18 39t40 16zM834 1407q22 0 38.5 -16t16.5 -39q0 -29 -25.5 -53.5t-61 -43t-84 -54t-83.5 -77.5q-4 -8 -8 -8q-6 0 -6 8q0 6 1.5 16.5t8.5 41t18 58.5t33.5 62t52.5 58q52 47 99 47z
M580 1040q144 0 265.5 -70.5t192 -192t70.5 -265.5t-70.5 -265.5t-192 -192t-265.5 -70.5t-266 70.5t-192.5 192t-70.5 265.5t70.5 265.5t192.5 192t266 70.5zM582 846q-140 0 -235 -97t-95 -237t95.5 -237t234.5 -97t232 97t93 237q0 141 -92.5 237.5t-232.5 96.5z" />
    <glyph glyph-name="o.swsh" horiz-adv-x="1159" 
d="M578 1884q14 0 24 -10t10 -25q0 -12 -10.5 -22t-23.5 -10t-23 10t-10 22q0 15 9.5 25t23.5 10zM578 1655q-20 0 -33 12t-13 31t13 32t33 13q19 0 32 -13t13 -32t-13 -31t-32 -12zM578 1450q-29 0 -48.5 20t-19.5 48t19.5 47.5t48.5 19.5q28 0 48.5 -19.5t20.5 -47.5
t-20.5 -48t-48.5 -20zM578 1470q20 0 33.5 14t13.5 34t-13.5 33.5t-33.5 13.5t-33 -13.5t-13 -33.5t13 -34t33 -14zM547 1255q-1 0 -2 1.5t-2.5 3.5t-3.5 4q-24 31 -59 56.5t-60.5 38.5t-44.5 30.5t-19 37.5q0 17 12 29t29 12q30 0 72 -34q35 -28 55.5 -70.5t23.5 -71.5
l3 -28q0 -9 -4 -9zM805 1427q0 -20 -18.5 -37.5t-44 -30.5t-60.5 -38.5t-59 -56.5q-1 -1 -2.5 -3t-2.5 -3l-2 -2t-2 -1q-6 0 -6 9q1 12 4 31.5t24 65t56 73.5q42 34 72 34q17 0 29 -12t12 -29zM551 1188q0 -4 -8 -4q-73 0 -168 -51q-19 -10 -44.5 -27t-42.5 -24t-40 -7
q-27 0 -44.5 16t-17.5 42q0 42 32.5 70t75.5 38t93 10q49 0 106.5 -24t57.5 -39zM973 1133q0 -26 -17 -42t-43 -16q-23 0 -40 7t-42.5 24t-44.5 27q-95 51 -168 51q-10 0 -10 4q0 15 58.5 39t107.5 24q50 0 92.5 -10t74.5 -38t32 -70zM580 1040q144 0 265.5 -70.5t192 -192
t70.5 -265.5t-70.5 -265.5t-192 -192t-265.5 -70.5t-266 70.5t-192.5 192t-70.5 265.5t70.5 265.5t192.5 192t266 70.5zM582 846q-140 0 -235 -97t-95 -237t95.5 -237t234.5 -97t232 97t93 237q0 141 -92.5 237.5t-232.5 96.5z" />
    <glyph glyph-name="p.salt" 
d="M590 1790q23 0 39 -17t16 -40t-16 -39.5t-39 -16.5t-39 16.5t-16 39.5t16 40t39 17zM590 1602q30 0 51 -21t21 -51q0 -31 -20.5 -51.5t-51.5 -20.5q-30 0 -51 21t-21 51q0 29 21.5 50.5t50.5 21.5zM590 1386q44 0 76 -33t32 -79q0 -45 -32 -78t-76 -33q-45 0 -78 33
t-33 78q0 46 32.5 79t78.5 33zM590 1339q-26 0 -45 -18.5t-19 -46.5q0 -27 18.5 -45.5t45.5 -18.5q28 0 46.5 18t18.5 46t-18.5 46.5t-46.5 18.5zM61 512q0 144 70.5 265.5t192 192t264.5 70.5t264.5 -70.5t192.5 -192t71 -265.5t-71 -265.5t-192.5 -192t-264.5 -70.5
q-200 0 -324 147v-541h-203v922zM588 178q139 0 233 97t94 237q0 141 -93.5 237.5t-233.5 96.5q-139 0 -233.5 -97t-94.5 -237t95 -237t233 -97z" />
    <glyph glyph-name="p.salt2" 
d="M588 1989q23 0 39 -16.5t16 -39.5q0 -22 -16 -38.5t-39 -16.5t-39.5 16.5t-16.5 38.5q0 23 16.5 39.5t39.5 16.5zM588 1804q31 0 51 -21t20 -52q0 -29 -20.5 -49.5t-50.5 -20.5q-29 0 -50.5 20.5t-21.5 49.5q0 31 21 52t51 21zM590 1587q44 0 76 -33t32 -79
q0 -44 -32 -76.5t-76 -32.5q-46 0 -78.5 32.5t-32.5 76.5q0 46 32.5 79t78.5 33zM588 1542q-28 0 -46 -19t-18 -48q0 -27 18.5 -45.5t45.5 -18.5q28 0 46.5 18.5t18.5 45.5q0 29 -18.5 48t-46.5 19zM336 1407q46 0 98 -47q30 -24 52.5 -57t33.5 -63.5t17.5 -57t8.5 -42.5
l1 -16q0 -8 -4 -8q-3 0 -11 8q-35 42 -83.5 77.5t-83.5 54t-60.5 43t-25.5 53.5q0 23 17.5 39t39.5 16zM842 1407q22 0 38.5 -16t16.5 -39q0 -29 -25.5 -53.5t-61 -43t-84 -54t-83.5 -77.5q-4 -8 -8 -8q-6 0 -6 8q0 6 1.5 16.5t8.5 41t18 58.5t33.5 62t52.5 58q52 47 99 47z
M61 512q0 144 70.5 265.5t192 192t264.5 70.5t264.5 -70.5t192.5 -192t71 -265.5t-71 -265.5t-192.5 -192t-264.5 -70.5q-200 0 -324 147v-541h-203v922zM588 178q139 0 233 97t94 237q0 141 -93.5 237.5t-233.5 96.5q-139 0 -233.5 -97t-94.5 -237t95 -237t233 -97z" />
    <glyph glyph-name="p.swsh" 
d="M586 1884q14 0 24.5 -10t10.5 -25q0 -12 -11 -22t-24 -10t-23 10t-10 22q0 15 9.5 25t23.5 10zM586 1655q-20 0 -32.5 12t-12.5 31t12.5 32t32.5 13q19 0 32 -13t13 -32t-13 -31t-32 -12zM586 1450q-29 0 -48.5 20t-19.5 48t19.5 47.5t48.5 19.5q28 0 48.5 -19.5
t20.5 -47.5t-20.5 -48t-48.5 -20zM586 1470q20 0 33.5 14t13.5 34t-13.5 33.5t-33.5 13.5t-32.5 -13.5t-12.5 -33.5q0 -21 12.5 -34.5t32.5 -13.5zM555 1255q-1 0 -2 1.5t-2.5 3.5t-3.5 4q-24 31 -59 56.5t-60.5 38.5t-44 30.5t-18.5 37.5q0 17 12 29t29 12q29 0 71 -34
q35 -28 55.5 -70.5t23.5 -71.5l3 -28q0 -9 -4 -9zM813 1427q0 -20 -18.5 -37.5t-44 -30.5t-60.5 -38.5t-59 -56.5q-2 -2 -3.5 -4t-2.5 -3.5t-2 -1.5q-7 0 -7 9q1 12 4 31.5t24 65t56 73.5q42 34 72 34q17 0 29 -12t12 -29zM559 1188q0 -4 -8 -4q-73 0 -168 -51
q-19 -10 -44.5 -27t-42.5 -24t-40 -7q-27 0 -44 16t-17 42q0 42 32.5 70t75 38t92.5 10q49 0 106.5 -24t57.5 -39zM981 1133q0 -26 -16.5 -42t-42.5 -16q-23 0 -40 7t-42.5 24t-44.5 27q-95 51 -168 51q-11 0 -11 4q0 15 58.5 39t107.5 24q50 0 92.5 -10t74.5 -38t32 -70z
M61 512q0 144 70.5 265.5t192 192t264.5 70.5t264.5 -70.5t192.5 -192t71 -265.5t-71 -265.5t-192.5 -192t-264.5 -70.5q-200 0 -324 147v-541h-203v922zM588 178q139 0 233 97t94 237q0 141 -93.5 237.5t-233.5 96.5q-139 0 -233.5 -97t-94.5 -237t95 -237t233 -97z" />
    <glyph glyph-name="q.salt" 
d="M580 1790q23 0 39 -17t16 -40t-16 -39.5t-39 -16.5t-39.5 16.5t-16.5 39.5t16.5 40t39.5 17zM580 1602q30 0 50.5 -21t20.5 -51q0 -31 -20 -51.5t-51 -20.5q-30 0 -51 21t-21 51q0 29 21.5 50.5t50.5 21.5zM580 1386q44 0 76 -33t32 -79q0 -45 -32 -78t-76 -33
q-45 0 -78 33t-33 78q0 46 32.5 79t78.5 33zM580 1339q-26 0 -45 -18.5t-19 -46.5q0 -27 18.5 -45.5t45.5 -18.5q28 0 46.5 18t18.5 46t-18.5 46.5t-46.5 18.5zM1106 512v-922h-203v541q-124 -147 -323 -147q-143 0 -265 70.5t-193 192t-71 265.5t71 265.5t193 192t265 70.5
t264 -70.5t191.5 -192t70.5 -265.5zM580 178q138 0 232.5 97t94.5 237t-94 237t-233 97q-140 0 -234 -97t-94 -237t94.5 -237t233.5 -97z" />
    <glyph glyph-name="q.salt2" 
d="M578 1991q23 0 39 -16.5t16 -39.5q0 -22 -16 -38.5t-39 -16.5t-39.5 16.5t-16.5 38.5q0 23 16.5 39.5t39.5 16.5zM578 1806q31 0 51 -21t20 -52q0 -29 -20.5 -49.5t-50.5 -20.5q-29 0 -50.5 20.5t-21.5 49.5q0 31 21 52t51 21zM580 1589q44 0 76 -33t32 -79
q0 -44 -32 -76.5t-76 -32.5q-46 0 -78.5 32.5t-32.5 76.5q0 46 32.5 79t78.5 33zM578 1544q-28 0 -46 -19t-18 -48q0 -27 18.5 -45.5t45.5 -18.5q28 0 46.5 18.5t18.5 45.5q0 29 -18.5 48t-46.5 19zM326 1409q46 0 98 -47q30 -24 52.5 -57t33.5 -63.5t17.5 -57t8.5 -42.5
l1 -16q0 -8 -5 -8q-2 0 -10 8q-35 42 -83.5 77.5t-84 54t-61 43t-25.5 53.5q0 23 18 39t40 16zM831 1409q22 0 39 -16t17 -39q0 -29 -25.5 -53.5t-61 -43t-84 -54t-83.5 -77.5q-4 -8 -8 -8q-7 0 -7 8q0 6 1.5 16.5t8.5 41t18.5 58.5t34 62t52.5 58q52 47 98 47zM1106 512
v-922h-203v541q-124 -147 -323 -147q-143 0 -265 70.5t-193 192t-71 265.5t71 265.5t193 192t265 70.5t264 -70.5t191.5 -192t70.5 -265.5zM580 178q138 0 232.5 97t94.5 237t-94 237t-233 97q-140 0 -234 -97t-94 -237t94.5 -237t233.5 -97z" />
    <glyph glyph-name="q.swsh" 
d="M575 1884q14 0 24.5 -10t10.5 -25q0 -12 -11 -22t-24 -10t-22.5 10t-9.5 22q0 15 9 25t23 10zM575 1655q-20 0 -32.5 12t-12.5 31t12.5 32t32.5 13q19 0 32.5 -13t13.5 -32q0 -18 -13.5 -30.5t-32.5 -12.5zM575 1450q-29 0 -48 20t-19 48t19 47.5t48 19.5q28 0 49 -20
t21 -47q0 -28 -21 -48t-49 -20zM575 1470q20 0 34 14t14 34t-14 33.5t-34 13.5t-32.5 -13.5t-12.5 -33.5q0 -21 12.5 -34.5t32.5 -13.5zM545 1255q-1 0 -2 1.5t-2.5 3.5t-3.5 4q-24 31 -59 56.5t-60.5 38.5t-44.5 30.5t-19 37.5q0 17 12 29t29 12q30 0 72 -34
q35 -28 55.5 -70.5t23.5 -71.5l3 -28q0 -9 -4 -9zM803 1427q0 -20 -18.5 -37.5t-44 -30.5t-60.5 -38.5t-59 -56.5q-1 -1 -2.5 -3t-2.5 -3l-2 -2t-2 -1q-6 0 -6 9q1 12 4 31.5t24 65t56 73.5q42 34 72 34q17 0 29 -12t12 -29zM549 1188q0 -4 -8 -4q-73 0 -168 -51
q-19 -10 -44.5 -27t-42.5 -24t-40 -7q-27 0 -44.5 16t-17.5 42q0 42 32.5 70t75.5 38t93 10q49 0 106.5 -24t57.5 -39zM971 1133q0 -26 -17 -42t-43 -16q-23 0 -40 7t-42.5 24t-44.5 27q-95 51 -168 51q-10 0 -10 4q0 15 58.5 39t107.5 24q50 0 92.5 -10t74.5 -38t32 -70z
M1106 512v-922h-203v541q-124 -147 -323 -147q-143 0 -265 70.5t-193 192t-71 265.5t71 265.5t193 192t265 70.5t264 -70.5t191.5 -192t70.5 -265.5zM580 178q138 0 232.5 97t94.5 237t-94 237t-233 97q-140 0 -234 -97t-94 -237t94.5 -237t233.5 -97z" />
    <glyph glyph-name="w.alt" horiz-adv-x="1699" 
d="M1194 -16q-114 0 -204 48t-140 142q-50 -94 -140 -142t-204 -48q-201 0 -323 126.5t-122 374.5v539h201v-539q0 -154 63 -230.5t181 -76.5q244 0 244 307v539h200v-539q0 -154 63 -230.5t181 -76.5q244 0 244 307v539h200v-539q0 -248 -121.5 -374.5t-322.5 -126.5z" />
    <glyph glyph-name="y.alt" horiz-adv-x="987" 
d="M231 -410l160 410l-391 1024h205l287 -780l290 780h205l-551 -1434h-205z" />
    <glyph glyph-name="zero.osf" horiz-adv-x="1024" 
d="M514 1040q199 0 329 -149t130 -379t-130 -379t-329 -149q-200 0 -331.5 149t-131.5 379t131.5 379t331.5 149zM514 846q-119 0 -190.5 -90.5t-71.5 -243.5t71.5 -243.5t190.5 -90.5q117 0 187.5 90.5t70.5 243.5t-70.5 243.5t-187.5 90.5z" />
    <glyph glyph-name="one.osf" horiz-adv-x="536" 
d="M233 1024h201v-1024h-201v743q-33 -30 -90.5 -51t-111.5 -28v198q39 11 67 22.5t59 30t50.5 46t25.5 63.5z" />
    <glyph glyph-name="two.osf" horiz-adv-x="878" 
d="M51 0v111q0 60 31.5 113t81.5 92.5t111 76.5t122 70.5t111 67.5t81.5 76t31.5 87q0 72 -46.5 112t-136.5 40q-184 0 -184 -166h-201q0 165 103.5 262.5t281.5 97.5q168 0 275.5 -96.5t107.5 -249.5q0 -69 -28.5 -127t-74 -97.5t-100.5 -73.5t-110 -61t-100.5 -52t-74 -55
t-28.5 -62h522v-166h-776z" />
    <glyph glyph-name="three.osf" horiz-adv-x="978" 
d="M489 -410q-186 0 -313 120.5t-127 303.5h203q0 -103 69 -166t171 -63q106 0 170.5 77t64.5 191q0 118 -78.5 197.5t-197.5 79.5h-21v166h21q94 0 139 54t45 132q0 84 -45.5 131t-116.5 47q-70 0 -114 -44t-44 -111h-200q0 147 110.5 246.5t263.5 99.5t250 -90.5
t97 -239.5q0 -208 -183 -305q124 -35 199.5 -133.5t75.5 -249.5q0 -196 -122.5 -319.5t-316.5 -123.5z" />
    <glyph glyph-name="four.osf" horiz-adv-x="1067" 
d="M1038 135v-194h-180v-351h-201v351h-622v194l622 895h201v-895h180zM270 135h387v553z" />
    <glyph glyph-name="five.osf" horiz-adv-x="1101" 
d="M551 -412q-226 0 -363 147.5t-137 379.5h201q0 -147 83.5 -239.5t217.5 -92.5q133 0 215 92.5t82 239.5q0 144 -80 231.5t-217 87.5q-127 0 -205 -69l-147 108l153 561h609v-194h-461l-66 -236q58 25 115 25q228 0 364 -141.5t136 -372.5q0 -232 -137 -379.5t-363 -147.5
z" />
    <glyph glyph-name="six.osf" horiz-adv-x="1064" 
d="M532 -14q-130 0 -240.5 63t-175.5 174t-65 244q0 168 103.5 351t260 315.5t310.5 171.5v-195q-155 -47 -303 -215q59 41 131 41q130 0 236.5 -63.5t165.5 -171t59 -234.5q0 -131 -64.5 -241.5t-175.5 -175t-242 -64.5zM535 180q114 0 196 84.5t82 202.5
q0 120 -80.5 203.5t-197.5 83.5q-122 0 -203 -82t-80 -203q0 -120 83 -204.5t200 -84.5z" />
    <glyph glyph-name="seven.osf" horiz-adv-x="989" 
d="M51 1022h887v-182l-600 -1252h-225l596 1239h-658v195z" />
    <glyph glyph-name="eight.osf" horiz-adv-x="921" 
d="M461 -16q-181 0 -308.5 117.5t-127.5 285.5q0 108 55.5 197t148.5 143q-62 45 -97.5 111.5t-35.5 142.5q0 137 108 235.5t257 98.5q150 0 258 -98t108 -236q0 -75 -37 -142t-100 -112q95 -52 152 -142t57 -198q0 -168 -128 -285.5t-310 -117.5zM461 807q71 0 118.5 44
t47.5 114q0 69 -47.5 112t-118.5 43q-69 0 -116.5 -43t-47.5 -112q0 -71 47 -114.5t117 -43.5zM461 178q111 0 174 59.5t63 155.5q0 97 -63.5 158t-173.5 61q-108 0 -172 -61t-64 -158q0 -96 63 -155.5t173 -59.5z" />
    <glyph glyph-name="nine.osf" horiz-adv-x="1159" 
d="M410 -410l266 414q-42 -22 -96 -22q-144 0 -266 70.5t-192.5 192t-70.5 265.5t70.5 265.5t192.5 192t266 70.5q143 0 264.5 -70.5t192.5 -192t71 -265.5q0 -169 -98 -307l-392 -613h-208zM578 176q139 0 234 97t95 237q0 138 -96.5 236t-232.5 98q-135 0 -230.5 -97.5
t-95.5 -236.5q0 -141 94 -237.5t232 -96.5z" />
    <glyph glyph-name="zero.dnom" horiz-adv-x="788" 
d="M395 -10q-147 0 -245.5 106t-98.5 281t98.5 281t245.5 106q145 0 243.5 -106t98.5 -281t-98.5 -281t-243.5 -106zM397 147q82 0 132.5 63t50.5 167t-50.5 166.5t-132.5 62.5q-84 0 -135 -62.5t-51 -166.5t51 -167t135 -63z" />
    <glyph glyph-name="two.dnom" horiz-adv-x="659" 
d="M55 0v88q0 59 41 112.5t99.5 94t117 78t99.5 79.5t41 83q0 43 -32.5 66.5t-90.5 23.5q-57 0 -90 -28.5t-33 -76.5h-156q0 117 80 186.5t199 69.5q120 0 198 -66t78 -175q0 -55 -26.5 -104t-66 -81.5t-85.5 -64t-85.5 -54t-66 -49t-26.5 -51.5h358v-131h-553z" />
    <glyph glyph-name="three.dnom" horiz-adv-x="618" 
d="M307 -12q-122 0 -194 64t-72 181h154q0 -49 30.5 -77.5t81.5 -28.5q54 0 85.5 31.5t31.5 85.5q0 58 -37.5 88t-99.5 30h-8v93h8q116 0 116 88q0 39 -23 60.5t-65 21.5q-92 0 -92 -84h-153q0 101 67 161t170 60q100 0 169 -48t69 -136q0 -116 -94 -154q127 -48 127 -195
q0 -116 -73.5 -178.5t-197.5 -62.5z" />
    <glyph glyph-name="four.dnom" horiz-adv-x="630" 
d="M600 301v-137h-80v-164h-145v164h-344v137l344 465h145v-465h80zM188 301h187v248z" />
    <glyph glyph-name="zero.numr" horiz-adv-x="788" 
d="M395 668q-147 0 -245.5 106t-98.5 281t98.5 281t245.5 106q145 0 243.5 -106t98.5 -281t-98.5 -281t-243.5 -106zM397 825q82 0 132.5 63t50.5 167t-50.5 166.5t-132.5 62.5q-84 0 -135 -62.5t-51 -166.5t51 -167t135 -63z" />
    <glyph glyph-name="one.numr" horiz-adv-x="477" 
d="M217 1434h158v-766h-158v540q-52 -43 -115 -59l-51 141q128 55 166 144z" />
    <glyph glyph-name="two.numr" horiz-adv-x="659" 
d="M55 670v88q0 59 41 112.5t99.5 93.5t117 77.5t99.5 79.5t41 83q0 43 -32.5 66.5t-90.5 23.5q-57 0 -90 -28.5t-33 -75.5h-156q0 117 80 186.5t199 69.5q120 0 198 -66.5t78 -175.5q0 -55 -26.5 -104t-66 -81.5t-85.5 -63.5t-85.5 -53.5t-66 -49t-26.5 -51.5h358v-131
h-553z" />
    <glyph glyph-name="three.numr" horiz-adv-x="618" 
d="M317 666q-122 0 -194 64t-72 181h154q0 -49 30.5 -77.5t81.5 -28.5q54 0 85.5 31.5t31.5 85.5q0 58 -37.5 88t-99.5 30h-8v93h8q117 0 117 88q0 39 -23 60.5t-65 21.5q-45 0 -69 -21.5t-24 -62.5h-153q0 101 67 161t170 60q100 0 169 -48.5t69 -136.5q0 -115 -94 -153
q127 -48 127 -195q0 -116 -73.5 -178.5t-197.5 -62.5z" />
    <glyph glyph-name="LineDotsThick.orn" horiz-adv-x="5316" 
d="M2763 776q0 -43 -31 -73.5t-74 -30.5t-73.5 30.5t-30.5 73.5t30.5 74t73.5 31t74 -31t31 -74zM2730 776q0 31 -20.5 51.5t-51.5 20.5t-51 -20.5t-20 -51.5t20 -51t51 -20t51.5 20t20.5 51zM2316 776q0 29 19.5 49.5t48.5 20.5t47 -20t18 -50q0 -29 -18 -48t-47 -19
t-48.5 19t-19.5 48zM3002 776q0 -29 -20 -48t-49 -19t-47.5 19t-18.5 48q0 30 18.5 50t47.5 20t49 -20.5t20 -49.5zM1982 834v-113h-1925v113h1925zM5257 834v-113h-1925v113h1925zM2097 776q0 23 15 38t36 15q22 0 38 -15t16 -38q0 -20 -16 -35.5t-38 -15.5
q-20 0 -35.5 15.5t-15.5 35.5zM3222 776q0 -20 -16 -35.5t-38 -15.5q-20 0 -35.5 15.5t-15.5 35.5q0 23 15 38t36 15q22 0 38 -15t16 -38z" />
    <glyph glyph-name="Petals.orn" horiz-adv-x="747" 
d="M371 647q12 0 20 -8.5t8 -20.5q0 -11 -8 -18.5t-20 -7.5q-11 0 -19 8t-8 18q0 12 8 20.5t19 8.5zM371 459q-15 0 -26 10t-11 25t11 25.5t26 10.5t26 -10.5t11 -25.5t-11 -25t-26 -10zM371 291q-23 0 -39.5 16t-16.5 39t16.5 39t39.5 16t40 -16t17 -39t-17 -39t-40 -16z
M371 307q17 0 28 11t11 28t-11 28t-28 11q-15 0 -26 -11t-11 -28t11 -28t26 -11zM346 131l-6 6q-25 32 -64 56.5t-62.5 41t-23.5 37.5q0 14 10 23.5t23 9.5q26 0 60 -29q28 -23 44.5 -57.5t19.5 -58.5l3 -23q0 -6 -4 -6zM557 272q0 -21 -23 -37.5t-62 -41t-64 -56.5
q-6 -6 -7 -6q-4 0 -4 6q1 10 3.5 26t19.5 53t45 60q34 29 59 29q14 0 23.5 -9.5t9.5 -23.5zM350 76q0 -4 -8 -4q-57 0 -137 -41q-14 -8 -36 -22t-35.5 -19.5t-33.5 -5.5q-22 0 -35.5 12.5t-13.5 34.5q0 35 26.5 57.5t61.5 30.5t76 8q40 0 87.5 -19.5t47.5 -31.5zM696 31
q0 -22 -13.5 -34.5t-35.5 -12.5q-19 0 -33 5.5t-35 19.5t-36 22q-80 41 -137 41q-9 0 -9 4q0 12 47.5 31.5t87.5 19.5q41 0 76 -8t61.5 -30.5t26.5 -57.5z" />
    <glyph glyph-name="HorizDots.orn" horiz-adv-x="1249" 
d="M729 776q0 -43 -30.5 -73.5t-73.5 -30.5t-74 30.5t-31 73.5t31 74t74 31t73.5 -31t30.5 -74zM696 776q0 31 -20 51.5t-51 20.5t-51.5 -20.5t-20.5 -51.5t20.5 -51t51.5 -20t51 20t20 51zM283 776q0 30 19 50t48 20t47.5 -20t18.5 -50q0 -29 -18.5 -48t-47.5 -19t-48 19
t-19 48zM969 776q0 -29 -20 -48t-50 -19q-29 0 -47 19t-18 48q0 30 18 50t47 20t49.5 -20.5t20.5 -49.5zM63 776q0 23 15.5 38t36.5 15q22 0 37.5 -15t15.5 -38q0 -20 -15.5 -35.5t-37.5 -15.5q-20 0 -36 15.5t-16 35.5zM1188 776q0 -20 -15.5 -35.5t-37.5 -15.5
q-20 0 -36 15.5t-16 35.5q0 23 15.5 38t36.5 15q22 0 37.5 -15t15.5 -38z" />
    <glyph glyph-name="Dots.orn" horiz-adv-x="335" 
d="M168 973q23 0 39 -17t16 -41q0 -23 -16 -39t-39 -16t-39 16t-16 39q0 24 16 41t39 17zM168 784q30 0 51 -21t21 -50q0 -31 -20.5 -51.5t-51.5 -20.5q-30 0 -51 21t-21 51q0 29 21.5 50t50.5 21zM168 569q44 0 76 -33t32 -79q0 -45 -32 -78t-76 -33q-45 0 -78 33t-33 78
q0 46 32.5 79t78.5 33zM168 522q-26 0 -45 -19t-19 -46t18.5 -45.5t45.5 -18.5q28 0 46.5 18t18.5 46t-18.5 46.5t-46.5 18.5z" />
    <glyph glyph-name="Petals2.orn" horiz-adv-x="722" 
d="M360 856q23 0 39.5 -16t16.5 -39q0 -22 -16.5 -39t-39.5 -17t-39 17t-16 39q0 23 16 39t39 16zM360 672q31 0 51.5 -21.5t20.5 -52.5q0 -29 -20.5 -49.5t-51.5 -20.5q-29 0 -50 20.5t-21 49.5q0 31 21 52.5t50 21.5zM362 455q44 0 76.5 -33.5t32.5 -79.5
q0 -44 -32.5 -76.5t-76.5 -32.5q-46 0 -78 32.5t-32 76.5q0 46 32.5 79.5t77.5 33.5zM360 410q-28 0 -45.5 -19.5t-17.5 -48.5q0 -27 18 -45t45 -18q28 0 47 18.5t19 44.5q0 29 -19 48.5t-47 19.5zM109 274q46 0 98 -47q47 -38 75 -97t32 -98l5 -40q0 -8 -4 -8q-2 0 -10 8
q-35 42 -83.5 77.5t-84 53.5t-61 42.5t-25.5 53.5q0 23 18 39t40 16zM614 274q22 0 39 -16t17 -39q0 -29 -25.5 -53.5t-61 -42.5t-84 -53.5t-83.5 -77.5q-4 -8 -8 -8q-7 0 -7 8q0 6 1.5 16.5t8.5 41t18.5 58t34 61.5t52.5 58q52 47 98 47z" />
    <glyph glyph-name="LineDotThin.orn" horiz-adv-x="5316" 
d="M2763 776q0 -43 -31 -73.5t-74 -30.5t-73.5 30.5t-30.5 73.5t30.5 74t73.5 31t74 -31t31 -74zM2730 776q0 31 -20.5 51.5t-51.5 20.5t-51 -20.5t-20 -51.5t20 -51t51 -20t51.5 20t20.5 51zM2316 776q0 29 19.5 49.5t48.5 20.5t47 -20t18 -50q0 -29 -18 -48t-47 -19
t-48.5 19t-19.5 48zM3002 776q0 -29 -20 -48t-49 -19t-47.5 19t-18.5 48q0 30 18.5 50t47.5 20t49 -20.5t20 -49.5zM2097 776q0 23 15 38t36 15q22 0 38 -15t16 -38q0 -20 -16 -35.5t-38 -15.5q-20 0 -35.5 15.5t-15.5 35.5zM3222 776q0 -20 -16 -35.5t-38 -15.5
q-20 0 -35.5 15.5t-15.5 35.5q0 23 15 38t36 15q22 0 38 -15t16 -38zM1982 815v-76h-1925v76h1925zM5257 815v-76h-1925v76h1925z" />
    <glyph glyph-name="LineSwashThin.orn" horiz-adv-x="4990" 
d="M2492 1538q14 0 24.5 -10t10.5 -25q0 -12 -11 -22.5t-24 -10.5t-22.5 10.5t-9.5 22.5q0 15 9 25t23 10zM2492 1309q-20 0 -32.5 12t-12.5 31t12.5 32t32.5 13q19 0 32 -13t13 -32t-13 -31t-32 -12zM2492 1104q-29 0 -48 19.5t-19 47.5t19 48t48 20q28 0 49 -20t21 -48
q0 -27 -21 -47t-49 -20zM2492 1124q20 0 34 13.5t14 33.5t-14 34t-34 14t-32.5 -13.5t-12.5 -34.5q0 -20 12.5 -33.5t32.5 -13.5zM2462 909q-1 0 -2 1.5t-2.5 3.5t-3.5 4q-24 31 -59 56.5t-60.5 38.5t-44.5 30.5t-19 37.5q0 17 12 29t29 12q29 0 72 -35q35 -28 55.5 -70
t23.5 -71l3 -28q0 -9 -4 -9zM2720 1081q0 -20 -19 -37.5t-44.5 -30.5t-60.5 -38.5t-59 -56.5q-2 -2 -3.5 -4t-2.5 -3.5t-2 -1.5q-6 0 -6 9q1 12 4 31.5t24 64.5t56 73q43 35 72 35q17 0 29 -12t12 -29zM2466 842q0 -4 -8 -4q-71 0 -168 -52q-19 -9 -44.5 -26t-42.5 -24
t-40 -7q-27 0 -44.5 15.5t-17.5 41.5q0 42 32.5 70t75.5 38.5t93 10.5q49 0 106.5 -24t57.5 -39zM2888 786q0 -26 -16.5 -41.5t-43.5 -15.5q-23 0 -40 7t-42.5 24t-44.5 26q-97 52 -168 52q-10 0 -10 4q0 15 58.5 39t107.5 24q50 0 92.5 -10.5t74.5 -38.5t32 -70zM1976 829
v-75h-1925v75h1925zM4940 829v-75h-1925v75h1925z" />
    <glyph glyph-name="LineSwashThinReverse.orn" horiz-adv-x="4990" 
d="M2466 729q0 -15 -57.5 -39t-106.5 -24q-50 0 -93 10t-75.5 38t-32.5 70q0 26 17.5 42t44.5 16q23 0 40 -7t42.5 -24t44.5 -27q95 -51 168 -51q8 0 8 -4zM2888 784q0 -42 -32 -70t-74.5 -38t-92.5 -10q-49 0 -107.5 24t-58.5 39q0 4 10 4q73 0 168 51q19 10 44.5 27
t42.5 24t40 7q26 0 43 -16t17 -42zM1976 741h-1925v76h1925v-76zM4940 741h-1925v76h1925v-76zM2462 662q4 0 4 -9q0 -12 -3 -31.5t-23.5 -65t-55.5 -73.5q-42 -34 -72 -34q-17 0 -29 11.5t-12 28.5q0 20 19 37.5t44.5 31t60.5 39t59 56.5q2 2 3.5 4t2.5 3.5t2 1.5z
M2720 489q0 -17 -12 -28.5t-29 -11.5q-30 0 -72 34q-35 28 -56 70.5t-25 70.5l-3 29q0 9 6 9q1 0 2 -1.5t2.5 -3.5t3.5 -4q24 -31 59 -56.5t60.5 -39t44.5 -31t19 -37.5zM2492 467q28 0 49 -20t21 -48q0 -27 -21 -47t-49 -20q-29 0 -48 19.5t-19 47.5t19 48t48 20zM2492 446
q-20 0 -32.5 -13.5t-12.5 -33.5t12.5 -33.5t32.5 -13.5t34 13.5t14 33.5t-14 33.5t-34 13.5zM2492 262q19 0 32 -12t13 -31t-13 -32t-32 -13q-20 0 -32.5 13t-12.5 32t12.5 31t32.5 12zM2492 33q-14 0 -23 10t-9 25q0 12 9.5 22t22.5 10t24 -10t11 -22q0 -15 -10.5 -25
t-24.5 -10z" />
    <glyph glyph-name="BranchPetals.orn" horiz-adv-x="1513" 
d="M549 991q-9 4 -23 12t-43 37t-41 64q-15 41 -8 65q5 12 17.5 17.5t25.5 1.5q19 -7 26.5 -34.5t17.5 -73t32 -79.5q4 -4 4 -8q-1 -2 -8 -2zM848 854l-8 4q-8 7 -19 19t-29.5 49t-17.5 73q-3 47 17 62q23 27 49 4q15 -11 12.5 -47t-9.5 -74t3 -80q5 -10 2 -10zM111 971
q-44 16 -56 37q-6 11 -1.5 23t16.5 20q17 11 49.5 -4t73 -35.5t69.5 -20.5q10 0 10 -4q0 -5 -6 -8q-3 -2 -8.5 -4t-23 -7.5t-35 -7.5t-42 0t-46.5 11zM1399 952q-13 0 -24 11t-11 24q0 15 10.5 26t24.5 11q15 0 26 -11t11 -26q0 -14 -11 -24.5t-26 -10.5zM1206 834
q-3 0 -9.5 -0.5t-24.5 0t-35.5 4.5t-39.5 14t-40 25q-31 21 -37 51q-2 15 6 26.5t23 14.5q19 3 38.5 -16.5t51.5 -54t69 -54.5q9 -2 9 -6t-11 -4zM1051 688q-64 0 -130.5 22t-123 54t-112 63.5t-117 53.5t-117.5 22q-103 0 -180.5 -45.5t-120.5 -118.5h-66q40 101 144 160
t223 59q66 0 132 -22t122 -54t110 -63.5t116 -53.5t120 -22q193 0 305 160h61q-54 -98 -147 -156.5t-219 -58.5zM319 618q-10 -10 -24 -8t-25 13q-14 23 -14 63q0 36 16 71t32 51l15 17q1 1 3 2q5 4 6 0l-2 -8q-6 -35 -4 -68t7 -58.5t3.5 -45.5t-13.5 -29zM1409 575
q-22 13 -37 54q-13 41 -11 75.5t11 57.5l10 22q2 4 9 4q2 0 3 -3t1 -6v-3q6 -41 26 -81.5t32.5 -65.5t4.5 -41q-9 -13 -24 -17t-25 4zM557 635q-31 12 -22 47q16 27 45 45q33 19 70 22.5t58 -2.5l21 -6q10 -5 10 -6l-6 -4q-39 -13 -76 -41t-60 -44.5t-40 -10.5zM102 618
q-15 0 -25.5 11t-10.5 26q0 14 10.5 24.5t25.5 10.5q14 0 24.5 -11t10.5 -24q0 -15 -10.5 -26t-24.5 -11zM963 459q-13 -4 -24.5 5t-14.5 23q-3 21 16 64q19 32 51.5 54.5t54.5 28.5l23 7q1 0 2 1q6 2 6 -3l-6 -10q-23 -24 -39.5 -55.5t-23.5 -54t-18 -40t-27 -20.5z" />
    <glyph glyph-name="LineSwashThinDots.orn" horiz-adv-x="6107" 
d="M3049 1470q-13 0 -22.5 9.5t-9.5 23.5q0 15 9 25t23 10q15 0 25 -10t10 -25q0 -14 -10 -23.5t-25 -9.5zM3049 1309q-19 0 -31 11.5t-12 31.5q0 19 12 32t31 13q20 0 33 -13t13 -32q0 -20 -12.5 -31.5t-33.5 -11.5zM3049 1104q-26 0 -45.5 19.5t-19.5 47.5t19.5 48
t45.5 20q29 0 50.5 -20t21.5 -48t-21.5 -47.5t-50.5 -19.5zM3049 1122q22 0 35 13.5t13 35.5q0 21 -13.5 34.5t-34.5 13.5q-19 0 -31 -14t-12 -34q0 -22 12 -35.5t31 -13.5zM3021 909q-3 0 -8 9q-24 31 -59 56.5t-60.5 38.5t-44.5 30.5t-19 37.5q0 17 11 28t28 11
q34 0 74 -33q35 -28 55.5 -70t23.5 -71l3 -28q0 -9 -4 -9zM3086 909q-4 0 -4 9q0 12 3 31.5t23.5 64.5t55.5 73q40 33 74 33q16 0 27.5 -11t11.5 -28q0 -20 -18.5 -37.5t-44 -30.5t-60.5 -38.5t-59 -56.5q-5 -9 -9 -9zM2720 729q-27 0 -43.5 15.5t-16.5 41.5q0 61 60 89
t141 28q49 0 106.5 -23.5t57.5 -37.5q0 -6 -10 -6q-34 0 -83 -15.5t-85 -34.5q-15 -8 -35 -21l-30 -19.5t-26.5 -11.5t-35.5 -5zM3387 729q-19 0 -35.5 5t-27 11.5t-30.5 19t-36 21.5q-34 19 -82.5 34.5t-83.5 15.5q-10 0 -10 6q0 14 57.5 37.5t106.5 23.5q81 0 141 -28
t60 -89q0 -26 -17.5 -41.5t-42.5 -15.5zM440 709q-34 0 -59 24t-25 58q0 35 25 59t59 24t59 -24t25 -59q0 -34 -25 -58t-59 -24zM5667 711q-34 0 -59 23.5t-25 58.5t25 58t59 23t59 -23t25 -58t-25 -58.5t-59 -23.5zM5859 739q-22 0 -37.5 15.5t-15.5 38.5q0 22 15.5 38.5
t37.5 16.5q23 0 39.5 -16.5t16.5 -38.5q0 -23 -16.5 -38.5t-39.5 -15.5zM248 737q-23 0 -38 15.5t-15 38.5t15 39t38 16t39 -16t16 -39t-16 -38.5t-39 -15.5zM5665 743q22 0 36.5 14t14.5 36q0 20 -14.5 34.5t-36.5 14.5q-21 0 -34 -14t-13 -35q0 -22 13 -36t34 -14z
M440 741q22 0 35.5 14t13.5 36q0 21 -14 35t-35 14q-20 0 -34.5 -14.5t-14.5 -34.5q0 -21 14.5 -35.5t34.5 -14.5zM94 748q-17 0 -30 13t-13 30q0 18 12.5 30.5t30.5 12.5t30.5 -12.5t12.5 -30.5q0 -17 -13 -30t-30 -13zM6013 750q-18 0 -30.5 12.5t-12.5 30.5q0 17 13 29
t30 12t30 -12t13 -29q0 -18 -12.5 -30.5t-30.5 -12.5zM610 754v75h1925v-75h-1925zM3572 754v75h1925v-75h-1925z" />
    <glyph glyph-name="BranchPetalsLg.orn" horiz-adv-x="2799" 
d="M549 991q-9 4 -23 12t-43 37t-41 64q-15 41 -8 65q5 12 17.5 17.5t25.5 1.5q19 -7 26.5 -34.5t17.5 -73t32 -79.5q4 -4 4 -8q-1 -2 -8 -2zM2251 991q-7 0 -8 2q0 4 4 8q22 34 32 79.5t17 73t26 34.5q13 4 25.5 -1.5t17.5 -17.5q7 -24 -8 -65q-12 -35 -38.5 -63t-46.5 -39
zM848 854l-8 4q-8 7 -19 19t-29.5 49t-17.5 73q-3 47 17 62q23 27 49 4q15 -11 12.5 -47t-9.5 -74t3 -80q5 -10 2 -10zM1952 854q-3 0 2 10q6 28 4.5 60t-7 59t-4.5 50t13 32q26 23 49 -4q19 -14 16 -62q1 -36 -15.5 -71.5t-33.5 -52.5l-16 -17zM111 971q-44 16 -56 37
q-6 11 -1.5 23t16.5 20q17 11 49.5 -4t73 -35.5t69.5 -20.5q10 0 10 -4q0 -5 -6 -8q-3 -2 -8.5 -4t-23 -7.5t-35 -7.5t-42 0t-46.5 11zM2689 971q-40 -13 -75 -11.5t-58 10.5l-23 9q-6 3 -6 8q0 4 10 4q29 0 69.5 20.5t73.5 35.5t50 4q12 -7 16 -20t-2 -23q-12 -21 -55 -37z
M1399 932q-13 0 -24 11t-11 24q0 15 10.5 26t24.5 11q15 0 26 -11t11 -26q0 -14 -11 -24.5t-26 -10.5zM1206 834q-3 0 -9.5 -0.5t-24.5 0t-35.5 4.5t-39.5 14t-40 25q-31 21 -37 51q-2 15 6 26.5t23 14.5q19 3 38.5 -16.5t51.5 -54t69 -54.5q9 -2 9 -6t-11 -4zM1593 834
q-10 0 -10 4q0 2 2 3.5t4 2.5h2q37 20 69 54.5t52 54t39 16.5q15 -3 23 -14.5t6 -26.5q-6 -30 -37 -51q-28 -24 -65.5 -35t-61.5 -10zM1051 688q-64 0 -130.5 22t-123 54t-112 63.5t-117 53.5t-117.5 22q-103 0 -180.5 -45.5t-120.5 -118.5h-66q40 101 144 160t223 59
q66 0 132 -22t122 -54t110 -63.5t116 -53.5t120 -22q193 0 305 160h88q112 -160 305 -160q58 0 120 22t116 53.5t110 63.5t122 54t132 22q119 0 223 -59t144 -160h-66q-43 73 -120.5 118.5t-180.5 45.5q-56 0 -117.5 -22t-117 -53.5t-112 -63.5t-123 -54t-130.5 -22
q-117 0 -205 50t-143 136q-123 -186 -350 -186zM319 618q-10 -10 -24 -8t-25 13q-14 23 -14 63q0 36 16 71t32 51l15 17q1 1 3 2q5 4 6 0l-2 -8q-5 -35 -2 -68t9 -58.5t3.5 -45.5t-17.5 -29zM2480 618q-15 12 -13 43t9 69t-2 89q-2 4 -2 8q1 4 5 0q2 -1 3 -2q3 -2 7 -6.5
t15 -19t19.5 -29.5t15.5 -38t7 -46q0 -38 -15 -63q-11 -11 -25 -13t-24 8zM557 635q-31 12 -22 47q16 27 45 45q33 19 70 22.5t58 -2.5l21 -6q10 -5 10 -6l-6 -4q-39 -13 -76 -41t-60 -44.5t-40 -10.5zM2243 635q-17 -6 -40.5 10.5t-60.5 44.5t-76 41q-6 2 -6 4q0 1 11 6
q8 3 22.5 6.5t54 1t72.5 -21.5q29 -18 45 -45q9 -35 -22 -47zM102 618q-15 0 -25.5 11t-10.5 26q0 14 10.5 24.5t25.5 10.5q14 0 24.5 -11t10.5 -24q0 -15 -10.5 -26t-24.5 -11zM2697 618q-14 0 -24.5 11t-10.5 26q0 13 11 24t24 11q15 0 26 -10.5t11 -24.5q0 -15 -11 -26
t-26 -11zM963 459q-13 -4 -24.5 5t-14.5 23q-3 21 16 64q19 32 51.5 54.5t54.5 28.5l23 7q1 0 2 1q6 2 6 -3l-6 -10q-23 -24 -39.5 -55.5t-23.5 -54t-18 -40t-27 -20.5zM1837 459q-16 3 -27 20.5t-18 40t-23.5 54t-39.5 55.5q-7 6 -7 10q1 4 9 2q10 -2 25.5 -7t50 -28
t53.5 -55q19 -43 16 -64q-3 -14 -14.5 -23t-24.5 -5z" />
    <glyph glyph-name="Flower.orn" horiz-adv-x="792" 
d="M256 317q-33 0 -80 37.5t-47 69.5q0 22 17.5 54t17.5 73q0 55 -8.5 74.5t-34.5 19.5q-29 0 -49.5 23t-20.5 61t23 57t55.5 23.5t64.5 8t55 20t23 51.5q0 65 29.5 99t81.5 34q98 0 98 -182q0 -24 16.5 -40t49.5 -16q29 0 53 19.5t55 19.5q39 0 62.5 -31t23.5 -83
t-20.5 -75.5t-69.5 -23.5q-26 0 -43 -6t-23 -17.5t-8 -19t-2 -18.5q0 -21 25 -55.5t25 -69.5q0 -43 -76 -43q-34 0 -73 22.5t-73 22.5q-16 0 -31 -17t-26.5 -37.5t-35 -37.5t-54.5 -17zM426 545q18 0 29.5 5t17.5 10.5t8.5 22t3 25.5t0.5 35q0 33 -25 56t-53 31.5t-51 8.5
q-40 0 -65 -27t-25 -57q0 -53 49 -81.5t111 -28.5z" />
    <glyph glyph-name="BorderDotsTopLeft" horiz-adv-x="3119" 
d="M61 1556q11 10 25 10t25 -10q9 -9 8.5 -23t-10.5 -24q-9 -9 -23.5 -9t-24.5 9q-9 11 -9 24.5t9 22.5zM223 1395q-13 -13 -31 -13.5t-30 11.5q-14 13 -14 32t14 31q12 14 31 14t32 -14q12 -12 11.5 -30t-13.5 -31zM545 1395q15 -10 14 -39.5t-9.5 -54.5t-15.5 -68.5
t-2 -83.5v-10q-4 -4 -10 2q-8 9 -19.5 25t-28.5 62.5t-13 90.5q5 55 26 76q12 12 29 12t29 -12zM369 1249q-20 -20 -48.5 -20t-48.5 20t-20 48.5t20 48.5t49 21t48 -19q20 -20 20 -49.5t-20 -49.5zM354 1264q14 15 14 34.5t-14 32.5q-15 15 -34.5 15t-32.5 -15
q-14 -13 -13.5 -31.5t15.5 -33.5q13 -13 32.5 -13.5t32.5 11.5zM872 1307q39 -39 -2 -84q-17 -17 -33.5 -24t-46.5 -12.5t-51 -12.5q-38 -12 -82.5 -35t-68.5 -47q-9 -9 -13 -5q-10 10 15 68t59 94q25 25 53 44.5t58 31.5t59.5 8.5t52.5 -26.5zM2779 1227q-19 0 -31 12
t-12 31t12 32t31 13t32 -13t13 -32t-13 -31t-32 -12zM2922 1235q-15 0 -24.5 10.5t-9.5 24.5q0 15 9.5 25t24.5 10t25 -10t10 -25q0 -14 -10 -24.5t-25 -10.5zM969 1237v66h1689v-66h-1689zM3041 1243q-10 0 -18 8t-8 19t8 19.5t18 8.5t18.5 -8.5t8.5 -19.5q0 -10 -8 -18.5
t-19 -8.5zM485 1092h-12q-39 5 -82.5 -2t-68.5 -15.5t-54 -9.5t-39 14q-12 12 -12 28.5t12 27.5q24 24 76 26q44 4 88.5 -11t66.5 -32l23 -18q3 -6 2 -8zM537 1047q0 -3 -5 -11q-25 -25 -48 -69.5t-35 -83.5q-5 -17 -10 -40t-8 -35t-11 -27.5t-21 -28.5q-19 -19 -41 -20
t-41 18q-23 24 -27 54t8.5 60.5t31.5 57.5t45 53q34 34 92 58t70 14zM324 -1034v1689h65v-1689h-65zM354 -1200q-19 0 -31 13t-12 32t12 32t31 13t32 -13t13 -32t-13 -32t-32 -13zM356 -1333q-15 0 -24.5 10.5t-9.5 24.5q0 15 9.5 24.5t24.5 9.5t25 -9.5t10 -24.5
q0 -14 -10 -24.5t-25 -10.5zM354 -1442q-11 0 -18.5 7.5t-7.5 19.5q0 11 8 18.5t18 7.5q11 0 20 -8t9 -18q0 -12 -9 -19.5t-20 -7.5z" />
    <glyph glyph-name="BorderTopLeft" horiz-adv-x="1443" 
d="M59 1622q7 9 19 9t20 -9q8 -8 8 -19t-8 -20q-8 -7 -20 -7t-19 7q-7 9 -7 20t7 19zM193 1489q-11 -11 -26 -11t-26 11t-11 26t11 25t26 10t26 -10t11 -25t-11 -26zM455 1489q13 -8 12 -32t-8 -44.5t-12.5 -56.5t-2.5 -68v-8q-2 -5 -6 2q-7 7 -16.5 20t-24 51t-10.5 74
q2 41 23 62q9 11 22.5 11t22.5 -11zM311 1370q-17 -15 -40 -15t-40 15q-15 17 -15 40t15 40q18 16 41 16.5t39 -16.5q17 -16 16.5 -39t-16.5 -41zM299 1382q12 12 12 28t-12 28t-27.5 12t-27.5 -12q-11 -10 -10.5 -26t12.5 -28t27.5 -12.5t25.5 10.5zM725 1417
q15 -15 14 -33.5t-16 -33.5q-14 -14 -28 -20t-38.5 -11t-40.5 -10q-85 -26 -127 -68q-4 -4 -8 -4q-8 8 11.5 56t48.5 77q21 21 43.5 36.5t47.5 25.5t49.5 6.5t43.5 -21.5zM1393 1401v-35h-574v35h574zM406 1241h-9q-32 3 -67.5 -2.5t-56 -12t-44.5 -7.5t-32 12
q-11 9 -11 22.5t11 22.5q20 20 61 22q36 4 73 -9t56 -27l19 -15q4 -4 0 -6zM449 1204q0 -3 -5 -8q-40 -40 -67 -127q-5 -16 -10 -40t-11 -38t-20 -28q-15 -15 -34 -16t-34 14q-18 19 -21.5 43.5t6.5 49.5t25.5 47.5t36.5 43.5q29 29 77.5 48t56.5 11zM279 864h36v-573h-36
v573z" />
    <glyph glyph-name="BorderTopRight" horiz-adv-x="1443" 
d="M1382 1659q9 -7 9 -19t-9 -20q-8 -8 -19 -8t-20 8q-7 8 -7 20t7 19q9 7 20 7t19 -7zM1249 1526q-11 10 -11 25t11 26t26 11t25 -11t10 -26t-10 -25t-25 -10t-26 10zM1001 1313v8q3 32 -2.5 68t-12 56.5t-7.5 44.5t12 32q9 10 22.5 10t22.5 -10q21 -21 23 -62
q4 -36 -9 -73t-28 -55l-14 -19q-5 -5 -7 0zM1130 1407q-15 17 -15 40t15 40q17 15 40 15t40 -15q16 -18 16.5 -41t-16.5 -39q-16 -17 -39 -16.5t-41 16.5zM1143 1419q12 -12 27.5 -12t27.5 12t12 28t-12 28q-10 11 -25.5 10.5t-27.5 -12.5t-12.5 -28t10.5 -26zM965 1270
q-5 0 -9 4q-40 40 -127 67q-16 5 -40 10t-38 11t-28 20q-15 15 -16 34t14 34q19 18 43.5 21.5t49.5 -6.5t47.5 -25.5t43.5 -36.5q29 -29 48.5 -77t11.5 -56zM625 1440v-37h-574v37h574zM1249 1264q-8 -13 -32 -12t-44.5 7.5t-56 12t-67.5 2.5h-9q-5 2 2 6q7 7 20 16.5
t51.5 24t74.5 10.5q41 -2 61 -22q11 -9 11 -22.5t-11 -22.5zM1178 993q-15 -15 -34 -14t-34 16q-14 14 -20 28t-11 38.5t-10 40.5q-26 85 -68 127q-4 4 -4 8q8 8 56 -11t77 -48q21 -21 36.5 -43.5t25.5 -48t7 -50t-21 -43.5zM1161 326h-35v573h35v-573z" />
    <glyph glyph-name="BorderBottomLeft" horiz-adv-x="1443" 
d="M283 1341h34v-573h-34v573zM266 674q15 15 34 14t34 -16q14 -14 20 -28t11 -38.5t10 -40.5q27 -87 67 -127q4 -4 4 -8q-8 -8 -56 11t-77 48q-28 28 -46 59t-22.5 66t21.5 60zM195 403q8 13 32 12t44.5 -7.5t56 -12t67.5 -2.5h8q5 -3 -2 -6q-7 -7 -20 -16.5t-51 -24
t-74 -10.5q-41 2 -61 22q-11 9 -11 22.5t11 22.5zM479 397q4 0 8 -4q40 -40 127 -67q16 -5 40.5 -10t38.5 -11t28 -20q15 -15 16 -34t-14 -34q-19 -18 -43.5 -21.5t-49.5 6.5t-47.5 25.5t-43.5 36.5q-29 29 -48.5 77t-11.5 56zM442 354v-8q-3 -32 2.5 -68t12.5 -56.5
t8 -44.5t-12 -32q-9 -11 -22.5 -11t-22.5 11q-21 21 -23 62q-4 36 9 73t28 56l14 18q4 4 6 0zM313 260q15 -17 15 -40t-15 -40q-17 -15 -40 -15t-40 15q-16 18 -16.5 41t16.5 39q16 17 39 16.5t41 -16.5zM819 227v37h574v-37h-574zM301 248q-12 12 -27.5 12t-27.5 -12
t-12 -27.5t12 -27.5q10 -11 25.5 -10.5t27.5 12.5t12.5 27.5t-10.5 25.5zM195 141q11 -11 11 -26t-11 -25t-26 -10t-26 10t-11 25t11 26t26 11t26 -11zM61 8q-9 7 -9 19.5t9 19.5q7 7 18.5 7t20.5 -7q8 -7 8 -19t-8 -20q-9 -8 -20.5 -8t-18.5 8z" />
    <glyph glyph-name="BorderBottomRight" horiz-adv-x="1443" 
d="M1165 770h-37v573h37v-573zM995 430q0 4 4 8q42 42 68 127q5 16 10 40.5t11 38.5t20 28q15 15 34 16t34 -14q18 -19 21 -43.5t-7 -50t-25.5 -48t-36.5 -43.5q-29 -29 -77 -48t-56 -11zM1038 393h9q32 -3 67.5 2.5t56 12t44.5 7.5t32 -12q11 -9 11 -22.5t-11 -22.5
q-20 -20 -61 -22q-36 -4 -73 9t-56 27l-19 15q-4 4 0 6zM719 217q-15 15 -14 34t16 34q14 14 28 20t38 11t40 10q87 27 127 67q4 4 9 4q8 -8 -11.5 -56t-48.5 -77q-21 -21 -43.5 -36.5t-47.5 -25.5t-49.5 -6.5t-43.5 21.5zM989 145q-13 8 -12 32t7.5 44.5t12 56.5t2.5 68v8
q3 6 7 -2q7 -7 16.5 -20t24 -51t10.5 -74q-2 -41 -23 -62q-9 -11 -22.5 -11t-22.5 11zM1133 264q17 15 39.5 15t39.5 -15q15 -17 15 -40t-15 -40q-18 -16 -40.5 -16.5t-38.5 16.5q-17 16 -16.5 39t16.5 41zM51 233v35h574v-35h-574zM1145 252q-12 -12 -12 -27.5t12 -27.5
t27.5 -12t27.5 12q11 10 10.5 25.5t-12.5 27.5t-27.5 12.5t-25.5 -10.5zM1251 145q11 11 26 11t26 -11t11 -26t-11 -25t-26 -10t-26 10t-11 25t11 26zM1384 12q-8 -9 -19 -9t-19 9q-8 8 -8 19t8 20q8 7 19 7t19 -7q8 -9 8 -20t-8 -19z" />
    <glyph glyph-name="BorderDotsTopRight" horiz-adv-x="3115" 
d="M3052 1622q10 -10 10 -24t-10 -25q-9 -9 -23.5 -8.5t-24.5 10.5q-9 9 -9 23t9 24q10 9 24.5 9t23.5 -9zM2890 1460q-13 13 -13.5 31.5t11.5 30.5q14 14 32.5 14t30.5 -14q13 -12 13 -31t-13 -33q-12 -12 -30 -11.5t-31 13.5zM2587 1198v12q5 39 -2 82.5t-15.5 68.5
t-9.5 54t14 39q12 12 29 12t27 -12q24 -24 26 -76q4 -44 -11 -88.5t-33 -67.5l-17 -22q-6 -3 -8 -2zM2744 1315q-20 20 -20 48t20 48t48.5 20t48.5 -20t21 -48.5t-19 -47.5q-20 -20 -49.5 -20t-49.5 20zM2759 1329q15 -13 34 -13t33 13q15 15 15 35t-15 33
q-13 14 -31.5 13.5t-33.5 -15.5q-13 -13 -13.5 -33t11.5 -33zM2542 1147q-5 0 -11 4q-25 25 -70 49t-83 35q-17 5 -40 10t-35.5 7.5t-27.5 10.5t-28 21q-19 19 -20 41t18 41q24 23 54 27t60.5 -8.5t58 -31.5t52.5 -44q34 -34 58 -92t14 -70zM295 1329q0 19 13 31t32 12
t32 -12t13 -31t-13 -32t-32 -13t-32 13t-13 32zM162 1327q0 15 10.5 25t24.5 10q15 0 24.5 -10t9.5 -25t-9.5 -25t-24.5 -10q-14 0 -24.5 10t-10.5 25zM461 1360h1689v-66h-1689v66zM53 1329q0 11 7.5 19t19.5 8q10 0 18 -8t8 -19t-8 -20t-18 -9q-12 0 -19.5 9t-7.5 20z
M2890 1139q-10 -15 -39.5 -14t-54.5 9t-68.5 15t-83.5 2h-10q-4 4 2 10q3 3 9 8t25 16.5t39 20t49 14.5t56 3q54 -5 76 -27q12 -12 12 -28.5t-12 -28.5zM2802 811q-39 -39 -84 2q-17 17 -24 33.5t-12.5 46.5t-12.5 51q-32 102 -82 152q-8 8 -4 12q10 10 67.5 -15t93.5 -59
q25 -25 44.5 -53t31.5 -58t8.5 -59.5t-26.5 -52.5zM2732 715h66v-1690h-66v1690zM2722 -1096q0 19 12 31t31 12t32 -12t13 -31t-13 -32t-32 -13t-31 13t-12 32zM2730 -1239q0 15 10.5 25t24.5 10q15 0 25 -10t10 -25t-10 -25t-25 -10q-14 0 -24.5 10t-10.5 25zM2738 -1358
q0 10 8 18.5t19 8.5t19.5 -8.5t8.5 -18.5t-8.5 -18t-19.5 -8t-19 8t-8 18z" />
    <glyph glyph-name="BorderDotsBottomLeft" horiz-adv-x="3115" 
d="M375 2583q0 -11 -8.5 -19t-18.5 -8q-11 0 -20 8.5t-9 18.5t9 18t20 8t19 -8t8 -18zM383 2464q0 -15 -10.5 -25t-24.5 -10q-15 0 -25 10t-10 25t10 25t25 10q14 0 24.5 -10t10.5 -25zM391 2320q0 -19 -12 -31t-31 -12t-32 12t-13 31t13 32t32 13t31 -13t12 -32zM381 510
h-66v1690h66v-1690zM311 414q39 39 84 -2q17 -17 24 -33.5t12.5 -46.5t12.5 -51q32 -102 82 -152q8 -8 4 -12q-10 -10 -67.5 14.5t-93.5 58.5q-25 25 -44.5 53t-31.5 58.5t-8.5 60t26.5 52.5zM223 86q10 15 39.5 14t54.5 -9t68.5 -15t83.5 -2h10q5 -4 -2 -11
q-9 -8 -25 -19.5t-62.5 -28.5t-90.5 -13q-54 5 -76 27q-12 12 -12 28.5t12 28.5zM571 78q5 0 11 -4q25 -25 70 -49t83 -35q17 -5 40 -10t35.5 -7.5t27.5 -10.5t28 -21q19 -19 20 -41t-18 -41q-24 -23 -54 -27t-60.5 8.5t-58 31.5t-52.5 44q-34 34 -58 92t-14 70zM526 27v-13
q-5 -39 2 -82.5t15.5 -68.5t9.5 -53.5t-14 -38.5q-12 -12 -28.5 -12t-27.5 12q-24 24 -26 75q-4 44 11 88.5t32 67.5l18 23q6 3 8 2zM2818 -104q0 -19 -13 -31t-32 -12t-32 12t-13 31t13 32t32 13t32 -13t13 -32zM2951 -102q0 -15 -10.5 -25t-24.5 -10q-15 0 -24.5 10
t-9.5 25t9.5 24.5t24.5 9.5q14 0 24.5 -9.5t10.5 -24.5zM2652 -135h-1689v65h1689v-65zM369 -90q20 -20 20 -48t-20 -48t-48.5 -20t-48.5 20t-21 48.5t19 47.5q20 20 49.5 20t49.5 -20zM3060 -104q0 -11 -7.5 -19t-19.5 -8q-11 0 -19 8.5t-8 18.5q0 11 8.5 19.5t18.5 8.5
q12 0 19.5 -8.5t7.5 -19.5zM354 -104q-15 14 -34.5 14t-32.5 -14q-15 -15 -15 -34.5t15 -33.5q13 -14 31.5 -13.5t33.5 15.5q13 13 13.5 33t-11.5 33zM223 -236q13 -13 13.5 -31t-11.5 -30q-13 -13 -32 -13t-31 13q-14 12 -14 31.5t14 32.5q12 12 30 11t31 -14zM61 -397
q-11 11 -11 25t11 24q9 9 23.5 8.5t24.5 -10.5q9 -9 9 -22.5t-9 -24.5q-10 -9 -24.5 -9t-23.5 9z" />
    <glyph glyph-name="BorderDotsBottomRigth" horiz-adv-x="3115" 
d="M2750 2583q0 10 8 18t19 8t20 -8t9 -18t-9 -18.5t-20 -8.5t-19 8t-8 19zM2742 2464q0 15 10.5 25t24.5 10q15 0 25 -10t10 -25t-10 -25t-25 -10q-14 0 -24.5 10t-10.5 25zM2734 2320q0 19 12 32t31 13t32 -13t13 -32t-13 -31t-32 -12t-31 12t-12 31zM2744 510v1690h66
v-1690h-66zM2814 414q23 -23 27 -52.5t-8 -60t-31.5 -58.5t-44.5 -53q-36 -34 -94 -58.5t-68 -14.5q-4 4 4 12q50 50 82 152q7 21 12.5 51t12.5 46.5t24 33.5q45 41 84 2zM2902 86q12 -12 12 -28.5t-12 -28.5q-22 -22 -76 -27q-44 -4 -88.5 11t-67.5 33l-22 17q-6 7 -2 11
h10q40 -5 83.5 2t68.5 15t54.5 9t39.5 -14zM2554 78q10 -12 -14 -70t-58 -92q-25 -25 -52.5 -44t-58 -31.5t-60.5 -8.5t-54 27q-19 19 -18 41t20 41q17 17 33.5 24t48 13.5t49.5 11.5q38 11 83.5 35t70.5 49q6 4 10 4zM2599 27q2 1 8 -2q3 -3 8 -9t16.5 -25.5t20 -39.5
t14.5 -49t3 -56q-2 -50 -27 -75q-10 -12 -26.5 -12t-28.5 12q-15 10 -14 38.5t9 53.5t15 68.5t2 82.5v13zM307 -104q0 19 13 32t32 13t32 -13t13 -32t-13 -31t-32 -12t-32 12t-13 31zM174 -102q0 15 10.5 24.5t24.5 9.5q15 0 25 -9.5t10 -24.5t-10 -25t-25 -10
q-14 0 -24.5 10t-10.5 25zM473 -135v65h1690v-65h-1690zM2757 -90q20 20 49 20t49 -20q20 -19 19 -47.5t-21 -48.5t-48 -20t-48 20t-20 48t20 48zM66 -104q0 11 7 19.5t19 8.5q10 0 18.5 -8.5t8.5 -19.5q0 -10 -8.5 -18.5t-18.5 -8.5q-12 0 -19 8t-7 19zM2771 -104
q-12 -13 -11.5 -33t13.5 -33q15 -15 34 -15.5t32 13.5q15 13 15 33t-15 35q-13 14 -33 14t-35 -14zM2902 -236q13 13 31 14t30 -11q13 -13 13 -32.5t-13 -31.5q-12 -13 -30.5 -13t-32.5 13q-12 12 -11.5 30t13.5 31zM3064 -397q-9 -9 -22.5 -9t-24.5 9q-9 11 -9 24.5t9 22.5
q10 10 24 10.5t23 -8.5q10 -10 10 -24t-10 -25z" />
    </font>
</defs>
</svg>
