<?xml version="1.0" standalone="no"?>
<!DOCTYPE svg PUBLIC "-//W3C//DTD SVG 1.1//EN" "http://www.w3.org/Graphics/SVG/1.1/DTD/svg11.dtd" >
<svg xmlns="http://www.w3.org/2000/svg" xmlns:xlink="http://www.w3.org/1999/xlink" version="1.1">
<metadata>
Created by FontForge 20170731 at Fri Nov 17 13:43:35 2023
 By Aleksey,,,
Leksen Design
</metadata>
<defs>
<font id="NordiquePro-Bold" horiz-adv-x="1167" >
  <font-face 
    font-family="Nordique Pro"
    font-weight="700"
    font-stretch="normal"
    units-per-em="2048"
    panose-1="0 0 8 0 0 0 0 0 0 0"
    ascent="1638"
    descent="-410"
    x-height="1024"
    cap-height="1434"
    bbox="-410 -1810 6261 2947"
    underline-thickness="102"
    underline-position="-307"
    unicode-range="U+0020-25CA"
  />
<missing-glyph horiz-adv-x="1024" 
d="M840 1638v-2048h-650v2048h650zM682 1501h-338v-67h133v-76h-135v-68h340v68h-135v76h135v67zM547 1237h-205v-213h340v70h-135v143zM477 1167v-73h-67v73h67zM682 969h-340v-68h135v-76h-135v-67h205v143h135v68zM682 846h-68v-135h-272v-70h340v205zM682 596h-205v-115
h70v47h67v-96h-204v164h-68v-231h340v231zM682 242h-340v-232h340v232zM614 174v-96h-204v96h204zM682 -37h-340v-67h143l-143 -97v-67h340v67h-209l143 97h66v67z" />
    <glyph glyph-name="f_f.liga" unicode="ff" horiz-adv-x="1273" 
d="M195 0v764h-154v260h158q18 195 131 305.5t315 110.5v-260q-78 -2 -129 -43t-51 -113h311q18 194 131.5 305t315.5 111v-260q-78 -2 -129.5 -43t-51.5 -113h181v-260h-185v-764h-266v764h-311v-764h-266z" />
    <glyph glyph-name="f_f_i.liga" unicode="ffi" horiz-adv-x="1708" 
d="M1489 1133q-68 0 -114 46t-46 113q0 66 46.5 112t113.5 46q66 0 112 -46t46 -112q0 -67 -46 -113t-112 -46zM195 0v764h-154v260h158q18 195 131 305.5t315 110.5v-260q-78 -2 -129 -43t-51 -113h311q18 194 131.5 305t315.5 111v-260q-78 -2 -129.5 -43t-51.5 -113h181
v-260h-185v-764h-266v764h-311v-764h-266zM1356 0v1024h266v-1024h-266z" />
    <glyph glyph-name="f_f_l.liga" unicode="ffl" horiz-adv-x="1671" 
d="M195 0v764h-154v260h158q18 195 131 305.5t315 110.5v-260q-78 -2 -129 -43t-51 -113h311q18 194 131.5 305t315.5 111v-260q-78 -2 -129.5 -43t-51.5 -113h181v-260h-185v-764h-266v764h-311v-764h-266zM1343 0v1434h267v-1434h-267z" />
    <glyph glyph-name="f_i.liga" unicode="fi" horiz-adv-x="1146" 
d="M928 1133q-68 0 -114 46t-46 113q0 66 46.5 112t113.5 46q66 0 111.5 -46t45.5 -112q0 -67 -45.5 -113t-111.5 -46zM195 0v764h-154v260h158q18 195 131 305.5t315 110.5v-260q-78 -2 -129 -43t-51 -113h180v-260h-184v-764h-266zM795 0v1024h266v-1024h-266z" />
    <glyph glyph-name="f_l.liga" unicode="fl" horiz-adv-x="1095" 
d="M195 0v764h-154v260h158q18 195 131 305.5t315 110.5v-260q-78 -2 -129 -43t-51 -113h180v-260h-184v-764h-266zM1034 0h-266v1434h266v-1434z" />
    <glyph glyph-name=".notdef" horiz-adv-x="1024" 
d="M840 1638v-2048h-650v2048h650zM682 1501h-338v-67h133v-76h-135v-68h340v68h-135v76h135v67zM547 1237h-205v-213h340v70h-135v143zM477 1167v-73h-67v73h67zM682 969h-340v-68h135v-76h-135v-67h205v143h135v68zM682 846h-68v-135h-272v-70h340v205zM682 596h-205v-115
h70v47h67v-96h-204v164h-68v-231h340v231zM682 242h-340v-232h340v232zM614 174v-96h-204v96h204zM682 -37h-340v-67h143l-143 -97v-67h340v67h-209l143 97h66v67z" />
    <glyph glyph-name=".null" horiz-adv-x="0" 
 />
    <glyph glyph-name="nonmarkingreturn" horiz-adv-x="682" 
 />
    <glyph glyph-name="space" unicode=" " horiz-adv-x="563" 
 />
    <glyph glyph-name="exclam" unicode="!" horiz-adv-x="407" 
d="M338 430h-266v1004h266v-1004zM70 268v-268h266v268h-266z" />
    <glyph glyph-name="quotedbl" unicode="&#x22;" horiz-adv-x="645" 
d="M51 1434h225l-47 -412h-131zM369 1434h225l-47 -412h-131z" />
    <glyph glyph-name="numbersign" unicode="#" horiz-adv-x="1257" 
d="M1155 829h-164l-49 -225h164l-49 -239h-162l-57 -271h-267l58 271h-144l-57 -271h-266l57 271h-168l51 239h164l49 225h-165l53 240h162l55 270h266l-55 -270h143l55 270h267l-56 -270h166zM676 604l49 225h-143l-50 -225h144z" />
    <glyph glyph-name="dollar" unicode="$" horiz-adv-x="1130" 
d="M1079 436q0 -180 -114 -297.5t-295 -146.5v-96h-226v100q-172 38 -282.5 167.5t-110.5 307.5h256q0 -76 38.5 -134t98.5 -79v412q-60 17 -104.5 35t-93 49.5t-79.5 70t-51 97.5t-20 133q0 165 91.5 263.5t256.5 123.5v90h226v-92q166 -30 259 -145t93 -296h-256
q0 60 -27.5 110t-68.5 67v-326q51 -12 85 -22t80.5 -28t78 -37.5t65.5 -51t54 -69t33 -90.5t13 -116zM352 1059q0 -94 92 -137v260q-40 -12 -66 -46.5t-26 -76.5zM670 244q68 13 110.5 62.5t42.5 129.5q0 119 -153 168v-360z" />
    <glyph glyph-name="percent" unicode="%" horiz-adv-x="1822" 
d="M422 668q-100 0 -183.5 44.5t-135.5 134t-52 208.5t52 208.5t135.5 134t183.5 44.5q153 0 261 -105t108 -282t-108 -282t-261 -105zM385 0l784 1434h277l-784 -1434h-277zM422 872q76 0 120 48.5t44 134.5t-44 134t-120 48t-121 -48.5t-45 -133.5t45 -134t121 -49z
M1403 -10q-100 0 -183.5 44.5t-135.5 134t-52 208.5t52 208.5t135.5 134t183.5 44.5q153 0 261 -105t108 -282t-108 -282t-261 -105zM1403 195q76 0 120 48t44 134t-44 134t-120 48t-121 -48.5t-45 -133.5t45 -133.5t121 -48.5z" />
    <glyph glyph-name="ampersand" unicode="&#x26;" horiz-adv-x="1224" 
d="M537 -16q-133 0 -243.5 55t-176.5 157t-66 232q0 156 76 259t201 147l-56 69q-98 125 -98 227q0 142 106 231t257 89q164 0 252 -96t88 -264h-246q0 54 -23.5 77t-70.5 23q-46 0 -71.5 -23t-25.5 -65q0 -70 103 -195l364 -450q9 7 20.5 17.5t20.5 17.5q6 5 21 15.5
t26 20.5l158 -190q-5 -5 -21.5 -18t-23.5 -19q-18 -18 -45 -39l111 -137l-185 -125l-94 121q-140 -137 -358 -137zM537 244q111 0 198 75l-229 287q-91 0 -140 -51.5t-49 -126.5q0 -84 60 -134t160 -50z" />
    <glyph glyph-name="quotesingle" unicode="'" horiz-adv-x="368" 
d="M72 1434h225l-47 -412h-131z" />
    <glyph glyph-name="parenleft" unicode="(" horiz-adv-x="651" 
d="M651 1509q-136 -159 -235 -424t-99 -534q0 -271 99 -536.5t235 -424.5h-295q-130 151 -217.5 416.5t-87.5 544.5q0 277 87.5 542t217.5 416h295z" />
    <glyph glyph-name="parenright" unicode=")" horiz-adv-x="651" 
d="M0 1509h295q130 -151 217.5 -416t87.5 -542q0 -279 -87.5 -544.5t-217.5 -416.5h-295q136 159 235 424.5t99 536.5q0 269 -99 534t-235 424z" />
    <glyph glyph-name="asterisk" unicode="*" horiz-adv-x="471" 
d="M236 1178l65 -88l80 57l-66 88l105 35l-35 88l-104 -35v111h-95v-113l-108 35l-27 -90l105 -33l-66 -90l82 -56z" />
    <glyph glyph-name="plus" unicode="+" horiz-adv-x="940" 
d="M889 668v-260h-285v-289h-266v289h-287v260h287v288h266v-288h285z" />
    <glyph glyph-name="comma" unicode="," horiz-adv-x="413" 
d="M23 -166q59 0 106.5 6t92 21.5t74.5 40t48 65t18 94.5v207h-266v-166v-26.5v-26.5t-0.5 -23.5t-2.5 -23t-5.5 -19t-9 -18.5t-13 -14t-18.5 -13t-24 -8v-96z" />
    <glyph glyph-name="hyphen" unicode="-" horiz-adv-x="659" 
d="M608 662v-261h-557v261h557z" />
    <glyph glyph-name="period" unicode="." horiz-adv-x="368" 
d="M51 268v-268h266v268h-266z" />
    <glyph glyph-name="slash" unicode="/" horiz-adv-x="731" 
d="M711 1434h-275l-416 -1434h275z" />
    <glyph glyph-name="zero" unicode="0" horiz-adv-x="1193" 
d="M598 1452q163 0 287.5 -94.5t191 -261t66.5 -379.5t-66.5 -379.5t-191 -261t-287.5 -94.5t-288 94.5t-192 261t-67 379.5t67 379.5t192 261t288 94.5zM598 1192q-124 0 -202.5 -129.5t-78.5 -345.5t78.5 -345.5t202.5 -129.5q122 0 200.5 130t78.5 345t-78.5 345
t-200.5 130z" />
    <glyph glyph-name="one" unicode="1" horiz-adv-x="657" 
d="M289 1434h266v-1434h-266v1079q-90 -66 -258 -78v259q50 5 103.5 23.5t101 59t53.5 91.5z" />
    <glyph glyph-name="two" unicode="2" horiz-adv-x="960" 
d="M51 0v55q0 115 32.5 214t84 170t114 133.5t125 115t114 103t84 110t32.5 123.5q0 69 -47 117.5t-113 48.5q-63 0 -111.5 -50t-48.5 -116h-266q0 177 124.5 301.5t301.5 124.5q176 0 301 -126t125 -300q0 -87 -32.5 -166t-82 -136.5t-113.5 -117.5t-122.5 -108.5
t-113 -111.5t-81.5 -124h551v-260h-858z" />
    <glyph glyph-name="three" unicode="3" horiz-adv-x="1036" 
d="M524 -14q-97 0 -186 30.5t-157 85t-109 135.5t-41 175h266q0 -75 67.5 -120.5t153.5 -45.5q106 0 163.5 57t57.5 164q0 117 -73.5 175t-200.5 58h-62l-2 220h52q83 0 138.5 36.5t55.5 108.5q0 61 -32.5 97t-92.5 36q-64 0 -98.5 -32t-34.5 -70h-266q0 103 55 184.5
t144.5 125.5t195.5 44q107 0 196 -38t144 -115t55 -179q0 -104 -38.5 -175t-137.5 -130q130 -44 199.5 -135.5t69.5 -251.5q0 -126 -66.5 -227.5t-176.5 -157t-239 -55.5z" />
    <glyph glyph-name="four" unicode="4" horiz-adv-x="1136" 
d="M1106 582v-252h-180v-330h-267v330h-618v252l618 852h267v-852h180zM350 582h309v405z" />
    <glyph glyph-name="five" unicode="5" horiz-adv-x="1159" 
d="M580 -16q-235 0 -382 146.5t-147 381.5h266q0 -123 71 -195.5t194 -72.5t191.5 67.5t68.5 190.5q0 126 -72.5 192t-202.5 66q-94 0 -164 -55l-188 159l147 570h672v-260h-477l-35 -156q16 2 43 2q237 0 390 -143t153 -375q0 -234 -146 -376t-382 -142z" />
    <glyph glyph-name="six" unicode="6" horiz-adv-x="1159" 
d="M580 -16q-144 0 -265.5 69t-192.5 190.5t-71 268.5q0 162 71.5 323.5t186.5 285t264 208.5t299 105v-250q-92 -13 -187.5 -56.5t-154.5 -109.5q28 6 93 6q141 0 254 -74t172 -190.5t59 -247.5q0 -144 -70.5 -265.5t-192 -192t-265.5 -70.5zM582 244q108 0 184 78t76 190
q0 115 -74.5 191.5t-185.5 76.5q-110 0 -187 -77t-78 -191q0 -113 77.5 -190.5t187.5 -77.5z" />
    <glyph glyph-name="seven" unicode="7" horiz-adv-x="1030" 
d="M31 1434h948v-244l-627 -1190h-272l629 1190h-678v244z" />
    <glyph glyph-name="eight" unicode="8" horiz-adv-x="1075" 
d="M537 -16q-212 0 -349 128.5t-137 315.5q0 103 45 193.5t125 152.5q-133 111 -133 287q0 164 123.5 276.5t325.5 112.5t326 -111.5t124 -277.5q0 -174 -135 -287q82 -62 127 -151.5t45 -194.5q0 -188 -137 -316t-350 -128zM537 913q85 0 129.5 36t44.5 104q0 137 -174 137
q-172 0 -172 -137q0 -140 172 -140zM537 244q95 0 153 53t58 141t-58 141.5t-153 53.5q-94 0 -151.5 -53.5t-57.5 -141.5t57.5 -141t151.5 -53z" />
    <glyph glyph-name="nine" unicode="9" horiz-adv-x="1159" 
d="M344 -16l252 393h-16q-144 0 -266 70.5t-192.5 192t-70.5 265.5q0 108 42 206t112.5 168.5t168.5 112.5t206 42q218 0 373 -155t155 -374q0 -166 -98 -307l-392 -614h-274zM578 637q112 0 188 77t76 191q0 110 -77.5 189.5t-186.5 79.5q-108 0 -184.5 -78.5t-76.5 -190.5
q0 -115 75 -191.5t186 -76.5z" />
    <glyph glyph-name="colon" unicode=":" horiz-adv-x="368" 
d="M51 1040v-268h266v268h-266zM51 268v-268h266v268h-266z" />
    <glyph glyph-name="semicolon" unicode=";" horiz-adv-x="415" 
d="M88 983v-268h266v268h-266zM14 -166q74 0 131.5 10t106.5 34t75.5 70t26.5 113v207h-266v-166v-26v-27t-1 -23t-3 -23.5t-5.5 -19t-9 -19t-13 -14t-18.5 -13t-24 -7.5v-96z" />
    <glyph glyph-name="less" unicode="&#x3c;" horiz-adv-x="837" 
d="M51 463l735 -299v272l-417 158l417 158v272l-735 -299v-262z" />
    <glyph glyph-name="equal" unicode="=" horiz-adv-x="837" 
d="M786 942v-260h-735v260h735zM786 547v-260h-735v260h735z" />
    <glyph glyph-name="greater" unicode="&#x3e;" horiz-adv-x="837" 
d="M786 463v262l-735 299v-272l418 -158l-418 -158v-272z" />
    <glyph glyph-name="question" unicode="?" horiz-adv-x="1079" 
d="M334 371q0 90 14.5 162.5t39.5 120.5t57 85t67.5 61t71 44t67.5 38t57 38t39.5 49t14.5 67q0 72 -62.5 113t-164.5 41t-165 -41t-63 -113h-266q0 131 68.5 226.5t178.5 141.5t247 46q101 0 190 -27t157 -78t107 -131t39 -178q0 -88 -23 -151.5t-60.5 -99.5t-82.5 -63.5
t-90.5 -54t-83 -60t-62 -93.5t-26.5 -143h-266zM332 0v248h266v-248h-266z" />
    <glyph glyph-name="at" unicode="@" horiz-adv-x="1507" 
d="M788 -16q-151 0 -287 57t-235 154.5t-157 233.5t-58 288t58 288t157 233.5t235 154.5t287 57t277.5 -51t211.5 -137.5t132 -201.5t47 -243q0 -184 -103 -304t-257 -120q-137 0 -191 92q-34 -37 -88 -62.5t-117 -25.5q-111 0 -171 69.5t-60 174.5q0 64 27.5 133
t74.5 127.5t118.5 96.5t150.5 38q77 0 121 -41l10 29h149l-104 -336q-24 -66 -1 -115t95 -49q64 0 107 76.5t43 224.5q0 76 -34 148.5t-94 130t-150 92.5t-194 35q-140 0 -258 -68t-186 -186.5t-68 -259.5t68 -259.5t186 -186.5t258 -68q165 0 299 94h310
q-102 -145 -262 -229t-347 -84zM700 541q49 0 95 36t63 89l62 196q-17 31 -70 31q-93 0 -162.5 -75t-69.5 -177q0 -55 19.5 -77.5t62.5 -22.5z" />
    <glyph glyph-name="A" unicode="A" horiz-adv-x="1306" 
d="M1034 0l-110 311h-541l-111 -311h-272l520 1434h266l521 -1434h-273zM471 561h365l-183 512z" />
    <glyph glyph-name="B" unicode="B" horiz-adv-x="1038" 
d="M748 782q239 -111 239 -368q0 -183 -118 -298.5t-294 -115.5h-514v1434h418q187 0 292.5 -90.5t105.5 -249.5q0 -69 -12 -123.5t-34.5 -91t-40 -56.5t-42.5 -41zM479 1190h-151v-287h172q44 0 77 50t33 100q0 137 -131 137zM573 244q65 0 106.5 64t41.5 149
q0 72 -43.5 125t-120.5 53h-229v-391h245z" />
    <glyph glyph-name="C" unicode="C" horiz-adv-x="1548" 
d="M788 -16q-152 0 -288.5 57t-235 154.5t-156 233.5t-57.5 288t57.5 288t156 233.5t235 154.5t288.5 57q252 0 447 -146.5t262 -379.5h-283q-56 122 -169.5 194t-256.5 72q-199 0 -335 -136.5t-136 -336.5t136 -336.5t335 -136.5q137 0 248.5 69t171.5 185h285
q-70 -228 -263 -371t-442 -143z" />
    <glyph glyph-name="D" unicode="D" horiz-adv-x="1269" 
d="M481 1434q152 0 288.5 -54.5t235.5 -149t156.5 -228t57.5 -285.5t-57.5 -285.5t-156.5 -228t-235.5 -149t-288.5 -54.5h-420v1434h420zM481 250q203 0 337 133t134 334t-134 334t-337 133h-153v-934h153z" />
    <glyph glyph-name="E" unicode="E" horiz-adv-x="956" 
d="M905 1174h-577v-293h499v-260h-499v-361h577v-260h-844v1434h844v-260z" />
    <glyph glyph-name="F" unicode="F" horiz-adv-x="956" 
d="M905 1174h-577v-293h499v-260h-499v-621h-267v1434h844v-260z" />
    <glyph glyph-name="G" unicode="G" horiz-adv-x="1574" 
d="M1524 698q0 -86 -23 -172.5t-66 -165.5t-108.5 -148t-145 -119.5t-181 -79.5t-212.5 -29q-151 0 -287 57t-235 154.5t-157 233.5t-58 288t58 288t157 233.5t235 154.5t287 57q239 0 427.5 -131.5t265.5 -345.5h-293q-145 217 -400 217q-204 0 -337.5 -134t-133.5 -339
t133.5 -339t337.5 -134q131 0 238.5 61t165.5 164h-299v229h631z" />
    <glyph glyph-name="H" unicode="H" horiz-adv-x="1187" 
d="M860 1434h266v-1434h-266v629h-532v-629h-267v1434h267v-555h532v555z" />
    <glyph glyph-name="I" unicode="I" horiz-adv-x="389" 
d="M328 0h-267v1434h267v-1434z" />
    <glyph glyph-name="J" unicode="J" horiz-adv-x="573" 
d="M61 -16v260q99 0 142 53t43 176v961h266v-961q0 -247 -122 -368t-329 -121z" />
    <glyph glyph-name="K" unicode="K" horiz-adv-x="1050" 
d="M1040 0h-297l-352 604l-63 -86v-518h-267v1434h267v-508l372 508h299l-448 -615z" />
    <glyph glyph-name="L" unicode="L" horiz-adv-x="915" 
d="M328 260h536v-260h-803v1434h267v-1174z" />
    <glyph glyph-name="M" unicode="M" horiz-adv-x="1558" 
d="M1231 1434h266v-1434h-266v831l-340 -831h-223l-340 831v-831h-267v1434h267l452 -1041z" />
    <glyph glyph-name="N" unicode="N" horiz-adv-x="1269" 
d="M942 1434h266v-1434h-266l-614 946v-946h-267v1434h267l614 -949v949z" />
    <glyph glyph-name="O" unicode="O" horiz-adv-x="1576" 
d="M788 -16q-152 0 -288.5 57t-235 154.5t-156 233.5t-57.5 288t57.5 288t156 233.5t235 154.5t288.5 57t288.5 -57t235 -154.5t156.5 -233.5t58 -288t-58 -288t-156.5 -233.5t-235 -154.5t-288.5 -57zM788 244q199 0 335.5 136.5t136.5 336.5t-136.5 336.5t-335.5 136.5
t-335 -136.5t-136 -336.5t136 -336.5t335 -136.5z" />
    <glyph glyph-name="P" unicode="P" horiz-adv-x="1036" 
d="M61 0v1434h463q192 0 326.5 -128t134.5 -317q0 -126 -62 -232.5t-168 -168.5t-231 -62h-196v-526h-267zM328 764h196q89 0 142 64.5t53 160.5q0 94 -52 150.5t-143 56.5h-196v-432z" />
    <glyph glyph-name="Q" unicode="Q" horiz-adv-x="1576" 
d="M1235 -23l-84 99q-165 -92 -363 -92q-152 0 -288.5 57t-235 154.5t-156 233.5t-57.5 288t57.5 288t156 233.5t235 154.5t288.5 57t288.5 -57t235 -154.5t156.5 -233.5t58 -288q0 -266 -168 -471l82 -96zM788 244q102 0 191 39l-90 106l205 172l90 -106q76 120 76 262
q0 200 -136.5 336.5t-335.5 136.5t-335 -136.5t-136 -336.5t136 -336.5t335 -136.5z" />
    <glyph glyph-name="R" unicode="R" horiz-adv-x="1036" 
d="M61 0v1434h463q192 0 326.5 -128t134.5 -317q0 -87 -29 -164.5t-76 -131t-101 -89.5t-109 -51l282 -553h-282l-254 526h-88v-526h-267zM328 764h196q89 0 142 64.5t53 160.5q0 94 -52 150.5t-143 56.5h-196v-432z" />
    <glyph glyph-name="S" unicode="S" horiz-adv-x="1130" 
d="M1079 436q0 89 -24.5 157t-66 109.5t-95.5 71t-113.5 46t-118.5 30t-113 28t-95.5 34t-66 53.5t-24.5 82q0 69 51 106t146 37q99 0 148 -44.5t49 -146.5h266q0 211 -124.5 331t-338.5 120q-217 0 -340 -101t-123 -294q0 -92 31 -162t81 -109.5t114.5 -70t132 -46.5
t132 -36.5t114.5 -41t81 -59.5t31 -94q0 -101 -64.5 -146.5t-173.5 -45.5q-117 0 -187.5 60.5t-70.5 166.5h-266q0 -138 69.5 -250.5t187 -174.5t257.5 -62q143 0 258.5 53t185.5 157t70 242z" />
    <glyph glyph-name="T" unicode="T" horiz-adv-x="1044" 
d="M1024 1434v-260h-369v-1174h-266v1174h-369v260h1004z" />
    <glyph glyph-name="U" unicode="U" horiz-adv-x="1138" 
d="M61 1434h267v-949q0 -114 63.5 -177.5t177.5 -63.5t178 63.5t64 177.5v949h266v-949q0 -100 -27.5 -183.5t-75.5 -141.5t-113 -98.5t-138.5 -59t-153.5 -18.5t-153.5 18.5t-138.5 59t-113 98.5t-75.5 141.5t-27.5 183.5v949z" />
    <glyph glyph-name="V" unicode="V" horiz-adv-x="1306" 
d="M1307 1434h-293l-361 -1031l-360 1031h-293l520 -1434h266z" />
    <glyph glyph-name="W" unicode="W" horiz-adv-x="1994" 
d="M1712 1434h283l-410 -1434h-266l-322 985l-325 -985h-266l-406 1434h283l256 -973l342 973h233l338 -973z" />
    <glyph glyph-name="X" unicode="X" horiz-adv-x="1245" 
d="M1245 0h-299l-323 498l-324 -498h-299l477 735l-446 699h299l293 -455l295 455h299l-447 -699z" />
    <glyph glyph-name="Y" unicode="Y" horiz-adv-x="1189" 
d="M897 1434h293l-463 -777v-657h-266v657l-461 777h293l301 -508z" />
    <glyph glyph-name="Z" unicode="Z" horiz-adv-x="1191" 
d="M1130 1434v-260l-731 -914h729v-260h-1067v260l730 914h-687v260h1026z" />
    <glyph glyph-name="bracketleft" unicode="[" horiz-adv-x="561" 
d="M541 1249h-193v-1399h193v-260h-459v1919h459v-260z" />
    <glyph glyph-name="backslash" unicode="\" horiz-adv-x="792" 
d="M51 1434l416 -1434h274l-415 1434h-275z" />
    <glyph glyph-name="bracketright" unicode="]" horiz-adv-x="561" 
d="M20 1249v260h459v-1919h-459v260h193v1399h-193z" />
    <glyph glyph-name="asciicircum" unicode="^" horiz-adv-x="962" 
d="M612 1434h-262l-299 -736h273l157 418l158 -418h272z" />
    <glyph glyph-name="underscore" unicode="_" horiz-adv-x="819" 
d="M819 -109v-260h-819v260h819z" />
    <glyph glyph-name="grave" unicode="`" horiz-adv-x="307" 
d="M205 1782l114 -203h-182l-149 203h217z" />
    <glyph glyph-name="a" unicode="a" 
d="M580 -16q-143 0 -265 70.5t-193 192t-71 265.5t71 265.5t193 192t265 70.5t264 -70.5t191.5 -192t70.5 -265.5v-512h-266v109q-24 -52 -98.5 -88.5t-161.5 -36.5zM582 244q113 0 186.5 76.5t73.5 191.5t-73.5 191.5t-186.5 76.5q-114 0 -189.5 -77t-75.5 -191t75.5 -191
t189.5 -77z" />
    <glyph glyph-name="b" unicode="b" 
d="M61 512v922h269v-471q109 77 258 77q143 0 264.5 -70.5t192.5 -192t71 -265.5t-71 -265.5t-192.5 -192t-264.5 -70.5t-264.5 70.5t-192 192t-70.5 265.5zM590 780q-114 0 -189 -77t-75 -191t75 -191t189 -77q113 0 186.5 76.5t73.5 191.5t-73.5 191.5t-186.5 76.5z" />
    <glyph glyph-name="c" unicode="c" horiz-adv-x="1138" 
d="M580 -16q-144 0 -266 70.5t-192.5 192t-70.5 265.5t70.5 265.5t192.5 192t266 70.5q181 0 321 -107.5t186 -275.5h-282q-35 57 -93 90t-130 33q-114 0 -189.5 -77t-75.5 -191t75.5 -191t189.5 -77q138 0 215 112h288q-50 -165 -188.5 -268.5t-316.5 -103.5z" />
    <glyph glyph-name="d" unicode="d" 
d="M1106 512q0 -144 -70.5 -265.5t-191.5 -192t-264 -70.5t-265 70.5t-193 192t-71 265.5t71 265.5t193 192t265 70.5q149 0 258 -77v471h268v-922zM578 780q-113 0 -187 -76.5t-74 -191.5t74 -191.5t187 -76.5q114 0 189 77t75 191t-75 191t-189 77z" />
    <glyph glyph-name="e" unicode="e" horiz-adv-x="1157" 
d="M51 510q0 141 67.5 262.5t188 194.5t264.5 73q77 0 152 -21t143 -63.5t120.5 -101.5t84.5 -141.5t35 -177.5q3 -64 -8 -127h-760q19 -76 81.5 -120t151.5 -44q105 0 177 59l317 -2q-63 -142 -194 -229.5t-291 -87.5q-145 0 -267 70.5t-192 191.5t-70 264zM338 621h483
q-31 72 -97.5 115.5t-143.5 43.5q-87 0 -148.5 -42.5t-93.5 -116.5z" />
    <glyph glyph-name="f" unicode="f" horiz-adv-x="665" 
d="M195 0v764h-154v260h158q18 195 131 305.5t315 110.5v-260q-78 -2 -129 -43t-51 -113h180v-260h-184v-764h-266z" />
    <glyph glyph-name="g" unicode="g" horiz-adv-x="1169" 
d="M580 -410q-159 0 -290.5 87.5t-193.5 230.5h324q75 -58 160 -58q107 0 181.5 53t74.5 146v2q-118 -67 -256 -67q-144 0 -266 70.5t-192.5 192t-70.5 265.5t70.5 265.5t192.5 192t266 70.5t265.5 -70.5t192 -192t70.5 -265.5v-393q0 -144 -70.5 -266t-192 -192.5
t-265.5 -70.5zM582 244q113 0 186.5 76.5t73.5 191.5t-73.5 191.5t-186.5 76.5q-114 0 -189.5 -77t-75.5 -191t75.5 -191t189.5 -77z" />
    <glyph glyph-name="h" unicode="h" horiz-adv-x="1024" 
d="M512 1040q100 0 181.5 -30.5t142 -90.5t94 -157t33.5 -223v-539h-267v539q0 124 -43.5 182.5t-140.5 58.5t-140.5 -58.5t-43.5 -182.5v-539h-267v1434h267v-445q76 51 184 51z" />
    <glyph glyph-name="i" unicode="i" horiz-adv-x="440" 
d="M221 1133q-68 0 -114 46t-46 113q0 66 46.5 112t113.5 46q66 0 112 -46t46 -112q0 -67 -46 -113t-112 -46zM88 0v1024h266v-1024h-266z" />
    <glyph glyph-name="j" unicode="j" horiz-adv-x="389" 
d="M195 1133q-68 0 -114 46t-46 113q0 66 46.5 112t113.5 46q66 0 111.5 -46t45.5 -112q0 -67 -45.5 -113t-111.5 -46zM-123 -410v260q98 0 141 53.5t43 176.5v948h267v-948q0 -126 -33.5 -221t-94.5 -153.5t-142 -87t-181 -28.5z" />
    <glyph glyph-name="k" unicode="k" horiz-adv-x="1073" 
d="M61 0v1434h267v-748l340 338h340l-390 -393l455 -631h-297l-338 463l-110 -111v-352h-267z" />
    <glyph glyph-name="l" unicode="l" horiz-adv-x="389" 
d="M328 0h-267v1434h267v-1434z" />
    <glyph glyph-name="m" unicode="m" horiz-adv-x="1699" 
d="M1178 1040q100 0 182.5 -30.5t145.5 -90.5t97.5 -157t34.5 -223v-539h-266v539q0 123 -47 182t-147 59q-99 0 -147 -59t-48 -182v-539h-266v539q0 123 -47.5 182t-147.5 59q-98 0 -146 -59t-48 -182v-539h-267v539q0 126 35 223t97.5 157t145.5 90.5t183 30.5
q101 0 187 -35.5t141 -105.5q55 70 141 105.5t187 35.5z" />
    <glyph glyph-name="n" unicode="n" horiz-adv-x="1024" 
d="M963 0v539q0 126 -33.5 223t-94 157t-142 90.5t-181.5 30.5t-181.5 -30.5t-142 -90.5t-94 -157t-33.5 -223v-539h267v539q0 124 43.5 182.5t140.5 58.5t140.5 -58.5t43.5 -182.5v-539h267z" />
    <glyph glyph-name="o" unicode="o" horiz-adv-x="1159" 
d="M580 1040q144 0 265.5 -70.5t192 -192t70.5 -265.5t-70.5 -265.5t-192 -192t-265.5 -70.5t-266 70.5t-192.5 192t-70.5 265.5t70.5 265.5t192.5 192t266 70.5zM582 780q-114 0 -189.5 -77t-75.5 -191t75.5 -191t189.5 -77q113 0 186.5 76.5t73.5 191.5t-73.5 191.5
t-186.5 76.5z" />
    <glyph glyph-name="p" unicode="p" 
d="M61 512q0 144 70.5 265.5t192 192t264.5 70.5t264.5 -70.5t192.5 -192t71 -265.5t-71 -265.5t-192.5 -192t-264.5 -70.5q-149 0 -258 77v-471h-269v922zM590 244q113 0 186.5 76.5t73.5 191.5t-73.5 191.5t-186.5 76.5q-114 0 -189 -77t-75 -191t75 -191t189 -77z" />
    <glyph glyph-name="q" unicode="q" 
d="M1106 512v-922h-268v471q-109 -77 -258 -77q-143 0 -265 70.5t-193 192t-71 265.5t71 265.5t193 192t265 70.5t264 -70.5t191.5 -192t70.5 -265.5zM578 244q114 0 189 77t75 191t-75 191t-189 77q-113 0 -187 -76.5t-74 -191.5t74 -191.5t187 -76.5z" />
    <glyph glyph-name="r" unicode="r" horiz-adv-x="573" 
d="M61 0v539q0 124 33 218.5t93 153t138.5 88t174.5 29.5h12v-260h-10q-89 0 -131.5 -55t-42.5 -174v-539h-267z" />
    <glyph glyph-name="s" unicode="s" horiz-adv-x="962" 
d="M481 -16q-87 0 -165.5 22.5t-140 65t-98 110t-36.5 150.5h254q0 -49 54 -80t138 -31q80 0 124 28t44 70q0 27 -20.5 45.5t-55.5 28.5t-80.5 18t-95.5 16.5t-100 20.5t-95.5 34t-80.5 53t-55.5 81t-20.5 115q0 134 122 221.5t302 87.5q185 0 301.5 -88.5t116.5 -246.5
h-254q0 43 -50 71.5t-118 28.5q-66 0 -110 -27t-44 -67q0 -26 26 -43.5t68 -26t96 -19t111 -20.5t111 -32t96.5 -52t69 -83t27.5 -122q1 -164 -120.5 -246.5t-320.5 -82.5z" />
    <glyph glyph-name="t" unicode="t" horiz-adv-x="655" 
d="M635 764h-184v-281q0 -123 43 -176t141 -53v-260q-207 0 -329 121t-122 368v281h-151v260h151v408h267v-408h184v-260z" />
    <glyph glyph-name="u" unicode="u" horiz-adv-x="1024" 
d="M963 1024h-267v-539q0 -124 -43.5 -182.5t-140.5 -58.5t-140.5 58.5t-43.5 182.5v539h-267v-539q0 -126 33.5 -223t94 -157t142 -90.5t181.5 -30.5t181.5 30.5t142 90.5t94 157t33.5 223v539z" />
    <glyph glyph-name="v" unicode="v" horiz-adv-x="1026" 
d="M379 0l-379 1024h279l233 -674l236 674h278l-381 -1024h-266z" />
    <glyph glyph-name="w" unicode="w" horiz-adv-x="1536" 
d="M1266 1024h270l-319 -1024h-267l-182 614l-184 -614h-267l-317 1024h270l181 -674l184 674h266l182 -674z" />
    <glyph glyph-name="x" unicode="x" horiz-adv-x="1028" 
d="M1028 0h-301l-211 311l-213 -311h-303l365 532l-334 492h299l184 -272l186 272h299l-333 -492z" />
    <glyph glyph-name="y" unicode="y" horiz-adv-x="1024" 
d="M512 -410q-158 0 -273 90.5t-171 243.5h297q31 -38 62 -56t85 -18q93 0 137.5 44t44.5 120v6q-88 -36 -182 -36q-100 0 -181.5 30.5t-142 90.5t-94 157t-33.5 223v539h267v-539q0 -124 43.5 -182.5t140.5 -58.5t140.5 58.5t43.5 182.5v539h267v-973q0 -198 -127.5 -329.5
t-323.5 -131.5z" />
    <glyph glyph-name="z" unicode="z" horiz-adv-x="903" 
d="M379 260h483v-260h-821v260l463 504h-443v260h783v-260z" />
    <glyph glyph-name="braceleft" unicode="{" horiz-adv-x="612" 
d="M61 522q109 -3 109 -217q0 -54 -5 -146t-5 -118q0 -69 18.5 -130t48.5 -104.5t70 -80.5t79.5 -60.5t81 -41t71 -26t53.5 -12.5v56q-3 1 -8.5 4t-22 15.5t-31 29.5t-32.5 49t-31 71.5t-22 99.5t-9 130q0 78 5 154.5t5 111.5q0 84 -23.5 151.5t-74.5 90.5q51 23 74.5 90.5
t23.5 151.5q0 35 -5 111.5t-5 154.5q0 70 8.5 130t22.5 100t30.5 71.5t33 49t30.5 29t23 15.5l8 4v55q-36 -6 -80.5 -20.5t-108 -50t-113 -83t-85 -126.5t-35.5 -174q0 -26 5 -118t5 -146q0 -212 -109 -215v-56z" />
    <glyph glyph-name="bar" unicode="|" horiz-adv-x="389" 
d="M328 -246h-267v1782h267v-1782z" />
    <glyph glyph-name="braceright" unicode="}" horiz-adv-x="612" 
d="M551 524v56q-109 3 -109 215q0 54 5.5 146t5.5 118q0 95 -35.5 174t-85 126.5t-113 83t-108 50t-80.5 20.5v-55q6 -2 16.5 -8t37.5 -34t47 -67.5t37 -116.5t17 -173q0 -78 -5 -154.5t-5 -111.5q0 -84 23.5 -151.5t74.5 -90.5q-51 -23 -74.5 -90.5t-23.5 -151.5
q0 -35 5 -111.5t5 -154.5q0 -70 -8.5 -130t-22 -100t-30 -71.5t-33.5 -49t-30.5 -29t-21.5 -15.5l-9 -4v-56q24 4 53.5 12.5t71 26t81 41t79.5 60.5t70 80.5t48.5 104.5t18.5 130q0 26 -5.5 118t-5.5 146q0 214 109 217z" />
    <glyph glyph-name="asciitilde" unicode="~" horiz-adv-x="960" 
d="M618 365q-43 0 -82.5 17t-64.5 38t-59.5 38t-69.5 17q-41 0 -68.5 -21.5t-56.5 -62.5l-166 135q47 93 124.5 154t166.5 61q43 0 84.5 -17t68.5 -38t60.5 -38t62.5 -17q41 0 68.5 21.5t56.5 62.5l166 -135q-47 -93 -124.5 -154t-166.5 -61z" />
    <glyph glyph-name="exclamdown" unicode="&#xa1;" horiz-adv-x="407" 
d="M70 1165h266v269h-266v-269zM338 1004v-1004h-266v1004h266z" />
    <glyph glyph-name="cent" unicode="&#xa2;" horiz-adv-x="1118" 
d="M680 262q68 25 117 94h288q-41 -140 -150 -238t-255 -124v-119h-246v129q-167 46 -275 187t-108 321t108 321t275 187v131h246v-121q148 -28 257.5 -129t149.5 -244h-282q-47 75 -125 105v-500zM317 512q0 -71 31 -130t86 -95v450q-55 -36 -86 -95t-31 -130z" />
    <glyph glyph-name="sterling" unicode="&#xa3;" horiz-adv-x="1003" 
d="M694 -16q-57 0 -171 28.5t-173 28.5q-138 0 -241 -41v55q129 221 129 459v31h-187v260h96q-47 108 -47 219q0 174 125 300t301 126q177 0 301.5 -124.5t124.5 -301.5h-266q0 67 -47.5 116.5t-112.5 49.5q-68 0 -113.5 -48t-45.5 -118q0 -97 53 -219h211v-260h-125
q0 -47 -4 -105q-2 -50 -17 -114q-5 -19 -16 -47q26 0 89 -17.5t136 -17.5q113 0 240 67v-266q-125 -61 -240 -61z" />
    <glyph glyph-name="currency" unicode="&#xa4;" horiz-adv-x="1173" 
d="M1118 719q0 -168 -94 -305l98 -99l-188 -188l-113 113q-111 -54 -233 -54q-125 0 -236 54l-112 -113l-189 188l99 99q-95 138 -95 305q0 160 92 299l-96 96l189 189l108 -109q113 55 240 55q124 0 237 -55l109 109l188 -189l-96 -96q92 -139 92 -299zM326 717
q0 -111 77 -189.5t187 -78.5q108 0 184 78t76 190q0 115 -75 191.5t-185 76.5q-112 0 -188 -77t-76 -191z" />
    <glyph glyph-name="yen" unicode="&#xa5;" horiz-adv-x="1189" 
d="M1190 1434l-463 -777h238v-178h-238v-100h238v-178h-238v-201h-266v201h-234v178h234v100h-234v178h234l-461 777h293l301 -508l303 508h293z" />
    <glyph glyph-name="brokenbar" unicode="&#xa6;" horiz-adv-x="389" 
d="M328 842h-267v471h267v-471zM328 -41h-267v471h267v-471z" />
    <glyph glyph-name="section" unicode="&#xa7;" horiz-adv-x="1226" 
d="M621 -410q-85 0 -164.5 23.5t-144.5 68t-104.5 117.5t-39.5 164h264q0 -56 50.5 -84.5t119.5 -28.5q87 0 133.5 32.5t46.5 90.5q0 54 -40.5 99.5t-105 79t-142.5 66t-155.5 70.5t-142 83t-105 113t-40.5 151q0 101 53 179.5t142 119.5q-68 75 -68 180q0 104 56 181.5
t146 116t198 38.5q106 0 187.5 -28.5t131.5 -78t75 -113.5t25 -140h-272q0 43 -43.5 71.5t-101.5 28.5q-63 0 -99.5 -26t-36.5 -72q0 -40 25 -72t67.5 -55.5t97.5 -44t115.5 -43t121 -47.5t115.5 -61.5t97.5 -82t67.5 -112.5t25 -148q0 -101 -47 -178t-128 -123
q48 -70 48 -170q0 -111 -61 -196t-157.5 -127t-209.5 -42zM831 297q18 12 26.5 18.5t24 22.5t22.5 38t7 50q0 57 -27.5 94t-82 62.5t-116 47.5t-148.5 62t-160 92q-32 -17 -51 -49t-19 -65q0 -59 26 -98t78.5 -66t112 -49.5t146.5 -64.5t161 -95z" />
    <glyph glyph-name="dieresis" unicode="&#xa8;" horiz-adv-x="577" 
d="M129 1550q-49 0 -83 34t-34 83t34 83t83 34t83 -34t34 -83t-34 -83t-83 -34zM449 1550q-49 0 -83 34t-34 83t34 83t83 34t82.5 -33.5t33.5 -83.5t-33.5 -83.5t-82.5 -33.5z" />
    <glyph glyph-name="copyright" unicode="&#xa9;" horiz-adv-x="1576" 
d="M788 -16q-151 0 -287 57t-235 154.5t-157 233.5t-58 288t58 288t157 233.5t235 154.5t287 57q152 0 288.5 -57t235 -154.5t156.5 -233.5t58 -288t-58 -288t-156.5 -233.5t-235 -154.5t-288.5 -57zM788 203q106 0 201 40t163 108.5t108 163.5t40 202t-40 202t-108 163.5
t-163 108.5t-201 40q-140 0 -258 -68t-186 -186.5t-68 -259.5t68 -259.5t186 -186.5t258 -68zM795 371q-150 0 -249.5 98t-99.5 248q0 146 106.5 247t242.5 101q72 0 131.5 -22.5t98.5 -61t64.5 -80.5t38.5 -88h-184q-22 36 -60 59t-87 23q-75 0 -124.5 -50.5t-49.5 -125.5
t49.5 -126.5t124.5 -51.5q89 0 141 73h190q-11 -40 -36.5 -80t-65 -78t-100 -61.5t-131.5 -23.5z" />
    <glyph glyph-name="ordfeminine" unicode="&#xaa;" horiz-adv-x="899" 
d="M838 1057v-385h-226v65q-52 -73 -168 -73q-163 0 -278 115t-115 278t115 278t278 115t278.5 -115t115.5 -278zM444 922q56 0 93.5 38.5t37.5 96.5t-37.5 96.5t-93.5 38.5t-93.5 -38.5t-37.5 -96.5t37.5 -96.5t93.5 -38.5z" />
    <glyph glyph-name="guillemotleft" unicode="&#xab;" horiz-adv-x="868" 
d="M387 164l-336 340v106l336 340v-243l-151 -150l151 -149v-244zM817 164l-336 340v106l336 340v-243l-151 -150l151 -149v-244z" />
    <glyph glyph-name="logicalnot" unicode="&#xac;" horiz-adv-x="1105" 
d="M51 748h1004v-523h-267v262h-737v261z" />
    <glyph glyph-name="registered" unicode="&#xae;" horiz-adv-x="1576" 
d="M788 -16q-151 0 -287 57t-235 154.5t-157 233.5t-58 288t58 288t157 233.5t235 154.5t287 57q152 0 288.5 -57t235 -154.5t156.5 -233.5t58 -288t-58 -288t-156.5 -233.5t-235 -154.5t-288.5 -57zM788 203q106 0 201 40t163 108.5t108 163.5t40 202t-40 202t-108 163.5
t-163 108.5t-201 40q-140 0 -258 -68t-186 -186.5t-68 -259.5t68 -259.5t186 -186.5t258 -68zM557 354v736h277q99 0 168 -65.5t69 -162.5q0 -157 -123 -225l146 -283h-187l-129 271h-47v-271h-174zM731 776h113q31 0 50 23.5t19 62.5q0 35 -18.5 54.5t-50.5 19.5h-113v-160
z" />
    <glyph glyph-name="macron" unicode="&#xaf;" horiz-adv-x="598" 
d="M547 1647v-91h-496v91h496z" />
    <glyph glyph-name="degree" unicode="&#xb0;" horiz-adv-x="583" 
d="M293 952q-100 0 -171 71t-71 171q0 98 71 169t171 71q98 0 168.5 -71t70.5 -169q0 -100 -70.5 -171t-168.5 -71zM293 1108q34 0 59 25.5t25 60.5q0 34 -25 59t-59 25q-35 0 -60.5 -25t-25.5 -59q0 -35 25.5 -60.5t60.5 -25.5z" />
    <glyph glyph-name="plusminus" unicode="&#xb1;" horiz-adv-x="940" 
d="M889 899v-260h-285v-289h-266v289h-287v260h287v289h266v-289h285zM51 0v260h838v-260h-838z" />
    <glyph glyph-name="acute" unicode="&#xb4;" horiz-adv-x="307" 
d="M102 1761h217l-149 -202h-182z" />
    <glyph glyph-name="paragraph" unicode="&#xb6;" horiz-adv-x="1208" 
d="M1147 1434v-1434h-205v1235h-143v-1235h-205v350q-147 0 -272 73t-198 198t-73 272q0 146 73 270.5t198 197.5t272 73h553z" />
    <glyph glyph-name="periodcentered" unicode="&#xb7;" horiz-adv-x="368" 
d="M51 827v-268h266v268h-266z" />
    <glyph glyph-name="cedilla" unicode="&#xb8;" horiz-adv-x="397" 
d="M199 -362q-62 0 -105 43t-43 104h92q0 -25 15.5 -40t40.5 -15t40 15t15 40t-15 40t-40 15q-13 0 -25 -6l-76 72l45 94h97l-35 -68h2q61 0 100 -42.5t39 -104.5q0 -61 -43 -104t-104 -43z" />
    <glyph glyph-name="ordmasculine" unicode="&#xba;" horiz-adv-x="888" 
d="M444 664q-163 0 -278 115t-115 278t115 278t278 115t278.5 -115t115.5 -278t-115.5 -278t-278.5 -115zM444 922q56 0 93.5 38.5t37.5 96.5t-37.5 96.5t-93.5 38.5t-93.5 -38.5t-37.5 -96.5t37.5 -96.5t93.5 -38.5z" />
    <glyph glyph-name="guillemotright" unicode="&#xbb;" horiz-adv-x="868" 
d="M51 164v244l152 149l-152 150v243l336 -340v-106zM481 164v244l152 149l-152 150v243l336 -340v-106z" />
    <glyph glyph-name="onequarter" unicode="&#xbc;" horiz-adv-x="1454" 
d="M229 1434h205v-766h-205v495q-50 -39 -112 -55l-66 182q130 55 178 144zM1247 1434h-276l-785 -1434h277zM1393 322v-179h-80v-143h-185v143h-337v179l337 444h185v-444h80zM987 322h141v174z" />
    <glyph glyph-name="onehalf" unicode="&#xbd;" horiz-adv-x="1566" 
d="M229 1434h205v-766h-205v495q-50 -39 -112 -55l-66 182q130 55 178 144zM1249 1434h-276l-785 -1434h277zM918 0v102q0 51 29.5 97t73 77.5t95 64t95 57.5t73 56.5t29.5 63.5q0 64 -99 64q-96 0 -96 -84h-200q0 128 84 204t212 76q127 0 212 -73t85 -187q0 -57 -25 -105
t-62 -77t-80.5 -55t-80.5 -42.5t-62 -35.5t-25 -37h340v-166h-598z" />
    <glyph glyph-name="threequarters" unicode="&#xbe;" horiz-adv-x="1574" 
d="M326 666q-129 0 -202 65.5t-73 188.5h197q0 -34 20.5 -54t55.5 -20q40 0 61 24t21 66q0 49 -28.5 68.5t-84.5 19.5h-6v111h6q61 0 83.5 15t22.5 52q0 62 -63 62q-36 0 -52 -16t-16 -50h-196q0 109 71 175.5t183 66.5q66 0 122.5 -19.5t94 -63t37.5 -104.5
q0 -107 -93 -153q115 -41 115 -185q0 -122 -73 -185.5t-203 -63.5zM1348 1434h-277l-784 -1434h276zM1513 322v-179h-79v-143h-185v143h-338v179l338 444h185v-444h79zM1108 322h141v174z" />
    <glyph glyph-name="questiondown" unicode="&#xbf;" horiz-adv-x="1079" 
d="M748 1434v-248h-267v248h267zM745 1063q0 -114 -23.5 -200t-61.5 -136t-83.5 -85.5t-91 -59t-83.5 -46t-61.5 -57t-23.5 -82.5q0 -72 63 -112.5t165 -40.5t164.5 40.5t62.5 112.5h266q0 -131 -68 -226t-178 -141t-247 -46q-102 0 -190.5 27t-156.5 78t-107.5 130.5
t-39.5 177.5q0 88 23 151.5t60.5 99.5t82.5 63.5t90.5 54.5t83 60.5t62 93.5t26.5 143h266z" />
    <glyph glyph-name="Agrave" unicode="&#xc0;" horiz-adv-x="1306" 
d="M635 1759l115 -203h-183l-149 203h217zM1034 0l-110 311h-541l-111 -311h-272l520 1434h266l521 -1434h-273zM471 561h365l-183 512z" />
    <glyph glyph-name="Aacute" unicode="&#xc1;" horiz-adv-x="1306" 
d="M684 1761h217l-149 -202h-183zM1034 0l-110 311h-541l-111 -311h-272l520 1434h266l521 -1434h-273zM471 561h365l-183 512z" />
    <glyph glyph-name="Acircumflex" unicode="&#xc2;" horiz-adv-x="1306" 
d="M362 1556l222 189h143l219 -189h-190l-101 72l-102 -72h-191zM1034 0l-110 311h-541l-111 -311h-272l520 1434h266l521 -1434h-273zM471 561h365l-183 512z" />
    <glyph glyph-name="Atilde" unicode="&#xc3;" horiz-adv-x="1306" 
d="M342 1552q0 58 18 101t47.5 64.5t59.5 31.5t61 10q45 0 81 -15t54.5 -33t44.5 -33t56 -15q35 0 61.5 26.5t26.5 71.5h115q0 -58 -18.5 -101t-48 -65.5t-59.5 -32.5t-61 -10q-45 0 -81.5 15t-56.5 33.5t-46 33.5t-53 15q-35 0 -60.5 -26t-25.5 -71h-115zM1034 0l-110 311
h-541l-111 -311h-272l520 1434h266l521 -1434h-273zM471 561h365l-183 512z" />
    <glyph glyph-name="Adieresis" unicode="&#xc4;" horiz-adv-x="1306" 
d="M494 1550q-50 0 -83.5 34t-33.5 83t33.5 83t83.5 34q49 0 82.5 -33.5t33.5 -83.5t-33.5 -83.5t-82.5 -33.5zM813 1550q-49 0 -83 34t-34 83t34 83t83 34t83 -34t34 -83t-34 -83t-83 -34zM1034 0l-110 311h-541l-111 -311h-272l520 1434h266l521 -1434h-273zM471 561h365
l-183 512z" />
    <glyph glyph-name="Aring" unicode="&#xc5;" horiz-adv-x="1306" 
d="M653 1808q59 0 99.5 -40.5t40.5 -98.5t-40.5 -98.5t-99.5 -40.5t-99 40t-40 99t40 99t99 40zM653 1718q-23 0 -36 -13.5t-13 -35.5q0 -23 13.5 -36t35.5 -13q23 0 36 13.5t13 35.5q0 23 -13.5 36t-35.5 13zM1034 0l-110 311h-541l-111 -311h-272l520 1434h266l521 -1434
h-273zM471 561h365l-183 512z" />
    <glyph glyph-name="AE" unicode="&#xc6;" horiz-adv-x="1884" 
d="M1833 1174h-619v-293h541v-260h-541v-361h619v-260h-885v322h-424l-209 -322h-315l913 1434h920v-260zM688 582h260v417z" />
    <glyph glyph-name="Ccedilla" unicode="&#xc7;" horiz-adv-x="1548" 
d="M788 244q137 0 248.5 69t171.5 185h285q-65 -212 -237.5 -352t-399.5 -160l-33 -64h2q61 0 100.5 -42.5t39.5 -104.5q0 -61 -43.5 -104.5t-104.5 -43.5t-104 43t-43 105h92q0 -25 15 -40.5t40 -15.5t40 15.5t15 40.5t-15 40t-40 15q-12 0 -24 -6l-76 72l43 88
q-147 6 -278 65.5t-225.5 156.5t-150 230t-55.5 281q0 152 57.5 288t156 233.5t235 154.5t288.5 57q252 0 447 -146.5t262 -379.5h-283q-56 122 -169.5 194t-256.5 72q-199 0 -335 -136.5t-136 -336.5t136 -336.5t335 -136.5z" />
    <glyph glyph-name="Egrave" unicode="&#xc8;" horiz-adv-x="956" 
d="M514 1761l115 -202h-183l-149 202h217zM905 1174h-577v-293h499v-260h-499v-361h577v-260h-844v1434h844v-260z" />
    <glyph glyph-name="Eacute" unicode="&#xc9;" horiz-adv-x="956" 
d="M496 1761h217l-150 -202h-182zM905 1174h-577v-293h499v-260h-499v-361h577v-260h-844v1434h844v-260z" />
    <glyph glyph-name="Ecircumflex" unicode="&#xca;" horiz-adv-x="956" 
d="M193 1559l221 188h143l219 -188h-190l-101 71l-102 -71h-190zM905 1174h-577v-293h499v-260h-499v-361h577v-260h-844v1434h844v-260z" />
    <glyph glyph-name="Edieresis" unicode="&#xcb;" horiz-adv-x="956" 
d="M324 1550q-50 0 -83.5 34t-33.5 83t33.5 83t83.5 34q49 0 82.5 -33.5t33.5 -83.5t-33.5 -83.5t-82.5 -33.5zM643 1550q-49 0 -83 34t-34 83t34 83t83 34t83 -34t34 -83t-34 -83t-83 -34zM905 1174h-577v-293h499v-260h-499v-361h577v-260h-844v1434h844v-260z" />
    <glyph glyph-name="Igrave" unicode="&#xcc;" horiz-adv-x="389" 
d="M184 1761l115 -202h-182l-150 202h217zM328 0h-267v1434h267v-1434z" />
    <glyph glyph-name="Iacute" unicode="&#xcd;" horiz-adv-x="389" 
d="M217 1761h217l-149 -202h-183zM328 0h-267v1434h267v-1434z" />
    <glyph glyph-name="Icircumflex" unicode="&#xce;" horiz-adv-x="389" 
d="M-92 1559l221 188h143l220 -188h-191l-100 71l-103 -71h-190zM328 0h-267v1434h267v-1434z" />
    <glyph glyph-name="Idieresis" unicode="&#xcf;" horiz-adv-x="389" 
d="M35 1550q-49 0 -83 34t-34 83t34 83t83 34t83 -34t34 -83t-34 -83t-83 -34zM354 1550q-49 0 -82.5 33.5t-33.5 83.5t33.5 83.5t82.5 33.5q50 0 83.5 -34t33.5 -83t-33.5 -83t-83.5 -34zM328 0h-267v1434h267v-1434z" />
    <glyph glyph-name="Eth" unicode="&#xd0;" horiz-adv-x="1310" 
d="M522 1434q152 0 288.5 -54.5t235.5 -149t156.5 -228t57.5 -285.5t-57.5 -285.5t-156.5 -228t-235.5 -149t-288.5 -54.5h-420v584h-102v250h102v600h420zM522 250q203 0 337 133t134 334t-134 334t-337 133h-153v-350h270v-250h-270v-334h153z" />
    <glyph glyph-name="Ntilde" unicode="&#xd1;" horiz-adv-x="1269" 
d="M344 1552q0 58 18 101t47.5 64.5t59.5 31.5t61 10q45 0 81 -15t54.5 -33t44.5 -33t56 -15q35 0 61.5 26.5t26.5 71.5h115q0 -58 -18.5 -101t-48 -65.5t-59.5 -32.5t-61 -10q-45 0 -81.5 15t-56.5 33.5t-46 33.5t-53 15q-35 0 -60.5 -26t-25.5 -71h-115zM942 1434h266
v-1434h-266l-614 946v-946h-267v1434h267l614 -949v949z" />
    <glyph glyph-name="Ograve" unicode="&#xd2;" horiz-adv-x="1576" 
d="M778 1761l115 -202h-182l-150 202h217zM788 -16q-152 0 -288.5 57t-235 154.5t-156 233.5t-57.5 288t57.5 288t156 233.5t235 154.5t288.5 57t288.5 -57t235 -154.5t156.5 -233.5t58 -288t-58 -288t-156.5 -233.5t-235 -154.5t-288.5 -57zM788 244q199 0 335.5 136.5
t136.5 336.5t-136.5 336.5t-335.5 136.5t-335 -136.5t-136 -336.5t136 -336.5t335 -136.5z" />
    <glyph glyph-name="Oacute" unicode="&#xd3;" horiz-adv-x="1576" 
d="M815 1761h217l-149 -202h-183zM788 -16q-152 0 -288.5 57t-235 154.5t-156 233.5t-57.5 288t57.5 288t156 233.5t235 154.5t288.5 57t288.5 -57t235 -154.5t156.5 -233.5t58 -288t-58 -288t-156.5 -233.5t-235 -154.5t-288.5 -57zM788 244q199 0 335.5 136.5t136.5 336.5
t-136.5 336.5t-335.5 136.5t-335 -136.5t-136 -336.5t136 -336.5t335 -136.5z" />
    <glyph glyph-name="Ocircumflex" unicode="&#xd4;" horiz-adv-x="1576" 
d="M498 1550l221 189h143l219 -189h-190l-100 72l-103 -72h-190zM788 -16q-152 0 -288.5 57t-235 154.5t-156 233.5t-57.5 288t57.5 288t156 233.5t235 154.5t288.5 57t288.5 -57t235 -154.5t156.5 -233.5t58 -288t-58 -288t-156.5 -233.5t-235 -154.5t-288.5 -57zM788 244
q199 0 335.5 136.5t136.5 336.5t-136.5 336.5t-335.5 136.5t-335 -136.5t-136 -336.5t136 -336.5t335 -136.5z" />
    <glyph glyph-name="Otilde" unicode="&#xd5;" horiz-adv-x="1576" 
d="M477 1554q0 58 18.5 101t48 64.5t59.5 31.5t61 10q45 0 80.5 -15t54 -33t44.5 -33t56 -15q35 0 61.5 26.5t26.5 71.5h115q0 -58 -18.5 -101t-48 -65.5t-59.5 -32.5t-61 -10q-45 0 -81.5 15t-56.5 33.5t-46 33.5t-53 15q-35 0 -60.5 -26t-25.5 -71h-115zM788 -16
q-152 0 -288.5 57t-235 154.5t-156 233.5t-57.5 288t57.5 288t156 233.5t235 154.5t288.5 57t288.5 -57t235 -154.5t156.5 -233.5t58 -288t-58 -288t-156.5 -233.5t-235 -154.5t-288.5 -57zM788 244q199 0 335.5 136.5t136.5 336.5t-136.5 336.5t-335.5 136.5t-335 -136.5
t-136 -336.5t136 -336.5t335 -136.5z" />
    <glyph glyph-name="Odieresis" unicode="&#xd6;" horiz-adv-x="1576" 
d="M629 1550q-49 0 -83 34t-34 83t34 83t83 34t82.5 -33.5t33.5 -83.5t-33.5 -83.5t-82.5 -33.5zM948 1550q-50 0 -83.5 34t-33.5 83t33.5 83t83.5 34t83.5 -34t33.5 -83t-33.5 -83t-83.5 -34zM788 -16q-152 0 -288.5 57t-235 154.5t-156 233.5t-57.5 288t57.5 288
t156 233.5t235 154.5t288.5 57t288.5 -57t235 -154.5t156.5 -233.5t58 -288t-58 -288t-156.5 -233.5t-235 -154.5t-288.5 -57zM788 244q199 0 335.5 136.5t136.5 336.5t-136.5 336.5t-335.5 136.5t-335 -136.5t-136 -336.5t136 -336.5t335 -136.5z" />
    <glyph glyph-name="multiply" unicode="&#xd7;" horiz-adv-x="897" 
d="M252 98l-201 168l228 273l-228 270l199 166l196 -236l199 238l201 -170l-228 -270l228 -271l-199 -168l-198 236z" />
    <glyph glyph-name="Oslash" unicode="&#xd8;" horiz-adv-x="1576" 
d="M1382 1157q144 -197 144 -440q0 -152 -58 -288t-156.5 -233.5t-235 -154.5t-288.5 -57q-227 0 -419 127l-123 -127l-193 184l127 131q-129 187 -129 418q0 152 58 288t157 233.5t235 154.5t287 57q221 0 398 -113l108 111l193 -182zM317 717q0 -125 50 -228l641 662
q-94 49 -220 49q-208 0 -339.5 -135.5t-131.5 -347.5zM788 233q208 0 340 136t132 348q0 138 -62 252l-651 -674q108 -62 241 -62z" />
    <glyph glyph-name="Ugrave" unicode="&#xd9;" horiz-adv-x="1138" 
d="M567 1761l115 -202h-182l-150 202h217zM61 1434h267v-949q0 -114 63.5 -177.5t177.5 -63.5t178 63.5t64 177.5v949h266v-949q0 -100 -27.5 -183.5t-75.5 -141.5t-113 -98.5t-138.5 -59t-153.5 -18.5t-153.5 18.5t-138.5 59t-113 98.5t-75.5 141.5t-27.5 183.5v949z" />
    <glyph glyph-name="Uacute" unicode="&#xda;" horiz-adv-x="1138" 
d="M582 1761h217l-150 -202h-182zM61 1434h267v-949q0 -114 63.5 -177.5t177.5 -63.5t178 63.5t64 177.5v949h266v-949q0 -100 -27.5 -183.5t-75.5 -141.5t-113 -98.5t-138.5 -59t-153.5 -18.5t-153.5 18.5t-138.5 59t-113 98.5t-75.5 141.5t-27.5 183.5v949z" />
    <glyph glyph-name="Ucircumflex" unicode="&#xdb;" horiz-adv-x="1138" 
d="M279 1556l221 189h143l219 -189h-190l-101 72l-102 -72h-190zM61 1434h267v-949q0 -114 63.5 -177.5t177.5 -63.5t178 63.5t64 177.5v949h266v-949q0 -100 -27.5 -183.5t-75.5 -141.5t-113 -98.5t-138.5 -59t-153.5 -18.5t-153.5 18.5t-138.5 59t-113 98.5t-75.5 141.5
t-27.5 183.5v949z" />
    <glyph glyph-name="Udieresis" unicode="&#xdc;" horiz-adv-x="1138" 
d="M410 1550q-50 0 -83.5 34t-33.5 83t33.5 83t83.5 34q49 0 82.5 -33.5t33.5 -83.5t-33.5 -83.5t-82.5 -33.5zM729 1550q-49 0 -83 34t-34 83t34 83t83 34t83 -34t34 -83t-34 -83t-83 -34zM61 1434h267v-949q0 -114 63.5 -177.5t177.5 -63.5t178 63.5t64 177.5v949h266
v-949q0 -100 -27.5 -183.5t-75.5 -141.5t-113 -98.5t-138.5 -59t-153.5 -18.5t-153.5 18.5t-138.5 59t-113 98.5t-75.5 141.5t-27.5 183.5v949z" />
    <glyph glyph-name="Yacute" unicode="&#xdd;" horiz-adv-x="1189" 
d="M604 1761h217l-149 -202h-183zM897 1434h293l-463 -777v-657h-266v657l-461 777h293l301 -508z" />
    <glyph glyph-name="Thorn" unicode="&#xde;" horiz-adv-x="1036" 
d="M524 1231q192 0 326.5 -128t134.5 -317q0 -126 -62 -232.5t-168 -168t-231 -61.5h-196v-324h-267v1434h267v-203h196zM524 584q82 0 138.5 58t56.5 144q0 80 -55 132.5t-140 52.5h-196v-387h196z" />
    <glyph glyph-name="germandbls" unicode="&#xdf;" horiz-adv-x="1038" 
d="M61 0v1094q0 159 105.5 249.5t292.5 90.5q418 0 418 -369q0 -123 -51 -198.5t-109 -84.5q270 -64 270 -360q0 -186 -109 -304t-303 -118h-135v260h92q80 0 134.5 55t54.5 134t-54.5 133.5t-134.5 54.5h-92v262h23q80 4 113.5 37t33.5 98q0 61 -39.5 99t-101.5 38
t-101.5 -38t-39.5 -99v-1034h-267z" />
    <glyph glyph-name="agrave" unicode="&#xe0;" 
d="M614 1352l115 -203h-182l-150 203h217zM580 -16q-143 0 -265 70.5t-193 192t-71 265.5t71 265.5t193 192t265 70.5t264 -70.5t191.5 -192t70.5 -265.5v-512h-266v109q-24 -52 -98.5 -88.5t-161.5 -36.5zM582 244q113 0 186.5 76.5t73.5 191.5t-73.5 191.5t-186.5 76.5
q-114 0 -189.5 -77t-75.5 -191t75.5 -191t189.5 -77z" />
    <glyph glyph-name="aacute" unicode="&#xe1;" 
d="M580 1352h217l-150 -203h-182zM580 -16q-143 0 -265 70.5t-193 192t-71 265.5t71 265.5t193 192t265 70.5t264 -70.5t191.5 -192t70.5 -265.5v-512h-266v109q-24 -52 -98.5 -88.5t-161.5 -36.5zM582 244q113 0 186.5 76.5t73.5 191.5t-73.5 191.5t-186.5 76.5
q-114 0 -189.5 -77t-75.5 -191t75.5 -191t189.5 -77z" />
    <glyph glyph-name="acircumflex" unicode="&#xe2;" 
d="M291 1147l221 188h143l219 -188h-190l-100 72l-103 -72h-190zM580 -16q-143 0 -265 70.5t-193 192t-71 265.5t71 265.5t193 192t265 70.5t264 -70.5t191.5 -192t70.5 -265.5v-512h-266v109q-24 -52 -98.5 -88.5t-161.5 -36.5zM582 244q113 0 186.5 76.5t73.5 191.5
t-73.5 191.5t-186.5 76.5q-114 0 -189.5 -77t-75.5 -191t75.5 -191t189.5 -77z" />
    <glyph glyph-name="atilde" unicode="&#xe3;" 
d="M266 1149q0 58 18.5 101t48 64.5t59.5 31.5t61 10q45 0 80.5 -15t54 -33t44.5 -33t56 -15q35 0 61.5 26.5t26.5 71.5h115q0 -58 -18 -101t-47.5 -65.5t-59.5 -32.5t-61 -10q-45 0 -81.5 15t-56.5 33t-46.5 33t-53.5 15q-35 0 -60.5 -25.5t-25.5 -70.5h-115zM580 -16
q-143 0 -265 70.5t-193 192t-71 265.5t71 265.5t193 192t265 70.5t264 -70.5t191.5 -192t70.5 -265.5v-512h-266v109q-24 -52 -98.5 -88.5t-161.5 -36.5zM582 244q113 0 186.5 76.5t73.5 191.5t-73.5 191.5t-186.5 76.5q-114 0 -189.5 -77t-75.5 -191t75.5 -191t189.5 -77z
" />
    <glyph glyph-name="adieresis" unicode="&#xe4;" 
d="M420 1151q-50 0 -83.5 33.5t-33.5 83.5q0 49 33.5 82.5t83.5 33.5t83.5 -33.5t33.5 -82.5q0 -50 -33.5 -83.5t-83.5 -33.5zM739 1151q-49 0 -82.5 33.5t-33.5 83.5t33.5 83t82.5 33q50 0 83.5 -33.5t33.5 -82.5q0 -50 -34 -83.5t-83 -33.5zM580 -16q-143 0 -265 70.5
t-193 192t-71 265.5t71 265.5t193 192t265 70.5t264 -70.5t191.5 -192t70.5 -265.5v-512h-266v109q-24 -52 -98.5 -88.5t-161.5 -36.5zM582 244q113 0 186.5 76.5t73.5 191.5t-73.5 191.5t-186.5 76.5q-114 0 -189.5 -77t-75.5 -191t75.5 -191t189.5 -77z" />
    <glyph glyph-name="aring" unicode="&#xe5;" 
d="M580 1425q58 0 98.5 -40.5t40.5 -98.5t-40.5 -98.5t-98.5 -40.5q-59 0 -99.5 40.5t-40.5 98.5t40.5 98.5t99.5 40.5zM580 1335q-23 0 -36.5 -13.5t-13.5 -35.5q0 -23 14 -36t36 -13q23 0 36 13.5t13 35.5q0 23 -13.5 36t-35.5 13zM580 -16q-143 0 -265 70.5t-193 192
t-71 265.5t71 265.5t193 192t265 70.5t264 -70.5t191.5 -192t70.5 -265.5v-512h-266v109q-24 -52 -98.5 -88.5t-161.5 -36.5zM582 244q113 0 186.5 76.5t73.5 191.5t-73.5 191.5t-186.5 76.5q-114 0 -189.5 -77t-75.5 -191t75.5 -191t189.5 -77z" />
    <glyph glyph-name="ae" unicode="&#xe6;" horiz-adv-x="2146" 
d="M580 -16q-143 0 -265 70.5t-193 192t-71 265.5t71 265.5t193 192t265 70.5q167 0 301 -94.5t192 -247.5q56 153 191 247.5t303 94.5q144 0 265.5 -70.5t192 -192t70.5 -265.5q0 -70 -14 -125h-756q58 -143 244 -143q60 0 94 13t72 44h317q-63 -142 -194 -229.5
t-291 -87.5q-147 0 -269.5 73t-191.5 195v-252h-266v109q-24 -52 -98.5 -88.5t-161.5 -36.5zM582 244q113 0 186.5 76.5t73.5 191.5t-73.5 191.5t-186.5 76.5q-114 0 -189.5 -77t-75.5 -191t75.5 -191t189.5 -77zM1325 621h483q-30 73 -93 116t-146 43q-84 0 -148.5 -43
t-95.5 -116z" />
    <glyph glyph-name="ccedilla" unicode="&#xe7;" horiz-adv-x="1138" 
d="M582 244q138 0 215 112h288q-46 -153 -170 -254t-286 -116l-27 -54h2q61 0 100 -42.5t39 -104.5q0 -61 -42.5 -104t-104.5 -43t-104.5 43t-42.5 104h92q0 -25 15 -40t40 -15t40 15t15 40t-15 40t-40 15q-13 0 -25 -6l-75 72l39 80q-134 11 -245 84t-175 189.5t-64 252.5
q0 144 70.5 265.5t192.5 192t266 70.5q181 0 321 -107.5t186 -275.5h-282q-35 57 -93 90t-130 33q-114 0 -189.5 -77t-75.5 -191t75.5 -191t189.5 -77z" />
    <glyph glyph-name="egrave" unicode="&#xe8;" horiz-adv-x="1157" 
d="M573 1350l115 -203h-182l-150 203h217zM51 510q0 141 67.5 262.5t188 194.5t264.5 73q77 0 152 -21t143 -63.5t120.5 -101.5t84.5 -141.5t35 -177.5q3 -64 -8 -127h-760q19 -76 81.5 -120t151.5 -44q105 0 177 59l317 -2q-63 -142 -194 -229.5t-291 -87.5
q-145 0 -267 70.5t-192 191.5t-70 264zM338 621h483q-31 72 -97.5 115.5t-143.5 43.5q-87 0 -148.5 -42.5t-93.5 -116.5z" />
    <glyph glyph-name="eacute" unicode="&#xe9;" horiz-adv-x="1157" 
d="M600 1348h217l-149 -203h-183zM51 510q0 141 67.5 262.5t188 194.5t264.5 73q77 0 152 -21t143 -63.5t120.5 -101.5t84.5 -141.5t35 -177.5q3 -64 -8 -127h-760q19 -76 81.5 -120t151.5 -44q105 0 177 59l317 -2q-63 -142 -194 -229.5t-291 -87.5q-145 0 -267 70.5
t-192 191.5t-70 264zM338 621h483q-31 72 -97.5 115.5t-143.5 43.5q-87 0 -148.5 -42.5t-93.5 -116.5z" />
    <glyph glyph-name="ecircumflex" unicode="&#xea;" horiz-adv-x="1157" 
d="M276 1147l222 188h143l219 -188h-190l-101 72l-102 -72h-191zM51 510q0 141 67.5 262.5t188 194.5t264.5 73q77 0 152 -21t143 -63.5t120.5 -101.5t84.5 -141.5t35 -177.5q3 -64 -8 -127h-760q19 -76 81.5 -120t151.5 -44q105 0 177 59l317 -2q-63 -142 -194 -229.5
t-291 -87.5q-145 0 -267 70.5t-192 191.5t-70 264zM338 621h483q-31 72 -97.5 115.5t-143.5 43.5q-87 0 -148.5 -42.5t-93.5 -116.5z" />
    <glyph glyph-name="edieresis" unicode="&#xeb;" horiz-adv-x="1157" 
d="M420 1149q-50 0 -83.5 33.5t-33.5 83.5q0 49 33.5 82.5t83.5 33.5t83.5 -33.5t33.5 -82.5q0 -50 -33.5 -83.5t-83.5 -33.5zM739 1149q-49 0 -82.5 33.5t-33.5 83.5t33.5 83t82.5 33q50 0 83.5 -33.5t33.5 -82.5q0 -50 -34 -83.5t-83 -33.5zM51 510q0 141 67.5 262.5
t188 194.5t264.5 73q77 0 152 -21t143 -63.5t120.5 -101.5t84.5 -141.5t35 -177.5q3 -64 -8 -127h-760q19 -76 81.5 -120t151.5 -44q105 0 177 59l317 -2q-63 -142 -194 -229.5t-291 -87.5q-145 0 -267 70.5t-192 191.5t-70 264zM338 621h483q-31 72 -97.5 115.5
t-143.5 43.5q-87 0 -148.5 -42.5t-93.5 -116.5z" />
    <glyph glyph-name="igrave" unicode="&#xec;" horiz-adv-x="389" 
d="M199 1352l114 -203h-182l-149 203h217zM328 0h-267v1024h267v-1024z" />
    <glyph glyph-name="iacute" unicode="&#xed;" horiz-adv-x="389" 
d="M213 1350h217l-149 -203h-183zM328 0h-267v1024h267v-1024z" />
    <glyph glyph-name="icircumflex" unicode="&#xee;" horiz-adv-x="389" 
d="M-92 1147l221 188h143l220 -188h-191l-100 72l-103 -72h-190zM328 0h-267v1024h267v-1024z" />
    <glyph glyph-name="idieresis" unicode="&#xef;" horiz-adv-x="389" 
d="M39 1149q-49 0 -83 33.5t-34 83.5q0 49 33.5 82.5t83.5 33.5t83.5 -33.5t33.5 -82.5q0 -50 -34 -83.5t-83 -33.5zM358 1149q-49 0 -82.5 33.5t-33.5 83.5t33 83t83 33t83.5 -33.5t33.5 -82.5q0 -50 -33.5 -83.5t-83.5 -33.5zM328 0h-267v1024h267v-1024z" />
    <glyph glyph-name="eth" unicode="&#xf0;" horiz-adv-x="1159" 
d="M580 -16q-144 0 -266 70.5t-192.5 192t-70.5 265.5t70.5 265.5t192.5 192t266 70.5h4q-57 57 -107 90l-37 -67l-114 61l34 66q-26 14 -73 24v220q101 0 186 -37l37 69l119 -53l-39 -74q95 -54 185 -138t165.5 -189.5t121.5 -237t46 -262.5q0 -147 -71 -268.5t-192 -190.5
t-265 -69zM578 244q110 0 187 79.5t77 188.5q-1 114 -77.5 191t-186.5 77q-111 0 -186 -76.5t-75 -191.5q0 -112 76.5 -190t184.5 -78z" />
    <glyph glyph-name="ntilde" unicode="&#xf1;" horiz-adv-x="1024" 
d="M201 1147q0 58 18 101t47.5 64.5t59.5 31.5t61 10q37 0 67 -10t49 -24t36 -28.5t38 -24.5t46 -10q35 0 61.5 27t26.5 72h114q0 -58 -18 -101t-47.5 -65.5t-59.5 -32.5t-61 -10q-45 0 -81.5 15t-56.5 33t-46.5 33t-53.5 15q-35 0 -60.5 -25.5t-25.5 -70.5h-114zM963 0v539
q0 126 -33.5 223t-94 157t-142 90.5t-181.5 30.5t-181.5 -30.5t-142 -90.5t-94 -157t-33.5 -223v-539h267v539q0 124 43.5 182.5t140.5 58.5t140.5 -58.5t43.5 -182.5v-539h267z" />
    <glyph glyph-name="ograve" unicode="&#xf2;" horiz-adv-x="1159" 
d="M571 1352l115 -203h-182l-150 203h217zM580 1040q144 0 265.5 -70.5t192 -192t70.5 -265.5t-70.5 -265.5t-192 -192t-265.5 -70.5t-266 70.5t-192.5 192t-70.5 265.5t70.5 265.5t192.5 192t266 70.5zM582 780q-114 0 -189.5 -77t-75.5 -191t75.5 -191t189.5 -77
q113 0 186.5 76.5t73.5 191.5t-73.5 191.5t-186.5 76.5z" />
    <glyph glyph-name="oacute" unicode="&#xf3;" horiz-adv-x="1159" 
d="M578 1350h217l-150 -203h-182zM580 1040q144 0 265.5 -70.5t192 -192t70.5 -265.5t-70.5 -265.5t-192 -192t-265.5 -70.5t-266 70.5t-192.5 192t-70.5 265.5t70.5 265.5t192.5 192t266 70.5zM582 780q-114 0 -189.5 -77t-75.5 -191t75.5 -191t189.5 -77q113 0 186.5 76.5
t73.5 191.5t-73.5 191.5t-186.5 76.5z" />
    <glyph glyph-name="ocircumflex" unicode="&#xf4;" horiz-adv-x="1159" 
d="M289 1147l221 188h143l219 -188h-190l-100 72l-103 -72h-190zM580 1040q144 0 265.5 -70.5t192 -192t70.5 -265.5t-70.5 -265.5t-192 -192t-265.5 -70.5t-266 70.5t-192.5 192t-70.5 265.5t70.5 265.5t192.5 192t266 70.5zM582 780q-114 0 -189.5 -77t-75.5 -191
t75.5 -191t189.5 -77q113 0 186.5 76.5t73.5 191.5t-73.5 191.5t-186.5 76.5z" />
    <glyph glyph-name="otilde" unicode="&#xf5;" horiz-adv-x="1159" 
d="M268 1149q0 58 18.5 101t48 64.5t59.5 31.5t61 10q45 0 80.5 -15t54 -33t44.5 -33t56 -15q35 0 61.5 26.5t26.5 71.5h115q0 -58 -18 -101t-47.5 -65.5t-59.5 -32.5t-61 -10q-45 0 -81.5 15t-56.5 33t-46.5 33t-53.5 15q-35 0 -60.5 -25.5t-25.5 -70.5h-115zM580 1040
q144 0 265.5 -70.5t192 -192t70.5 -265.5t-70.5 -265.5t-192 -192t-265.5 -70.5t-266 70.5t-192.5 192t-70.5 265.5t70.5 265.5t192.5 192t266 70.5zM582 780q-114 0 -189.5 -77t-75.5 -191t75.5 -191t189.5 -77q113 0 186.5 76.5t73.5 191.5t-73.5 191.5t-186.5 76.5z" />
    <glyph glyph-name="odieresis" unicode="&#xf6;" horiz-adv-x="1159" 
d="M420 1149q-50 0 -83.5 33.5t-33.5 83.5q0 49 33.5 82.5t83.5 33.5t83.5 -33.5t33.5 -82.5q0 -50 -33.5 -83.5t-83.5 -33.5zM739 1149q-49 0 -82.5 33.5t-33.5 83.5t33.5 83t82.5 33q50 0 83.5 -33.5t33.5 -82.5q0 -50 -34 -83.5t-83 -33.5zM580 1040q144 0 265.5 -70.5
t192 -192t70.5 -265.5t-70.5 -265.5t-192 -192t-265.5 -70.5t-266 70.5t-192.5 192t-70.5 265.5t70.5 265.5t192.5 192t266 70.5zM582 780q-114 0 -189.5 -77t-75.5 -191t75.5 -191t189.5 -77q113 0 186.5 76.5t73.5 191.5t-73.5 191.5t-186.5 76.5z" />
    <glyph glyph-name="divide" unicode="&#xf7;" horiz-adv-x="837" 
d="M420 758q-50 0 -83.5 33.5t-33.5 82.5q0 50 33.5 83.5t83.5 33.5t83.5 -33.5t33.5 -83.5q0 -49 -33.5 -82.5t-83.5 -33.5zM786 668v-260h-735v260h735zM420 84q-50 0 -83.5 34t-33.5 83t33.5 82.5t83.5 33.5t83.5 -33.5t33.5 -82.5t-33.5 -83t-83.5 -34z" />
    <glyph glyph-name="oslash" unicode="&#xf8;" horiz-adv-x="1165" 
d="M1030 801q84 -133 84 -289q0 -144 -70.5 -265.5t-192 -192t-265.5 -70.5q-161 0 -289 86l-64 -64l-182 184l70 70q-64 119 -64 252q0 144 70.5 265.5t192.5 192t266 70.5q136 0 250 -63l63 63l184 -186zM324 512q0 -17 4 -45l307 309q-28 4 -47 4q-114 0 -189 -77
t-75 -191zM588 244q113 0 186.5 76.5t73.5 191.5q0 51 -14 92l-345 -342q47 -18 99 -18z" />
    <glyph glyph-name="ugrave" unicode="&#xf9;" horiz-adv-x="1024" 
d="M510 1352l115 -203h-183l-149 203h217zM963 1024h-267v-539q0 -124 -43.5 -182.5t-140.5 -58.5t-140.5 58.5t-43.5 182.5v539h-267v-539q0 -126 33.5 -223t94 -157t142 -90.5t181.5 -30.5t181.5 30.5t142 90.5t94 157t33.5 223v539z" />
    <glyph glyph-name="uacute" unicode="&#xfa;" horiz-adv-x="1024" 
d="M524 1352h217l-149 -203h-182zM963 1024h-267v-539q0 -124 -43.5 -182.5t-140.5 -58.5t-140.5 58.5t-43.5 182.5v539h-267v-539q0 -126 33.5 -223t94 -157t142 -90.5t181.5 -30.5t181.5 30.5t142 90.5t94 157t33.5 223v539z" />
    <glyph glyph-name="ucircumflex" unicode="&#xfb;" horiz-adv-x="1024" 
d="M221 1147l221 188h144l219 -188h-191l-100 72l-102 -72h-191zM963 1024h-267v-539q0 -124 -43.5 -182.5t-140.5 -58.5t-140.5 58.5t-43.5 182.5v539h-267v-539q0 -126 33.5 -223t94 -157t142 -90.5t181.5 -30.5t181.5 30.5t142 90.5t94 157t33.5 223v539z" />
    <glyph glyph-name="udieresis" unicode="&#xfc;" horiz-adv-x="1024" 
d="M352 1149q-49 0 -82.5 33.5t-33.5 83.5t33 83t83 33t83.5 -33.5t33.5 -82.5q0 -50 -33.5 -83.5t-83.5 -33.5zM672 1149q-50 0 -83.5 33.5t-33.5 83.5q0 49 33.5 82.5t83.5 33.5t83 -33t33 -83t-33.5 -83.5t-82.5 -33.5zM963 1024h-267v-539q0 -124 -43.5 -182.5
t-140.5 -58.5t-140.5 58.5t-43.5 182.5v539h-267v-539q0 -126 33.5 -223t94 -157t142 -90.5t181.5 -30.5t181.5 30.5t142 90.5t94 157t33.5 223v539z" />
    <glyph glyph-name="yacute" unicode="&#xfd;" horiz-adv-x="1024" 
d="M522 1352h217l-149 -203h-182zM512 -410q-158 0 -273 90.5t-171 243.5h297q31 -38 62 -56t85 -18q93 0 137.5 44t44.5 120v6q-88 -36 -182 -36q-100 0 -181.5 30.5t-142 90.5t-94 157t-33.5 223v539h267v-539q0 -124 43.5 -182.5t140.5 -58.5t140.5 58.5t43.5 182.5v539
h267v-973q0 -198 -127.5 -329.5t-323.5 -131.5z" />
    <glyph glyph-name="thorn" unicode="&#xfe;" horiz-adv-x="1159" 
d="M580 1040q144 0 265.5 -70.5t192 -192t70.5 -265.5t-70.5 -265.5t-192 -192t-265.5 -70.5q-130 0 -252 69v-463h-267v1844h267v-461q118 67 252 67zM582 244q113 0 186.5 76.5t73.5 191.5t-73.5 191.5t-186.5 76.5q-114 0 -189.5 -77t-75.5 -191t75.5 -191t189.5 -77z
" />
    <glyph glyph-name="ydieresis" unicode="&#xff;" horiz-adv-x="1024" 
d="M352 1151q-49 0 -82.5 33.5t-33.5 83.5t33 83t83 33t83.5 -33.5t33.5 -82.5q0 -50 -33.5 -83.5t-83.5 -33.5zM672 1151q-50 0 -83.5 33.5t-33.5 83.5q0 49 33.5 82.5t83.5 33.5t83 -33t33 -83t-33.5 -83.5t-82.5 -33.5zM512 -410q-158 0 -273 90.5t-171 243.5h297
q31 -38 62 -56t85 -18q93 0 137.5 44t44.5 120v6q-88 -36 -182 -36q-100 0 -181.5 30.5t-142 90.5t-94 157t-33.5 223v539h267v-539q0 -124 43.5 -182.5t140.5 -58.5t140.5 58.5t43.5 182.5v539h267v-973q0 -198 -127.5 -329.5t-323.5 -131.5z" />
    <glyph glyph-name="dotlessi" unicode="&#x131;" horiz-adv-x="389" 
d="M328 0h-267v1024h267v-1024z" />
    <glyph glyph-name="Ldot" unicode="&#x13f;" horiz-adv-x="915" 
d="M328 260h536v-260h-803v1434h267v-1174zM588 827v-268h266v268h-266z" />
    <glyph glyph-name="ldot" unicode="&#x140;" horiz-adv-x="696" 
d="M328 0h-267v1434h267v-1434zM399 827v-268h267v268h-267z" />
    <glyph glyph-name="Lslash" unicode="&#x141;" horiz-adv-x="958" 
d="M371 260h536v-260h-803v504l-104 -64v260l104 64v670h267v-549l315 192v-260l-315 -192v-365z" />
    <glyph glyph-name="lslash" unicode="&#x142;" horiz-adv-x="542" 
d="M512 1006v-261l-106 -61v-684h-267v532l-108 -61v260l108 62v641h267v-490z" />
    <glyph glyph-name="OE" unicode="&#x152;" horiz-adv-x="2123" 
d="M2073 1174h-619v-396h541v-260h-541v-258h619v-260h-885v96q-179 -112 -400 -112q-151 0 -287 57t-235 154.5t-157 233.5t-58 288t58 288t157 233.5t235 154.5t287 57q220 0 400 -113v97h885v-260zM788 233q137 0 243 46t157 137v602q-51 89 -157.5 135.5t-242.5 46.5
q-208 0 -339.5 -135.5t-131.5 -347.5t131.5 -348t339.5 -136z" />
    <glyph glyph-name="oe" unicode="&#x153;" horiz-adv-x="2150" 
d="M580 -16q-144 0 -266 70.5t-192.5 192t-70.5 265.5t70.5 265.5t192.5 192t266 70.5q168 0 303.5 -95.5t191.5 -248.5q56 153 192 248.5t304 95.5q144 0 265.5 -70.5t192 -192t70.5 -265.5q0 -70 -14 -125h-756q58 -143 244 -143q60 0 94 13t72 44h317
q-63 -142 -194 -229.5t-291 -87.5q-168 0 -304 95.5t-192 248.5q-56 -153 -191.5 -248.5t-303.5 -95.5zM582 244q113 0 186.5 76.5t73.5 191.5t-73.5 191.5t-186.5 76.5q-114 0 -189.5 -77t-75.5 -191t75.5 -191t189.5 -77zM1329 621h483q-30 73 -93 116t-146 43
q-84 0 -148.5 -43t-95.5 -116z" />
    <glyph glyph-name="Scaron" unicode="&#x160;" horiz-adv-x="1130" 
d="M274 1745h191l102 -72l101 72h190l-219 -189h-143zM1079 436q0 89 -24.5 157t-66 109.5t-95.5 71t-113.5 46t-118.5 30t-113 28t-95.5 34t-66 53.5t-24.5 82q0 69 51 106t146 37q99 0 148 -44.5t49 -146.5h266q0 211 -124.5 331t-338.5 120q-217 0 -340 -101t-123 -294
q0 -92 31 -162t81 -109.5t114.5 -70t132 -46.5t132 -36.5t114.5 -41t81 -59.5t31 -94q0 -101 -64.5 -146.5t-173.5 -45.5q-117 0 -187.5 60.5t-70.5 166.5h-266q0 -138 69.5 -250.5t187 -174.5t257.5 -62q143 0 258.5 53t185.5 157t70 242z" />
    <glyph glyph-name="scaron" unicode="&#x161;" horiz-adv-x="962" 
d="M190 1333h191l102 -71l101 71h190l-219 -188h-143zM481 -16q-87 0 -165.5 22.5t-140 65t-98 110t-36.5 150.5h254q0 -49 54 -80t138 -31q80 0 124 28t44 70q0 27 -20.5 45.5t-55.5 28.5t-80.5 18t-95.5 16.5t-100 20.5t-95.5 34t-80.5 53t-55.5 81t-20.5 115
q0 134 122 221.5t302 87.5q185 0 301.5 -88.5t116.5 -246.5h-254q0 43 -50 71.5t-118 28.5q-66 0 -110 -27t-44 -67q0 -26 26 -43.5t68 -26t96 -19t111 -20.5t111 -32t96.5 -52t69 -83t27.5 -122q1 -164 -120.5 -246.5t-320.5 -82.5z" />
    <glyph glyph-name="Wcircumflex" unicode="&#x174;" horiz-adv-x="1994" 
d="M707 1556l221 189h143l219 -189h-190l-101 72l-102 -72h-190zM1712 1434h283l-410 -1434h-266l-322 985l-325 -985h-266l-406 1434h283l256 -973l342 973h233l338 -973z" />
    <glyph glyph-name="wcircumflex" unicode="&#x175;" horiz-adv-x="1536" 
d="M477 1147l221 188h144l219 -188h-191l-100 72l-102 -72h-191zM1266 1024h270l-319 -1024h-267l-182 614l-184 -614h-267l-317 1024h270l181 -674l184 674h266l182 -674z" />
    <glyph glyph-name="Ycircumflex" unicode="&#x176;" horiz-adv-x="1189" 
d="M303 1556l221 189h144l219 -189h-191l-100 72l-102 -72h-191zM897 1434h293l-463 -777v-657h-266v657l-461 777h293l301 -508z" />
    <glyph glyph-name="ycircumflex" unicode="&#x177;" horiz-adv-x="1024" 
d="M221 1147l221 188h144l219 -188h-191l-100 72l-102 -72h-191zM512 -410q-158 0 -273 90.5t-171 243.5h297q31 -38 62 -56t85 -18q93 0 137.5 44t44.5 120v6q-88 -36 -182 -36q-100 0 -181.5 30.5t-142 90.5t-94 157t-33.5 223v539h267v-539q0 -124 43.5 -182.5
t140.5 -58.5t140.5 58.5t43.5 182.5v539h267v-973q0 -198 -127.5 -329.5t-323.5 -131.5z" />
    <glyph glyph-name="Ydieresis" unicode="&#x178;" horiz-adv-x="1189" 
d="M436 1554q-50 0 -83.5 34t-33.5 83t33.5 83t83.5 34t83.5 -34t33.5 -83t-33.5 -83t-83.5 -34zM756 1554q-50 0 -83.5 34t-33.5 83t33.5 83t83.5 34q49 0 82.5 -33.5t33.5 -83.5t-33.5 -83.5t-82.5 -33.5zM897 1434h293l-463 -777v-657h-266v657l-461 777h293l301 -508z
" />
    <glyph glyph-name="Zcaron" unicode="&#x17d;" horiz-adv-x="1191" 
d="M305 1745h191l102 -72l100 72h191l-219 -189h-144zM1130 1434v-260l-731 -914h729v-260h-1067v260l730 914h-687v260h1026z" />
    <glyph glyph-name="zcaron" unicode="&#x17e;" horiz-adv-x="903" 
d="M160 1337h190l103 -71l100 71h190l-219 -188h-143zM379 260h483v-260h-821v260l463 504h-443v260h783v-260z" />
    <glyph glyph-name="florin" unicode="&#x192;" horiz-adv-x="1077" 
d="M299 -410q-89 0 -150 23.5t-116 69.5l76 182q53 -37 127 -37q43 0 72.5 23t33.5 71l88 842h-225l20 260h232l20 197q23 227 301 227q89 0 150 -23.5t116 -68.5l-75 -182q-56 38 -119 38q-45 0 -77 -24.5t-38 -71.5l-12 -92h287l-21 -260h-291l-98 -944
q-23 -230 -301 -230z" />
    <glyph glyph-name="circumflex" unicode="&#x2c6;" horiz-adv-x="583" 
d="M0 1495l221 188h144l219 -188h-191l-100 72l-103 -72h-190z" />
    <glyph glyph-name="caron" unicode="&#x2c7;" horiz-adv-x="583" 
d="M0 1745h190l103 -72l100 72h191l-219 -189h-144z" />
    <glyph glyph-name="breve" unicode="&#x2d8;" horiz-adv-x="417" 
d="M209 1536q-74 0 -126 52.5t-52 127.5h110q0 -32 19.5 -53t48.5 -21t48 21t19 53h111q0 -75 -52 -127.5t-126 -52.5z" />
    <glyph glyph-name="dotaccent" unicode="&#x2d9;" horiz-adv-x="335" 
d="M168 1536q-50 0 -83.5 34t-33.5 83t33.5 82.5t83.5 33.5t83.5 -33.5t33.5 -82.5t-33.5 -83t-83.5 -34z" />
    <glyph glyph-name="ring" unicode="&#x2da;" horiz-adv-x="331" 
d="M166 1784q58 0 98.5 -40t40.5 -99t-40.5 -99.5t-98.5 -40.5t-98.5 40.5t-40.5 99.5t40.5 99t98.5 40zM166 1694q-23 0 -36 -13.5t-13 -35.5q0 -23 13.5 -36.5t35.5 -13.5q23 0 36 14t13 36q0 23 -13.5 36t-35.5 13z" />
    <glyph glyph-name="ogonek" unicode="&#x2db;" horiz-adv-x="397" 
d="M199 -362q-62 0 -105 43t-43 104q0 108 144 215h116q-30 -20 -52.5 -38t-51 -46.5t-44.5 -62t-16 -68.5q0 -22 15 -36.5t37 -14.5t36.5 14.5t14.5 36.5h96q0 -61 -43 -104t-104 -43z" />
    <glyph glyph-name="tilde" unicode="&#x2dc;" horiz-adv-x="727" 
d="M51 1552q0 58 18.5 101t48 64.5t59.5 31.5t61 10q45 0 80.5 -15t54 -33t44.5 -33t56 -15q35 0 61.5 26.5t26.5 71.5h115q0 -58 -18.5 -101t-48 -65.5t-59.5 -32.5t-61 -10q-45 0 -81.5 15t-56.5 33.5t-46 33.5t-53 15q-35 0 -60.5 -26t-25.5 -71h-115z" />
    <glyph glyph-name="hungarumlaut" unicode="&#x2dd;" horiz-adv-x="595" 
d="M135 1761h170l-129 -202h-125zM375 1761h170l-129 -202h-125z" />
    <glyph glyph-name="Wgrave" unicode="&#x1e80;" horiz-adv-x="1994" 
d="M977 1761l115 -202h-183l-149 202h217zM1712 1434h283l-410 -1434h-266l-322 985l-325 -985h-266l-406 1434h283l256 -973l342 973h233l338 -973z" />
    <glyph glyph-name="wgrave" unicode="&#x1e81;" horiz-adv-x="1536" 
d="M758 1352l114 -203h-182l-149 203h217zM1266 1024h270l-319 -1024h-267l-182 614l-184 -614h-267l-317 1024h270l181 -674l184 674h266l182 -674z" />
    <glyph glyph-name="Wacute" unicode="&#x1e82;" horiz-adv-x="1994" 
d="M1032 1761h217l-149 -202h-182zM1712 1434h283l-410 -1434h-266l-322 985l-325 -985h-266l-406 1434h283l256 -973l342 973h233l338 -973z" />
    <glyph glyph-name="wacute" unicode="&#x1e83;" horiz-adv-x="1536" 
d="M788 1352h218l-150 -203h-182zM1266 1024h270l-319 -1024h-267l-182 614l-184 -614h-267l-317 1024h270l181 -674l184 674h266l182 -674z" />
    <glyph glyph-name="Wdieresis" unicode="&#x1e84;" horiz-adv-x="1994" 
d="M838 1556q-50 0 -83.5 34t-33.5 83t33.5 83t83.5 34q49 0 82.5 -33.5t33.5 -83.5t-33.5 -83.5t-82.5 -33.5zM1157 1556q-49 0 -83 34t-34 83t34 83t83 34t83 -34t34 -83t-34 -83t-83 -34zM1712 1434h283l-410 -1434h-266l-322 985l-325 -985h-266l-406 1434h283l256 -973
l342 973h233l338 -973z" />
    <glyph glyph-name="wdieresis" unicode="&#x1e85;" horiz-adv-x="1536" 
d="M608 1149q-49 0 -82.5 33.5t-33.5 83.5t33 83t83 33t83.5 -33.5t33.5 -82.5q0 -50 -33.5 -83.5t-83.5 -33.5zM928 1149q-50 0 -83.5 33.5t-33.5 83.5q0 49 33.5 82.5t83.5 33.5t83 -33t33 -83t-33.5 -83.5t-82.5 -33.5zM1266 1024h270l-319 -1024h-267l-182 614
l-184 -614h-267l-317 1024h270l181 -674l184 674h266l182 -674z" />
    <glyph glyph-name="Ygrave" unicode="&#x1ef2;" horiz-adv-x="1189" 
d="M594 1761l115 -202h-183l-149 202h217zM897 1434h293l-463 -777v-657h-266v657l-461 777h293l301 -508z" />
    <glyph glyph-name="ygrave" unicode="&#x1ef3;" horiz-adv-x="1024" 
d="M504 1352l114 -203h-182l-149 203h217zM512 -410q-158 0 -273 90.5t-171 243.5h297q31 -38 62 -56t85 -18q93 0 137.5 44t44.5 120v6q-88 -36 -182 -36q-100 0 -181.5 30.5t-142 90.5t-94 157t-33.5 223v539h267v-539q0 -124 43.5 -182.5t140.5 -58.5t140.5 58.5
t43.5 182.5v539h267v-973q0 -198 -127.5 -329.5t-323.5 -131.5z" />
    <glyph glyph-name="endash" unicode="&#x2013;" horiz-adv-x="1062" 
d="M1012 662v-261h-961v261h961z" />
    <glyph glyph-name="emdash" unicode="&#x2014;" horiz-adv-x="1619" 
d="M1569 662v-261h-1518v261h1518z" />
    <glyph glyph-name="quoteleft" unicode="&#x2018;" horiz-adv-x="442" 
d="M391 1440q-74 0 -131.5 -10t-106.5 -34.5t-75.5 -70.5t-26.5 -113v-206h266v165v26v27t1 23t3 23.5t5.5 19t9 19t13 14t18.5 13t24 7.5v97z" />
    <glyph glyph-name="quoteright" unicode="&#x2019;" horiz-adv-x="442" 
d="M51 999q74 0 131.5 10t106.5 34.5t75.5 70.5t26.5 113v207h-266v-166v-26v-27t-1 -23t-3 -23.5t-5.5 -19t-9 -19t-13 -14t-18.5 -13t-24 -7.5v-97z" />
    <glyph glyph-name="quotesinglbase" unicode="&#x201a;" horiz-adv-x="460" 
d="M47 -166q74 0 131.5 10t106.5 34t75.5 70t26.5 113v207h-266v-166v-26v-27t-1 -23t-3 -23.5t-5.5 -19t-9 -19t-13 -14t-18.5 -13t-24 -7.5v-96z" />
    <glyph glyph-name="quotedblleft" unicode="&#x201c;" horiz-adv-x="870" 
d="M391 1440q-74 0 -131.5 -10t-106.5 -34.5t-75.5 -70.5t-26.5 -113v-206h266v165v26v27t1 23t3 23.5t5.5 19t9 19t13 14t18.5 13t24 7.5v97zM819 1440q-74 0 -131.5 -10t-106.5 -34.5t-75.5 -70.5t-26.5 -113v-206h266v165v26v27t1 23t3 23.5t5.5 19t9 19t13 14t18.5 13
t24 7.5v97z" />
    <glyph glyph-name="quotedblright" unicode="&#x201d;" horiz-adv-x="870" 
d="M51 999q74 0 131.5 10t106.5 34.5t75.5 70.5t26.5 113v207h-266v-166v-26v-27t-1 -23t-3 -23.5t-5.5 -19t-9 -19t-13 -14t-18.5 -13t-24 -7.5v-97zM479 999q74 0 131.5 10t106.5 34.5t75.5 70.5t26.5 113v207h-266v-166v-26v-27t-1 -23t-3 -23.5t-5.5 -19t-9 -19t-13 -14
t-18.5 -13t-24 -7.5v-97z" />
    <glyph glyph-name="quotedblbase" unicode="&#x201e;" horiz-adv-x="870" 
d="M51 -166q74 0 131.5 10t106.5 34t75.5 70t26.5 113v207h-266v-166v-26v-27t-1 -23t-3 -23.5t-5.5 -19t-9 -19t-13 -14t-18.5 -13t-24 -7.5v-96zM479 -166q74 0 131.5 10t106.5 34t75.5 70t26.5 113v207h-266v-166v-26v-27t-1 -23t-3 -23.5t-5.5 -19t-9 -19t-13 -14
t-18.5 -13t-24 -7.5v-96z" />
    <glyph glyph-name="dagger" unicode="&#x2020;" horiz-adv-x="778" 
d="M727 1024v-260h-205v-948h-266v948h-205v260h205v410h266v-410h205z" />
    <glyph glyph-name="daggerdbl" unicode="&#x2021;" horiz-adv-x="778" 
d="M727 764h-205v-131h205v-260h-205v-557h-266v557h-205v260h205v131h-205v260h205v410h266v-410h205v-260z" />
    <glyph glyph-name="bullet" unicode="&#x2022;" horiz-adv-x="391" 
d="M197 514q-60 0 -103 42.5t-43 102.5t43 103t103 43q59 0 101 -43t42 -103t-42 -102.5t-101 -42.5z" />
    <glyph glyph-name="ellipsis" unicode="&#x2026;" horiz-adv-x="1249" 
d="M123 0v268h266v-268h-266zM492 0v268h266v-268h-266zM860 0v268h266v-268h-266z" />
    <glyph glyph-name="perthousand" unicode="&#x2030;" horiz-adv-x="2623" 
d="M422 668q-100 0 -183.5 44.5t-135.5 134t-52 208.5t52 208.5t135.5 134t183.5 44.5q153 0 261 -105t108 -282t-108 -282t-261 -105zM385 0l784 1434h277l-784 -1434h-277zM422 872q76 0 120 48.5t44 134.5t-44 134t-120 48t-121 -48.5t-45 -133.5t45 -134t121 -49z
M1403 -10q-100 0 -183.5 44.5t-135.5 134t-52 208.5t52 208.5t135.5 134t183.5 44.5q153 0 261 -105t108 -282t-108 -282t-261 -105zM2204 -10q-100 0 -183.5 44.5t-135.5 134t-52 208.5t52 208.5t135.5 134t183.5 44.5q99 0 181.5 -44.5t134.5 -134t52 -208.5t-52 -208.5
t-134.5 -134t-181.5 -44.5zM1403 195q76 0 120 48t44 134t-44 134t-120 48t-121 -48.5t-45 -133.5t45 -133.5t121 -48.5zM2204 195q76 0 119.5 48t43.5 134t-43.5 134t-119.5 48t-121 -48.5t-45 -133.5t45 -133.5t121 -48.5z" />
    <glyph glyph-name="guilsinglleft" unicode="&#x2039;" horiz-adv-x="438" 
d="M51 504v106l336 340v-243l-151 -150l151 -149v-244z" />
    <glyph glyph-name="guilsinglright" unicode="&#x203a;" horiz-adv-x="438" 
d="M387 504l-336 -340v244l152 149l-152 150v243l336 -340v-106z" />
    <glyph glyph-name="fraction" unicode="&#x2044;" horiz-adv-x="241" 
d="M651 1434h-276l-785 -1434h277z" />
    <glyph glyph-name="Euro" unicode="&#x20ac;" horiz-adv-x="1665" 
d="M905 233q147 0 259 71.5t167 195.5h281q-70 -229 -263.5 -372.5t-443.5 -143.5q-243 0 -434 137.5t-264 359.5h-166l61 187h68q-2 16 -2 49q0 35 2 51h-129l61 186h105q74 221 265 358.5t433 137.5q253 0 448.5 -147t260.5 -381h-277q-53 128 -167 203t-265 75
q-141 0 -250.5 -66t-167.5 -180h637l-61 -186h-627q-2 -16 -2 -51q0 -33 2 -49h598l-61 -187h-486q58 -116 167 -182t251 -66z" />
    <glyph glyph-name="trademark" unicode="&#x2122;" horiz-adv-x="1724" 
d="M727 1434v-158h-256v-682h-164v682h-256v158h676zM1503 1434h160v-840h-164l4 430l-186 -430h-162l-162 418v-418h-164v840h164l244 -613z" />
    <glyph glyph-name="product" unicode="&#x220f;" horiz-adv-x="1394" 
d="M1343 1415v-260h-180v-1401h-266v1401h-399v-1401h-267v1401h-180v260h1292z" />
    <glyph glyph-name="minus" unicode="&#x2212;" horiz-adv-x="837" 
d="M786 668v-260h-735v260h735z" />
    <glyph glyph-name="integral" unicode="&#x222b;" horiz-adv-x="978" 
d="M358 -410q-138 0 -222.5 65t-84.5 181h131q0 -38 25 -63t63 -25q40 0 63 25.5t23 70.5v1387q0 109 79 164t202 55q54 0 104 -14.5t92.5 -43t68.5 -77.5t26 -111h-131q0 41 -24.5 64.5t-63.5 23.5q-86 0 -86 -88v-1384q0 -111 -74.5 -170.5t-190.5 -59.5z" />
    <glyph glyph-name="approxequal" unicode="&#x2248;" horiz-adv-x="960" 
d="M618 590q-43 0 -82.5 17t-64.5 38t-59.5 38t-69.5 17q-41 0 -68.5 -21.5t-56.5 -62.5l-166 136q47 93 124.5 154t166.5 61q43 0 84.5 -17.5t68.5 -38t60.5 -38t62.5 -17.5q41 0 68.5 21.5t56.5 62.5l166 -135q-47 -93 -124.5 -154t-166.5 -61zM618 147q-43 0 -82.5 17.5
t-64.5 38t-59.5 38t-69.5 17.5q-41 0 -68.5 -21.5t-56.5 -62.5l-166 135q47 93 124.5 154t166.5 61q43 0 84.5 -17t68.5 -38t60.5 -38t62.5 -17q41 0 68.5 21.5t56.5 62.5l166 -136q-47 -93 -124.5 -154t-166.5 -61z" />
    <glyph glyph-name="notequal" unicode="&#x2260;" horiz-adv-x="837" 
d="M786 682h-206l-52 -135h258v-260h-356l-65 -176l-252 61l43 115h-105v260h203l51 135h-254v260h352l70 184l252 -61l-47 -123h108v-260z" />
    <glyph glyph-name="lessequal" unicode="&#x2264;" horiz-adv-x="837" 
d="M51 565l735 -237v272l-387 96l387 97v272l-735 -238v-262zM51 260h735v-260h-735v260z" />
    <glyph glyph-name="greaterequal" unicode="&#x2265;" horiz-adv-x="837" 
d="M786 565v262l-735 238v-272l387 -97l-387 -96v-272zM786 260v-260h-735v260h735z" />
    <glyph glyph-name="lozenge" unicode="&#x25ca;" horiz-adv-x="997" 
d="M541 -63h-82l-408 788l408 725h84l403 -725zM346 721l154 -297l151 297l-153 272z" />
    <glyph glyph-name="A.alt" horiz-adv-x="1138" 
d="M569 1450q101 0 190.5 -31t161.5 -90.5t114 -157.5t42 -223v-948h-266v588h-483v-588h-267v948q0 125 42 223t114 157.5t161.5 90.5t190.5 31zM328 838h483v110q0 114 -64 178t-178 64t-177.5 -64t-63.5 -178v-110z" />
    <glyph glyph-name="M.alt" horiz-adv-x="1849" 
d="M1352 1450q203 0 319.5 -126t116.5 -376v-948h-266v948q0 105 -64.5 173.5t-167.5 68.5t-167 -68.5t-64 -173.5v-948h-268v948q0 105 -64.5 173.5t-167.5 68.5t-167 -68.5t-64 -173.5v-948h-267v948q0 248 125.5 375t331.5 127q156 0 247 -45.5t161 -149.5
q87 105 180 150t246 45z" />
    <glyph glyph-name="N.alt" horiz-adv-x="1138" 
d="M61 0v948q0 125 42 223t114 157.5t161.5 90.5t190.5 31t190.5 -31t161.5 -90.5t114 -157.5t42 -223v-948h-266v948q0 114 -64 178t-178 64t-177.5 -64t-63.5 -178v-948h-267z" />
    <glyph glyph-name="W.alt" horiz-adv-x="1849" 
d="M1352 -16q-153 0 -246.5 44.5t-179.5 149.5q-70 -103 -161 -148.5t-247 -45.5q-206 0 -331.5 126.5t-125.5 374.5v949h267v-949q0 -105 64 -173t167 -68t167.5 68t64.5 173v949h268v-949q0 -105 64 -173t167 -68t167.5 68t64.5 173v949h266v-949q0 -250 -116 -375.5
t-320 -125.5z" />
    <glyph glyph-name="a.salt" 
d="M580 1849q26 0 44.5 -19.5t18.5 -45.5t-18.5 -45t-44.5 -19t-45 19t-19 45t19 45.5t45 19.5zM580 1651q34 0 58 -24t24 -58t-24 -58t-58 -24t-58 24t-24 58t24 58t58 24zM580 1417q52 0 88.5 -37.5t36.5 -89.5q0 -53 -36.5 -90t-88.5 -37t-88.5 37t-36.5 90
q0 52 36.5 89.5t88.5 37.5zM580 1362q-29 0 -49.5 -21.5t-20.5 -50.5q0 -30 20 -49.5t50 -19.5t49.5 19.5t19.5 49.5t-20 51t-49 21zM580 -16q-143 0 -265 70.5t-193 192t-71 265.5t71 265.5t193 192t265 70.5t264 -70.5t191.5 -192t70.5 -265.5v-512h-266v109
q-24 -52 -98.5 -88.5t-161.5 -36.5zM582 244q113 0 186.5 76.5t73.5 191.5t-73.5 191.5t-186.5 76.5q-114 0 -189.5 -77t-75.5 -191t75.5 -191t189.5 -77z" />
    <glyph glyph-name="a.salt2" 
d="M578 2062q26 0 44.5 -18.5t18.5 -44.5t-18.5 -45t-44.5 -19t-45 19t-19 45t19 44.5t45 18.5zM578 1866q34 0 57.5 -24t23.5 -58t-23.5 -58t-57.5 -24t-58 24t-24 58t24 58t58 24zM578 1632q52 0 88 -38t36 -91q0 -51 -36 -88t-88 -37t-88.5 37t-36.5 88q0 53 36.5 91
t88.5 38zM578 1577q-30 0 -50 -21.5t-20 -52.5q0 -29 19.5 -48t50.5 -19q29 0 49 19t20 48q0 31 -20 52.5t-49 21.5zM305 1430q50 0 107 -52q32 -26 56.5 -61.5t36.5 -68t19.5 -61.5t9.5 -46l1 -17q0 -8 -7 -8q-2 0 -10 8q-38 45 -90.5 83.5t-90.5 58.5t-65.5 46.5
t-27.5 57.5q0 24 18.5 42t42.5 18zM852 1430q24 0 42.5 -18t18.5 -42q0 -31 -27.5 -57.5t-65.5 -46.5t-90.5 -58.5t-90.5 -83.5q-8 -8 -10 -8q-6 0 -6 8q0 7 1.5 18.5t8.5 44t19 62.5t36.5 66.5t56.5 62.5q57 52 107 52zM580 -16q-143 0 -265 70.5t-193 192t-71 265.5
t71 265.5t193 192t265 70.5t264 -70.5t191.5 -192t70.5 -265.5v-512h-266v109q-24 -52 -98.5 -88.5t-161.5 -36.5zM582 244q113 0 186.5 76.5t73.5 191.5t-73.5 191.5t-186.5 76.5q-114 0 -189.5 -77t-75.5 -191t75.5 -191t189.5 -77z" />
    <glyph glyph-name="a.swsh" 
d="M575 1944q17 0 28 -11t11 -28q0 -14 -11 -24.5t-28 -10.5q-13 0 -23.5 10.5t-10.5 24.5q0 17 10 28t24 11zM575 1694q-21 0 -35 13t-14 34q0 20 14.5 33.5t34.5 13.5q22 0 36 -13.5t14 -33.5q0 -21 -14 -34t-36 -13zM575 1473q-30 0 -50.5 20.5t-20.5 50.5
q0 31 20.5 52.5t50.5 21.5q31 0 53.5 -21.5t22.5 -52.5q0 -29 -22.5 -50t-53.5 -21zM575 1493q23 0 37.5 14.5t14.5 36.5q0 23 -14.5 38t-37.5 15q-21 0 -35 -15t-14 -38q0 -22 14.5 -36.5t34.5 -14.5zM543 1262l-8 8q-26 33 -64 61t-65.5 42t-47.5 33.5t-20 41.5
q0 19 12 31t31 12q34 0 78 -39q37 -30 59.5 -75.5t26.5 -76.5l4 -30q0 -8 -6 -8zM823 1448q0 -28 -30.5 -50t-82.5 -54t-85 -74q-4 -8 -9 -8q-6 0 -6 8q1 13 4 33.5t26 69.5t60 79q44 39 78 39q19 0 32 -12t13 -31zM549 1188q0 -6 -10 -6q-38 0 -91 -16.5t-92 -37.5
q-19 -10 -47 -29t-46 -26.5t-44 -7.5q-29 0 -47 17t-18 46q0 45 35 75t81.5 41t100.5 11q53 0 115.5 -26t62.5 -41zM1006 1128q0 -29 -18 -46t-46 -17q-26 0 -44.5 7.5t-46.5 26t-48 29.5q-37 21 -90 37.5t-90 16.5q-13 0 -13 6q0 15 64 41t117 26t99 -11t81 -41t35 -75z
M580 -16q-143 0 -265 70.5t-193 192t-71 265.5t71 265.5t193 192t265 70.5t264 -70.5t191.5 -192t70.5 -265.5v-512h-266v109q-24 -52 -98.5 -88.5t-161.5 -36.5zM582 244q113 0 186.5 76.5t73.5 191.5t-73.5 191.5t-186.5 76.5q-114 0 -189.5 -77t-75.5 -191t75.5 -191
t189.5 -77z" />
    <glyph glyph-name="c.salt" horiz-adv-x="1138" 
d="M569 1849q26 0 45 -19.5t19 -45.5t-19 -45t-45 -19t-44.5 19t-18.5 45t18.5 45.5t44.5 19.5zM569 1651q34 0 58 -24t24 -58t-24 -58t-58 -24t-58 24t-24 58t24 58t58 24zM569 1417q52 0 88.5 -37.5t36.5 -89.5q0 -53 -36.5 -90t-88.5 -37t-88.5 37t-36.5 90
q0 52 36.5 89.5t88.5 37.5zM569 1362q-29 0 -49 -21t-20 -51t19.5 -49.5t49.5 -19.5t50 19.5t20 49.5q0 29 -20.5 50.5t-49.5 21.5zM580 -16q-144 0 -266 70.5t-192.5 192t-70.5 265.5t70.5 265.5t192.5 192t266 70.5q181 0 321 -107.5t186 -275.5h-282q-35 57 -93 90
t-130 33q-114 0 -189.5 -77t-75.5 -191t75.5 -191t189.5 -77q138 0 215 112h288q-50 -165 -188.5 -268.5t-316.5 -103.5z" />
    <glyph glyph-name="c.salt2" horiz-adv-x="1138" 
d="M569 2062q26 0 45 -18.5t19 -44.5t-19 -45t-45 -19t-44.5 19t-18.5 45t18.5 44.5t44.5 18.5zM569 1866q34 0 58 -24t24 -58t-24 -58t-58 -24t-58 24t-24 58t24 58t58 24zM569 1632q52 0 88.5 -38t36.5 -91q0 -51 -36.5 -88t-88.5 -37t-88.5 37t-36.5 88q0 53 36.5 91
t88.5 38zM569 1577q-30 0 -49.5 -21.5t-19.5 -52.5q0 -29 19 -48t50 -19q30 0 50 19t20 48q0 31 -20.5 52.5t-49.5 21.5zM297 1430q49 0 106 -52q32 -26 56.5 -61.5t36.5 -68t19.5 -61.5t8.5 -46l2 -17q0 -8 -6 -8q-2 0 -10 8q-38 45 -90.5 83.5t-90.5 58.5t-65.5 46.5
t-27.5 57.5q0 24 18.5 42t42.5 18zM844 1430q24 0 42.5 -18t18.5 -42q0 -31 -27.5 -57.5t-65.5 -46.5t-90.5 -58.5t-90.5 -83.5q-8 -8 -10 -8q-7 0 -7 8q0 7 1.5 18.5t9 44t19.5 62.5t36.5 66.5t56.5 62.5q57 52 107 52zM580 -16q-144 0 -266 70.5t-192.5 192t-70.5 265.5
t70.5 265.5t192.5 192t266 70.5q181 0 321 -107.5t186 -275.5h-282q-35 57 -93 90t-130 33q-114 0 -189.5 -77t-75.5 -191t75.5 -191t189.5 -77q138 0 215 112h288q-50 -165 -188.5 -268.5t-316.5 -103.5z" />
    <glyph glyph-name="c.swsh" horiz-adv-x="1138" 
d="M565 1944q17 0 28 -11t11 -28q0 -14 -11 -24.5t-28 -10.5q-13 0 -24 11t-11 24q0 17 10.5 28t24.5 11zM565 1694q-21 0 -35 13t-14 34q0 20 14.5 33.5t34.5 13.5q22 0 35.5 -13.5t13.5 -33.5q0 -22 -13.5 -34.5t-35.5 -12.5zM565 1473q-30 0 -50.5 20.5t-20.5 50.5
q0 31 20.5 52.5t50.5 21.5q31 0 53.5 -21.5t22.5 -52.5q0 -29 -22.5 -50t-53.5 -21zM565 1493q23 0 37 14.5t14 36.5q0 23 -14 38t-37 15q-21 0 -35 -15t-14 -38q0 -22 14.5 -36.5t34.5 -14.5zM532 1262l-8 8q-26 33 -63.5 61t-65 42t-47.5 33.5t-20 41.5q0 19 12 31t31 12
q34 0 78 -39q37 -30 59.5 -75.5t26.5 -76.5l4 -30q0 -8 -7 -8zM813 1448q0 -22 -20 -41.5t-48 -33.5t-66 -42t-65 -61q-4 -8 -8 -8q-6 0 -6 8q1 13 4 33.5t26 69.5t60 79q44 39 78 39q19 0 32 -12t13 -31zM539 1188q0 -6 -11 -6q-38 0 -90.5 -16.5t-91.5 -37.5
q-19 -10 -47 -29t-46 -26.5t-44 -7.5q-30 0 -48 17t-18 46q0 45 35 75t81.5 41t100.5 11q53 0 116 -26t63 -41zM995 1128q0 -29 -17.5 -46t-45.5 -17q-26 0 -44.5 7.5t-46.5 26t-48 29.5q-37 20 -90.5 37t-90.5 17q-12 0 -12 6q0 15 63.5 41t116.5 26t99 -11t81 -41t35 -75z
M580 -16q-144 0 -266 70.5t-192.5 192t-70.5 265.5t70.5 265.5t192.5 192t266 70.5q181 0 321 -107.5t186 -275.5h-282q-35 57 -93 90t-130 33q-114 0 -189.5 -77t-75.5 -191t75.5 -191t189.5 -77q138 0 215 112h288q-50 -165 -188.5 -268.5t-316.5 -103.5z" />
    <glyph glyph-name="e.salt" horiz-adv-x="1157" 
d="M580 1849q26 0 44.5 -19.5t18.5 -45.5t-18.5 -45t-44.5 -19t-45 19t-19 45t19 45.5t45 19.5zM580 1651q34 0 58 -24t24 -58t-24 -58t-58 -24t-58 24t-24 58t24 58t58 24zM580 1417q52 0 88.5 -37.5t36.5 -89.5q0 -53 -36.5 -90t-88.5 -37t-88.5 37t-36.5 90
q0 52 36.5 89.5t88.5 37.5zM580 1362q-29 0 -49.5 -21.5t-20.5 -50.5q0 -30 20 -49.5t50 -19.5t49.5 19.5t19.5 49.5t-20 51t-49 21zM51 510q0 141 67.5 262.5t188 194.5t264.5 73q77 0 152 -21t143 -63.5t120.5 -101.5t84.5 -141.5t35 -177.5q3 -64 -8 -127h-760
q19 -76 81.5 -120t151.5 -44q105 0 177 59l317 -2q-63 -142 -194 -229.5t-291 -87.5q-145 0 -267 70.5t-192 191.5t-70 264zM338 621h483q-31 72 -97.5 115.5t-143.5 43.5q-87 0 -148.5 -42.5t-93.5 -116.5z" />
    <glyph glyph-name="e.salt2" horiz-adv-x="1157" 
d="M580 2062q26 0 44.5 -18.5t18.5 -44.5t-18.5 -45t-44.5 -19t-45 19t-19 45t19 44.5t45 18.5zM580 1866q34 0 58 -24t24 -58t-24 -58t-58 -24t-58 24t-24 58t24 58t58 24zM580 1632q52 0 88.5 -38t36.5 -91q0 -51 -36.5 -88t-88.5 -37t-88.5 37t-36.5 88q0 53 36.5 91
t88.5 38zM580 1577q-30 0 -50 -21.5t-20 -52.5q0 -29 19.5 -48t50.5 -19q29 0 49 19t20 48q0 31 -20 52.5t-49 21.5zM307 1430q50 0 107 -52q32 -26 56.5 -61.5t36.5 -68t19.5 -61.5t9.5 -46l1 -17q0 -8 -7 -8q-2 0 -10 8q-38 45 -90.5 83.5t-90.5 58.5t-65.5 46.5
t-27.5 57.5q0 24 18.5 42t42.5 18zM854 1430q24 0 42.5 -18t18.5 -42q0 -31 -27.5 -57.5t-65.5 -46.5t-90.5 -58.5t-90.5 -83.5q-8 -8 -10 -8q-6 0 -6 8q0 7 1.5 18.5t9 44t19.5 62.5t36.5 66.5t56.5 62.5q57 52 106 52zM51 510q0 141 67.5 262.5t188 194.5t264.5 73
q77 0 152 -21t143 -63.5t120.5 -101.5t84.5 -141.5t35 -177.5q3 -64 -8 -127h-760q19 -76 81.5 -120t151.5 -44q105 0 177 59l317 -2q-63 -142 -194 -229.5t-291 -87.5q-145 0 -267 70.5t-192 191.5t-70 264zM338 621h483q-31 72 -97.5 115.5t-143.5 43.5
q-87 0 -148.5 -42.5t-93.5 -116.5z" />
    <glyph glyph-name="e.swsh" horiz-adv-x="1157" 
d="M575 1944q17 0 28 -11t11 -28q0 -14 -11 -24.5t-28 -10.5q-13 0 -23.5 10.5t-10.5 24.5q0 17 10 28t24 11zM575 1694q-21 0 -35 13t-14 34q0 20 14.5 33.5t34.5 13.5q22 0 36 -13.5t14 -33.5q0 -21 -14 -34t-36 -13zM575 1473q-30 0 -50.5 20.5t-20.5 50.5
q0 31 20.5 52.5t50.5 21.5q31 0 53.5 -21.5t22.5 -52.5q0 -29 -22.5 -50t-53.5 -21zM575 1493q23 0 37.5 14.5t14.5 36.5q0 23 -14.5 38t-37.5 15q-21 0 -35 -15t-14 -38q0 -22 14.5 -36.5t34.5 -14.5zM543 1262l-8 8q-26 33 -64 61t-65.5 42t-47.5 33.5t-20 41.5
q0 19 12 31t31 12q34 0 78 -39q37 -30 59.5 -75.5t26.5 -76.5l4 -30q0 -8 -6 -8zM823 1448q0 -28 -30.5 -50t-82.5 -54t-85 -74q-4 -8 -9 -8q-6 0 -6 8q1 13 4 33.5t26 69.5t60 79q44 39 78 39q19 0 32 -12t13 -31zM549 1188q0 -6 -10 -6q-38 0 -91 -16.5t-92 -37.5
q-19 -10 -47 -29t-46 -26.5t-44 -7.5q-29 0 -47 17t-18 46q0 45 35 75t81.5 41t100.5 11q53 0 115.5 -26t62.5 -41zM1006 1128q0 -29 -18 -46t-46 -17q-26 0 -44.5 7.5t-46.5 26t-48 29.5q-37 21 -90 37.5t-90 16.5q-13 0 -13 6q0 15 64 41t117 26t99 -11t81 -41t35 -75z
M51 510q0 141 67.5 262.5t188 194.5t264.5 73q77 0 152 -21t143 -63.5t120.5 -101.5t84.5 -141.5t35 -177.5q3 -64 -8 -127h-760q19 -76 81.5 -120t151.5 -44q105 0 177 59l317 -2q-63 -142 -194 -229.5t-291 -87.5q-145 0 -267 70.5t-192 191.5t-70 264zM338 621h483
q-31 72 -97.5 115.5t-143.5 43.5q-87 0 -148.5 -42.5t-93.5 -116.5z" />
    <glyph glyph-name="g.salt" horiz-adv-x="1169" 
d="M580 1849q26 0 44.5 -19.5t18.5 -45.5t-18.5 -45t-44.5 -19t-45 19t-19 45t19 45.5t45 19.5zM580 1651q34 0 58 -24t24 -58t-24 -58t-58 -24t-58 24t-24 58t24 58t58 24zM580 1417q52 0 88.5 -37.5t36.5 -89.5q0 -53 -36.5 -90t-88.5 -37t-88.5 37t-36.5 90
q0 52 36.5 89.5t88.5 37.5zM580 1362q-29 0 -49.5 -21.5t-20.5 -50.5q0 -30 20 -49.5t50 -19.5t49.5 19.5t19.5 49.5t-20 51t-49 21zM580 -410q-159 0 -290.5 87.5t-193.5 230.5h324q75 -58 160 -58q107 0 181.5 53t74.5 146v2q-118 -67 -256 -67q-144 0 -266 70.5
t-192.5 192t-70.5 265.5t70.5 265.5t192.5 192t266 70.5t265.5 -70.5t192 -192t70.5 -265.5v-393q0 -144 -70.5 -266t-192 -192.5t-265.5 -70.5zM582 244q113 0 186.5 76.5t73.5 191.5t-73.5 191.5t-186.5 76.5q-114 0 -189.5 -77t-75.5 -191t75.5 -191t189.5 -77z" />
    <glyph glyph-name="g.salt2" horiz-adv-x="1169" 
d="M580 2060q26 0 44.5 -18.5t18.5 -44.5t-18.5 -45t-44.5 -19t-45 19t-19 45t19 44.5t45 18.5zM580 1864q34 0 58 -24t24 -58t-24 -58t-58 -24t-58 24t-24 58t24 58t58 24zM580 1630q52 0 88.5 -38t36.5 -91q0 -51 -36.5 -88t-88.5 -37t-88.5 37t-36.5 88q0 53 36.5 91
t88.5 38zM580 1575q-30 0 -50 -21.5t-20 -52.5q0 -29 19.5 -48t50.5 -19q29 0 49 19t20 48q0 31 -20 52.5t-49 21.5zM307 1427q51 0 107 -51q32 -26 56.5 -61.5t36.5 -68t19.5 -61.5t9.5 -46l1 -17q0 -8 -7 -8q-2 0 -10 8q-38 45 -90.5 83.5t-90.5 58.5t-65.5 46.5
t-27.5 57.5q0 24 18.5 41.5t42.5 17.5zM854 1427q24 0 42.5 -17.5t18.5 -41.5q0 -31 -27.5 -57.5t-65.5 -46.5t-90.5 -58.5t-90.5 -83.5q-8 -8 -10 -8q-6 0 -6 8q0 7 1.5 18.5t9 44t19.5 62.5t36.5 66.5t56.5 62.5q56 51 106 51zM580 -410q-159 0 -290.5 87.5t-193.5 230.5
h324q75 -58 160 -58q107 0 181.5 53t74.5 146v2q-118 -67 -256 -67q-144 0 -266 70.5t-192.5 192t-70.5 265.5t70.5 265.5t192.5 192t266 70.5t265.5 -70.5t192 -192t70.5 -265.5v-393q0 -144 -70.5 -266t-192 -192.5t-265.5 -70.5zM582 244q113 0 186.5 76.5t73.5 191.5
t-73.5 191.5t-186.5 76.5q-114 0 -189.5 -77t-75.5 -191t75.5 -191t189.5 -77z" />
    <glyph glyph-name="g.swsh" horiz-adv-x="1169" 
d="M575 1944q17 0 28 -11t11 -28q0 -14 -11 -24.5t-28 -10.5q-13 0 -23.5 10.5t-10.5 24.5q0 17 10 28t24 11zM575 1694q-21 0 -35 13t-14 34q0 20 14.5 33.5t34.5 13.5q22 0 36 -13.5t14 -33.5q0 -21 -14 -34t-36 -13zM575 1473q-30 0 -50.5 20.5t-20.5 50.5
q0 31 20.5 52.5t50.5 21.5q31 0 53.5 -21.5t22.5 -52.5q0 -29 -22.5 -50t-53.5 -21zM575 1493q23 0 37.5 14.5t14.5 36.5q0 23 -14.5 38t-37.5 15q-21 0 -35 -15t-14 -38q0 -22 14.5 -36.5t34.5 -14.5zM543 1262l-8 8q-26 33 -64 61t-65.5 42t-47.5 33.5t-20 41.5
q0 19 12 31t31 12q34 0 78 -39q37 -30 59.5 -75.5t26.5 -76.5l4 -30q0 -8 -6 -8zM823 1448q0 -28 -30.5 -50t-82.5 -54t-85 -74q-4 -8 -9 -8q-6 0 -6 8q1 13 4 33.5t26 69.5t60 79q44 39 78 39q19 0 32 -12t13 -31zM549 1188q0 -6 -10 -6q-38 0 -91 -16.5t-92 -37.5
q-19 -10 -47 -29t-46 -26.5t-44 -7.5q-29 0 -47 17t-18 46q0 45 35 75t81.5 41t100.5 11q53 0 115.5 -26t62.5 -41zM1006 1128q0 -29 -18 -46t-46 -17q-26 0 -44.5 7.5t-46.5 26t-48 29.5q-37 21 -90 37.5t-90 16.5q-13 0 -13 6q0 15 64 41t117 26t99 -11t81 -41t35 -75z
M580 -410q-159 0 -290.5 87.5t-193.5 230.5h324q75 -58 160 -58q107 0 181.5 53t74.5 146v2q-118 -67 -256 -67q-144 0 -266 70.5t-192.5 192t-70.5 265.5t70.5 265.5t192.5 192t266 70.5t265.5 -70.5t192 -192t70.5 -265.5v-393q0 -144 -70.5 -266t-192 -192.5
t-265.5 -70.5zM582 244q113 0 186.5 76.5t73.5 191.5t-73.5 191.5t-186.5 76.5q-114 0 -189.5 -77t-75.5 -191t75.5 -191t189.5 -77z" />
    <glyph glyph-name="n.salt" horiz-adv-x="1024" 
d="M512 1849q26 0 44.5 -19.5t18.5 -45.5t-18.5 -45t-44.5 -19t-44.5 19t-18.5 45t18.5 45.5t44.5 19.5zM512 1651q34 0 58 -24t24 -58t-24 -58t-58 -24t-58 24t-24 58t24 58t58 24zM512 1417q52 0 88.5 -37.5t36.5 -89.5q0 -53 -36.5 -90t-88.5 -37t-88.5 37t-36.5 90
q0 52 36.5 89.5t88.5 37.5zM512 1362q-29 0 -49.5 -21.5t-20.5 -50.5q0 -30 20 -49.5t50 -19.5t50 19.5t20 49.5q0 29 -20.5 50.5t-49.5 21.5zM963 0v539q0 126 -33.5 223t-94 157t-142 90.5t-181.5 30.5t-181.5 -30.5t-142 -90.5t-94 -157t-33.5 -223v-539h267v539
q0 124 43.5 182.5t140.5 58.5t140.5 -58.5t43.5 -182.5v-539h267z" />
    <glyph glyph-name="n.salt2" horiz-adv-x="1024" 
d="M512 2062q26 0 44.5 -18.5t18.5 -44.5t-18.5 -45t-44.5 -19t-44.5 19t-18.5 45t18.5 44.5t44.5 18.5zM512 1866q34 0 58 -24t24 -58t-24 -58t-58 -24t-58 24t-24 58t24 58t58 24zM512 1632q52 0 88.5 -38t36.5 -91q0 -51 -36.5 -88t-88.5 -37t-88.5 37t-36.5 88
q0 53 36.5 91t88.5 38zM512 1577q-30 0 -50 -21.5t-20 -52.5q0 -29 19.5 -48t50.5 -19q30 0 50 19t20 48q0 31 -20.5 52.5t-49.5 21.5zM240 1430q49 0 106 -52q32 -26 56.5 -61.5t36.5 -68t19.5 -61.5t9.5 -46l1 -17q0 -8 -6 -8q-2 0 -10 8q-38 45 -91 83.5t-91 58.5
t-65.5 46.5t-27.5 57.5q0 24 19 42t43 18zM786 1430q24 0 43 -18t19 -42q0 -31 -27.5 -57.5t-65.5 -46.5t-91 -58.5t-91 -83.5q-8 -8 -10 -8q-6 0 -6 8q0 7 1.5 18.5t9 44t19.5 62.5t36.5 66.5t56.5 62.5q57 52 106 52zM963 0v539q0 126 -33.5 223t-94 157t-142 90.5
t-181.5 30.5t-181.5 -30.5t-142 -90.5t-94 -157t-33.5 -223v-539h267v539q0 124 43.5 182.5t140.5 58.5t140.5 -58.5t43.5 -182.5v-539h267z" />
    <glyph glyph-name="n.swsh" horiz-adv-x="1024" 
d="M528 1944q17 0 28 -11t11 -28q0 -14 -11 -24.5t-28 -10.5q-13 0 -23.5 10.5t-10.5 24.5q0 17 10 28t24 11zM528 1694q-21 0 -35 13t-14 34q0 20 14.5 33.5t34.5 13.5q22 0 36 -13.5t14 -33.5q0 -21 -14 -34t-36 -13zM528 1473q-30 0 -50.5 20.5t-20.5 50.5
q0 31 20.5 52.5t50.5 21.5q31 0 53.5 -21.5t22.5 -52.5q0 -29 -22.5 -50t-53.5 -21zM528 1493q23 0 37.5 14.5t14.5 36.5q0 23 -14.5 38t-37.5 15q-21 0 -35 -15t-14 -38q0 -22 14.5 -36.5t34.5 -14.5zM496 1262q-1 0 -9 8q-26 33 -63.5 61t-65 42t-47.5 33.5t-20 41.5
q0 19 12 31t31 12q34 0 78 -39q37 -30 59.5 -75.5t26.5 -76.5l4 -30q0 -8 -6 -8zM776 1448q0 -28 -30.5 -50t-82.5 -54t-85 -74q-4 -8 -9 -8q-6 0 -6 8q1 13 4 33.5t26 69.5t60 79q44 39 78 39q19 0 32 -12t13 -31zM502 1188q0 -6 -10 -6q-38 0 -91 -16.5t-92 -37.5
q-19 -10 -47 -29t-46 -26.5t-44 -7.5q-30 0 -48 17t-18 46q0 45 35.5 75t82 41t100.5 11q53 0 115.5 -26t62.5 -41zM958 1128q0 -29 -17.5 -46t-45.5 -17q-26 0 -44.5 7.5t-46.5 26t-48 29.5q-37 20 -90.5 37t-90.5 17q-12 0 -12 6q0 15 63.5 41t116.5 26t99 -11t81 -41
t35 -75zM963 0v539q0 126 -33.5 223t-94 157t-142 90.5t-181.5 30.5t-181.5 -30.5t-142 -90.5t-94 -157t-33.5 -223v-539h267v539q0 124 43.5 182.5t140.5 58.5t140.5 -58.5t43.5 -182.5v-539h267z" />
    <glyph glyph-name="o.salt" horiz-adv-x="1159" 
d="M580 1849q26 0 44.5 -19.5t18.5 -45.5t-18.5 -45t-44.5 -19t-45 19t-19 45t19 45.5t45 19.5zM580 1651q34 0 58 -24t24 -58t-24 -58t-58 -24t-58 24t-24 58t24 58t58 24zM580 1417q52 0 88.5 -37.5t36.5 -89.5q0 -53 -36.5 -90t-88.5 -37t-88.5 37t-36.5 90
q0 52 36.5 89.5t88.5 37.5zM580 1362q-29 0 -49.5 -21.5t-20.5 -50.5q0 -30 20 -49.5t50 -19.5t49.5 19.5t19.5 49.5t-20 51t-49 21zM580 1040q144 0 265.5 -70.5t192 -192t70.5 -265.5t-70.5 -265.5t-192 -192t-265.5 -70.5t-266 70.5t-192.5 192t-70.5 265.5t70.5 265.5
t192.5 192t266 70.5zM582 780q-114 0 -189.5 -77t-75.5 -191t75.5 -191t189.5 -77q113 0 186.5 76.5t73.5 191.5t-73.5 191.5t-186.5 76.5z" />
    <glyph glyph-name="o.salt2" horiz-adv-x="1159" 
d="M580 2062q26 0 44.5 -18.5t18.5 -44.5t-18.5 -45t-44.5 -19t-45 19t-19 45t19 44.5t45 18.5zM580 1866q34 0 58 -24t24 -58t-24 -58t-58 -24t-58 24t-24 58t24 58t58 24zM580 1632q52 0 88.5 -38t36.5 -91q0 -51 -36.5 -88t-88.5 -37t-88.5 37t-36.5 88q0 53 36.5 91
t88.5 38zM580 1577q-30 0 -50 -21.5t-20 -52.5q0 -29 19.5 -48t50.5 -19q29 0 49 19t20 48q0 31 -20 52.5t-49 21.5zM307 1430q50 0 107 -52q32 -26 56.5 -61.5t36.5 -68t19.5 -61.5t9.5 -46l1 -17q0 -8 -7 -8q-2 0 -10 8q-38 45 -90.5 83.5t-90.5 58.5t-65.5 46.5
t-27.5 57.5q0 24 18.5 42t42.5 18zM854 1430q24 0 42.5 -18t18.5 -42q0 -31 -27.5 -57.5t-65.5 -46.5t-90.5 -58.5t-90.5 -83.5q-8 -8 -10 -8q-6 0 -6 8q0 7 1.5 18.5t9 44t19.5 62.5t36.5 66.5t56.5 62.5q57 52 106 52zM580 1040q144 0 265.5 -70.5t192 -192t70.5 -265.5
t-70.5 -265.5t-192 -192t-265.5 -70.5t-266 70.5t-192.5 192t-70.5 265.5t70.5 265.5t192.5 192t266 70.5zM582 780q-114 0 -189.5 -77t-75.5 -191t75.5 -191t189.5 -77q113 0 186.5 76.5t73.5 191.5t-73.5 191.5t-186.5 76.5z" />
    <glyph glyph-name="o.swsh" horiz-adv-x="1159" 
d="M575 1944q17 0 28 -11t11 -28q0 -14 -11 -24.5t-28 -10.5q-13 0 -23.5 10.5t-10.5 24.5q0 17 10 28t24 11zM575 1694q-21 0 -35 13t-14 34q0 20 14.5 33.5t34.5 13.5q22 0 36 -13.5t14 -33.5q0 -21 -14 -34t-36 -13zM575 1473q-30 0 -50.5 20.5t-20.5 50.5
q0 31 20.5 52.5t50.5 21.5q31 0 53.5 -21.5t22.5 -52.5q0 -29 -22.5 -50t-53.5 -21zM575 1493q23 0 37.5 14.5t14.5 36.5q0 23 -14.5 38t-37.5 15q-21 0 -35 -15t-14 -38q0 -22 14.5 -36.5t34.5 -14.5zM543 1262l-8 8q-26 33 -64 61t-65.5 42t-47.5 33.5t-20 41.5
q0 19 12 31t31 12q34 0 78 -39q37 -30 59.5 -75.5t26.5 -76.5l4 -30q0 -8 -6 -8zM823 1448q0 -28 -30.5 -50t-82.5 -54t-85 -74q-4 -8 -9 -8q-6 0 -6 8q1 13 4 33.5t26 69.5t60 79q44 39 78 39q19 0 32 -12t13 -31zM549 1188q0 -6 -10 -6q-38 0 -91 -16.5t-92 -37.5
q-19 -10 -47 -29t-46 -26.5t-44 -7.5q-29 0 -47 17t-18 46q0 45 35 75t81.5 41t100.5 11q53 0 115.5 -26t62.5 -41zM1006 1128q0 -29 -18 -46t-46 -17q-26 0 -44.5 7.5t-46.5 26t-48 29.5q-37 21 -90 37.5t-90 16.5q-13 0 -13 6q0 15 64 41t117 26t99 -11t81 -41t35 -75z
M580 1040q144 0 265.5 -70.5t192 -192t70.5 -265.5t-70.5 -265.5t-192 -192t-265.5 -70.5t-266 70.5t-192.5 192t-70.5 265.5t70.5 265.5t192.5 192t266 70.5zM582 780q-114 0 -189.5 -77t-75.5 -191t75.5 -191t189.5 -77q113 0 186.5 76.5t73.5 191.5t-73.5 191.5
t-186.5 76.5z" />
    <glyph glyph-name="p.salt" 
d="M590 1849q26 0 44.5 -19.5t18.5 -45.5t-18.5 -45t-44.5 -19t-45 19t-19 45t19 45.5t45 19.5zM590 1651q34 0 58 -24t24 -58t-24 -58t-58 -24t-58 24t-24 58t24 58t58 24zM590 1417q52 0 88.5 -37.5t36.5 -89.5q0 -53 -36.5 -90t-88.5 -37t-88.5 37t-36.5 90
q0 52 36.5 89.5t88.5 37.5zM590 1362q-29 0 -49.5 -21.5t-20.5 -50.5q0 -30 20 -49.5t50 -19.5t49.5 19.5t19.5 49.5t-20 51t-49 21zM61 512q0 144 70.5 265.5t192 192t264.5 70.5t264.5 -70.5t192.5 -192t71 -265.5t-71 -265.5t-192.5 -192t-264.5 -70.5q-149 0 -258 77
v-471h-269v922zM590 244q113 0 186.5 76.5t73.5 191.5t-73.5 191.5t-186.5 76.5q-114 0 -189 -77t-75 -191t75 -191t189 -77z" />
    <glyph glyph-name="p.salt2" 
d="M588 2062q26 0 44.5 -18.5t18.5 -44.5t-18.5 -45t-44.5 -19t-45 19t-19 45t19 44.5t45 18.5zM588 1866q34 0 58 -24t24 -58t-24 -58t-58 -24t-58 24t-24 58t24 58t58 24zM588 1632q52 0 88.5 -38t36.5 -91q0 -51 -36.5 -88t-88.5 -37t-88.5 37t-36.5 88q0 53 36.5 91
t88.5 38zM588 1577q-30 0 -50 -21.5t-20 -52.5q0 -29 19.5 -48t50.5 -19q29 0 49 19t20 48q0 31 -20 52.5t-49 21.5zM315 1430q50 0 107 -52q32 -26 56.5 -61.5t36.5 -68t19.5 -61.5t9.5 -46l1 -17q0 -8 -6 -8q-3 0 -11 8q-38 45 -90.5 83.5t-90.5 58.5t-65.5 46.5
t-27.5 57.5q0 24 18.5 42t42.5 18zM862 1430q24 0 43 -18t19 -42q0 -31 -27.5 -57.5t-65.5 -46.5t-91 -58.5t-91 -83.5q-8 -8 -10 -8q-6 0 -6 8q0 7 1.5 18.5t9 44t19.5 62.5t36.5 66.5t56.5 62.5q57 52 106 52zM61 512q0 144 70.5 265.5t192 192t264.5 70.5t264.5 -70.5
t192.5 -192t71 -265.5t-71 -265.5t-192.5 -192t-264.5 -70.5q-149 0 -258 77v-471h-269v922zM590 244q113 0 186.5 76.5t73.5 191.5t-73.5 191.5t-186.5 76.5q-114 0 -189 -77t-75 -191t75 -191t189 -77z" />
    <glyph glyph-name="p.swsh" 
d="M584 1944q17 0 28 -11t11 -28q0 -14 -11 -24.5t-28 -10.5q-14 0 -24.5 11t-10.5 24q0 17 10.5 28t24.5 11zM584 1694q-21 0 -35 13t-14 34q0 20 14.5 33.5t34.5 13.5q22 0 35.5 -13.5t13.5 -33.5q0 -22 -13.5 -34.5t-35.5 -12.5zM584 1473q-30 0 -51 20.5t-21 50.5
q0 31 20.5 52.5t51.5 21.5t53 -21.5t22 -52.5q0 -29 -22 -50t-53 -21zM584 1493q23 0 37 14.5t14 36.5q0 23 -14 38t-37 15q-21 0 -35 -15t-14 -38q0 -22 14.5 -36.5t34.5 -14.5zM551 1262l-8 8q-26 33 -64 61t-65.5 42t-47.5 33.5t-20 41.5q0 19 12 31t31 12q34 0 78 -39
q37 -30 59.5 -75.5t26.5 -76.5l4 -30q0 -8 -6 -8zM831 1448q0 -28 -30.5 -50t-82.5 -54t-85 -74q-4 -8 -8 -8q-7 0 -7 8q0 5 1 13t7 31t14.5 44.5t26.5 48t42 45.5q44 39 77 39q19 0 32 -12t13 -31zM557 1188q0 -6 -10 -6q-38 0 -90.5 -16.5t-91.5 -37.5
q-18 -10 -46.5 -29.5t-47 -26.5t-44.5 -7q-29 0 -47 17t-18 46q0 45 35 75t81.5 41t100.5 11q53 0 115.5 -26t62.5 -41zM1014 1128q0 -29 -18 -46t-46 -17q-26 0 -44.5 7.5t-46.5 26t-48 29.5q-37 21 -90 37.5t-90 16.5q-13 0 -13 6q0 15 64 41t117 26t99 -11t81 -41t35 -75
zM61 512q0 144 70.5 265.5t192 192t264.5 70.5t264.5 -70.5t192.5 -192t71 -265.5t-71 -265.5t-192.5 -192t-264.5 -70.5q-149 0 -258 77v-471h-269v922zM590 244q113 0 186.5 76.5t73.5 191.5t-73.5 191.5t-186.5 76.5q-114 0 -189 -77t-75 -191t75 -191t189 -77z" />
    <glyph glyph-name="q.salt" 
d="M580 1849q26 0 44.5 -19.5t18.5 -45.5t-18.5 -45t-44.5 -19t-45 19t-19 45t19 45.5t45 19.5zM580 1651q34 0 58 -24t24 -58t-24 -58t-58 -24t-58 24t-24 58t24 58t58 24zM580 1417q52 0 88.5 -37.5t36.5 -89.5q0 -53 -36.5 -90t-88.5 -37t-88.5 37t-36.5 90
q0 52 36.5 89.5t88.5 37.5zM580 1362q-29 0 -49.5 -21.5t-20.5 -50.5q0 -30 20 -49.5t50 -19.5t49.5 19.5t19.5 49.5t-20 51t-49 21zM1106 512v-922h-268v471q-109 -77 -258 -77q-143 0 -265 70.5t-193 192t-71 265.5t71 265.5t193 192t265 70.5t264 -70.5t191.5 -192
t70.5 -265.5zM578 244q114 0 189 77t75 191t-75 191t-189 77q-113 0 -187 -76.5t-74 -191.5t74 -191.5t187 -76.5z" />
    <glyph glyph-name="q.salt2" 
d="M578 2064q26 0 44.5 -18.5t18.5 -44.5t-18.5 -45t-44.5 -19t-45 19t-19 45t19 44.5t45 18.5zM578 1868q34 0 57.5 -24t23.5 -58t-23.5 -58t-57.5 -24t-58 24t-24 58t24 58t58 24zM578 1634q52 0 88 -38t36 -91q0 -51 -36 -88t-88 -37t-88.5 37t-36.5 88q0 53 36.5 91
t88.5 38zM578 1579q-30 0 -50 -21.5t-20 -52.5q0 -29 19.5 -48t50.5 -19q29 0 49 19t20 48q0 31 -20 52.5t-49 21.5zM305 1432q50 0 107 -52q32 -26 56.5 -61.5t36.5 -68t19.5 -61.5t9.5 -46l1 -17q0 -8 -7 -8q-2 0 -10 8q-38 45 -90.5 83.5t-90.5 58.5t-65.5 46.5
t-27.5 57.5q0 24 18.5 42t42.5 18zM852 1432q24 0 42.5 -18t18.5 -42q0 -31 -27.5 -57.5t-65.5 -46.5t-90.5 -58.5t-90.5 -83.5q-8 -8 -10 -8q-6 0 -6 8q0 7 1.5 18.5t8.5 44t19 62.5t36.5 66.5t56.5 62.5q57 52 107 52zM1106 512v-922h-268v471q-109 -77 -258 -77
q-143 0 -265 70.5t-193 192t-71 265.5t71 265.5t193 192t265 70.5t264 -70.5t191.5 -192t70.5 -265.5zM578 244q114 0 189 77t75 191t-75 191t-189 77q-113 0 -187 -76.5t-74 -191.5t74 -191.5t187 -76.5z" />
    <glyph glyph-name="q.swsh" 
d="M573 1944q17 0 28 -11t11 -28q0 -14 -11 -24.5t-28 -10.5q-13 0 -23.5 10.5t-10.5 24.5q0 17 10 28t24 11zM573 1694q-21 0 -35 13t-14 34q0 20 14.5 33.5t34.5 13.5q22 0 36 -13.5t14 -33.5q0 -21 -14 -34t-36 -13zM573 1473q-30 0 -50.5 20.5t-20.5 50.5
q0 31 20.5 52.5t50.5 21.5q31 0 53.5 -21.5t22.5 -52.5q0 -29 -22.5 -50t-53.5 -21zM573 1493q23 0 37.5 14.5t14.5 36.5q0 23 -14.5 38t-37.5 15q-21 0 -35 -15t-14 -38q0 -22 14.5 -36.5t34.5 -14.5zM541 1262q-1 0 -9 8q-26 33 -63.5 61t-65 42t-47.5 33.5t-20 41.5
q0 19 12 31t31 12q34 0 78 -39q37 -30 59.5 -75.5t26.5 -76.5l4 -30q0 -8 -6 -8zM821 1448q0 -28 -30.5 -50t-82.5 -54t-85 -74q-4 -8 -9 -8q-6 0 -6 8q1 13 4 33.5t26 69.5t60 79q44 39 78 39q19 0 32 -12t13 -31zM547 1188q0 -6 -10 -6q-38 0 -91 -16.5t-92 -37.5
q-19 -10 -47 -29t-46 -26.5t-44 -7.5q-29 0 -47 17t-18 46q0 45 35 75t81.5 41t100.5 11q53 0 115.5 -26t62.5 -41zM1004 1128q0 -29 -18 -46t-46 -17q-26 0 -44.5 7.5t-46.5 26t-48 29.5q-37 21 -90 37.5t-90 16.5q-13 0 -13 6q0 15 63.5 41t116.5 26q39 0 75 -6.5
t68.5 -20.5t52.5 -40t20 -60zM1106 512v-922h-268v471q-109 -77 -258 -77q-143 0 -265 70.5t-193 192t-71 265.5t71 265.5t193 192t265 70.5t264 -70.5t191.5 -192t70.5 -265.5zM578 244q114 0 189 77t75 191t-75 191t-189 77q-113 0 -187 -76.5t-74 -191.5t74 -191.5
t187 -76.5z" />
    <glyph glyph-name="w.alt" horiz-adv-x="1699" 
d="M1178 -16q-101 0 -187 35.5t-141 105.5q-55 -70 -141 -105.5t-187 -35.5q-100 0 -183 30.5t-145.5 90.5t-97.5 157t-35 223v539h267v-539q0 -123 48 -182t146 -59q100 0 147.5 59t47.5 182v539h266v-539q0 -123 48 -182t147 -59q100 0 147 59t47 182v539h266v-539
q0 -126 -34.5 -223t-97.5 -157t-145.5 -90.5t-182.5 -30.5z" />
    <glyph glyph-name="y.alt" horiz-adv-x="1026" 
d="M223 -410l156 410l-379 1024h270l242 -698l244 698h270l-532 -1434h-271z" />
    <glyph glyph-name="zero.osf" horiz-adv-x="1050" 
d="M526 1040q209 0 341 -148.5t132 -379.5t-132 -379.5t-341 -148.5t-342 148.5t-133 379.5t133 379.5t342 148.5zM526 780q-99 0 -154 -71.5t-55 -196.5t55 -196.5t154 -71.5t153 71t54 197t-54 197t-153 71z" />
    <glyph glyph-name="one.osf" horiz-adv-x="565" 
d="M197 1024h266v-1024h-266v670q-28 -23 -79.5 -42.5t-97.5 -25.5v266q79 28 121 60t56 96z" />
    <glyph glyph-name="two.osf" horiz-adv-x="905" 
d="M51 0v137q0 59 29.5 113t76 94t103 77t113.5 69.5t103.5 63.5t76 67t29.5 73q0 86 -131 86q-69 0 -100.5 -25.5t-31.5 -80.5h-266q0 169 107.5 267.5t290.5 98.5q169 0 283 -97t114 -249q0 -66 -25 -122.5t-64.5 -95.5t-88 -71t-96.5 -56t-87.5 -44.5t-64.5 -42
t-25 -43.5h457v-219h-803z" />
    <glyph glyph-name="three.osf" horiz-adv-x="995" 
d="M498 -410q-191 0 -320 119.5t-129 306.5h268q0 -82 51.5 -124t131.5 -42q87 0 132.5 63t45.5 159q0 103 -66 168t-172 65h-20v219h20q46 0 77 12.5t45 35.5t19 45.5t5 52.5q0 133 -113 133q-50 0 -77 -28t-27 -75h-267q0 153 117.5 254t278.5 101q160 0 257 -88t97 -242
q0 -208 -176 -307q268 -75 268 -375q0 -207 -121 -330t-325 -123z" />
    <glyph glyph-name="four.osf" horiz-adv-x="1095" 
d="M1065 172v-260h-180v-322h-267v322h-577v260l577 852h267v-852h180zM354 172h264v395z" />
    <glyph glyph-name="five.osf" horiz-adv-x="1077" 
d="M539 -412q-230 0 -359 144.5t-129 384.5h266q0 -124 59 -196.5t165 -72.5t162.5 72t56.5 197q0 248 -219 248q-111 0 -164 -56l-189 160l154 569h610v-260h-415l-41 -155q16 2 43 2q232 0 359.5 -135.5t127.5 -372.5q0 -240 -128.5 -384.5t-358.5 -144.5z" />
    <glyph glyph-name="six.osf" horiz-adv-x="1064" 
d="M532 -14q-130 0 -240.5 63t-175.5 174t-65 244q0 127 62.5 267.5t160.5 255.5t224 201.5t247 113.5v-261q-106 -18 -225 -114q14 2 41 2q130 0 234.5 -63.5t161.5 -169.5t57 -232q0 -131 -64.5 -241.5t-175.5 -175t-242 -64.5zM535 246q88 0 150.5 64.5t62.5 156.5
q0 93 -61.5 157t-151.5 64q-94 0 -156.5 -62.5t-61.5 -156.5q0 -93 64 -158t154 -65z" />
    <glyph glyph-name="seven.osf" horiz-adv-x="989" 
d="M51 1022h887v-244l-569 -1190h-299l563 1174h-582v260z" />
    <glyph glyph-name="eight.osf" horiz-adv-x="921" 
d="M461 -16q-120 0 -223.5 54t-164.5 147t-61 202q0 96 47 179.5t127 142.5q-58 48 -90.5 113t-32.5 136q0 146 118 251.5t280 105.5t280.5 -105t118.5 -252q0 -71 -33.5 -136t-91.5 -113q81 -57 128.5 -141.5t47.5 -180.5q0 -109 -61 -202t-164.5 -147t-224.5 -54zM461 815
q57 0 95 33t38 88q0 56 -37.5 87.5t-95.5 31.5q-57 0 -94 -31.5t-37 -87.5q0 -57 37 -89t94 -32zM461 244q92 0 138 42t46 111q0 71 -46.5 114.5t-137.5 43.5q-90 0 -136 -43.5t-46 -114.5q0 -69 46 -111t136 -42z" />
    <glyph glyph-name="nine.osf" horiz-adv-x="1159" 
d="M344 -410l252 392h-16q-144 0 -266 70.5t-192.5 192t-70.5 265.5t70.5 265.5t192.5 192t266 70.5q143 0 264.5 -70.5t192.5 -192t71 -265.5q0 -169 -98 -307l-392 -613h-274zM578 242q112 0 188 77t76 191q0 110 -77.5 189t-186.5 79q-108 0 -184.5 -78t-76.5 -190
q0 -115 75 -191.5t186 -76.5z" />
    <glyph glyph-name="zero.dnom" horiz-adv-x="841" 
d="M422 -10q-100 0 -183.5 44.5t-135.5 134t-52 208.5t52 208.5t135.5 134t183.5 44.5q153 0 261 -105t108 -282t-108 -282t-261 -105zM422 195q76 0 120 48t44 134t-44 134t-120 48t-121 -48.5t-45 -133.5t45 -133.5t121 -48.5z" />
    <glyph glyph-name="two.dnom" horiz-adv-x="700" 
d="M51 0v102q0 51 29.5 97t73 77.5t95 64t95 57.5t73 56.5t29.5 63.5q0 64 -98 64q-96 0 -96 -84h-201q0 127 84.5 203.5t212.5 76.5q127 0 212 -73t85 -187q0 -57 -25 -105t-62 -77t-81 -55t-81 -42.5t-62 -35.5t-25 -37h340v-166h-598z" />
    <glyph glyph-name="three.dnom" horiz-adv-x="632" 
d="M315 -12q-129 0 -201.5 65.5t-72.5 188.5h197q0 -34 20 -54t55 -20q40 0 61 24t21 66q0 49 -28 68.5t-84 19.5h-7v111h7q61 0 83.5 15t22.5 52q0 62 -63 62q-36 0 -52 -16t-16 -50h-197q0 109 71 175.5t183 66.5q66 0 122.5 -19.5t94 -63t37.5 -104.5q0 -108 -92 -153
q115 -41 115 -184q0 -122 -73.5 -186t-203.5 -64z" />
    <glyph glyph-name="four.dnom" horiz-adv-x="663" 
d="M633 322v-179h-80v-143h-184v143h-338v179l338 444h184v-444h80zM227 322h142v174z" />
    <glyph glyph-name="zero.numr" horiz-adv-x="841" 
d="M422 668q-100 0 -183.5 44.5t-135.5 134t-52 208.5t52 208.5t135.5 134t183.5 44.5q153 0 261 -105t108 -282t-108 -282t-261 -105zM422 872q76 0 120 48.5t44 134.5t-44 134t-120 48t-121 -48.5t-45 -133.5t45 -134t121 -49z" />
    <glyph glyph-name="one.numr" horiz-adv-x="536" 
d="M229 1434h205v-766h-205v495q-50 -39 -112 -55l-66 182q130 55 178 144z" />
    <glyph glyph-name="two.numr" horiz-adv-x="700" 
d="M51 668v102q0 51 29.5 97t73 77.5t95 64t95 57.5t73 56.5t29.5 63.5q0 63 -98 63q-96 0 -96 -84h-201q0 128 84.5 204.5t212.5 76.5q127 0 212 -73t85 -187q0 -57 -25 -105t-62 -77t-81 -55t-81 -42.5t-62 -35.5t-25 -37h340v-166h-598z" />
    <glyph glyph-name="three.numr" horiz-adv-x="632" 
d="M326 666q-129 0 -202 65.5t-73 188.5h197q0 -34 20.5 -54t55.5 -20q40 0 61 24t21 66q0 49 -28.5 68.5t-84.5 19.5h-6v111h6q61 0 83.5 15t22.5 52q0 62 -63 62q-36 0 -52 -16t-16 -50h-196q0 109 71 175.5t183 66.5q66 0 122.5 -19.5t94 -63t37.5 -104.5
q0 -107 -93 -153q115 -41 115 -185q0 -122 -73 -185.5t-203 -63.5z" />
    <glyph glyph-name="LineDotsThick.orn" horiz-adv-x="5427" 
d="M2830 776q0 -48 -33.5 -82.5t-82.5 -34.5q-47 0 -82 35t-35 82q0 49 34.5 83t82.5 34q49 0 82.5 -33.5t33.5 -83.5zM2793 776q0 35 -22 57.5t-57 22.5q-34 0 -57 -22.5t-23 -57.5q0 -34 23 -57t57 -23q35 0 57 23t22 57zM2331 776q0 33 21.5 55.5t53.5 22.5t53 -22.5
t21 -55.5q0 -32 -21 -54t-53 -22t-53.5 22t-21.5 54zM3099 776q0 -32 -23 -54t-55 -22t-53 22t-21 54q0 33 21 55.5t53 22.5t55 -23t23 -55zM1987 846v-137h-1926v137h1926zM5366 846v-137h-1925v137h1925zM2085 776q0 26 16.5 43t40.5 17t42 -17t18 -43q0 -23 -18 -40
t-42 -17q-23 0 -40 17t-17 40zM3344 776q0 -23 -18 -40t-41 -17t-40 17t-17 40q0 26 16.5 43t40.5 17t41.5 -17t17.5 -43z" />
    <glyph glyph-name="Petals.orn" horiz-adv-x="747" 
d="M371 647q12 0 20 -8.5t8 -20.5q0 -11 -8 -18.5t-20 -7.5q-11 0 -19 8t-8 18q0 12 8 20.5t19 8.5zM371 459q-15 0 -26 10t-11 25t11 25.5t26 10.5t26 -10.5t11 -25.5t-11 -25t-26 -10zM371 291q-23 0 -39.5 16t-16.5 39t16.5 39t39.5 16t40 -16t17 -39t-17 -39t-40 -16z
M371 307q17 0 28 11t11 28t-11 28t-28 11q-15 0 -26 -11t-11 -28t11 -28t26 -11zM346 131l-6 6q-25 32 -64 56.5t-62.5 41t-23.5 37.5q0 14 10 23.5t23 9.5q26 0 60 -29q28 -23 44.5 -57.5t19.5 -58.5l3 -23q0 -6 -4 -6zM557 272q0 -21 -23 -37.5t-62 -41t-64 -56.5
q-6 -6 -7 -6q-4 0 -4 6q1 10 3.5 26t19.5 53t45 60q34 29 59 29q14 0 23.5 -9.5t9.5 -23.5zM350 76q0 -4 -8 -4q-57 0 -137 -41q-14 -8 -36 -22t-35.5 -19.5t-33.5 -5.5q-22 0 -35.5 12.5t-13.5 34.5q0 35 26.5 57.5t61.5 30.5t76 8q40 0 87.5 -19.5t47.5 -31.5zM696 31
q0 -22 -13.5 -34.5t-35.5 -12.5q-19 0 -33 5.5t-35 19.5t-36 22q-80 41 -137 41q-9 0 -9 4q0 12 47.5 31.5t87.5 19.5q41 0 76 -8t61.5 -30.5t26.5 -57.5z" />
    <glyph glyph-name="HorizDots.orn" horiz-adv-x="1384" 
d="M809 776q0 -48 -34 -82.5t-83 -34.5q-47 0 -82 35t-35 82q0 49 34.5 83t82.5 34q50 0 83.5 -33.5t33.5 -83.5zM772 776q0 35 -22.5 57.5t-57.5 22.5q-34 0 -57 -22.5t-23 -57.5q0 -34 23 -57t57 -23q35 0 57.5 23t22.5 57zM309 776q0 32 22 55t54 23t53 -22.5t21 -55.5
q0 -32 -21 -54t-53 -22t-54 22t-22 54zM1077 776q0 -32 -23 -54t-55 -22t-52.5 21.5t-20.5 54.5t20.5 55.5t52.5 22.5t55 -23t23 -55zM63 776q0 26 17 43t41 17t41.5 -17t17.5 -43q0 -23 -18 -40t-41 -17t-40.5 17t-17.5 40zM1323 776q0 -23 -18 -40t-41 -17t-40.5 17
t-17.5 40q0 26 17 43t41 17t41.5 -17t17.5 -43z" />
    <glyph glyph-name="Dots.orn" horiz-adv-x="372" 
d="M186 1001q26 0 45 -19.5t19 -45.5t-19 -45t-45 -19t-44.5 19t-18.5 45t18.5 45.5t44.5 19.5zM186 803q34 0 58 -24t24 -58t-24 -58t-58 -24t-58 24t-24 58t24 58t58 24zM186 569q52 0 88.5 -37.5t36.5 -89.5q0 -53 -36.5 -90t-88.5 -37t-88.5 37t-36.5 90q0 52 36.5 89.5
t88.5 37.5zM186 514q-29 0 -49 -21t-20 -51t19.5 -49.5t49.5 -19.5t50 19.5t20 49.5q0 29 -20.5 50.5t-49.5 21.5z" />
    <glyph glyph-name="Petals2.orn" horiz-adv-x="772" 
d="M385 930q26 0 45 -19t19 -45t-19 -44.5t-45 -18.5t-44.5 18.5t-18.5 44.5t18.5 45t44.5 19zM385 733q34 0 58 -24t24 -58t-24 -58t-58 -24t-58 24t-24 58t24 58t58 24zM385 500q52 0 88.5 -38t36.5 -91q0 -51 -36.5 -88t-88.5 -37t-88.5 37t-36.5 88q0 53 36.5 91
t88.5 38zM385 444q-30 0 -50 -21t-20 -52q0 -29 19.5 -48.5t50.5 -19.5q29 0 49.5 19.5t20.5 48.5q0 31 -20.5 52t-49.5 21zM113 297q50 0 106 -51q32 -26 56.5 -61.5t36.5 -68t19.5 -61.5t8.5 -46l2 -17q0 -8 -6 -8q-2 0 -10 8q-38 45 -91 83.5t-91 58.5t-65.5 46.5
t-27.5 57.5q0 24 19 41.5t43 17.5zM659 297q24 0 43 -17.5t19 -41.5q0 -31 -27.5 -57.5t-65.5 -46.5t-91 -58.5t-91 -83.5q-8 -8 -10 -8q-6 0 -6 8q0 7 1.5 18.5t9 44t19.5 62.5t36.5 66.5t56.5 62.5q56 51 106 51z" />
    <glyph glyph-name="LineDotThin.orn" horiz-adv-x="5427" 
d="M2830 776q0 -48 -33.5 -82.5t-82.5 -34.5q-47 0 -82 35t-35 82q0 49 34.5 83t82.5 34q49 0 82.5 -33.5t33.5 -83.5zM2793 776q0 35 -22 57.5t-57 22.5q-34 0 -57 -22.5t-23 -57.5q0 -34 23 -57t57 -23q35 0 57 23t22 57zM2331 776q0 33 21.5 55.5t53.5 22.5t53 -22.5
t21 -55.5q0 -32 -21 -54t-53 -22t-53.5 22t-21.5 54zM3099 776q0 -32 -23 -54t-55 -22t-53 22t-21 54q0 33 21 55.5t53 22.5t55 -23t23 -55zM2085 776q0 26 16.5 43t40.5 17t42 -17t18 -43q0 -23 -18 -40t-42 -17q-23 0 -40 17t-17 40zM3344 776q0 -23 -18 -40t-41 -17
t-40 17t-17 40q0 26 16.5 43t40.5 17t41.5 -17t17.5 -43zM1987 825v-96h-1926v96h1926zM5366 825v-96h-1925v96h1925z" />
    <glyph glyph-name="LineSwashThin.orn" horiz-adv-x="5079" 
d="M2535 1608q17 0 28 -11t11 -28q0 -14 -11 -24.5t-28 -10.5q-13 0 -23.5 10.5t-10.5 24.5q0 17 10 28t24 11zM2535 1358q-21 0 -35 13t-14 34q0 20 14.5 33.5t34.5 13.5q22 0 36 -13.5t14 -33.5q0 -21 -14 -34t-36 -13zM2535 1137q-30 0 -50.5 20.5t-20.5 50.5
q0 31 20.5 52.5t50.5 21.5q31 0 53.5 -21.5t22.5 -52.5q0 -29 -22.5 -50t-53.5 -21zM2535 1157q23 0 37.5 14.5t14.5 36.5q0 23 -14.5 38.5t-37.5 15.5q-20 0 -34.5 -15.5t-14.5 -38.5q0 -22 14.5 -36.5t34.5 -14.5zM2503 926q-1 0 -9 8q-26 33 -63.5 61t-65 42t-47.5 33.5
t-20 41.5q0 19 12 31t31 12q34 0 78 -39q37 -30 59.5 -75.5t26.5 -76.5l4 -30q0 -8 -6 -8zM2783 1112q0 -28 -30.5 -50t-82.5 -54t-85 -74q-4 -8 -9 -8q-6 0 -6 8q1 13 4 33.5t26 69.5t60 79q44 39 78 39q19 0 32 -12t13 -31zM2509 852q0 -6 -10 -6q-39 0 -91.5 -16
t-91.5 -37q-19 -10 -46.5 -29.5t-46 -27t-44.5 -7.5q-29 0 -47 17.5t-18 46.5q0 45 35 75t81.5 41t100.5 11q53 0 115.5 -26.5t62.5 -41.5zM2966 793q0 -29 -18 -46.5t-46 -17.5q-26 0 -44.5 7.5t-46 26.5t-48.5 30q-36 20 -89 36.5t-91 16.5q-13 0 -13 6q0 15 63.5 41.5
t116.5 26.5q39 0 75 -6.5t68.5 -20.5t52.5 -40t20 -60zM1976 846v-96h-1925v96h1925zM5028 846v-96h-1925v96h1925z" />
    <glyph glyph-name="LineSwashThinReverse.orn" horiz-adv-x="5079" 
d="M2509 727q0 -15 -62.5 -41.5t-115.5 -26.5q-54 0 -100.5 11t-81.5 41t-35 75q0 29 18 46.5t47 17.5q26 0 44.5 -7.5t46 -27t46.5 -29.5q39 -21 91.5 -37t91.5 -16q10 0 10 -6zM2966 786q0 -34 -20 -60t-52.5 -40t-68.5 -20.5t-75 -6.5q-53 0 -116.5 26.5t-63.5 41.5
q0 6 13 6q38 0 91 16.5t89 36.5q21 11 48.5 30t46 26.5t44.5 7.5q28 0 46 -17.5t18 -46.5zM1976 733h-1925v96h1925v-96zM5028 733h-1925v96h1925v-96zM2503 653q6 0 6 -8q-1 -13 -4 -33.5t-26 -69.5t-60 -79q-44 -39 -78 -39q-19 0 -31 12t-12 31q0 28 30.5 50t81.5 54
t84 74q8 8 9 8zM2783 467q0 -19 -13 -31t-32 -12q-34 0 -78 39q-37 30 -59.5 75.5t-26.5 75.5l-4 31q0 8 6 8q5 0 9 -8q33 -42 85 -74t82.5 -54t30.5 -50zM2535 442q31 0 53.5 -21t22.5 -50q0 -31 -22.5 -52.5t-53.5 -21.5q-30 0 -50.5 21.5t-20.5 52.5q0 30 20.5 50.5
t50.5 20.5zM2535 422q-20 0 -34.5 -14.5t-14.5 -36.5q0 -23 14.5 -38.5t34.5 -15.5q23 0 37.5 15.5t14.5 38.5q0 22 -14.5 36.5t-37.5 14.5zM2535 221q22 0 36 -13t14 -34q0 -20 -14 -33.5t-36 -13.5q-20 0 -34.5 13.5t-14.5 33.5q0 21 14 34t35 13zM2535 -29q-14 0 -24 11
t-10 28q0 14 10.5 24.5t23.5 10.5q17 0 28 -10.5t11 -24.5q0 -17 -11 -28t-28 -11z" />
    <glyph glyph-name="BranchPetals.orn" horiz-adv-x="1513" 
d="M549 991q-9 4 -23 12t-43 37t-41 64q-15 41 -8 65q5 12 17.5 17.5t25.5 1.5q19 -7 26.5 -34.5t17.5 -73t32 -79.5q4 -4 4 -8q-1 -2 -8 -2zM848 854l-8 4q-8 7 -19 19t-29.5 49t-17.5 73q-3 47 17 62q23 27 49 4q15 -11 12.5 -47t-9.5 -74t3 -80q5 -10 2 -10zM111 971
q-44 16 -56 37q-6 11 -1.5 23t16.5 20q17 11 49.5 -4t73 -35.5t69.5 -20.5q10 0 10 -4q0 -5 -6 -8q-3 -2 -8.5 -4t-23 -7.5t-35 -7.5t-42 0t-46.5 11zM1399 952q-13 0 -24 11t-11 24q0 15 10.5 26t24.5 11q15 0 26 -11t11 -26q0 -14 -11 -24.5t-26 -10.5zM1206 834
q-3 0 -9.5 -0.5t-24.5 0t-35.5 4.5t-39.5 14t-40 25q-31 21 -37 51q-2 15 6 26.5t23 14.5q19 3 38.5 -16.5t51.5 -54t69 -54.5q9 -2 9 -6t-11 -4zM1051 688q-64 0 -130.5 22t-123 54t-112 63.5t-117 53.5t-117.5 22q-103 0 -180.5 -45.5t-120.5 -118.5h-66q40 101 144 160
t223 59q66 0 132 -22t122 -54t110 -63.5t116 -53.5t120 -22q193 0 305 160h61q-54 -98 -147 -156.5t-219 -58.5zM319 618q-10 -10 -24 -8t-25 13q-14 23 -14 63q0 36 16 71t32 51l15 17q1 1 3 2q5 4 6 0l-2 -8q-6 -35 -4 -68t7 -58.5t3.5 -45.5t-13.5 -29zM1409 575
q-22 13 -37 54q-13 41 -11 75.5t11 57.5l10 22q2 4 9 4q2 0 3 -3t1 -6v-3q6 -41 26 -81.5t32.5 -65.5t4.5 -41q-9 -13 -24 -17t-25 4zM557 635q-31 12 -22 47q16 27 45 45q33 19 70 22.5t58 -2.5l21 -6q10 -5 10 -6l-6 -4q-39 -13 -76 -41t-60 -44.5t-40 -10.5zM102 618
q-15 0 -25.5 11t-10.5 26q0 14 10.5 24.5t25.5 10.5q14 0 24.5 -11t10.5 -24q0 -15 -10.5 -26t-24.5 -11zM963 459q-13 -4 -24.5 5t-14.5 23q-3 21 16 64q19 32 51.5 54.5t54.5 28.5l23 7q1 0 2 1q6 2 6 -3l-6 -10q-23 -24 -39.5 -55.5t-23.5 -54t-18 -40t-27 -20.5z" />
    <glyph glyph-name="LineSwashThinDots.orn" horiz-adv-x="6311" 
d="M3152 1534q-14 0 -24.5 11t-10.5 24q0 17 10.5 28t24.5 11q17 0 28 -11t11 -28q0 -14 -11 -24.5t-28 -10.5zM3152 1358q-21 0 -34 13t-13 34q0 20 13.5 34.5t33.5 14.5q21 0 35 -14t14 -35q0 -22 -13.5 -34.5t-35.5 -12.5zM3152 1137q-30 0 -51 21.5t-21 51.5
q0 29 21.5 50.5t50.5 21.5q31 0 53.5 -21.5t22.5 -50.5q0 -30 -22.5 -51.5t-53.5 -21.5zM3152 1157q23 0 37 15t14 38q0 22 -14 37t-37 15q-20 0 -33.5 -15t-13.5 -37q0 -23 13.5 -38t33.5 -15zM3121 926q-4 0 -8 8q-27 33 -65 61t-66 42t-48 33.5t-20 41.5q0 19 12 31
t31 12q33 0 80 -37q37 -31 59 -77t26 -77l3 -30q0 -8 -4 -8zM3193 926q-4 0 -4 8q0 5 1 13t6 31.5t13.5 45t26 48t41.5 46.5q45 37 80 37q18 0 30.5 -12.5t12.5 -30.5q0 -22 -20 -41.5t-48 -33.5t-66 -42t-65 -61q-4 -8 -8 -8zM2796 729q-29 0 -47.5 17.5t-18.5 46.5
q0 45 35 75t81.5 41t100.5 11q53 0 115.5 -26.5t62.5 -41.5q0 -6 -10 -6q-39 0 -91 -16t-91 -37q-19 -10 -46.5 -29.5t-46 -27t-44.5 -7.5zM3518 729q-26 0 -44.5 7.5t-46 26.5t-48.5 30q-36 20 -89 36.5t-91 16.5q-10 0 -10 6q0 15 62.5 41.5t115.5 26.5t99.5 -11t82 -41
t35.5 -75q0 -29 -19 -46.5t-47 -17.5zM5837 705q-39 0 -67.5 27.5t-28.5 66.5t28.5 66.5t67.5 27.5t67.5 -27.5t28.5 -66.5t-28.5 -66.5t-67.5 -27.5zM475 702q-39 0 -67.5 28t-28.5 67t28.5 66.5t67.5 27.5t67.5 -27.5t28.5 -66.5t-28.5 -67t-67.5 -28zM6048 737
q-25 0 -43.5 18t-18.5 44q0 25 18.5 43t43.5 18q26 0 43.5 -18t17.5 -43q0 -26 -17.5 -44t-43.5 -18zM264 735q-26 0 -43.5 18t-17.5 44q0 25 17.5 43t43.5 18q25 0 43.5 -18t18.5 -43q0 -26 -18.5 -44t-43.5 -18zM5837 745q23 0 39 15.5t16 38.5q0 22 -16 37.5t-39 15.5
t-37 -15.5t-14 -37.5q0 -24 14 -39t37 -15zM475 743q23 0 37 15t14 39q0 22 -14 37.5t-37 15.5t-39 -15.5t-16 -37.5q0 -23 16 -38.5t39 -15.5zM668 750v96h1925v-96h-1925zM3719 750v96h1925v-96h-1925zM6212 750q-20 0 -35 14.5t-15 34.5t14.5 33.5t35.5 13.5
q19 0 34 -13.5t15 -33.5t-15 -34.5t-34 -14.5zM100 748q-19 0 -34 14.5t-15 34.5t15 33.5t34 13.5q21 0 35.5 -13.5t14.5 -33.5t-15 -34.5t-35 -14.5z" />
    <glyph glyph-name="BranchPetalsLg.orn" horiz-adv-x="2799" 
d="M549 991q-9 4 -23 12t-43 37t-41 64q-15 41 -8 65q5 12 17.5 17.5t25.5 1.5q19 -7 26.5 -34.5t17.5 -73t32 -79.5q4 -4 4 -8q-1 -2 -8 -2zM2251 991q-7 0 -8 2q0 4 4 8q22 34 32 79.5t17 73t26 34.5q13 4 25.5 -1.5t17.5 -17.5q7 -24 -8 -65q-12 -35 -38.5 -63t-46.5 -39
zM848 854l-8 4q-8 7 -19 19t-29.5 49t-17.5 73q-3 47 17 62q23 27 49 4q15 -11 12.5 -47t-9.5 -74t3 -80q5 -10 2 -10zM1952 854q-3 0 2 10q6 28 4.5 60t-7 59t-4.5 50t13 32q26 23 49 -4q19 -14 16 -62q1 -36 -15.5 -71.5t-33.5 -52.5l-16 -17zM111 971q-44 16 -56 37
q-6 11 -1.5 23t16.5 20q17 11 49.5 -4t73 -35.5t69.5 -20.5q10 0 10 -4q0 -5 -6 -8q-3 -2 -8.5 -4t-23 -7.5t-35 -7.5t-42 0t-46.5 11zM2689 971q-40 -13 -75 -11.5t-58 10.5l-23 9q-6 3 -6 8q0 4 10 4q29 0 69.5 20.5t73.5 35.5t50 4q12 -7 16 -20t-2 -23q-12 -21 -55 -37z
M1399 932q-13 0 -24 11t-11 24q0 15 10.5 26t24.5 11q15 0 26 -11t11 -26q0 -14 -11 -24.5t-26 -10.5zM1206 834q-3 0 -9.5 -0.5t-24.5 0t-35.5 4.5t-39.5 14t-40 25q-31 21 -37 51q-2 15 6 26.5t23 14.5q19 3 38.5 -16.5t51.5 -54t69 -54.5q9 -2 9 -6t-11 -4zM1593 834
q-10 0 -10 4q0 2 2 3.5t4 2.5h2q37 20 69 54.5t52 54t39 16.5q15 -3 23 -14.5t6 -26.5q-6 -30 -37 -51q-28 -24 -65.5 -35t-61.5 -10zM1051 688q-64 0 -130.5 22t-123 54t-112 63.5t-117 53.5t-117.5 22q-103 0 -180.5 -45.5t-120.5 -118.5h-66q40 101 144 160t223 59
q66 0 132 -22t122 -54t110 -63.5t116 -53.5t120 -22q193 0 305 160h88q112 -160 305 -160q58 0 120 22t116 53.5t110 63.5t122 54t132 22q119 0 223 -59t144 -160h-66q-43 73 -120.5 118.5t-180.5 45.5q-56 0 -117.5 -22t-117 -53.5t-112 -63.5t-123 -54t-130.5 -22
q-117 0 -205 50t-143 136q-123 -186 -350 -186zM319 618q-10 -10 -24 -8t-25 13q-14 23 -14 63q0 36 16 71t32 51l15 17q1 1 3 2q5 4 6 0l-2 -8q-5 -35 -2 -68t9 -58.5t3.5 -45.5t-17.5 -29zM2480 618q-15 12 -13 43t9 69t-2 89q-2 4 -2 8q1 4 5 0q2 -1 3 -2q3 -2 7 -6.5
t15 -19t19.5 -29.5t15.5 -38t7 -46q0 -38 -15 -63q-11 -11 -25 -13t-24 8zM557 635q-31 12 -22 47q16 27 45 45q33 19 70 22.5t58 -2.5l21 -6q10 -5 10 -6l-6 -4q-39 -13 -76 -41t-60 -44.5t-40 -10.5zM2243 635q-17 -6 -40.5 10.5t-60.5 44.5t-76 41q-6 2 -6 4q0 1 11 6
q8 3 22.5 6.5t54 1t72.5 -21.5q29 -18 45 -45q9 -35 -22 -47zM102 618q-15 0 -25.5 11t-10.5 26q0 14 10.5 24.5t25.5 10.5q14 0 24.5 -11t10.5 -24q0 -15 -10.5 -26t-24.5 -11zM2697 618q-14 0 -24.5 11t-10.5 26q0 13 11 24t24 11q15 0 26 -10.5t11 -24.5q0 -15 -11 -26
t-26 -11zM963 459q-13 -4 -24.5 5t-14.5 23q-3 21 16 64q19 32 51.5 54.5t54.5 28.5l23 7q1 0 2 1q6 2 6 -3l-6 -10q-23 -24 -39.5 -55.5t-23.5 -54t-18 -40t-27 -20.5zM1837 459q-16 3 -27 20.5t-18 40t-23.5 54t-39.5 55.5q-7 6 -7 10q1 4 9 2q10 -2 25.5 -7t50 -28
t53.5 -55q19 -43 16 -64q-3 -14 -14.5 -23t-24.5 -5z" />
    <glyph glyph-name="Flower.orn" horiz-adv-x="823" 
d="M264 303q-33 0 -82 39t-49 72q0 23 18.5 56t18.5 75q0 57 -9.5 77.5t-35.5 20.5q-31 0 -52.5 24t-21.5 64t24 60t58 24.5t68 8.5t58 21t24 54q0 66 30.5 101.5t83.5 35.5q56 0 79.5 -48t23.5 -140q0 -25 17 -41t52 -16q30 0 55.5 19t57.5 19q40 0 65 -32t25 -86
t-21.5 -78.5t-72.5 -24.5q-27 0 -45 -6.5t-24.5 -18t-8.5 -20t-2 -20.5q0 -22 25.5 -57.5t25.5 -71.5q0 -45 -78 -45q-36 0 -76.5 23.5t-76.5 23.5q-17 0 -32.5 -17.5t-27.5 -39t-37 -39t-57 -17.5zM440 545q18 0 29.5 5t18 10.5t9 21.5t3 26t0.5 35q0 33 -25 56t-53 31.5
t-51 8.5q-40 0 -65 -27t-25 -57q0 -53 48.5 -81.5t110.5 -28.5z" />
    <glyph glyph-name="BorderDotsTopLeft" horiz-adv-x="3459" 
d="M61 1528q11 10 26.5 10t27.5 -10q9 -10 8.5 -25.5t-10.5 -27.5q-10 -9 -25.5 -9t-24.5 9q-12 12 -12.5 27.5t10.5 25.5zM238 1352q-15 -15 -34.5 -16t-33.5 14q-14 14 -14 34t14 33q14 15 34.5 15t35.5 -15q13 -14 12.5 -32.5t-14.5 -32.5zM586 1352q16 -12 14.5 -43.5
t-10.5 -59t-16.5 -75t-2.5 -89.5v-12q-2 -4 -8 2q-3 4 -8.5 10.5t-18.5 27t-22 42t-15 52.5t-3 61q5 57 28 84q12 12 31 12t31 -12zM393 1194q-22 -22 -51 -22t-51 22t-22 51t22 51q22 23 52 23.5t52 -21.5t21 -52t-23 -52zM379 1208q15 17 15 38t-15 36t-36 15t-38 -15
q-14 -13 -13.5 -34t15.5 -38q17 -15 38 -15.5t34 13.5zM942 1255q20 -20 19 -45t-21 -45q-19 -19 -37 -26.5t-51 -14t-53 -12.5q-114 -36 -168 -90q-6 -8 -10 -4q-12 12 14 74.5t63 99.5q28 28 58 49t63.5 34.5t65.5 9t57 -29.5zM3097 1169q-20 0 -34 14t-14 34t14 34.5
t34 14.5t34.5 -14.5t14.5 -34.5t-14.5 -34t-34.5 -14zM1040 1176v84h1928v-84h-1928zM3252 1180q-17 0 -28 11t-11 26q0 17 11 27.5t28 10.5q15 0 26 -10.5t11 -27.5q0 -15 -11 -26t-26 -11zM3379 1188q-12 0 -20 9t-8 20q0 12 8 21t20 9t20.5 -9t8.5 -21q0 -11 -8.5 -20
t-20.5 -9zM520 1022h-10q-43 5 -90.5 -2.5t-74.5 -16t-58.5 -10t-42.5 14.5q-14 14 -14 31.5t14 29.5q20 24 82 29q47 5 95 -11.5t73 -35.5l24 -19q6 -6 2 -10zM575 973q3 -2 -4 -10q-26 -27 -51 -76t-39 -90q-6 -21 -12.5 -55t-14 -52t-26.5 -37q-20 -20 -45 -21t-45 19
q-24 25 -28.5 57t9 65.5t34 63.5t48.5 58q37 37 100.5 63.5t73.5 14.5zM342 -1370v1927h84v-1927h-84zM383 -1548q-20 0 -33.5 14.5t-13.5 34.5t13.5 33.5t33.5 13.5t34.5 -13.5t14.5 -33.5t-14.5 -34.5t-34.5 -14.5zM383 -1692q-15 0 -26 11t-11 26q0 17 11 28t26 11
q17 0 28 -11t11 -28q0 -15 -11 -26t-28 -11zM383 -1810q-11 0 -20 8t-9 20t9 20.5t20 8.5q12 0 21.5 -8.5t9.5 -20.5t-9.5 -20t-21.5 -8z" />
    <glyph glyph-name="BorderTopLeft" horiz-adv-x="1443" 
d="M59 1622q7 9 19 9t20 -9q8 -8 8 -19t-8 -20q-8 -7 -20 -7t-19 7q-7 9 -7 20t7 19zM193 1489q-11 -11 -26 -11t-26 11t-11 26t11 25t26 10t26 -10t11 -25t-11 -26zM455 1489q13 -8 12 -32t-8 -44.5t-12.5 -56.5t-2.5 -68v-8q-2 -5 -6 2q-7 7 -16.5 20t-24 51t-10.5 74
q2 41 23 62q9 11 22.5 11t22.5 -11zM311 1370q-17 -15 -40 -15t-40 15q-15 17 -15 40t15 40q18 16 41 16.5t39 -16.5q17 -16 16.5 -39t-16.5 -41zM299 1382q12 12 12 28t-12 28t-27.5 12t-27.5 -12q-11 -10 -10.5 -26t12.5 -28t27.5 -12.5t25.5 10.5zM725 1417
q15 -15 14 -33.5t-16 -33.5q-14 -14 -28 -20t-38.5 -11t-40.5 -10q-85 -26 -127 -68q-4 -4 -8 -4q-8 8 11.5 56t48.5 77q21 21 43.5 36.5t47.5 25.5t49.5 6.5t43.5 -21.5zM1393 1405v-43h-574v43h574zM406 1241h-9q-32 3 -67.5 -2.5t-56 -12t-44.5 -7.5t-32 12
q-11 9 -11 22.5t11 22.5q20 20 61 22q36 4 73 -9t56 -27l19 -15q4 -4 0 -6zM449 1204q0 -3 -5 -8q-40 -40 -67 -127q-5 -16 -10 -40t-11 -38t-20 -28q-15 -15 -34 -16t-34 14q-18 19 -21.5 43.5t6.5 49.5t25.5 47.5t36.5 43.5q29 29 77.5 48t56.5 11zM274 864h43v-573h-43
v573z" />
    <glyph glyph-name="BorderTopRight" horiz-adv-x="1443" 
d="M1382 1624q9 -7 9 -19.5t-9 -19.5q-8 -7 -19 -7t-20 7q-7 7 -7 19t7 20q9 8 20 8t19 -8zM1249 1491q-11 11 -11 26t11 25t26 10t25 -10t10 -25t-10 -26t-25 -11t-26 11zM1001 1278v8q3 32 -2.5 68t-12 56.5t-7.5 44.5t12 32q9 11 22.5 11t22.5 -11q21 -21 23 -62
q4 -36 -9 -73t-28 -56l-14 -18q-5 -5 -7 0zM1130 1372q-15 17 -15 40t15 40q17 15 40 15t40 -15q16 -18 16.5 -41t-16.5 -39q-16 -17 -39 -16.5t-41 16.5zM1143 1384q12 -12 27.5 -12t27.5 12t12 28t-12 28q-10 11 -25.5 10.5t-27.5 -12.5t-12.5 -28t10.5 -26zM965 1235
q-5 0 -9 4q-42 42 -127 68q-16 5 -40 10t-38 11t-28 20q-15 15 -16 33.5t14 33.5q19 18 43.5 21.5t49.5 -6.5t47.5 -25.5t43.5 -36.5q29 -29 48.5 -77t11.5 -56zM625 1409v-43h-574v43h574zM1249 1229q-8 -13 -32 -12t-44.5 7.5t-56 12t-67.5 2.5h-9q-5 3 2 6q7 7 20 16.5
t51.5 24t74.5 10.5q41 -2 61 -22q11 -9 11 -22.5t-11 -22.5zM1178 958q-15 -15 -34 -13.5t-34 16.5q-14 14 -20 28t-11 38t-10 40q-26 85 -68 127q-4 4 -4 8q8 8 56 -11t77 -48q21 -21 36.5 -43.5t25.5 -48t7 -50t-21 -43.5zM1165 291h-43v573h43v-573z" />
    <glyph glyph-name="BorderBottomLeft" horiz-adv-x="1443" 
d="M279 1341h43v-573h-43v573zM266 674q15 15 34 14t34 -16q14 -14 20 -28t11 -38.5t10 -40.5q27 -87 67 -127q4 -4 4 -8q-8 -8 -56 11t-77 48q-28 28 -46 59t-22.5 66t21.5 60zM195 403q8 13 32 12t44.5 -7.5t56 -12t67.5 -2.5h8q5 -3 -2 -6q-7 -7 -20 -16.5t-51 -24
t-74 -10.5q-41 2 -61 22q-11 9 -11 22.5t11 22.5zM479 397q4 0 8 -4q40 -40 127 -67q16 -5 40.5 -10t38.5 -11t28 -20q15 -15 16 -34t-14 -34q-19 -18 -43.5 -21.5t-49.5 6.5t-47.5 25.5t-43.5 36.5q-29 29 -48.5 77t-11.5 56zM442 354v-8q-3 -32 2.5 -68t12.5 -56.5
t8 -44.5t-12 -32q-9 -11 -22.5 -11t-22.5 11q-21 21 -23 62q-4 36 9 73t28 56l14 18q4 4 6 0zM313 260q15 -17 15 -40t-15 -40q-17 -15 -40 -15t-40 15q-16 18 -16.5 41t16.5 39q16 17 39 16.5t41 -16.5zM819 223v43h574v-43h-574zM301 248q-12 12 -27.5 12t-27.5 -12
t-12 -27.5t12 -27.5q10 -11 25.5 -10.5t27.5 12.5t12.5 27.5t-10.5 25.5zM195 141q11 -11 11 -26t-11 -25t-26 -10t-26 10t-11 25t11 26t26 11t26 -11zM61 8q-9 7 -9 19.5t9 19.5q7 7 18.5 7t20.5 -7q8 -7 8 -19t-8 -20q-9 -8 -20.5 -8t-18.5 8z" />
    <glyph glyph-name="BorderBottomRight" horiz-adv-x="1443" 
d="M1169 768h-43v573h43v-573zM995 428q0 4 4 8q42 42 68 127q5 16 10 40.5t11 38.5t20 28q15 15 34 16t34 -14q18 -19 21 -43.5t-7 -50t-25.5 -48t-36.5 -43.5q-29 -29 -77 -48t-56 -11zM1038 391h9q32 -3 67.5 2.5t56 12t44.5 7.5t32 -12q11 -9 11 -22.5t-11 -22.5
q-20 -20 -61 -22q-36 -4 -73 9t-56 27l-19 15q-4 4 0 6zM719 215q-15 15 -14 34t16 34q14 14 28 20t38 11t40 10q87 27 127 67q4 4 9 4q8 -8 -11.5 -56t-48.5 -77q-21 -21 -43.5 -36.5t-47.5 -25.5t-49.5 -6.5t-43.5 21.5zM989 143q-13 8 -12 32t7.5 44.5t12 56.5t2.5 68v8
q3 6 7 -2q7 -7 16.5 -20t24 -51t10.5 -74q-2 -41 -23 -62q-9 -11 -22.5 -11t-22.5 11zM1133 262q17 15 39.5 15t39.5 -15q15 -17 15 -40t-15 -40q-18 -16 -40.5 -16.5t-38.5 16.5q-17 16 -16.5 39t16.5 41zM51 227v43h574v-43h-574zM1145 250q-12 -12 -12 -27.5t12 -27.5
t27.5 -12t27.5 12q11 10 10.5 25.5t-12.5 27.5t-27.5 12.5t-25.5 -10.5zM1251 143q11 11 26 11t26 -11t11 -26t-11 -25t-26 -10t-26 10t-11 25t11 26zM1384 10q-8 -9 -19 -9t-19 9q-8 8 -8 19t8 20q8 7 19 7t19 -7q8 -9 8 -20t-8 -19z" />
    <glyph glyph-name="BorderDotsTopRight" horiz-adv-x="3450" 
d="M3389 1622q11 -10 11 -25.5t-11 -27.5q-10 -9 -25.5 -8.5t-27.5 10.5q-9 11 -9 25.5t9 23.5q12 12 27.5 12.5t25.5 -10.5zM3213 1446q-15 15 -16 34t14 33q13 13 34 13t34 -13q15 -13 15 -33.5t-15 -35.5q-14 -13 -33 -12.5t-33 14.5zM2884 1163v11q5 43 -2.5 90.5
t-16.5 74.5t-10.5 58.5t14.5 42.5q13 14 31.5 14t30.5 -14q23 -19 28 -82q5 -47 -11 -95.5t-35 -72.5l-19 -25q-6 -6 -10 -2zM3056 1290q-22 22 -22 51.5t22 51.5t51 22t51 -22q23 -22 23.5 -52.5t-21.5 -52.5t-52 -21t-52 23zM3070 1305q17 -15 38 -15t36 15t15 35.5
t-15 37.5q-13 14 -34 13.5t-38 -15.5q-15 -17 -15.5 -37.5t13.5 -33.5zM2834 1108q-2 -3 -10 4q-27 26 -76 51t-90 39q-21 6 -54.5 12.5t-51.5 14t-37 26.5q-20 20 -21 45.5t19 45.5q25 24 57 28.5t65.5 -9.5t63 -34.5t58.5 -48.5q37 -37 63 -100.5t14 -73.5zM313 1300
q0 20 14.5 34t34.5 14t34 -14t14 -34t-14 -34.5t-34 -14.5t-34.5 14.5t-14.5 34.5zM492 1341h1927v-84h-1927v84zM170 1300q0 15 11 26t26 11q17 0 28 -11t11 -26q0 -17 -11 -27.5t-28 -10.5q-15 0 -26 10.5t-11 27.5zM51 1300q0 11 8.5 20t20.5 9t20.5 -9t8.5 -20
q0 -12 -8.5 -21t-20.5 -9t-20.5 9t-8.5 21zM3213 1098q-12 -16 -43.5 -14.5t-59 10t-74.5 16t-89 2.5h-12q-4 2 2 8q4 3 10 8.5t26.5 18.5t42 22.5t52.5 15.5t61 3q56 -5 84 -29q12 -12 12 -30.5t-12 -30.5zM3117 741q-20 -20 -45 -19t-45 21q-19 19 -26.5 37t-14 51.5
t-12.5 53.5q-36 114 -90 168q-9 6 -5 10q11 11 74.5 -15t100.5 -63q28 -28 49 -58t34.5 -63.5t9 -65.5t-29.5 -57zM3037 643h84v-1927h-84v1927zM3031 -1413q0 20 13.5 33.5t33.5 13.5t34.5 -13.5t14.5 -33.5t-14.5 -34.5t-34.5 -14.5t-33.5 14.5t-13.5 34.5zM3041 -1569
q0 17 11 28t26 11q17 0 28 -11t11 -28q0 -15 -11 -26t-28 -11q-15 0 -26 11t-11 26zM3049 -1696q0 12 9 20.5t20 8.5q12 0 21.5 -8.5t9.5 -20.5t-9.5 -20t-21.5 -8q-11 0 -20 8t-9 20z" />
    <glyph glyph-name="BorderDotsBottomLeft" horiz-adv-x="3450" 
d="M401 2918q0 -12 -8.5 -20t-19.5 -8q-12 0 -21.5 8t-9.5 20t9.5 20.5t21.5 8.5q11 0 19.5 -8.5t8.5 -20.5zM410 2791q0 -17 -11 -27.5t-26 -10.5q-17 0 -28 10.5t-11 27.5q0 15 11 26t28 11q15 0 26 -11t11 -26zM420 2636q0 -20 -13.5 -33.5t-33.5 -13.5t-34.5 13.5
t-14.5 33.5t14.5 34.5t34.5 14.5t33.5 -14.5t13.5 -34.5zM414 580h-84v1927h84v-1927zM334 481q20 20 45 19t45 -21q19 -19 26.5 -37t14 -51t12.5 -53q36 -114 90 -168q8 -6 4 -10q-11 -11 -74 15t-100 63q-28 28 -49 58t-34.5 63t-9 65t29.5 57zM238 125q12 16 43.5 14.5
t59 -10t74.5 -16t89 -2.5h12q5 -2 -2 -9q-4 -3 -10 -8.5t-26.5 -18.5t-42 -22t-52.5 -15t-61 -3q-57 5 -84 28q-12 12 -12 31t12 31zM616 115q0 4 8 -1l3 -3q27 -26 76 -52t90 -39q21 -6 54.5 -12.5t51.5 -14t37 -26.5q20 -20 21 -45t-19 -45q-25 -24 -57 -28.5t-65.5 9.5
t-63 34.5t-58.5 48.5q-37 37 -63.5 100.5t-14.5 73.5zM567 59v-10q-5 -43 2.5 -90.5t16.5 -74.5t10.5 -58.5t-14.5 -42.5q-14 -13 -32 -13t-30 13q-23 19 -28 82q-5 47 11 95t35 72l19 25q6 6 10 2zM3138 -78q0 -20 -14.5 -33.5t-35.5 -13.5q-20 0 -33.5 13.5t-13.5 33.5
t13.5 34.5t33.5 14.5t35 -14.5t15 -34.5zM2959 -119h-1927v84h1927v-84zM3281 -78q0 -15 -11 -26t-26 -11q-17 0 -28 11t-11 26q0 17 11 28t28 11q15 0 26 -11t11 -28zM395 -68q22 -22 22 -51t-22 -51t-51 -22t-51 22q-23 22 -23.5 52t21.5 52t52 21t52 -23zM3400 -78
q0 -11 -8.5 -19.5t-20.5 -8.5t-20.5 8.5t-8.5 19.5q0 12 8.5 21.5t20.5 9.5t20.5 -9.5t8.5 -21.5zM381 -82q-17 15 -38 15t-36 -15t-15 -36t15 -38q13 -14 34 -13.5t38 15.5q15 17 15.5 38t-13.5 34zM238 -223q15 -15 16 -34.5t-14 -33.5q-14 -13 -34 -13t-34 13
q-15 13 -15 34t15 36q14 13 33 12.5t33 -14.5zM61 -399q-11 11 -11 26t11 27q10 9 26 8.5t28 -10.5q9 -10 9 -25t-9 -24q-12 -12 -28 -12.5t-26 10.5z" />
    <glyph glyph-name="BorderDotsBottomRigth" horiz-adv-x="3450" 
d="M3049 2918q0 12 9 20.5t20 8.5q12 0 21.5 -8.5t9.5 -20.5t-9.5 -20t-21.5 -8q-11 0 -20 8t-9 20zM3041 2791q0 15 11 26t26 11q17 0 28 -11t11 -26q0 -17 -11 -27.5t-28 -10.5q-15 0 -26 10.5t-11 27.5zM3031 2636q0 20 13.5 34.5t33.5 14.5t34.5 -14.5t14.5 -34.5
t-14.5 -33.5t-34.5 -13.5t-33.5 13.5t-13.5 33.5zM3037 580v1927h84v-1927h-84zM3117 481q25 -25 29.5 -57t-9 -65t-34.5 -63t-49 -58q-37 -37 -100.5 -63t-74.5 -15q-4 4 5 10q54 54 90 168q6 20 12.5 53t14 51t26.5 37q20 20 45 21t45 -19zM3213 125q12 -12 12 -31
t-12 -31q-27 -23 -84 -28q-47 -5 -95 11.5t-72 35.5l-25 20q-7 7 -2 9h12q42 -5 89 2.5t74.5 16t59 10t43.5 -14.5zM2834 115q12 -10 -14 -73.5t-63 -100.5q-29 -28 -58.5 -48.5t-63 -34.5t-65.5 -9.5t-57 28.5q-20 20 -19 45t21 45q19 19 37 26.5t51.5 14t54.5 12.5
q41 13 90 39t76 52q8 8 10 4zM2884 59q4 4 10 -2q3 -4 8 -10t18 -26.5t22 -42t14.5 -52.5t2.5 -61q-5 -63 -28 -82q-12 -13 -30.5 -13t-31.5 13q-16 11 -14.5 42.5t10.5 58.5t16.5 74.5t2.5 90.5v10zM313 -78q0 20 14.5 34.5t34.5 14.5t34 -14.5t14 -34.5t-14 -33.5
t-34 -13.5t-34.5 13.5t-14.5 33.5zM492 -119v84h1927v-84h-1927zM170 -78q0 17 11 28t26 11q17 0 28 -11t11 -28q0 -15 -11 -26t-28 -11q-15 0 -26 11t-11 26zM3056 -68q22 22 52 23t52 -21t21.5 -52t-23.5 -52q-22 -22 -51 -22t-51 22t-22 51t22 51zM51 -78q0 12 8.5 21.5
t20.5 9.5t20.5 -9.5t8.5 -21.5q0 -11 -8.5 -19.5t-20.5 -8.5t-20.5 8.5t-8.5 19.5zM3070 -82q-14 -13 -13.5 -34t15.5 -38q17 -15 38 -15.5t34 13.5q15 17 15 38t-15 36t-36 15t-38 -15zM3213 -223q14 14 33 14.5t33 -12.5q15 -15 15 -36t-15 -34q-13 -13 -34 -13t-34 13
q-15 14 -14 33.5t16 34.5zM3389 -399q-10 -11 -25.5 -10.5t-27.5 12.5q-9 9 -9 24t9 25q12 10 27.5 10.5t25.5 -8.5q11 -12 11 -27t-11 -26z" />
    </font>
</defs>
</svg>
