<?xml version="1.0" standalone="no"?>
<!DOCTYPE svg PUBLIC "-//W3C//DTD SVG 1.1//EN" "http://www.w3.org/Graphics/SVG/1.1/DTD/svg11.dtd" >
<svg xmlns="http://www.w3.org/2000/svg" xmlns:xlink="http://www.w3.org/1999/xlink" version="1.1">
<metadata>
Created by FontForge 20170731 at Fri Nov 17 13:43:36 2023
 By Aleksey,,,
Leksen Design
</metadata>
<defs>
<font id="NordiquePro-Light" horiz-adv-x="1167" >
  <font-face 
    font-family="Nordique Pro Light"
    font-weight="300"
    font-stretch="normal"
    units-per-em="2048"
    panose-1="0 0 4 0 0 0 0 0 0 0"
    ascent="1638"
    descent="-410"
    x-height="1024"
    cap-height="1434"
    bbox="-410 -664 5622 1890"
    underline-thickness="102"
    underline-position="-307"
    unicode-range="U+0020-25CA"
  />
<missing-glyph horiz-adv-x="1024" 
d="M840 1638v-2048h-650v2048h650zM682 1501h-338v-67h133v-76h-135v-68h340v68h-135v76h135v67zM547 1237h-205v-213h340v70h-135v143zM477 1167v-73h-67v73h67zM682 969h-340v-68h135v-76h-135v-67h205v143h135v68zM682 846h-68v-135h-272v-70h340v205zM682 596h-205v-115
h70v47h67v-96h-204v164h-68v-231h340v231zM682 242h-340v-232h340v232zM614 174v-96h-204v96h204zM682 -37h-340v-67h143l-143 -97v-67h340v67h-209l143 97h66v67z" />
    <glyph glyph-name="f_f.liga" unicode="ff" horiz-adv-x="1044" 
d="M195 0v969h-154v55h158q17 183 110.5 287.5t243.5 128.5v-56q-121 -26 -198.5 -117t-94.5 -243h430q17 183 110.5 287.5t243.5 128.5v-56q-121 -26 -198 -117t-94 -243h292v-55h-296v-969h-62v969h-430v-969h-61z" />
    <glyph glyph-name="f_f_i.liga" unicode="ffi" horiz-adv-x="1314" 
d="M195 0v969h-154v55h158q17 183 110.5 287.5t243.5 128.5v-56q-121 -26 -198.5 -117t-94.5 -243h430q17 183 110.5 287.5t243.5 128.5v-56q-121 -26 -198 -117t-94 -243h292v-55h-296v-969h-62v969h-430v-969h-61zM1208 1237q-20 0 -32.5 12.5t-12.5 32.5t12.5 32.5
t32.5 12.5t32.5 -12.5t12.5 -32.5t-12.5 -32.5t-32.5 -12.5zM1178 0v1024h61v-1024h-61z" />
    <glyph glyph-name="f_f_l.liga" unicode="ffl" horiz-adv-x="1300" 
d="M195 0v969h-154v55h158q17 183 110.5 287.5t243.5 128.5v-56q-121 -26 -198.5 -117t-94.5 -243h430q17 183 110.5 287.5t243.5 128.5v-56q-121 -26 -198 -117t-94 -243h292v-55h-296v-969h-62v969h-430v-969h-61zM1178 0v1434h61v-1434h-61z" />
    <glyph glyph-name="f_i.liga" unicode="fi" horiz-adv-x="823" 
d="M195 0v969h-154v55h158q17 183 110.5 287.5t243.5 128.5v-56q-121 -26 -198.5 -117t-94.5 -243h293v-55h-297v-969h-61zM717 1237q-20 0 -32.5 12.5t-12.5 32.5t12.5 32.5t32.5 12.5t32.5 -12.5t12.5 -32.5t-12.5 -32.5t-32.5 -12.5zM686 0v1024h62v-1024h-62z" />
    <glyph glyph-name="f_l.liga" unicode="fl" horiz-adv-x="778" 
d="M195 0v969h-154v55h158q17 183 110.5 287.5t243.5 128.5v-56q-121 -26 -198.5 -117t-94.5 -243h293v-55h-297v-969h-61zM717 0h-62v1434h62v-1434z" />
    <glyph glyph-name=".notdef" horiz-adv-x="1024" 
d="M840 1638v-2048h-650v2048h650zM682 1501h-338v-67h133v-76h-135v-68h340v68h-135v76h135v67zM547 1237h-205v-213h340v70h-135v143zM477 1167v-73h-67v73h67zM682 969h-340v-68h135v-76h-135v-67h205v143h135v68zM682 846h-68v-135h-272v-70h340v205zM682 596h-205v-115
h70v47h67v-96h-204v164h-68v-231h340v231zM682 242h-340v-232h340v232zM614 174v-96h-204v96h204zM682 -37h-340v-67h143l-143 -97v-67h340v67h-209l143 97h66v67z" />
    <glyph glyph-name=".null" horiz-adv-x="0" 
 />
    <glyph glyph-name="nonmarkingreturn" horiz-adv-x="682" 
 />
    <glyph glyph-name="space" unicode=" " horiz-adv-x="501" 
 />
    <glyph glyph-name="exclam" unicode="!" horiz-adv-x="200" 
d="M131 369h-61v1065h61v-1065zM70 213v-213h61v213h-61z" />
    <glyph glyph-name="quotedbl" unicode="&#x22;" horiz-adv-x="325" 
d="M51 1434h62v-258h-62v258zM213 1434h61v-258h-61v258z" />
    <glyph glyph-name="numbersign" unicode="#" horiz-adv-x="1206" 
d="M1143 891h-266l-74 -348h266l-12 -56h-264l-82 -393h-62l82 393h-348l-82 -393h-61l82 393h-271l15 56h266l74 348h-269l15 55h264l82 393h61l-82 -393h348l82 393h62l-82 -393h268zM741 543l74 348h-348l-74 -348h348z" />
    <glyph glyph-name="dollar" unicode="$" horiz-adv-x="925" 
d="M874 369q0 -167 -114 -274.5t-287 -110.5v-86h-61v88q-157 17 -259 123.5t-102 259.5h62q0 -132 82 -221.5t217 -106.5v721q-41 16 -69.5 28t-64 31t-60 37t-49.5 44t-39.5 54.5t-24 65.5t-9.5 80q0 134 91 231t225 115v88h61v-86q142 -6 243 -106.5t101 -241.5h-61
q0 121 -81 204t-202 89v-598q157 -59 223 -100q156 -98 175 -272q3 -27 3 -56zM158 1102q0 -58 19 -103t57 -78t78.5 -55t99.5 -45v572q-110 -15 -182 -96t-72 -195zM473 39q151 3 245.5 93.5t94.5 236.5q0 48 -10.5 89.5t-26 72t-43.5 58.5t-53.5 47t-64.5 39.5t-68 32.5
t-74 29v-698z" />
    <glyph glyph-name="percent" unicode="%" horiz-adv-x="1499" 
d="M340 668q-131 0 -210 108t-79 279t79 279t210 108q129 0 208 -108.5t79 -278.5t-79 -278.5t-208 -108.5zM223 0l989 1434h72l-989 -1434h-72zM340 723q97 0 161 94t64 238t-64 237.5t-161 93.5q-98 0 -162.5 -93.5t-64.5 -237.5q0 -145 64.5 -238.5t162.5 -93.5z
M1161 -10q-131 0 -210 108t-79 279t79 279t210 108q129 0 208 -108.5t79 -278.5t-79 -278.5t-208 -108.5zM1161 45q97 0 161 94t64 238t-64 238t-161 94q-98 0 -162.5 -93.5t-64.5 -238.5t64.5 -238.5t162.5 -93.5z" />
    <glyph glyph-name="ampersand" unicode="&#x26;" horiz-adv-x="1087" 
d="M537 -16q-133 0 -243.5 55t-176.5 157t-66 232q0 156 76 259t201 147l-56 69q-98 125 -98 227q0 142 106 231t257 89t255.5 -88.5t104.5 -231.5h-61q0 120 -86 192.5t-213 72.5t-214 -72.5t-87 -192.5q0 -91 83 -192l576 -727q66 95 66 217q0 136 -70 231h72
q59 -97 59 -231q0 -149 -88 -264l102 -131l-47 -33l-94 121q-140 -137 -358 -137zM537 39q200 0 321 127l-496 622q-118 -40 -183.5 -134.5t-65.5 -225.5q0 -174 121.5 -281.5t302.5 -107.5z" />
    <glyph glyph-name="quotesingle" unicode="'" horiz-adv-x="163" 
d="M51 1434h62v-258h-62v258z" />
    <glyph glyph-name="parenleft" unicode="(" horiz-adv-x="425" 
d="M426 1509q-131 -154 -222 -419t-91 -539q0 -276 91 -541.5t222 -419.5h-70q-130 151 -217.5 416.5t-87.5 544.5q0 277 87.5 542t217.5 416h70z" />
    <glyph glyph-name="parenright" unicode=")" horiz-adv-x="425" 
d="M0 1509h70q130 -151 217.5 -416t87.5 -542q0 -279 -87.5 -544.5t-217.5 -416.5h-70q131 154 222 419.5t91 541.5q0 274 -91 539t-222 419z" />
    <glyph glyph-name="asterisk" unicode="*" horiz-adv-x="458" 
d="M231 1208l82 -108l47 37l-79 106l127 43l-21 55l-127 -43v136h-61v-136l-129 41l-19 -57l129 -41l-78 -108l50 -35z" />
    <glyph glyph-name="plus" unicode="+" horiz-adv-x="940" 
d="M889 565v-55h-387v-391h-62v391h-389v55h389v391h62v-391h387z" />
    <glyph glyph-name="comma" unicode="," horiz-adv-x="188" 
d="M23 -125q114 20 114 186v111h-61v-111q0 -105 -53 -131v-55z" />
    <glyph glyph-name="hyphen" unicode="-" horiz-adv-x="659" 
d="M608 559v-55h-557v55h557z" />
    <glyph glyph-name="period" unicode="." horiz-adv-x="163" 
d="M51 213v-213h62v213h-62z" />
    <glyph glyph-name="slash" unicode="/" horiz-adv-x="731" 
d="M711 1434h-70l-621 -1434h70z" />
    <glyph glyph-name="zero" unicode="0" horiz-adv-x="1193" 
d="M598 1452q163 0 287.5 -94.5t191 -261t66.5 -379.5t-66.5 -379.5t-191 -261t-287.5 -94.5t-288 94.5t-192 261t-67 379.5t67 379.5t192 261t288 94.5zM598 1397q-216 0 -350.5 -188.5t-134.5 -491.5t134.5 -491.5t350.5 -188.5q215 0 349 189t134 491t-134 491t-349 189z
" />
    <glyph glyph-name="one" unicode="1" horiz-adv-x="391" 
d="M268 1434h62v-1434h-62v1307q-42 -44 -115.5 -70t-142.5 -31v54q50 5 103.5 23.5t101 59t53.5 91.5z" />
    <glyph glyph-name="two" unicode="2" horiz-adv-x="960" 
d="M51 0v55q0 84 27 157t73 127.5t105 103.5t125 90.5t131.5 81.5t124.5 83.5t105 90t73 106.5t27 129q0 153 -106.5 262t-258.5 109q-149 0 -256.5 -110.5t-107.5 -260.5h-62q0 177 124.5 301.5t301.5 124.5q176 0 301 -126t125 -300q0 -77 -27 -143.5t-72.5 -116
t-105 -94.5t-125 -85l-131 -80t-125 -86t-105 -97t-72.5 -119.5t-27 -147.5h796v-55h-858z" />
    <glyph glyph-name="three" unicode="3" horiz-adv-x="954" 
d="M477 -14q-181 0 -303.5 122t-122.5 304h62q0 -157 104 -264t260 -107t260.5 107t104.5 264q0 153 -106.5 261.5t-258.5 108.5h-20v56h20q112 0 192.5 82.5t80.5 195.5q0 119 -77.5 199t-195.5 80t-195 -80t-77 -199h-62q0 142 95.5 238t238.5 96t238.5 -96t95.5 -238
q0 -98 -55 -181t-142 -122q126 -45 207.5 -155.5t81.5 -245.5q0 -182 -122.5 -304t-303.5 -122z" />
    <glyph glyph-name="four" unicode="4" horiz-adv-x="1034" 
d="M1004 459v-56h-181v-403h-61v403h-721v56l721 975h61v-975h181zM115 459h647v876z" />
    <glyph glyph-name="five" unicode="5" horiz-adv-x="1159" 
d="M580 -16q-143 0 -265 70.5t-193 192t-71 265.5h62q0 -196 137.5 -334.5t331.5 -138.5q193 0 329 138t136 335q0 129 -60.5 237.5t-167.5 172t-237 63.5q-164 0 -291 -100h-62l154 549h610v-56h-565l-115 -409q118 71 267 71q144 0 265.5 -70.5t192 -192t70.5 -265.5
t-70.5 -265.5t-192 -192t-265.5 -70.5z" />
    <glyph glyph-name="six" unicode="6" horiz-adv-x="1159" 
d="M580 -16q-144 0 -265.5 69t-192.5 190.5t-71 268.5q0 110 43 231.5t115 230t161.5 203t187.5 161.5t187 96v-56q-158 -66 -290 -194.5t-230 -280.5q64 59 156 98t199 39q144 0 265.5 -70.5t192 -192t70.5 -265.5t-70.5 -265.5t-192 -192t-265.5 -70.5zM582 39
q193 0 329 138t136 335q0 129 -60.5 237.5t-167.5 172t-237 63.5q-196 0 -331.5 -137t-137.5 -334q0 -198 137 -336.5t332 -138.5z" />
    <glyph glyph-name="seven" unicode="7" horiz-adv-x="958" 
d="M20 1434h887v-56l-665 -1378h-70l666 1378h-818v56z" />
    <glyph glyph-name="eight" unicode="8" horiz-adv-x="991" 
d="M496 -16q-121 0 -223.5 59t-162 161t-59.5 224q0 144 82 258t213 160q-78 42 -125 117.5t-47 166.5q0 131 95 225.5t227 94.5t225.5 -94.5t93.5 -225.5q0 -91 -46 -166.5t-124 -115.5q132 -46 213.5 -160t81.5 -260q0 -186 -129 -315t-315 -129zM496 864q108 0 183 78
t75 188q0 108 -75 186.5t-183 78.5t-184 -78.5t-76 -186.5q0 -109 76 -187.5t184 -78.5zM496 39q162 0 272.5 113t110.5 276t-110.5 276t-272.5 113q-161 0 -272 -113t-111 -276t111 -276t272 -113z" />
    <glyph glyph-name="nine" unicode="9" horiz-adv-x="1159" 
d="M549 -16l297 465q-125 -72 -266 -72q-144 0 -266 70.5t-192.5 192t-70.5 265.5q0 108 42 206t112.5 168.5t168.5 112.5t206 42q218 0 373 -155t155 -374q0 -166 -98 -307l-392 -614h-69zM578 432q197 0 333 138t136 335q0 196 -137.5 334.5t-331.5 138.5
q-193 0 -329 -138t-136 -335q0 -129 60.5 -237.5t167.5 -172t237 -63.5z" />
    <glyph glyph-name="colon" unicode=":" horiz-adv-x="163" 
d="M51 979v-213h62v213h-62zM51 213v-213h62v213h-62z" />
    <glyph glyph-name="semicolon" unicode=";" horiz-adv-x="190" 
d="M68 983v-213h61v213h-61zM14 -125q115 21 115 186v111h-61v-111q0 -105 -54 -131v-55z" />
    <glyph glyph-name="less" unicode="&#x3c;" horiz-adv-x="837" 
d="M51 565l735 -401v67l-663 363l663 362v68l-735 -401v-58z" />
    <glyph glyph-name="equal" unicode="=" horiz-adv-x="837" 
d="M786 799v-56h-735v56h735zM786 506v-55h-735v55h735z" />
    <glyph glyph-name="greater" unicode="&#x3e;" horiz-adv-x="837" 
d="M786 565v58l-735 401v-68l664 -362l-664 -363v-67z" />
    <glyph glyph-name="question" unicode="?" horiz-adv-x="1079" 
d="M498 330q0 95 26 163.5t67 108t91 70t100.5 59t91.5 64t67 96t26 145.5q0 116 -59 198.5t-155 121.5t-218 39q-180 0 -306.5 -105t-126.5 -254h-61q0 112 66.5 207.5t180.5 151t247 55.5q101 0 190 -27t157 -78t107 -131t39 -178q0 -93 -25.5 -160t-66.5 -105t-90 -68
t-99 -58.5t-91.5 -65t-68 -99.5t-28.5 -150h-61zM496 0v172h61v-172h-61z" />
    <glyph glyph-name="at" unicode="@" horiz-adv-x="1556" 
d="M788 -16q-151 0 -287 57t-235 154.5t-157 233.5t-58 288t58 288t157 233.5t235 154.5t287 57q203 0 367 -91.5t257 -255t93 -366.5q0 -78 -19.5 -153.5t-58 -141.5t-104.5 -106.5t-149 -40.5q-46 0 -82.5 18t-57.5 48t-33 56t-18 54q-24 -35 -45 -59.5t-60 -56.5
t-94.5 -49t-124.5 -17q-148 0 -228.5 92.5t-80.5 234.5q0 68 21 140.5t65.5 142t105 124.5t148 88.5t187.5 33.5q80 0 145 -36.5t104 -84.5l21 61h61l-157 -524q-12 -49 -3.5 -95.5t43.5 -81t85 -34.5q69 0 122.5 34.5t84 91.5t46 123t15.5 138q0 186 -84.5 336.5
t-234.5 236t-337 85.5q-138 0 -263 -53.5t-215.5 -144t-143.5 -216t-53 -264.5t53 -264.5t143.5 -216t215.5 -144t263 -53.5q124 0 240 42.5t207 117.5h82q-102 -102 -238.5 -158.5t-290.5 -56.5zM659 344q70 0 132.5 28t105.5 71.5t71.5 90t41.5 91.5l100 333
q-43 62 -104 97t-129 35q-91 0 -169.5 -31t-131.5 -81t-91 -113t-55.5 -126.5t-17.5 -122.5q0 -128 64 -200t183 -72z" />
    <glyph glyph-name="A" unicode="A" horiz-adv-x="1306" 
d="M1239 0l-182 424h-807l-182 -424h-68l621 1434h61l625 -1434h-68zM272 479h760l-381 881z" />
    <glyph glyph-name="B" unicode="B" horiz-adv-x="1038" 
d="M676 782q140 -35 225.5 -137.5t85.5 -230.5q0 -183 -118 -298.5t-294 -115.5h-514v1434h418q187 0 292.5 -90.5t105.5 -249.5q0 -98 -58.5 -186t-142.5 -126zM479 1378h-356v-581h377q132 0 223.5 87t91.5 210q0 134 -88.5 209t-247.5 75zM573 55q150 0 251.5 99.5
t101.5 261.5q0 139 -99 232t-270 93h-434v-686h450z" />
    <glyph glyph-name="C" unicode="C" horiz-adv-x="1433" 
d="M788 -16q-151 0 -287 57t-235 154.5t-157 233.5t-58 288t58 288t157 233.5t235 154.5t287 57q181 0 336.5 -78.5t257.5 -214.5h-79q-94 109 -228 170.5t-287 61.5q-138 0 -263 -52.5t-215.5 -142t-143.5 -214t-53 -263.5t53 -263.5t143.5 -214t215.5 -142t263 -52.5
q154 0 286.5 60.5t228.5 168.5h77q-101 -135 -256 -212.5t-336 -77.5z" />
    <glyph glyph-name="D" unicode="D" horiz-adv-x="1269" 
d="M481 1434q152 0 288.5 -54.5t235.5 -149t156.5 -228t57.5 -285.5t-57.5 -285.5t-156.5 -228t-235.5 -149t-288.5 -54.5h-420v1434h420zM481 61q187 0 342 84.5t244.5 235.5t89.5 336t-89.5 335.5t-244.5 235t-342 84.5h-358v-1311h358z" />
    <glyph glyph-name="E" unicode="E" horiz-adv-x="956" 
d="M905 1378h-782v-600h704v-55h-704v-668h782v-55h-844v1434h844v-56z" />
    <glyph glyph-name="F" unicode="F" horiz-adv-x="956" 
d="M905 1378h-782v-600h704v-55h-704v-723h-62v1434h844v-56z" />
    <glyph glyph-name="G" unicode="G" horiz-adv-x="1570" 
d="M1520 623q-17 -135 -80.5 -253.5t-160 -203t-224 -133.5t-267.5 -49q-151 0 -287 57t-235 154.5t-157 233.5t-58 288t58 288t157 233.5t235 154.5t287 57q182 0 338.5 -79t257.5 -216h-79q-94 109 -228.5 171.5t-288.5 62.5q-138 0 -263 -52.5t-215.5 -142t-143.5 -214
t-53 -263.5t53 -263.5t143.5 -214t215.5 -142t263 -52.5q242 0 425 147t235 375h-508v56h580z" />
    <glyph glyph-name="H" unicode="H" horiz-adv-x="1187" 
d="M1065 1434h61v-1434h-61v723h-942v-723h-62v1434h62v-656h942v656z" />
    <glyph glyph-name="I" unicode="I" horiz-adv-x="184" 
d="M123 0h-62v1434h62v-1434z" />
    <glyph glyph-name="J" unicode="J" horiz-adv-x="573" 
d="M61 -16v55q164 0 277 119t113 286v990h61v-990q0 -197 -127.5 -328.5t-323.5 -131.5z" />
    <glyph glyph-name="K" unicode="K" horiz-adv-x="1050" 
d="M1040 0h-71l-635 805l-211 -211v-594h-62v1434h62v-766l760 766h80l-586 -586z" />
    <glyph glyph-name="L" unicode="L" horiz-adv-x="915" 
d="M123 55h741v-55h-803v1434h62v-1379z" />
    <glyph glyph-name="M" unicode="M" horiz-adv-x="1640" 
d="M1518 1434h61v-1434h-61v1303l-664 -1303h-68l-663 1303v-1303h-62v1434h62l698 -1368z" />
    <glyph glyph-name="N" unicode="N" horiz-adv-x="1310" 
d="M1188 1434h61v-1434h-61l-1065 1339v-1339h-62v1434h62l1065 -1340v1340z" />
    <glyph glyph-name="O" unicode="O" horiz-adv-x="1576" 
d="M788 -16q-151 0 -287 57t-235 154.5t-157 233.5t-58 288t58 288t157 233.5t235 154.5t287 57q152 0 288.5 -57t235 -154.5t156.5 -233.5t58 -288t-58 -288t-156.5 -233.5t-235 -154.5t-288.5 -57zM788 45q140 0 265 52.5t215.5 142t143 214t52.5 263.5t-52.5 263.5
t-143 214t-215.5 142t-265 52.5q-138 0 -263 -52.5t-215.5 -142t-143.5 -214t-53 -263.5t53 -263.5t143.5 -214t215.5 -142t263 -52.5z" />
    <glyph glyph-name="P" unicode="P" horiz-adv-x="1036" 
d="M61 0v1434h463q192 0 326.5 -128t134.5 -317q0 -126 -62 -232.5t-168 -168.5t-231 -62h-401v-526h-62zM123 582h401q167 0 283.5 119t116.5 288q0 166 -116 277.5t-284 111.5h-401v-796z" />
    <glyph glyph-name="Q" unicode="Q" horiz-adv-x="1576" 
d="M1399 -18l-156 153q-201 -151 -455 -151q-151 0 -287 57t-235 154.5t-157 233.5t-58 288t58 288t157 233.5t235 154.5t287 57q152 0 288.5 -57t235 -154.5t156.5 -233.5t58 -288q0 -161 -63.5 -302t-176.5 -243l152 -152zM788 45q231 0 412 135l-162 160l39 41l166 -166
q104 94 162.5 224t58.5 278q0 139 -52.5 263.5t-143 214t-215.5 142t-265 52.5q-138 0 -263 -52.5t-215.5 -142t-143.5 -214t-53 -263.5t53 -263.5t143.5 -214t215.5 -142t263 -52.5z" />
    <glyph glyph-name="R" unicode="R" horiz-adv-x="1036" 
d="M61 0v1434h463q192 0 326.5 -128t134.5 -317q0 -183 -123.5 -316t-302.5 -145l393 -528h-78l-389 526h-362v-526h-62zM123 582h401q167 0 283.5 119t116.5 288q0 166 -116 277.5t-284 111.5h-401v-796z" />
    <glyph glyph-name="S" unicode="S" horiz-adv-x="925" 
d="M874 369q0 83 -24.5 147.5t-66 106t-95 73.5t-113 54.5t-119 44t-113 47t-95 58.5t-66 84t-24.5 118q0 125 86 209t213 84t213 -84t86 -209h61q0 147 -105.5 247.5t-254.5 100.5t-255 -100.5t-106 -247.5q0 -75 24.5 -132.5t66 -94.5t95.5 -65.5t113.5 -50t118.5 -43.5
t113 -51t95.5 -66.5t66 -95.5t24.5 -134q0 -149 -97.5 -239.5t-252.5 -90.5q-154 0 -252 92t-98 238h-62q0 -166 118 -275.5t294 -109.5q177 0 294 107.5t117 277.5z" />
    <glyph glyph-name="T" unicode="T" horiz-adv-x="1044" 
d="M1024 1434v-56h-471v-1378h-61v1378h-472v56h1004z" />
    <glyph glyph-name="U" unicode="U" horiz-adv-x="1138" 
d="M61 1434h62v-949q0 -109 40 -196.5t106 -140.5t146 -81t165 -28q67 0 130 17t119 53t97.5 87.5t65.5 126t24 162.5v949h61v-949q0 -125 -40.5 -223t-110 -157.5t-157.5 -90t-189 -30.5t-192 30.5t-165 90t-118 158t-44 222.5v949z" />
    <glyph glyph-name="V" unicode="V" horiz-adv-x="1306" 
d="M1307 1434h-68l-588 -1358l-583 1358h-68l621 -1434h61z" />
    <glyph glyph-name="W" unicode="W" horiz-adv-x="2097" 
d="M2030 1434h67l-522 -1434h-62l-464 1333l-469 -1333h-62l-518 1434h68l481 -1354l465 1354h69l461 -1354z" />
    <glyph glyph-name="X" unicode="X" horiz-adv-x="1232" 
d="M1233 0h-76l-541 688l-540 -688h-76l580 735l-549 699h75l510 -650l512 650h76l-549 -699z" />
    <glyph glyph-name="Y" unicode="Y" horiz-adv-x="1189" 
d="M1116 1434h74l-565 -777v-657h-62v657l-563 777h74l520 -713z" />
    <glyph glyph-name="Z" unicode="Z" horiz-adv-x="1191" 
d="M1130 1434v-56l-995 -1323h993v-55h-1067v55l994 1323h-951v56h1026z" />
    <glyph glyph-name="bracketleft" unicode="[" horiz-adv-x="356" 
d="M336 1454h-193v-1808h193v-56h-254v1919h254v-55z" />
    <glyph glyph-name="backslash" unicode="\" horiz-adv-x="788" 
d="M47 1434l621 -1434h69l-620 1434h-70z" />
    <glyph glyph-name="bracketright" unicode="]" horiz-adv-x="356" 
d="M41 1454v55h254v-1919h-254v56h192v1808h-192z" />
    <glyph glyph-name="asciicircum" unicode="^" horiz-adv-x="962" 
d="M510 1434h-57l-402 -736h68l362 664l363 -664h67z" />
    <glyph glyph-name="underscore" unicode="_" horiz-adv-x="819" 
d="M819 -123v-55h-819v55h819z" />
    <glyph glyph-name="grave" unicode="`" horiz-adv-x="307" 
d="M121 1782l135 -203h-70l-135 203h70z" />
    <glyph glyph-name="a" unicode="a" 
d="M580 -16q-143 0 -265 70.5t-193 192t-71 265.5t71 265.5t193 192t265 70.5t264 -70.5t191.5 -192t70.5 -265.5v-512h-62v276q-66 -131 -190 -211.5t-274 -80.5zM582 39q193 0 329 138t136 335q0 129 -60.5 237.5t-167.5 172t-237 63.5q-197 0 -333 -138t-136 -335
q0 -196 137.5 -334.5t331.5 -138.5z" />
    <glyph glyph-name="b" unicode="b" 
d="M61 512v922h62v-686q66 131 190.5 211.5t274.5 80.5q143 0 264.5 -70.5t192.5 -192t71 -265.5t-71 -265.5t-192.5 -192t-264.5 -70.5t-264.5 70.5t-192 192t-70.5 265.5zM586 985q-193 0 -329 -138t-136 -335q0 -129 60.5 -237.5t167.5 -172t237 -63.5q197 0 333 138
t136 335q0 196 -137.5 334.5t-331.5 138.5z" />
    <glyph glyph-name="c" unicode="c" horiz-adv-x="1081" 
d="M580 -16q-143 0 -265 70.5t-193 192t-71 265.5t71 265.5t193 192t265 70.5q137 0 254.5 -65t187.5 -174h-70q-64 86 -160 135t-210 49q-197 0 -333 -138t-136 -335q0 -196 137.5 -334.5t331.5 -138.5q115 0 213.5 52t162.5 142h72q-72 -115 -191 -182t-259 -67z" />
    <glyph glyph-name="d" unicode="d" 
d="M1106 512q0 -144 -70.5 -265.5t-191.5 -192t-264 -70.5t-265 70.5t-193 192t-71 265.5t71 265.5t193 192t265 70.5q150 0 274 -80.5t190 -211.5v686h62v-922zM582 985q-194 0 -331.5 -138.5t-137.5 -334.5q0 -197 136 -335t333 -138q130 0 237 63.5t167.5 172t60.5 237.5
q0 197 -136 335t-329 138z" />
    <glyph glyph-name="e" unicode="e" horiz-adv-x="1136" 
d="M51 510q0 222 150 376t370 154q217 0 362.5 -147t151.5 -371v-18h-972q0 -194 131 -329.5t327 -135.5q113 0 218.5 51t173.5 141h77q-74 -115 -201 -181t-268 -66q-145 0 -264.5 70.5t-187.5 191t-68 264.5zM113 561h907q-21 181 -144.5 302.5t-304.5 121.5
q-180 0 -308.5 -123.5t-149.5 -300.5z" />
    <glyph glyph-name="f" unicode="f" horiz-adv-x="573" 
d="M195 0v969h-154v55h158q17 183 110.5 287.5t243.5 128.5v-56q-121 -26 -198.5 -117t-94.5 -243h293v-55h-297v-969h-61z" />
    <glyph glyph-name="g" unicode="g" horiz-adv-x="1169" 
d="M580 -410q-159 0 -290.5 87.5t-193.5 230.5h66q59 -119 171.5 -190.5t248.5 -71.5q193 0 329 138t136 335v145q-67 -128 -192 -204t-275 -76q-143 0 -265 70.5t-193 192t-71 265.5t71 265.5t193 192t265 70.5q144 0 265.5 -70.5t192 -192t70.5 -265.5v-393
q0 -144 -70.5 -266t-192 -192.5t-265.5 -70.5zM582 39q193 0 329 138t136 335q0 129 -60.5 237.5t-167.5 172t-237 63.5q-197 0 -333 -138t-136 -335q0 -196 137.5 -334.5t331.5 -138.5z" />
    <glyph glyph-name="h" unicode="h" horiz-adv-x="1024" 
d="M512 1040q100 0 181.5 -30.5t142 -90.5t94 -157t33.5 -223v-539h-62v539q0 219 -107.5 332.5t-281.5 113.5q-173 0 -281 -111.5t-108 -320.5v-553h-62v1434h62v-621q63 125 157.5 176t231.5 51z" />
    <glyph glyph-name="i" unicode="i" horiz-adv-x="212" 
d="M106 1237q-20 0 -32.5 12.5t-12.5 32.5t12.5 32.5t32.5 12.5t33 -12.5t13 -32.5t-13 -32.5t-33 -12.5zM76 0v1024h61v-1024h-61z" />
    <glyph glyph-name="j" unicode="j" horiz-adv-x="217" 
d="M111 1237q-20 0 -32.5 12.5t-12.5 32.5t12.5 32.5t32.5 12.5t32.5 -12.5t12.5 -32.5t-12.5 -32.5t-32.5 -12.5zM-174 -410v60q119 38 186.5 145.5t67.5 280.5v948h61v-948q0 -205 -83.5 -327t-231.5 -159z" />
    <glyph glyph-name="k" unicode="k" horiz-adv-x="798" 
d="M61 0v1434h62v-910l524 500h80l-401 -385l473 -639h-70l-448 598l-158 -145v-453h-62z" />
    <glyph glyph-name="l" unicode="l" horiz-adv-x="184" 
d="M123 0h-62v1434h62v-1434z" />
    <glyph glyph-name="m" unicode="m" horiz-adv-x="1699" 
d="M1229 1040q189 0 299 -125.5t110 -375.5v-539h-61v539q0 219 -95.5 332.5t-252.5 113.5t-252.5 -113.5t-95.5 -332.5v-539h-62v539q0 219 -95.5 332.5t-252.5 113.5t-252.5 -113.5t-95.5 -332.5v-539h-62v539q0 249 110.5 375t299.5 126q141 0 242 -75t137 -222
q36 147 137 222t242 75z" />
    <glyph glyph-name="n" unicode="n" horiz-adv-x="1024" 
d="M963 0v539q0 126 -33.5 223t-94 157t-142 90.5t-181.5 30.5t-181.5 -30.5t-142 -90.5t-94 -157t-33.5 -223v-539h62v539q0 219 107.5 332.5t281.5 113.5t281.5 -113.5t107.5 -332.5v-539h62z" />
    <glyph glyph-name="o" unicode="o" horiz-adv-x="1159" 
d="M580 1040q144 0 265.5 -70.5t192 -192t70.5 -265.5t-70.5 -265.5t-192 -192t-265.5 -70.5q-143 0 -265 70.5t-193 192t-71 265.5t71 265.5t193 192t265 70.5zM582 985q-197 0 -333 -138t-136 -335q0 -196 137.5 -334.5t331.5 -138.5q193 0 329 138t136 335
q0 129 -60.5 237.5t-167.5 172t-237 63.5z" />
    <glyph glyph-name="p" unicode="p" 
d="M61 512q0 144 70.5 265.5t192 192t264.5 70.5t264.5 -70.5t192.5 -192t71 -265.5t-71 -265.5t-192.5 -192t-264.5 -70.5q-150 0 -274.5 80.5t-190.5 211.5v-686h-62v922zM586 39q194 0 331.5 138.5t137.5 334.5q0 197 -136 335t-333 138q-130 0 -237 -63.5t-167.5 -172
t-60.5 -237.5q0 -197 136 -335t329 -138z" />
    <glyph glyph-name="q" unicode="q" 
d="M1106 512v-922h-62v686q-66 -131 -190 -211.5t-274 -80.5q-143 0 -265 70.5t-193 192t-71 265.5t71 265.5t193 192t265 70.5t264 -70.5t191.5 -192t70.5 -265.5zM582 39q193 0 329 138t136 335q0 129 -60.5 237.5t-167.5 172t-237 63.5q-197 0 -333 -138t-136 -335
q0 -196 137.5 -334.5t331.5 -138.5z" />
    <glyph glyph-name="r" unicode="r" horiz-adv-x="573" 
d="M61 0v528q0 250 110.5 376t299.5 126q27 0 41 -2v-55q-14 2 -41 2q-157 0 -252.5 -114t-95.5 -333v-528h-62z" />
    <glyph glyph-name="s" unicode="s" horiz-adv-x="716" 
d="M358 -16q-131 0 -224 76t-93 198h61q0 -102 73 -160.5t183 -58.5q122 0 189.5 57t66.5 162q-1 57 -20.5 99.5t-51 68t-72.5 44.5t-86 33l-90 28t-85.5 34.5t-72 48t-50 73t-18.5 106.5q0 113 81.5 180t202.5 67t203 -67t82 -180h-62q0 91 -63 141.5t-160 50.5t-160 -50.5
t-63 -141.5q0 -58 23.5 -100t61.5 -64t86.5 -41t99.5 -31t100 -35t88 -52.5t63 -83.5t25 -128q1 -125 -87 -199.5t-231 -74.5z" />
    <glyph glyph-name="t" unicode="t" horiz-adv-x="563" 
d="M543 969h-297v-480q0 -188 80 -298.5t217 -139.5v-57q-165 27 -261.5 150t-97.5 339v486h-153v55h153v281h62v-281h297v-55z" />
    <glyph glyph-name="u" unicode="u" horiz-adv-x="1024" 
d="M963 1024h-62v-539q0 -219 -107.5 -332.5t-281.5 -113.5t-281.5 113.5t-107.5 332.5v539h-62v-539q0 -126 33.5 -223t94 -157t142 -90.5t181.5 -30.5t181.5 30.5t142 90.5t94 157t33.5 223v539z" />
    <glyph glyph-name="v" unicode="v" horiz-adv-x="1026" 
d="M481 0l-481 1024h66l446 -952l449 952h65l-483 -1024h-62z" />
    <glyph glyph-name="w" unicode="w" horiz-adv-x="1536" 
d="M1473 1024h63l-379 -1024h-61l-328 942l-328 -942h-61l-379 1024h63l347 -944l325 944h66l325 -944z" />
    <glyph glyph-name="x" unicode="x" horiz-adv-x="905" 
d="M905 0h-76l-374 481l-377 -481h-78l416 530l-385 494h73l349 -446l350 446h74l-385 -494z" />
    <glyph glyph-name="y" unicode="y" horiz-adv-x="1024" 
d="M512 -410q-146 0 -256.5 76.5t-161.5 204.5h70q47 -102 139.5 -163.5t208.5 -61.5q164 0 276.5 119t112.5 286v160q-56 -111 -157 -169t-232 -58q-100 0 -181.5 30.5t-142 90.5t-94 157t-33.5 223v539h62v-539q0 -219 107.5 -332.5t281.5 -113.5q109 0 195.5 43.5
t140 137.5t53.5 226v578h62v-973q0 -198 -127.5 -329.5t-323.5 -131.5z" />
    <glyph glyph-name="z" unicode="z" horiz-adv-x="903" 
d="M117 55h745v-55h-821v55l725 914h-682v55h760v-55z" />
    <glyph glyph-name="braceleft" unicode="{" horiz-adv-x="509" 
d="M61 520q109 -3 109 -217q0 -54 -5 -146t-5 -118q0 -96 24.5 -174.5t60.5 -126.5t81.5 -83t82.5 -50t70 -21v56q-5 1 -14.5 4t-36.5 15.5t-51 29.5t-54 49t-51.5 71.5t-36 99.5t-14.5 130q0 78 5 154.5t5 111.5q0 84 -23.5 151.5t-74.5 90.5q51 23 74.5 90t23.5 151
q0 35 -5 112t-5 155q0 70 14 130t37 100t50.5 71.5t55 49t50.5 29t37 15.5l14 4v55q-33 -6 -69.5 -21t-83 -49.5t-82 -82.5t-60 -126.5t-24.5 -174.5q0 -26 5 -118t5 -146q0 -213 -109 -216v-55z" />
    <glyph glyph-name="bar" unicode="|" horiz-adv-x="184" 
d="M123 -246h-62v1782h62v-1782z" />
    <glyph glyph-name="braceright" unicode="}" horiz-adv-x="509" 
d="M449 520v55q-109 3 -109 216q0 54 5 146t5 118q0 96 -24.5 174.5t-60 126.5t-82 82.5t-83 49.5t-69.5 21v-55q5 -1 14.5 -4t36.5 -15.5t51 -29.5t54 -49t51.5 -71.5t36 -99.5t14.5 -130q0 -78 -5 -155t-5 -112q0 -84 23.5 -151t74.5 -90q-51 -23 -74.5 -90.5
t-23.5 -151.5q0 -35 5 -111.5t5 -154.5q0 -70 -14 -130t-37 -100t-50.5 -71.5t-55 -49t-50.5 -29t-37 -15.5l-14 -4v-56q33 6 70 21t82.5 50t81.5 83t60.5 126.5t24.5 174.5q0 26 -5 118t-5 146q0 214 109 217z" />
    <glyph glyph-name="asciitilde" unicode="~" horiz-adv-x="722" 
d="M500 467q-43 0 -82.5 17.5t-64.5 38t-60 38t-70 17.5q-41 0 -68.5 -21.5t-56.5 -62.5l-47 34q42 54 82 82.5t90 28.5q43 0 84.5 -17.5t69 -38t61 -38t62.5 -17.5q41 0 68.5 21.5t56.5 62.5l47 -34q-42 -54 -82 -82.5t-90 -28.5z" />
    <glyph glyph-name="exclamdown" unicode="&#xa1;" horiz-adv-x="200" 
d="M70 1221h61v213h-61v-213zM131 1065v-1065h-61v1065h61z" />
    <glyph glyph-name="cent" unicode="&#xa2;" horiz-adv-x="1060" 
d="M958 233h72q-72 -115 -191 -182t-259 -67v-109h-62v113q-198 23 -332.5 172.5t-134.5 351.5t134.5 351.5t332.5 172.5v115h62v-111q137 0 254.5 -65t187.5 -174h-70q-64 86 -160 135t-210 49h-2v-946h2q115 0 213.5 52t162.5 142zM113 512q0 -118 53.5 -220.5t146.5 -168
t205 -80.5v938q-175 -23 -290 -155.5t-115 -313.5z" />
    <glyph glyph-name="sterling" unicode="&#xa3;" horiz-adv-x="1003" 
d="M694 -16q-57 0 -171 28.5t-173 28.5q-138 0 -241 -41v55q129 221 129 459q0 65 -21 133h-166v55h146q-6 14 -31 66t-34.5 78t-20.5 76t-11 102q0 174 125 300t301 126q177 0 301.5 -124.5t124.5 -301.5h-61q0 150 -108 260.5t-257 110.5q-152 0 -258 -109t-106 -262
q0 -65 14 -115.5t47 -119t41 -87.5h367v-55h-346q16 -59 16 -129q0 -223 -117 -438q61 16 166 16q59 0 173 -28.5t171 -28.5q113 0 240 67v-61q-125 -61 -240 -61z" />
    <glyph glyph-name="currency" unicode="&#xa4;" horiz-adv-x="1159" 
d="M1108 717q0 -110 -42.5 -207.5t-117.5 -171.5l92 -92l-41 -39l-94 94q-141 -113 -325 -113q-183 0 -328 113l-94 -94l-39 41l92 92q-75 72 -117.5 170.5t-42.5 206.5q0 111 43 209t119 170l-94 94l39 41l96 -96q141 110 326 110t323 -110l96 96l41 -39l-94 -94
q76 -73 119 -171.5t43 -209.5zM113 717q0 -196 137.5 -334.5t331.5 -138.5q193 0 329 138t136 335q0 129 -60.5 237.5t-167.5 172t-237 63.5q-197 0 -333 -138t-136 -335z" />
    <glyph glyph-name="yen" unicode="&#xa5;" horiz-adv-x="1189" 
d="M1190 1434l-541 -742h316v-55h-340v-133h340v-55h-340v-449h-62v449h-336v55h336v133h-336v55h312l-539 742h74l520 -713l522 713h74z" />
    <glyph glyph-name="brokenbar" unicode="&#xa6;" horiz-adv-x="184" 
d="M123 842h-62v471h62v-471zM123 -41h-62v471h62v-471z" />
    <glyph glyph-name="section" unicode="&#xa7;" horiz-adv-x="1226" 
d="M621 -410q-114 0 -210 36t-163.5 113t-79.5 183l61 -4q9 -85 71 -148.5t146 -93.5t172 -30q97 0 180 36t136 108t53 167q0 65 -29.5 116.5t-62.5 81.5t-111.5 60t-118.5 40.5t-141 34.5q-95 22 -143 35t-122.5 42.5t-111.5 61.5t-66.5 85t-29.5 121q0 101 53 179.5
t142 119.5q-68 75 -68 180q0 104 56 181.5t146 116t198 38.5q176 0 282.5 -77t128.5 -187l-67 4q-29 97 -126 151t-216 54q-88 0 -164.5 -32.5t-126 -98t-49.5 -150.5q0 -67 32 -117t86 -81t124.5 -54t148 -41t155 -37t148 -47.5t124.5 -67t86 -100.5t32 -143
q0 -101 -47 -178t-128 -123q48 -70 48 -170q0 -111 -61 -196t-157.5 -127t-209.5 -42zM963 170q71 40 112 105.5t41 150.5q0 84 -44 145t-112 93.5t-159.5 60.5t-178.5 46t-177.5 49.5t-147.5 70.5q-83 -34 -133.5 -100t-50.5 -154q0 -62 27.5 -109t73 -76.5t108 -53.5
t130.5 -38.5t142 -33t139.5 -36.5t127.5 -49t102 -71z" />
    <glyph glyph-name="dieresis" unicode="&#xa8;" horiz-adv-x="446" 
d="M100 1550q-22 0 -35.5 13.5t-13.5 35.5t13.5 36t35.5 14t36 -14t14 -36t-14 -35.5t-36 -13.5zM346 1550q-22 0 -35.5 13.5t-13.5 35.5t13.5 36t35.5 14t35.5 -14t13.5 -36t-13.5 -35.5t-35.5 -13.5z" />
    <glyph glyph-name="copyright" unicode="&#xa9;" horiz-adv-x="1576" 
d="M788 -16q-151 0 -287 57t-235 154.5t-157 233.5t-58 288t58 288t157 233.5t235 154.5t287 57q152 0 288.5 -57t235 -154.5t156.5 -233.5t58 -288t-58 -288t-156.5 -233.5t-235 -154.5t-288.5 -57zM788 39q186 0 341.5 90.5t245 246t89.5 341.5t-89.5 341.5t-245 246
t-341.5 90.5q-138 0 -263 -53.5t-215.5 -144t-143.5 -216t-53 -264.5t53 -264.5t143.5 -216t215.5 -144t263 -53.5zM784 276q-195 0 -317.5 122.5t-122.5 318.5q0 192 128.5 316t311.5 124q103 0 192.5 -45t151.5 -121h-69q-108 111 -273 111t-274 -106.5t-109 -278.5
q0 -175 105 -280t278 -105q94 0 158.5 30t122.5 97h74q-67 -93 -153 -138t-204 -45z" />
    <glyph glyph-name="ordfeminine" unicode="&#xaa;" horiz-adv-x="899" 
d="M838 1057v-385h-62v180q-54 -85 -142 -136.5t-190 -51.5q-163 0 -278 115t-115 278t115 278t278 115t278.5 -115t115.5 -278zM444 717q141 0 238.5 99.5t97.5 240.5t-97.5 240.5t-238.5 99.5t-238 -99.5t-97 -240.5t97 -240.5t238 -99.5z" />
    <glyph glyph-name="guillemotleft" unicode="&#xab;" horiz-adv-x="806" 
d="M387 225l-336 299v66l336 299v-80l-285 -252l285 -252v-80zM756 225l-336 299v66l336 299v-80l-285 -252l285 -252v-80z" />
    <glyph glyph-name="logicalnot" unicode="&#xac;" horiz-adv-x="1105" 
d="M51 645h1004v-420h-62v365h-942v55z" />
    <glyph glyph-name="registered" unicode="&#xae;" horiz-adv-x="1576" 
d="M788 -16q-151 0 -287 57t-235 154.5t-157 233.5t-58 288t58 288t157 233.5t235 154.5t287 57q152 0 288.5 -57t235 -154.5t156.5 -233.5t58 -288t-58 -288t-156.5 -233.5t-235 -154.5t-288.5 -57zM788 39q186 0 341.5 90.5t245 246t89.5 341.5t-89.5 341.5t-245 246
t-341.5 90.5q-138 0 -263 -53.5t-215.5 -144t-143.5 -216t-53 -264.5t53 -264.5t143.5 -216t215.5 -144t263 -53.5zM518 242v950h281q160 0 251 -74t91 -223q0 -131 -72.5 -204t-202.5 -87l238 -362h-70l-235 358h-221v-358h-60zM578 655h221q136 0 208 57t72 183
q0 242 -280 242h-221v-482z" />
    <glyph glyph-name="macron" unicode="&#xaf;" horiz-adv-x="598" 
d="M547 1612v-56h-496v56h496z" />
    <glyph glyph-name="degree" unicode="&#xb0;" horiz-adv-x="583" 
d="M293 952q-100 0 -171 71t-71 171q0 98 71 169t171 71q98 0 168.5 -71t70.5 -169q0 -100 -70.5 -171t-168.5 -71zM293 1006q76 0 128 55t52 133q0 77 -52 131.5t-128 54.5t-129 -54.5t-53 -131.5t53 -132.5t129 -55.5z" />
    <glyph glyph-name="plusminus" unicode="&#xb1;" horiz-adv-x="940" 
d="M889 635v-55h-387v-392h-62v392h-389v55h389v391h62v-391h387zM51 0v55h838v-55h-838z" />
    <glyph glyph-name="acute" unicode="&#xb4;" horiz-adv-x="307" 
d="M186 1761h70l-135 -202h-70z" />
    <glyph glyph-name="paragraph" unicode="&#xb6;" horiz-adv-x="1003" 
d="M901 1434v-1434h-61v1378h-185v-1378h-61v350q-147 0 -272 73t-198 198t-73 272q0 146 73 270.5t198 197.5t272 73h307z" />
    <glyph glyph-name="periodcentered" unicode="&#xb7;" horiz-adv-x="163" 
d="M51 772v-213h62v213h-62z" />
    <glyph glyph-name="cedilla" unicode="&#xb8;" horiz-adv-x="397" 
d="M199 -362q-62 0 -105 43t-43 104h51q0 -41 28 -68.5t69 -27.5t68.5 27.5t27.5 68.5t-27.5 68.5t-68.5 27.5q-29 0 -49 -14l-52 39l45 94h56l-37 -72q24 4 37 4q61 0 104 -43t43 -104t-43 -104t-104 -43z" />
    <glyph glyph-name="ordmasculine" unicode="&#xba;" horiz-adv-x="888" 
d="M444 664q-163 0 -278 115t-115 278t115 278t278 115t278.5 -115t115.5 -278t-115.5 -278t-278.5 -115zM444 717q141 0 238.5 99.5t97.5 240.5t-97.5 240.5t-238.5 99.5t-238 -99.5t-97 -240.5t97 -240.5t238 -99.5z" />
    <glyph glyph-name="guillemotright" unicode="&#xbb;" horiz-adv-x="806" 
d="M51 225v80l285 252l-285 252v80l336 -299v-66zM420 225v80l285 252l-285 252v80l336 -299v-66z" />
    <glyph glyph-name="onequarter" unicode="&#xbc;" horiz-adv-x="1193" 
d="M1112 1434h-72l-989 -1434h72zM297 1434h61v-766h-61v639q-45 -48 -119 -70l-18 53q126 54 137 144zM1090 260v-55h-80v-205h-62v205h-358v55l358 506h62v-506h80zM664 260h284v399z" />
    <glyph glyph-name="onehalf" unicode="&#xbd;" horiz-adv-x="1277" 
d="M1112 1434h-72l-989 -1434h72zM297 1434h61v-766h-61v639q-45 -48 -119 -70l-18 53q126 54 137 144zM764 -2v57q0 42 22 83.5t57.5 76.5t78 70.5t85.5 70t78.5 67.5t57.5 71t22 75q0 69 -49 109.5t-123 40.5q-69 0 -123.5 -43t-54.5 -107h-61q0 94 69 149.5t170 55.5
q104 0 169 -54t65 -151q0 -52 -30 -103t-74.5 -90t-96.5 -81.5t-96.5 -78t-74.5 -78.5t-30 -83h402v-57h-463z" />
    <glyph glyph-name="threequarters" unicode="&#xbe;" horiz-adv-x="1288" 
d="M303 668q-108 0 -180 61.5t-72 163.5h60q0 -78 54.5 -125t137.5 -47q82 0 137.5 47t55.5 125q0 79 -56.5 132.5t-136.5 53.5h-10v49h10q59 0 101 39t42 97q0 57 -41 91t-102 34q-62 0 -102.5 -34t-40.5 -91h-60q0 84 57 131t146 47t146 -47t57 -131q0 -61 -33 -103.5
t-72 -54.5q69 -26 111.5 -81.5t42.5 -131.5q0 -102 -72.5 -163.5t-179.5 -61.5zM1237 1434h-72l-989 -1434h72zM1194 260v-55h-80v-205h-61v205h-359v55l359 506h61v-506h80zM768 260h285v399z" />
    <glyph glyph-name="questiondown" unicode="&#xbf;" horiz-adv-x="1079" 
d="M584 1434v-172h-62v172h62zM582 1104q0 -95 -26 -163.5t-67 -108.5t-91 -70t-100.5 -59t-91.5 -64t-67 -96t-26 -146q0 -116 59 -198.5t155 -121t218 -38.5q180 0 306 104.5t126 253.5h61q0 -171 -145 -292t-348 -121q-102 0 -190.5 27t-156.5 78t-107.5 130.5
t-39.5 177.5q0 73 16 130t42.5 94t61 66t73 51t77.5 43.5t74 49t62.5 62.5t44.5 88.5t18 122.5h62z" />
    <glyph glyph-name="Agrave" unicode="&#xc0;" horiz-adv-x="1306" 
d="M563 1761l135 -202h-69l-135 202h69zM1239 0l-182 424h-807l-182 -424h-68l621 1434h61l625 -1434h-68zM272 479h760l-381 881z" />
    <glyph glyph-name="Aacute" unicode="&#xc1;" horiz-adv-x="1306" 
d="M758 1761h69l-135 -202h-69zM1239 0l-182 424h-807l-182 -424h-68l621 1434h61l625 -1434h-68zM272 479h760l-381 881z" />
    <glyph glyph-name="Acircumflex" unicode="&#xc2;" horiz-adv-x="1306" 
d="M414 1556l211 189h61l209 -189h-74l-166 146l-168 -146h-73zM1239 0l-182 424h-807l-182 -424h-68l621 1434h61l625 -1434h-68zM272 479h760l-381 881z" />
    <glyph glyph-name="Atilde" unicode="&#xc3;" horiz-adv-x="1306" 
d="M403 1552q0 72 42.5 109t103.5 37q39 0 69 -15t46 -33t41 -33t55 -15q35 0 63.5 27t28.5 71h53q0 -72 -42.5 -110t-102.5 -38q-38 0 -69.5 15t-49 33.5t-42.5 33.5t-52 15q-35 0 -62.5 -26t-27.5 -71h-54zM1239 0l-182 424h-807l-182 -424h-68l621 1434h61l625 -1434h-68
zM272 479h760l-381 881z" />
    <glyph glyph-name="Adieresis" unicode="&#xc4;" horiz-adv-x="1306" 
d="M528 1550q-22 0 -35.5 13.5t-13.5 35.5t13.5 36t35.5 14t36 -14t14 -36t-14 -35.5t-36 -13.5zM774 1550q-22 0 -35.5 13.5t-13.5 35.5t13.5 36t35.5 14t35.5 -14t13.5 -36t-13.5 -35.5t-35.5 -13.5zM1239 0l-182 424h-807l-182 -424h-68l621 1434h61l625 -1434h-68z
M272 479h760l-381 881z" />
    <glyph glyph-name="Aring" unicode="&#xc5;" horiz-adv-x="1306" 
d="M653 1784q47 0 81 -34t34 -81t-34 -81t-81 -34t-80.5 34t-33.5 81t33.5 81t80.5 34zM653 1743q-32 0 -52.5 -21t-20.5 -53t20.5 -53t52.5 -21t53 21t21 53t-21 53t-53 21zM1239 0l-182 424h-807l-182 -424h-68l621 1434h61l625 -1434h-68zM272 479h760l-381 881z" />
    <glyph glyph-name="AE" unicode="&#xc6;" horiz-adv-x="1884" 
d="M1833 1378h-823v-600h745v-55h-745v-668h823v-55h-885v424h-608l-270 -424h-70l913 1434h920v-56zM375 479h573v899z" />
    <glyph glyph-name="Ccedilla" unicode="&#xc7;" horiz-adv-x="1433" 
d="M788 45q154 0 286.5 60.5t228.5 168.5h77q-96 -129 -243 -206t-318 -84l-37 -70q24 4 37 4q62 0 105 -43t43 -104t-43.5 -104.5t-104.5 -43.5t-104 43t-43 105h51q0 -41 27.5 -69t68.5 -28t68.5 28t27.5 69t-27.5 68.5t-68.5 27.5q-29 0 -49 -14l-51 38l45 93
q-196 7 -359.5 105t-258.5 264t-95 364q0 152 58 288t157 233.5t235 154.5t287 57q181 0 336.5 -78.5t257.5 -214.5h-79q-94 109 -228 170.5t-287 61.5q-138 0 -263 -52.5t-215.5 -142t-143.5 -214t-53 -263.5t53 -263.5t143.5 -214t215.5 -142t263 -52.5z" />
    <glyph glyph-name="Egrave" unicode="&#xc8;" horiz-adv-x="956" 
d="M451 1761l135 -202h-70l-135 202h70zM905 1378h-782v-600h704v-55h-704v-668h782v-55h-844v1434h844v-56z" />
    <glyph glyph-name="Eacute" unicode="&#xc9;" horiz-adv-x="956" 
d="M516 1761h70l-135 -202h-70zM905 1378h-782v-600h704v-55h-704v-668h782v-55h-844v1434h844v-56z" />
    <glyph glyph-name="Ecircumflex" unicode="&#xca;" horiz-adv-x="956" 
d="M244 1559l211 188h61l209 -188h-74l-166 145l-168 -145h-73zM905 1378h-782v-600h704v-55h-704v-668h782v-55h-844v1434h844v-56z" />
    <glyph glyph-name="Edieresis" unicode="&#xcb;" horiz-adv-x="956" 
d="M360 1550q-22 0 -35.5 13.5t-13.5 35.5t13.5 36t35.5 14t36 -14t14 -36t-14 -35.5t-36 -13.5zM606 1550q-22 0 -35.5 13.5t-13.5 35.5t13.5 36t35.5 14t35.5 -14t13.5 -36t-13.5 -35.5t-35.5 -13.5zM905 1378h-782v-600h704v-55h-704v-668h782v-55h-844v1434h844v-56z
" />
    <glyph glyph-name="Igrave" unicode="&#xcc;" horiz-adv-x="184" 
d="M-4 1782l135 -203h-70l-135 203h70zM123 0h-62v1434h62v-1434z" />
    <glyph glyph-name="Iacute" unicode="&#xcd;" horiz-adv-x="184" 
d="M186 1761h70l-135 -202h-70zM123 0h-62v1434h62v-1434z" />
    <glyph glyph-name="Icircumflex" unicode="&#xce;" horiz-adv-x="184" 
d="M-147 1495l210 188h62l209 -188h-74l-166 145l-168 -145h-73zM123 0h-62v1434h62v-1434z" />
    <glyph glyph-name="Idieresis" unicode="&#xcf;" horiz-adv-x="184" 
d="M-31 1550q-22 0 -35.5 13.5t-13.5 35.5t13.5 36t35.5 14t35.5 -14t13.5 -36t-13.5 -35.5t-35.5 -13.5zM215 1550q-22 0 -35.5 13.5t-13.5 35.5t13.5 36t35.5 14t35.5 -14t13.5 -36t-13.5 -35.5t-35.5 -13.5zM123 0h-62v1434h62v-1434z" />
    <glyph glyph-name="Eth" unicode="&#xd0;" horiz-adv-x="1269" 
d="M481 1434q152 0 288.5 -54.5t235.5 -149t156.5 -228t57.5 -285.5t-57.5 -285.5t-156.5 -228t-235.5 -149t-288.5 -54.5h-420v621h-61v55h61v758h420zM481 61q187 0 342 84.5t244.5 235.5t89.5 336t-89.5 335.5t-244.5 235t-342 84.5h-358v-696h434v-55h-434v-560h358z
" />
    <glyph glyph-name="Ntilde" unicode="&#xd1;" horiz-adv-x="1310" 
d="M446 1552q0 72 42.5 109t103.5 37q39 0 69 -15t46 -33t41 -33t55 -15q35 0 63.5 27t28.5 71h53q0 -72 -42.5 -110t-102.5 -38q-38 0 -69.5 15t-49 33.5t-42.5 33.5t-52 15q-35 0 -62.5 -26t-27.5 -71h-54zM1188 1434h61v-1434h-61l-1065 1339v-1339h-62v1434h62
l1065 -1340v1340z" />
    <glyph glyph-name="Ograve" unicode="&#xd2;" horiz-adv-x="1576" 
d="M735 1761l135 -202h-69l-135 202h69zM788 -16q-151 0 -287 57t-235 154.5t-157 233.5t-58 288t58 288t157 233.5t235 154.5t287 57q152 0 288.5 -57t235 -154.5t156.5 -233.5t58 -288t-58 -288t-156.5 -233.5t-235 -154.5t-288.5 -57zM788 45q140 0 265 52.5t215.5 142
t143 214t52.5 263.5t-52.5 263.5t-143 214t-215.5 142t-265 52.5q-138 0 -263 -52.5t-215.5 -142t-143.5 -214t-53 -263.5t53 -263.5t143.5 -214t215.5 -142t263 -52.5z" />
    <glyph glyph-name="Oacute" unicode="&#xd3;" horiz-adv-x="1576" 
d="M897 1761h70l-136 -202h-69zM788 -16q-151 0 -287 57t-235 154.5t-157 233.5t-58 288t58 288t157 233.5t235 154.5t287 57q152 0 288.5 -57t235 -154.5t156.5 -233.5t58 -288t-58 -288t-156.5 -233.5t-235 -154.5t-288.5 -57zM788 45q140 0 265 52.5t215.5 142t143 214
t52.5 263.5t-52.5 263.5t-143 214t-215.5 142t-265 52.5q-138 0 -263 -52.5t-215.5 -142t-143.5 -214t-53 -263.5t53 -263.5t143.5 -214t215.5 -142t263 -52.5z" />
    <glyph glyph-name="Ocircumflex" unicode="&#xd4;" horiz-adv-x="1576" 
d="M549 1550l211 189h61l209 -189h-74l-165 146l-168 -146h-74zM788 -16q-151 0 -287 57t-235 154.5t-157 233.5t-58 288t58 288t157 233.5t235 154.5t287 57q152 0 288.5 -57t235 -154.5t156.5 -233.5t58 -288t-58 -288t-156.5 -233.5t-235 -154.5t-288.5 -57zM788 45
q140 0 265 52.5t215.5 142t143 214t52.5 263.5t-52.5 263.5t-143 214t-215.5 142t-265 52.5q-138 0 -263 -52.5t-215.5 -142t-143.5 -214t-53 -263.5t53 -263.5t143.5 -214t215.5 -142t263 -52.5z" />
    <glyph glyph-name="Otilde" unicode="&#xd5;" horiz-adv-x="1576" 
d="M539 1554q0 72 42 109t103 37q39 0 69 -15t46 -33t41 -33t55 -15q35 0 63.5 27t28.5 71h53q0 -72 -42.5 -110t-102.5 -38q-38 0 -69.5 15t-49 33.5t-42.5 33.5t-52 15q-35 0 -62.5 -26t-27.5 -71h-53zM788 -16q-151 0 -287 57t-235 154.5t-157 233.5t-58 288t58 288
t157 233.5t235 154.5t287 57q152 0 288.5 -57t235 -154.5t156.5 -233.5t58 -288t-58 -288t-156.5 -233.5t-235 -154.5t-288.5 -57zM788 45q140 0 265 52.5t215.5 142t143 214t52.5 263.5t-52.5 263.5t-143 214t-215.5 142t-265 52.5q-138 0 -263 -52.5t-215.5 -142
t-143.5 -214t-53 -263.5t53 -263.5t143.5 -214t215.5 -142t263 -52.5z" />
    <glyph glyph-name="Odieresis" unicode="&#xd6;" horiz-adv-x="1576" 
d="M666 1550q-22 0 -36 13.5t-14 35.5t14 36t36 14t35.5 -14t13.5 -36t-13.5 -35.5t-35.5 -13.5zM911 1550q-22 0 -35.5 13.5t-13.5 35.5t13.5 36t35.5 14t36 -14t14 -36t-14 -35.5t-36 -13.5zM788 -16q-151 0 -287 57t-235 154.5t-157 233.5t-58 288t58 288t157 233.5
t235 154.5t287 57q152 0 288.5 -57t235 -154.5t156.5 -233.5t58 -288t-58 -288t-156.5 -233.5t-235 -154.5t-288.5 -57zM788 45q140 0 265 52.5t215.5 142t143 214t52.5 263.5t-52.5 263.5t-143 214t-215.5 142t-265 52.5q-138 0 -263 -52.5t-215.5 -142t-143.5 -214
t-53 -263.5t53 -263.5t143.5 -214t215.5 -142t263 -52.5z" />
    <glyph glyph-name="multiply" unicode="&#xd7;" horiz-adv-x="780" 
d="M92 121l-41 37l303 358l-303 363l43 34l297 -354l297 354l41 -36l-303 -359l303 -362l-43 -35l-297 354z" />
    <glyph glyph-name="Oslash" unicode="&#xd8;" horiz-adv-x="1576" 
d="M1319 1231q98 -100 152.5 -232t54.5 -282q0 -152 -58 -288t-156.5 -233.5t-235 -154.5t-288.5 -57q-283 0 -487 182l-92 -96l-41 39l90 96q-98 101 -152.5 232.5t-54.5 279.5q0 152 58 288t157 233.5t235 154.5t287 57q139 0 264 -46.5t224 -131.5l90 94l43 -41zM113 717
q0 -136 49.5 -256.5t138.5 -212.5l932 979q-193 162 -445 162q-138 0 -263 -52.5t-215.5 -142t-143.5 -214t-53 -263.5zM788 45q140 0 265 52.5t215.5 142t143 214t52.5 263.5q0 136 -49.5 256.5t-138.5 212.5l-934 -977q191 -164 446 -164z" />
    <glyph glyph-name="Ugrave" unicode="&#xd9;" horiz-adv-x="1138" 
d="M561 1761l135 -202h-69l-135 202h69zM61 1434h62v-949q0 -109 40 -196.5t106 -140.5t146 -81t165 -28q67 0 130 17t119 53t97.5 87.5t65.5 126t24 162.5v949h61v-949q0 -125 -40.5 -223t-110 -157.5t-157.5 -90t-189 -30.5t-192 30.5t-165 90t-118 158t-44 222.5v949z
" />
    <glyph glyph-name="Uacute" unicode="&#xda;" horiz-adv-x="1138" 
d="M664 1761h69l-135 -202h-70zM61 1434h62v-949q0 -109 40 -196.5t106 -140.5t146 -81t165 -28q67 0 130 17t119 53t97.5 87.5t65.5 126t24 162.5v949h61v-949q0 -125 -40.5 -223t-110 -157.5t-157.5 -90t-189 -30.5t-192 30.5t-165 90t-118 158t-44 222.5v949z" />
    <glyph glyph-name="Ucircumflex" unicode="&#xdb;" horiz-adv-x="1138" 
d="M330 1556l211 189h61l209 -189h-74l-166 146l-168 -146h-73zM61 1434h62v-949q0 -109 40 -196.5t106 -140.5t146 -81t165 -28q67 0 130 17t119 53t97.5 87.5t65.5 126t24 162.5v949h61v-949q0 -125 -40.5 -223t-110 -157.5t-157.5 -90t-189 -30.5t-192 30.5t-165 90
t-118 158t-44 222.5v949z" />
    <glyph glyph-name="Udieresis" unicode="&#xdc;" horiz-adv-x="1138" 
d="M446 1550q-22 0 -35.5 13.5t-13.5 35.5t13.5 36t35.5 14t36 -14t14 -36t-14 -35.5t-36 -13.5zM692 1550q-22 0 -35.5 13.5t-13.5 35.5t13.5 36t35.5 14t35.5 -14t13.5 -36t-13.5 -35.5t-35.5 -13.5zM61 1434h62v-949q0 -109 40 -196.5t106 -140.5t146 -81t165 -28
q67 0 130 17t119 53t97.5 87.5t65.5 126t24 162.5v949h61v-949q0 -125 -40.5 -223t-110 -157.5t-157.5 -90t-189 -30.5t-192 30.5t-165 90t-118 158t-44 222.5v949z" />
    <glyph glyph-name="Yacute" unicode="&#xdd;" horiz-adv-x="1189" 
d="M664 1761h69l-135 -202h-70zM1116 1434h74l-565 -777v-657h-62v657l-563 777h74l520 -713z" />
    <glyph glyph-name="Thorn" unicode="&#xde;" horiz-adv-x="1036" 
d="M524 1231q192 0 326.5 -128t134.5 -317q0 -126 -62 -232.5t-168 -168t-231 -61.5h-401v-324h-62v1434h62v-203h401zM524 379q167 0 283.5 119t116.5 288q0 166 -116 278t-284 112h-401v-797h401z" />
    <glyph glyph-name="germandbls" unicode="&#xdf;" horiz-adv-x="1038" 
d="M61 0v1094q0 159 105.5 249.5t292.5 90.5q204 0 311 -89t107 -251q0 -98 -58.5 -186t-142.5 -126q140 -35 225.5 -137.5t85.5 -230.5q0 -183 -118 -298.5t-294 -115.5h-237v55h235q150 0 251.5 99.5t101.5 261.5q0 139 -99 232t-270 93h-219v56h162q132 0 223.5 87
t91.5 210q0 139 -90.5 211.5t-265.5 72.5q-159 0 -247.5 -75t-88.5 -209v-1094h-62z" />
    <glyph glyph-name="agrave" unicode="&#xe0;" 
d="M530 1352l136 -203h-70l-135 203h69zM580 -16q-143 0 -265 70.5t-193 192t-71 265.5t71 265.5t193 192t265 70.5t264 -70.5t191.5 -192t70.5 -265.5v-512h-62v276q-66 -131 -190 -211.5t-274 -80.5zM582 39q193 0 329 138t136 335q0 129 -60.5 237.5t-167.5 172
t-237 63.5q-197 0 -333 -138t-136 -335q0 -196 137.5 -334.5t331.5 -138.5z" />
    <glyph glyph-name="aacute" unicode="&#xe1;" 
d="M664 1352h69l-135 -203h-70zM580 -16q-143 0 -265 70.5t-193 192t-71 265.5t71 265.5t193 192t265 70.5t264 -70.5t191.5 -192t70.5 -265.5v-512h-62v276q-66 -131 -190 -211.5t-274 -80.5zM582 39q193 0 329 138t136 335q0 129 -60.5 237.5t-167.5 172t-237 63.5
q-197 0 -333 -138t-136 -335q0 -196 137.5 -334.5t331.5 -138.5z" />
    <glyph glyph-name="acircumflex" unicode="&#xe2;" 
d="M338 1147l211 188h61l209 -188h-74l-165 145l-168 -145h-74zM580 -16q-143 0 -265 70.5t-193 192t-71 265.5t71 265.5t193 192t265 70.5t264 -70.5t191.5 -192t70.5 -265.5v-512h-62v276q-66 -131 -190 -211.5t-274 -80.5zM582 39q193 0 329 138t136 335
q0 129 -60.5 237.5t-167.5 172t-237 63.5q-197 0 -333 -138t-136 -335q0 -196 137.5 -334.5t331.5 -138.5z" />
    <glyph glyph-name="atilde" unicode="&#xe3;" 
d="M328 1149q0 72 42 108.5t103 36.5q39 0 69 -15t46 -33t41 -33t55 -15q35 0 63.5 27t28.5 71h53q0 -72 -42 -109.5t-103 -37.5q-38 0 -69.5 15t-49 33t-42.5 33t-52 15q-35 0 -62.5 -26t-27.5 -70h-53zM580 -16q-143 0 -265 70.5t-193 192t-71 265.5t71 265.5t193 192
t265 70.5t264 -70.5t191.5 -192t70.5 -265.5v-512h-62v276q-66 -131 -190 -211.5t-274 -80.5zM582 39q193 0 329 138t136 335q0 129 -60.5 237.5t-167.5 172t-237 63.5q-197 0 -333 -138t-136 -335q0 -196 137.5 -334.5t331.5 -138.5z" />
    <glyph glyph-name="adieresis" unicode="&#xe4;" 
d="M457 1149q-22 0 -35.5 13.5t-13.5 35.5t13.5 35.5t35.5 13.5t35.5 -13.5t13.5 -35.5t-13.5 -35.5t-35.5 -13.5zM702 1149q-22 0 -35.5 13.5t-13.5 35.5t13.5 35.5t35.5 13.5t36 -13.5t14 -35.5t-14 -35.5t-36 -13.5zM580 -16q-143 0 -265 70.5t-193 192t-71 265.5
t71 265.5t193 192t265 70.5t264 -70.5t191.5 -192t70.5 -265.5v-512h-62v276q-66 -131 -190 -211.5t-274 -80.5zM582 39q193 0 329 138t136 335q0 129 -60.5 237.5t-167.5 172t-237 63.5q-197 0 -333 -138t-136 -335q0 -196 137.5 -334.5t331.5 -138.5z" />
    <glyph glyph-name="aring" unicode="&#xe5;" 
d="M580 1376q47 0 80.5 -33.5t33.5 -80.5t-33.5 -81t-80.5 -34t-81 34t-34 81t34 80.5t81 33.5zM580 1335q-32 0 -53 -20.5t-21 -52.5t21 -53t53 -21t52.5 21t20.5 53t-20.5 52.5t-52.5 20.5zM580 -16q-143 0 -265 70.5t-193 192t-71 265.5t71 265.5t193 192t265 70.5
t264 -70.5t191.5 -192t70.5 -265.5v-512h-62v276q-66 -131 -190 -211.5t-274 -80.5zM582 39q193 0 329 138t136 335q0 129 -60.5 237.5t-167.5 172t-237 63.5q-197 0 -333 -138t-136 -335q0 -196 137.5 -334.5t331.5 -138.5z" />
    <glyph glyph-name="ae" unicode="&#xe6;" horiz-adv-x="2142" 
d="M580 -16q-143 0 -265 70.5t-193 192t-71 265.5t71 265.5t193 192t265 70.5q170 0 305 -97.5t190 -254.5q55 158 188 255t304 97q205 0 347.5 -132.5t162.5 -340.5q4 -40 4 -63h-973q0 -194 131.5 -329.5t327.5 -135.5q131 0 247.5 66.5t180.5 181.5l55 -31
q-70 -125 -202 -198.5t-281 -73.5q-151 0 -273 75.5t-188 202.5v-262h-62v276q-66 -131 -190 -211.5t-274 -80.5zM582 39q193 0 329 138t136 335q0 129 -60.5 237.5t-167.5 172t-237 63.5q-197 0 -333 -138t-136 -335q0 -196 137.5 -334.5t331.5 -138.5zM1108 561h907
q-21 182 -144.5 303t-303.5 121t-309 -124t-150 -300z" />
    <glyph glyph-name="ccedilla" unicode="&#xe7;" horiz-adv-x="1081" 
d="M1030 233q-69 -109 -182.5 -176t-247.5 -73l-29 -56q24 4 37 4q62 0 105 -43t43 -104t-43 -104t-105 -43t-104.5 43t-42.5 104h51q0 -41 27.5 -68.5t68.5 -27.5t69 27.5t28 68.5t-28 68.5t-69 27.5q-29 0 -49 -14l-51 39l37 80q-206 12 -350 164t-144 362q0 144 71 265.5
t193 192t265 70.5q137 0 254.5 -65t187.5 -174h-70q-64 86 -160 135t-210 49q-197 0 -333 -138t-136 -335q0 -196 137.5 -334.5t331.5 -138.5q115 0 213.5 52t162.5 142h72z" />
    <glyph glyph-name="egrave" unicode="&#xe8;" horiz-adv-x="1136" 
d="M530 1352l136 -203h-70l-135 203h69zM51 510q0 222 150 376t370 154q217 0 362.5 -147t151.5 -371v-18h-972q0 -194 131 -329.5t327 -135.5q113 0 218.5 51t173.5 141h77q-74 -115 -201 -181t-268 -66q-145 0 -264.5 70.5t-187.5 191t-68 264.5zM113 561h907
q-21 181 -144.5 302.5t-304.5 121.5q-180 0 -308.5 -123.5t-149.5 -300.5z" />
    <glyph glyph-name="eacute" unicode="&#xe9;" horiz-adv-x="1136" 
d="M649 1350h70l-135 -203h-70zM51 510q0 222 150 376t370 154q217 0 362.5 -147t151.5 -371v-18h-972q0 -194 131 -329.5t327 -135.5q113 0 218.5 51t173.5 141h77q-74 -115 -201 -181t-268 -66q-145 0 -264.5 70.5t-187.5 191t-68 264.5zM113 561h907
q-21 181 -144.5 302.5t-304.5 121.5q-180 0 -308.5 -123.5t-149.5 -300.5z" />
    <glyph glyph-name="ecircumflex" unicode="&#xea;" horiz-adv-x="1136" 
d="M328 1147l211 188h61l209 -188h-74l-166 145l-168 -145h-73zM51 510q0 222 150 376t370 154q217 0 362.5 -147t151.5 -371v-18h-972q0 -194 131 -329.5t327 -135.5q113 0 218.5 51t173.5 141h77q-74 -115 -201 -181t-268 -66q-145 0 -264.5 70.5t-187.5 191t-68 264.5z
M113 561h907q-21 181 -144.5 302.5t-304.5 121.5q-180 0 -308.5 -123.5t-149.5 -300.5z" />
    <glyph glyph-name="edieresis" unicode="&#xeb;" horiz-adv-x="1136" 
d="M446 1149q-22 0 -35.5 13.5t-13.5 35.5t13.5 35.5t35.5 13.5t36 -13.5t14 -35.5t-14 -35.5t-36 -13.5zM692 1149q-22 0 -35.5 13.5t-13.5 35.5t13.5 35.5t35.5 13.5t35.5 -13.5t13.5 -35.5t-13.5 -35.5t-35.5 -13.5zM51 510q0 222 150 376t370 154q217 0 362.5 -147
t151.5 -371v-18h-972q0 -194 131 -329.5t327 -135.5q113 0 218.5 51t173.5 141h77q-74 -115 -201 -181t-268 -66q-145 0 -264.5 70.5t-187.5 191t-68 264.5zM113 561h907q-21 181 -144.5 302.5t-304.5 121.5q-180 0 -308.5 -123.5t-149.5 -300.5z" />
    <glyph glyph-name="igrave" unicode="&#xec;" horiz-adv-x="184" 
d="M14 1352l136 -203h-70l-135 203h69zM123 0h-62v1024h62v-1024z" />
    <glyph glyph-name="iacute" unicode="&#xed;" horiz-adv-x="184" 
d="M201 1350h69l-135 -203h-69zM123 0h-62v1024h62v-1024z" />
    <glyph glyph-name="icircumflex" unicode="&#xee;" horiz-adv-x="184" 
d="M-150 1147l211 188h62l209 -188h-74l-166 145l-168 -145h-74zM123 0h-62v1024h62v-1024z" />
    <glyph glyph-name="idieresis" unicode="&#xef;" horiz-adv-x="184" 
d="M-31 1149q-22 0 -35.5 13.5t-13.5 35.5t13.5 35.5t35.5 13.5t35.5 -13.5t13.5 -35.5t-13.5 -35.5t-35.5 -13.5zM215 1149q-22 0 -35.5 13.5t-13.5 35.5t13.5 35.5t35.5 13.5t35.5 -13.5t13.5 -35.5t-13.5 -35.5t-35.5 -13.5zM123 0h-62v1024h62v-1024z" />
    <glyph glyph-name="eth" unicode="&#xf0;" horiz-adv-x="1159" 
d="M580 -16q-144 0 -266 70.5t-192.5 192t-70.5 265.5t70.5 265.5t192.5 192t266 70.5q107 0 198.5 -39t155.5 -98q-146 231 -338 371l-98 -96l-39 39l92 88q-59 40 -137 73v56q82 -26 176 -88l92 88l41 -37l-86 -84q92 -69 176 -162t150 -197.5t105.5 -220.5t39.5 -221
q0 -147 -71 -268.5t-192 -190.5t-265 -69zM578 39q127 0 235 63t171 172.5t63 239.5q-2 197 -137.5 334t-331.5 137q-130 0 -237 -63.5t-167.5 -172t-60.5 -237.5q0 -197 136 -335t329 -138z" />
    <glyph glyph-name="ntilde" unicode="&#xf1;" horiz-adv-x="1024" 
d="M262 1149q0 72 42.5 108.5t103.5 36.5q39 0 69 -15t45.5 -33t40.5 -33t55 -15q35 0 64 27t29 71h53q0 -72 -42.5 -109.5t-103.5 -37.5q-38 0 -69 15t-48.5 33t-42.5 33t-52 15q-35 0 -63 -26t-28 -70h-53zM963 0v539q0 126 -33.5 223t-94 157t-142 90.5t-181.5 30.5
t-181.5 -30.5t-142 -90.5t-94 -157t-33.5 -223v-539h62v539q0 219 107.5 332.5t281.5 113.5t281.5 -113.5t107.5 -332.5v-539h62z" />
    <glyph glyph-name="ograve" unicode="&#xf2;" horiz-adv-x="1159" 
d="M530 1352l136 -203h-70l-135 203h69zM580 1040q144 0 265.5 -70.5t192 -192t70.5 -265.5t-70.5 -265.5t-192 -192t-265.5 -70.5q-143 0 -265 70.5t-193 192t-71 265.5t71 265.5t193 192t265 70.5zM582 985q-197 0 -333 -138t-136 -335q0 -196 137.5 -334.5t331.5 -138.5
q193 0 329 138t136 335q0 129 -60.5 237.5t-167.5 172t-237 63.5z" />
    <glyph glyph-name="oacute" unicode="&#xf3;" horiz-adv-x="1159" 
d="M664 1352h69l-135 -203h-70zM580 1040q144 0 265.5 -70.5t192 -192t70.5 -265.5t-70.5 -265.5t-192 -192t-265.5 -70.5q-143 0 -265 70.5t-193 192t-71 265.5t71 265.5t193 192t265 70.5zM582 985q-197 0 -333 -138t-136 -335q0 -196 137.5 -334.5t331.5 -138.5
q193 0 329 138t136 335q0 129 -60.5 237.5t-167.5 172t-237 63.5z" />
    <glyph glyph-name="ocircumflex" unicode="&#xf4;" horiz-adv-x="1159" 
d="M340 1147l211 188h61l209 -188h-73l-166 145l-168 -145h-74zM580 1040q144 0 265.5 -70.5t192 -192t70.5 -265.5t-70.5 -265.5t-192 -192t-265.5 -70.5q-143 0 -265 70.5t-193 192t-71 265.5t71 265.5t193 192t265 70.5zM582 985q-197 0 -333 -138t-136 -335
q0 -196 137.5 -334.5t331.5 -138.5q193 0 329 138t136 335q0 129 -60.5 237.5t-167.5 172t-237 63.5z" />
    <glyph glyph-name="otilde" unicode="&#xf5;" horiz-adv-x="1159" 
d="M330 1149q0 72 42 108.5t103 36.5q39 0 69 -15t46 -33t41 -33t55 -15q35 0 63.5 27t28.5 71h53q0 -72 -42 -109.5t-103 -37.5q-38 0 -69.5 15t-49 33t-42.5 33t-52 15q-35 0 -62.5 -26t-27.5 -70h-53zM580 1040q144 0 265.5 -70.5t192 -192t70.5 -265.5t-70.5 -265.5
t-192 -192t-265.5 -70.5q-143 0 -265 70.5t-193 192t-71 265.5t71 265.5t193 192t265 70.5zM582 985q-197 0 -333 -138t-136 -335q0 -196 137.5 -334.5t331.5 -138.5q193 0 329 138t136 335q0 129 -60.5 237.5t-167.5 172t-237 63.5z" />
    <glyph glyph-name="odieresis" unicode="&#xf6;" horiz-adv-x="1159" 
d="M457 1149q-22 0 -35.5 13.5t-13.5 35.5t13.5 35.5t35.5 13.5t35.5 -13.5t13.5 -35.5t-13.5 -35.5t-35.5 -13.5zM702 1149q-22 0 -35.5 13.5t-13.5 35.5t13.5 35.5t35.5 13.5t36 -13.5t14 -35.5t-14 -35.5t-36 -13.5zM580 1040q144 0 265.5 -70.5t192 -192t70.5 -265.5
t-70.5 -265.5t-192 -192t-265.5 -70.5q-143 0 -265 70.5t-193 192t-71 265.5t71 265.5t193 192t265 70.5zM582 985q-197 0 -333 -138t-136 -335q0 -196 137.5 -334.5t331.5 -138.5q193 0 329 138t136 335q0 129 -60.5 237.5t-167.5 172t-237 63.5z" />
    <glyph glyph-name="divide" unicode="&#xf7;" horiz-adv-x="837" 
d="M420 852q-22 0 -35.5 13.5t-13.5 35.5t13.5 35.5t35.5 13.5t35.5 -13.5t13.5 -35.5t-13.5 -35.5t-35.5 -13.5zM786 647v-55h-735v55h735zM420 289q-22 0 -35.5 13.5t-13.5 35.5t13.5 35.5t35.5 13.5t35.5 -13.5t13.5 -35.5t-13.5 -35.5t-35.5 -13.5z" />
    <glyph glyph-name="oslash" unicode="&#xf8;" horiz-adv-x="1159" 
d="M969 870q139 -152 139 -358q0 -144 -70.5 -265.5t-192 -192t-265.5 -70.5q-192 0 -340 122l-82 -86l-41 39l82 86q-70 72 -109 166.5t-39 200.5q0 144 71 265.5t193 192t265 70.5q196 0 348 -129l88 93l41 -41zM113 512q0 -187 127 -324l649 682q-131 115 -307 115
q-197 0 -333 -138t-136 -335zM582 39q193 0 329 138t136 335q0 184 -117 317l-649 -679q130 -111 301 -111z" />
    <glyph glyph-name="ugrave" unicode="&#xf9;" horiz-adv-x="1024" 
d="M432 1352l135 -203h-69l-136 203h70zM963 1024h-62v-539q0 -219 -107.5 -332.5t-281.5 -113.5t-281.5 113.5t-107.5 332.5v539h-62v-539q0 -126 33.5 -223t94 -157t142 -90.5t181.5 -30.5t181.5 30.5t142 90.5t94 157t33.5 223v539z" />
    <glyph glyph-name="uacute" unicode="&#xfa;" horiz-adv-x="1024" 
d="M545 1352h69l-135 -203h-69zM963 1024h-62v-539q0 -219 -107.5 -332.5t-281.5 -113.5t-281.5 113.5t-107.5 332.5v539h-62v-539q0 -126 33.5 -223t94 -157t142 -90.5t181.5 -30.5t181.5 30.5t142 90.5t94 157t33.5 223v539z" />
    <glyph glyph-name="ucircumflex" unicode="&#xfb;" horiz-adv-x="1024" 
d="M272 1147l211 188h62l209 -188h-74l-166 145l-168 -145h-74zM963 1024h-62v-539q0 -219 -107.5 -332.5t-281.5 -113.5t-281.5 113.5t-107.5 332.5v539h-62v-539q0 -126 33.5 -223t94 -157t142 -90.5t181.5 -30.5t181.5 30.5t142 90.5t94 157t33.5 223v539z" />
    <glyph glyph-name="udieresis" unicode="&#xfc;" horiz-adv-x="1024" 
d="M389 1149q-22 0 -35.5 13.5t-13.5 35.5t13.5 35.5t35.5 13.5t35.5 -13.5t13.5 -35.5t-13.5 -35.5t-35.5 -13.5zM635 1149q-22 0 -35.5 13.5t-13.5 35.5t13.5 35.5t35.5 13.5t35.5 -13.5t13.5 -35.5t-13.5 -35.5t-35.5 -13.5zM963 1024h-62v-539q0 -219 -107.5 -332.5
t-281.5 -113.5t-281.5 113.5t-107.5 332.5v539h-62v-539q0 -126 33.5 -223t94 -157t142 -90.5t181.5 -30.5t181.5 30.5t142 90.5t94 157t33.5 223v539z" />
    <glyph glyph-name="yacute" unicode="&#xfd;" horiz-adv-x="1024" 
d="M545 1352h69l-135 -203h-69zM512 -410q-146 0 -256.5 76.5t-161.5 204.5h70q47 -102 139.5 -163.5t208.5 -61.5q164 0 276.5 119t112.5 286v160q-56 -111 -157 -169t-232 -58q-100 0 -181.5 30.5t-142 90.5t-94 157t-33.5 223v539h62v-539q0 -219 107.5 -332.5
t281.5 -113.5q109 0 195.5 43.5t140 137.5t53.5 226v578h62v-973q0 -198 -127.5 -329.5t-323.5 -131.5z" />
    <glyph glyph-name="thorn" unicode="&#xfe;" 
d="M588 1040q143 0 264.5 -70.5t192.5 -192t71 -265.5t-71 -265.5t-192.5 -192t-264.5 -70.5q-150 0 -274.5 80.5t-190.5 211.5v-686h-62v1844h62v-676q67 127 192 204.5t273 77.5zM586 39q194 0 331.5 138.5t137.5 334.5q0 197 -136 335t-333 138q-130 0 -237 -63.5
t-167.5 -172t-60.5 -237.5q0 -197 136 -335t329 -138z" />
    <glyph glyph-name="ydieresis" unicode="&#xff;" horiz-adv-x="1024" 
d="M389 1149q-22 0 -35.5 13.5t-13.5 35.5t13.5 35.5t35.5 13.5t35.5 -13.5t13.5 -35.5t-13.5 -35.5t-35.5 -13.5zM635 1149q-22 0 -35.5 13.5t-13.5 35.5t13.5 35.5t35.5 13.5t35.5 -13.5t13.5 -35.5t-13.5 -35.5t-35.5 -13.5zM512 -410q-146 0 -256.5 76.5t-161.5 204.5
h70q47 -102 139.5 -163.5t208.5 -61.5q164 0 276.5 119t112.5 286v160q-56 -111 -157 -169t-232 -58q-100 0 -181.5 30.5t-142 90.5t-94 157t-33.5 223v539h62v-539q0 -219 107.5 -332.5t281.5 -113.5q109 0 195.5 43.5t140 137.5t53.5 226v578h62v-973
q0 -198 -127.5 -329.5t-323.5 -131.5z" />
    <glyph glyph-name="dotlessi" unicode="&#x131;" horiz-adv-x="184" 
d="M123 0h-62v1024h62v-1024z" />
    <glyph glyph-name="Ldot" unicode="&#x13f;" horiz-adv-x="915" 
d="M123 55h741v-55h-803v1434h62v-1379zM657 772v-213h62v213h-62z" />
    <glyph glyph-name="ldot" unicode="&#x140;" horiz-adv-x="327" 
d="M123 0h-62v1434h62v-1434zM195 772v-213h61v213h-61z" />
    <glyph glyph-name="Lslash" unicode="&#x141;" horiz-adv-x="956" 
d="M123 55h741v-55h-803v457l-106 -66v66l106 65v912h62v-875l461 281v-68l-461 -278v-439z" />
    <glyph glyph-name="lslash" unicode="&#x142;" horiz-adv-x="348" 
d="M307 920v-66l-102 -61v-793h-62v764l-102 -62v66l102 61v605h62v-576z" />
    <glyph glyph-name="OE" unicode="&#x152;" horiz-adv-x="2123" 
d="M2073 1378h-824v-702h746v-55h-746v-566h824v-55h-885v98q-177 -114 -400 -114q-151 0 -287 57t-235 154.5t-157 233.5t-58 288t58 288t157 233.5t235 154.5t287 57q216 0 400 -115v99h885v-56zM788 45q224 0 400 127v1090q-179 127 -400 127q-138 0 -263 -52.5
t-215.5 -142t-143.5 -214t-53 -263.5t53 -263.5t143.5 -214t215.5 -142t263 -52.5z" />
    <glyph glyph-name="oe" unicode="&#x153;" horiz-adv-x="2131" 
d="M580 -16q-143 0 -265 70.5t-193 192t-71 265.5t71 265.5t193 192t265 70.5q169 0 305 -97t192 -251q53 156 186 252t304 96q203 0 345 -130t165 -335q4 -50 4 -71h-973q0 -194 131.5 -329.5t327.5 -135.5q131 0 247.5 66.5t180.5 181.5l55 -31q-70 -125 -202 -198.5
t-281 -73.5q-171 0 -304 96.5t-186 251.5q-56 -155 -191.5 -251.5t-305.5 -96.5zM582 39q193 0 329 138t136 335q0 129 -60.5 237.5t-167.5 172t-237 63.5q-197 0 -333 -138t-136 -335q0 -196 137.5 -334.5t331.5 -138.5zM1108 561h907q-21 182 -144.5 303t-303.5 121
t-309 -124t-150 -300z" />
    <glyph glyph-name="Scaron" unicode="&#x160;" horiz-adv-x="925" 
d="M203 1745h73l168 -146l166 146h74l-209 -189h-61zM874 369q0 83 -24.5 147.5t-66 106t-95 73.5t-113 54.5t-119 44t-113 47t-95 58.5t-66 84t-24.5 118q0 125 86 209t213 84t213 -84t86 -209h61q0 147 -105.5 247.5t-254.5 100.5t-255 -100.5t-106 -247.5
q0 -75 24.5 -132.5t66 -94.5t95.5 -65.5t113.5 -50t118.5 -43.5t113 -51t95.5 -66.5t66 -95.5t24.5 -134q0 -149 -97.5 -239.5t-252.5 -90.5q-154 0 -252 92t-98 238h-62q0 -166 118 -275.5t294 -109.5q177 0 294 107.5t117 277.5z" />
    <glyph glyph-name="scaron" unicode="&#x161;" horiz-adv-x="716" 
d="M109 1333h73l168 -145l166 145h74l-209 -188h-62zM358 -16q-131 0 -224 76t-93 198h61q0 -102 73 -160.5t183 -58.5q122 0 189.5 57t66.5 162q-1 57 -20.5 99.5t-51 68t-72.5 44.5t-86 33l-90 28t-85.5 34.5t-72 48t-50 73t-18.5 106.5q0 113 81.5 180t202.5 67t203 -67
t82 -180h-62q0 91 -63 141.5t-160 50.5t-160 -50.5t-63 -141.5q0 -58 23.5 -100t61.5 -64t86.5 -41t99.5 -31t100 -35t88 -52.5t63 -83.5t25 -128q1 -125 -87 -199.5t-231 -74.5z" />
    <glyph glyph-name="Wcircumflex" unicode="&#x174;" horiz-adv-x="2097" 
d="M809 1556l211 189h61l209 -189h-73l-166 146l-168 -146h-74zM2030 1434h67l-522 -1434h-62l-464 1333l-469 -1333h-62l-518 1434h68l481 -1354l465 1354h69l461 -1354z" />
    <glyph glyph-name="wcircumflex" unicode="&#x175;" horiz-adv-x="1536" 
d="M528 1147l211 188h62l209 -188h-74l-166 145l-168 -145h-74zM1473 1024h63l-379 -1024h-61l-328 942l-328 -942h-61l-379 1024h63l347 -944l325 944h66l325 -944z" />
    <glyph glyph-name="Ycircumflex" unicode="&#x176;" horiz-adv-x="1189" 
d="M354 1556l211 189h62l209 -189h-74l-166 146l-168 -146h-74zM1116 1434h74l-565 -777v-657h-62v657l-563 777h74l520 -713z" />
    <glyph glyph-name="ycircumflex" unicode="&#x177;" horiz-adv-x="1024" 
d="M272 1147l211 188h62l209 -188h-74l-166 145l-168 -145h-74zM512 -410q-146 0 -256.5 76.5t-161.5 204.5h70q47 -102 139.5 -163.5t208.5 -61.5q164 0 276.5 119t112.5 286v160q-56 -111 -157 -169t-232 -58q-100 0 -181.5 30.5t-142 90.5t-94 157t-33.5 223v539h62v-539
q0 -219 107.5 -332.5t281.5 -113.5q109 0 195.5 43.5t140 137.5t53.5 226v578h62v-973q0 -198 -127.5 -329.5t-323.5 -131.5z" />
    <glyph glyph-name="Ydieresis" unicode="&#x178;" horiz-adv-x="1189" 
d="M473 1554q-22 0 -35.5 14t-13.5 36t13.5 35.5t35.5 13.5t35.5 -13.5t13.5 -35.5t-13.5 -36t-35.5 -14zM719 1554q-22 0 -35.5 14t-13.5 36t13.5 35.5t35.5 13.5t35.5 -13.5t13.5 -35.5t-13.5 -36t-35.5 -14zM1116 1434h74l-565 -777v-657h-62v657l-563 777h74l520 -713z
" />
    <glyph glyph-name="Zcaron" unicode="&#x17d;" horiz-adv-x="1191" 
d="M356 1745h74l168 -146l166 146h74l-209 -189h-62zM1130 1434v-56l-995 -1323h993v-55h-1067v55l994 1323h-951v56h1026z" />
    <glyph glyph-name="zcaron" unicode="&#x17e;" horiz-adv-x="903" 
d="M231 1339h74l168 -145l166 145h74l-209 -188h-62zM117 55h745v-55h-821v55l725 914h-682v55h760v-55z" />
    <glyph glyph-name="florin" unicode="&#x192;" horiz-adv-x="1077" 
d="M258 -410q-126 0 -207 84l37 35q73 -63 166 -63q35 0 61.5 6.5t53.5 24.5t44 55.5t23 93.5l117 1143h-225v55h231l21 197q12 110 77.5 169.5t161.5 59.5q126 0 207 -84l-37 -35q-74 64 -166 64q-73 0 -122 -38.5t-60 -142.5l-20 -190h286v-55h-291l-118 -1149
q-12 -111 -78 -170.5t-162 -59.5z" />
    <glyph glyph-name="circumflex" unicode="&#x2c6;" horiz-adv-x="583" 
d="M51 1495l211 188h62l208 -188h-73l-166 145l-168 -145h-74z" />
    <glyph glyph-name="caron" unicode="&#x2c7;" horiz-adv-x="583" 
d="M51 1745h74l168 -146l166 146h73l-208 -189h-62z" />
    <glyph glyph-name="breve" unicode="&#x2d8;" horiz-adv-x="417" 
d="M209 1556q-66 0 -112 47t-46 113h49q0 -48 31 -81t78 -33t77.5 33t30.5 81h50q0 -66 -46 -113t-112 -47z" />
    <glyph glyph-name="dotaccent" unicode="&#x2d9;" horiz-adv-x="200" 
d="M100 1550q-22 0 -35.5 13.5t-13.5 35.5t13.5 36t35.5 14t36 -14t14 -36t-14 -35.5t-36 -13.5z" />
    <glyph glyph-name="ring" unicode="&#x2da;" horiz-adv-x="331" 
d="M166 1759q47 0 81 -33.5t34 -80.5t-34 -81t-81 -34t-81 34t-34 81t34 80.5t81 33.5zM166 1718q-32 0 -53 -20.5t-21 -52.5t21 -53t53 -21t53 21t21 53t-21 52.5t-53 20.5z" />
    <glyph glyph-name="ogonek" unicode="&#x2db;" horiz-adv-x="397" 
d="M199 -362q-62 0 -105 43t-43 104q0 73 55 131.5t109 83.5h76q-76 -38 -130.5 -92.5t-54.5 -122.5q0 -38 27.5 -65t65.5 -27t65 27t27 65h55q0 -61 -43 -104t-104 -43z" />
    <glyph glyph-name="tilde" unicode="&#x2dc;" horiz-adv-x="604" 
d="M51 1552q0 72 42.5 109t103.5 37q39 0 69 -15t46 -33t41 -33t55 -15q35 0 63.5 27t28.5 71h53q0 -72 -42.5 -110t-102.5 -38q-38 0 -69.5 15t-49 33.5t-42.5 33.5t-52 15q-35 0 -63 -26.5t-28 -70.5h-53z" />
    <glyph glyph-name="hungarumlaut" unicode="&#x2dd;" horiz-adv-x="450" 
d="M186 1761h70l-135 -202h-70zM330 1761h69l-135 -202h-69z" />
    <glyph glyph-name="Wgrave" unicode="&#x1e80;" horiz-adv-x="2097" 
d="M1040 1761l136 -202h-70l-135 202h69zM2030 1434h67l-522 -1434h-62l-464 1333l-469 -1333h-62l-518 1434h68l481 -1354l465 1354h69l461 -1354z" />
    <glyph glyph-name="wgrave" unicode="&#x1e81;" horiz-adv-x="1536" 
d="M678 1352l135 -203h-70l-135 203h70zM1473 1024h63l-379 -1024h-61l-328 942l-328 -942h-61l-379 1024h63l347 -944l325 944h66l325 -944z" />
    <glyph glyph-name="Wacute" unicode="&#x1e82;" horiz-adv-x="2097" 
d="M1081 1761h70l-135 -202h-70zM2030 1434h67l-522 -1434h-62l-464 1333l-469 -1333h-62l-518 1434h68l481 -1354l465 1354h69l461 -1354z" />
    <glyph glyph-name="wacute" unicode="&#x1e83;" horiz-adv-x="1536" 
d="M827 1352h70l-135 -203h-70zM1473 1024h63l-379 -1024h-61l-328 942l-328 -942h-61l-379 1024h63l347 -944l325 944h66l325 -944z" />
    <glyph glyph-name="Wdieresis" unicode="&#x1e84;" horiz-adv-x="2097" 
d="M926 1556q-22 0 -35.5 14t-13.5 36t13.5 35.5t35.5 13.5t35.5 -13.5t13.5 -35.5t-13.5 -36t-35.5 -14zM1171 1556q-22 0 -35.5 14t-13.5 36t13.5 35.5t35.5 13.5t36 -13.5t14 -35.5t-14 -36t-36 -14zM2030 1434h67l-522 -1434h-62l-464 1333l-469 -1333h-62l-518 1434h68
l481 -1354l465 1354h69l461 -1354z" />
    <glyph glyph-name="wdieresis" unicode="&#x1e85;" horiz-adv-x="1536" 
d="M645 1149q-22 0 -35.5 13.5t-13.5 35.5t13.5 35.5t35.5 13.5t35.5 -13.5t13.5 -35.5t-13.5 -35.5t-35.5 -13.5zM891 1149q-22 0 -35.5 13.5t-13.5 35.5t13.5 35.5t35.5 13.5t35.5 -13.5t13.5 -35.5t-13.5 -35.5t-35.5 -13.5zM1473 1024h63l-379 -1024h-61l-328 942
l-328 -942h-61l-379 1024h63l347 -944l325 944h66l325 -944z" />
    <glyph glyph-name="Ygrave" unicode="&#x1ef2;" horiz-adv-x="1189" 
d="M565 1761l135 -202h-69l-135 202h69zM1116 1434h74l-565 -777v-657h-62v657l-563 777h74l520 -713z" />
    <glyph glyph-name="ygrave" unicode="&#x1ef3;" horiz-adv-x="1024" 
d="M438 1352l135 -203h-69l-135 203h69zM512 -410q-146 0 -256.5 76.5t-161.5 204.5h70q47 -102 139.5 -163.5t208.5 -61.5q164 0 276.5 119t112.5 286v160q-56 -111 -157 -169t-232 -58q-100 0 -181.5 30.5t-142 90.5t-94 157t-33.5 223v539h62v-539q0 -219 107.5 -332.5
t281.5 -113.5q109 0 195.5 43.5t140 137.5t53.5 226v578h62v-973q0 -198 -127.5 -329.5t-323.5 -131.5z" />
    <glyph glyph-name="endash" unicode="&#x2013;" horiz-adv-x="1062" 
d="M1012 559v-55h-961v55h961z" />
    <glyph glyph-name="emdash" unicode="&#x2014;" horiz-adv-x="1619" 
d="M1569 559v-55h-1518v55h1518z" />
    <glyph glyph-name="quoteleft" unicode="&#x2018;" horiz-adv-x="217" 
d="M166 1440q-115 -21 -115 -187v-110h62v110q0 105 53 131v56z" />
    <glyph glyph-name="quoteright" unicode="&#x2019;" horiz-adv-x="217" 
d="M51 1137q115 21 115 186v111h-62v-111q0 -105 -53 -131v-55z" />
    <glyph glyph-name="quotesinglbase" unicode="&#x201a;" horiz-adv-x="235" 
d="M47 -125q115 21 115 186v111h-62v-111q0 -105 -53 -131v-55z" />
    <glyph glyph-name="quotedblleft" unicode="&#x201c;" horiz-adv-x="397" 
d="M166 1440q-115 -21 -115 -187v-110h62v110q0 105 53 131v56zM346 1440q-115 -21 -115 -187v-110h62v110q0 105 53 131v56z" />
    <glyph glyph-name="quotedblright" unicode="&#x201d;" horiz-adv-x="397" 
d="M51 1137q115 21 115 186v111h-62v-111q0 -105 -53 -131v-55zM231 1137q115 21 115 186v111h-61v-111q0 -105 -54 -131v-55z" />
    <glyph glyph-name="quotedblbase" unicode="&#x201e;" horiz-adv-x="397" 
d="M51 -125q115 21 115 186v111h-62v-111q0 -105 -53 -131v-55zM231 -125q115 21 115 186v111h-61v-111q0 -105 -54 -131v-55z" />
    <glyph glyph-name="dagger" unicode="&#x2020;" horiz-adv-x="778" 
d="M727 1024v-55h-307v-1153h-62v1153h-307v55h307v410h62v-410h307z" />
    <glyph glyph-name="daggerdbl" unicode="&#x2021;" horiz-adv-x="778" 
d="M727 969h-307v-295h307v-56h-307v-802h-62v802h-307v56h307v295h-307v55h307v410h62v-410h307v-55z" />
    <glyph glyph-name="bullet" unicode="&#x2022;" horiz-adv-x="317" 
d="M160 551q-44 0 -76.5 32t-32.5 76t32.5 76.5t76.5 32.5q43 0 74.5 -32.5t31.5 -76.5t-31.5 -76t-74.5 -32z" />
    <glyph glyph-name="ellipsis" unicode="&#x2026;" horiz-adv-x="1044" 
d="M123 0v213h61v-213h-61zM492 0v213h61v-213h-61zM860 0v213h62v-213h-62z" />
    <glyph glyph-name="perthousand" unicode="&#x2030;" horiz-adv-x="2150" 
d="M340 668q-131 0 -210 108t-79 279t79 279t210 108q129 0 208 -108.5t79 -278.5t-79 -278.5t-208 -108.5zM223 0l989 1434h72l-989 -1434h-72zM340 723q97 0 161 94t64 238t-64 237.5t-161 93.5q-98 0 -162.5 -93.5t-64.5 -237.5q0 -145 64.5 -238.5t162.5 -93.5z
M1161 -10q-131 0 -210 108t-79 279t79 279t210 108q129 0 208 -108.5t79 -278.5t-79 -278.5t-208 -108.5zM1812 -10q-130 0 -209 108t-79 279t79 279t209 108q129 0 208 -108.5t79 -278.5t-79 -278.5t-208 -108.5zM1161 45q97 0 161 94t64 238t-64 238t-161 94
q-98 0 -162.5 -93.5t-64.5 -238.5t64.5 -238.5t162.5 -93.5zM1812 45q97 0 161.5 94t64.5 238t-64.5 238t-161.5 94q-98 0 -162.5 -93.5t-64.5 -238.5t64.5 -238.5t162.5 -93.5z" />
    <glyph glyph-name="guilsinglleft" unicode="&#x2039;" horiz-adv-x="438" 
d="M51 524v66l336 299v-80l-285 -252l285 -252v-80z" />
    <glyph glyph-name="guilsinglright" unicode="&#x203a;" horiz-adv-x="438" 
d="M387 524l-336 -299v80l285 252l-285 252v80l336 -299v-66z" />
    <glyph glyph-name="fraction" unicode="&#x2044;" horiz-adv-x="241" 
d="M651 1434h-71l-990 -1434h72z" />
    <glyph glyph-name="Euro" unicode="&#x20ac;" horiz-adv-x="1538" 
d="M903 45q154 0 286 60.5t228 168.5h78q-101 -135 -256 -212.5t-336 -77.5q-263 0 -464 160.5t-255 410.5h-133l21 55h102q-8 47 -8 107q0 31 2 45h-117l21 55h100q24 179 126 323.5t261 227t344 82.5q181 0 336.5 -78.5t257.5 -214.5h-80q-94 109 -227.5 170.5
t-286.5 61.5q-167 0 -312 -74t-238.5 -205t-116.5 -293h942l-21 -55h-928q-2 -14 -2 -45q0 -55 9 -107h942l-21 -55h-911q54 -224 236.5 -367t420.5 -143z" />
    <glyph glyph-name="trademark" unicode="&#x2122;" horiz-adv-x="1724" 
d="M727 1434v-56h-307v-784h-62v784h-307v56h676zM1606 1434h57v-840h-61l4 717l-340 -717h-60l-315 704v-704h-62v840h62l346 -777z" />
    <glyph glyph-name="product" unicode="&#x220f;" horiz-adv-x="1392" 
d="M1341 1415v-55h-178v-1606h-61v1606h-809v-1606h-62v1606h-180v55h1290z" />
    <glyph glyph-name="minus" unicode="&#x2212;" horiz-adv-x="837" 
d="M786 647v-55h-735v55h735z" />
    <glyph glyph-name="integral" unicode="&#x222b;" horiz-adv-x="933" 
d="M258 -410q-123 0 -205 82h88q54 -26 113 -26q182 0 182 180v1395q0 109 70.5 169t169.5 60q129 0 205 -86h-82q-54 31 -119 31q-182 0 -182 -181v-1394q0 -109 -70.5 -169.5t-169.5 -60.5z" />
    <glyph glyph-name="approxequal" unicode="&#x2248;" horiz-adv-x="722" 
d="M500 686q-43 0 -82.5 17.5t-64.5 38t-60 38t-70 17.5q-41 0 -68.5 -21.5t-56.5 -62.5l-47 35q42 53 82 81.5t90 28.5q54 0 104.5 -27.5t93.5 -55t79 -27.5q41 0 68.5 21.5t56.5 61.5l47 -34q-42 -54 -82 -82.5t-90 -28.5zM500 391q-43 0 -82.5 17.5t-64.5 38t-60 38
t-70 17.5q-41 0 -68.5 -21.5t-56.5 -62.5l-47 35q42 53 82 81.5t90 28.5q54 0 104.5 -27.5t93.5 -55t79 -27.5q41 0 68.5 21.5t56.5 62.5l47 -35q-42 -54 -82 -82.5t-90 -28.5z" />
    <glyph glyph-name="notequal" unicode="&#x2260;" horiz-adv-x="837" 
d="M786 743h-266l-137 -237h403v-55h-436l-129 -222l-47 29l113 193h-236v55h266l140 237h-406v56h438l129 223l48 -29l-113 -194h233v-56z" />
    <glyph glyph-name="lessequal" unicode="&#x2264;" horiz-adv-x="837" 
d="M51 565l735 -401v67l-663 363l663 362v68l-735 -401v-58zM51 55h735v-55h-735v55z" />
    <glyph glyph-name="greaterequal" unicode="&#x2265;" horiz-adv-x="837" 
d="M786 565v58l-735 401v-68l664 -362l-664 -363v-67zM786 55v-55h-735v55h735z" />
    <glyph glyph-name="lozenge" unicode="&#x25ca;" horiz-adv-x="997" 
d="M541 -63h-82l-408 788l408 725h84l403 -725zM113 725l387 -750l383 750l-385 688z" />
    <glyph glyph-name="A.alt" horiz-adv-x="1220" 
d="M621 1450q101 0 189 -31t157.5 -90.5t110 -157.5t40.5 -223v-948h-61v682h-893v-682h-62v948q0 124 44 222.5t118 158t165 90.5t192 31zM164 737h893v211q0 110 -36.5 197t-98.5 140.5t-139 81.5t-162 28t-165 -28t-146 -81t-106 -141t-40 -197v-211z" />
    <glyph glyph-name="M.alt" horiz-adv-x="1849" 
d="M1352 1450q203 0 319.5 -126t116.5 -376v-948h-62v948q0 220 -101 333.5t-273 113.5q-175 0 -285.5 -114.5t-110.5 -332.5v-948h-63v948q0 220 -101.5 333.5t-273.5 113.5q-175 0 -285 -114.5t-110 -332.5v-948h-62v948q0 248 125.5 375t331.5 127q325 0 408 -317
q45 154 152.5 235.5t273.5 81.5z" />
    <glyph glyph-name="N.alt" horiz-adv-x="1138" 
d="M61 0v948q0 124 44 222.5t118 158t165 90.5t192 31t189 -31t157.5 -90.5t110 -157.5t40.5 -223v-948h-61v948q0 110 -36.5 197t-98.5 140.5t-139 81.5t-162 28t-165 -28t-146 -81t-106 -141t-40 -197v-948h-62z" />
    <glyph glyph-name="W.alt" horiz-adv-x="1849" 
d="M1352 -16q-166 0 -273.5 81.5t-152.5 235.5q-83 -317 -408 -317q-206 0 -331.5 126.5t-125.5 374.5v949h62v-949q0 -218 110 -332t285 -114q172 0 273.5 113t101.5 333v949h63v-949q0 -218 110.5 -332t285.5 -114q172 0 273 113t101 333v949h62v-949q0 -250 -116 -375.5
t-320 -125.5z" />
    <glyph glyph-name="a.salt" 
d="M580 1661q15 0 26.5 -12t11.5 -27t-11.5 -27t-26.5 -12q-17 0 -28 11.5t-11 27.5t11 27.5t28 11.5zM580 1497q22 0 36.5 -14.5t14.5 -36.5t-14.5 -35.5t-36.5 -13.5t-37 14t-15 35q0 22 15 36.5t37 14.5zM580 1319q32 0 54.5 -23t22.5 -55t-22.5 -55t-54.5 -23t-55 23
t-23 55t23 55t55 23zM580 1294q-23 0 -38.5 -15t-15.5 -38t15.5 -38t38.5 -15t38 15t15 38t-15 38t-38 15zM580 -16q-143 0 -265 70.5t-193 192t-71 265.5t71 265.5t193 192t265 70.5t264 -70.5t191.5 -192t70.5 -265.5v-512h-62v276q-66 -131 -190 -211.5t-274 -80.5z
M582 39q193 0 329 138t136 335q0 129 -60.5 237.5t-167.5 172t-237 63.5q-197 0 -333 -138t-136 -335q0 -196 137.5 -334.5t331.5 -138.5z" />
    <glyph glyph-name="a.salt2" 
d="M580 1835q15 0 26.5 -12t11.5 -27t-11.5 -27t-26.5 -12q-17 0 -28 11.5t-11 27.5t11 27.5t28 11.5zM580 1671q22 0 36.5 -14.5t14.5 -36.5t-14.5 -35.5t-36.5 -13.5t-37 14t-15 35q0 22 15 36.5t37 14.5zM580 1493q32 0 54.5 -23t22.5 -55t-22.5 -55t-54.5 -23t-55 23
t-23 55t23 55t55 23zM580 1468q-23 0 -38.5 -15t-15.5 -38t15.5 -38t38.5 -15t38 15t15 38t-15 38t-38 15zM369 1358q38 0 82 -39q39 -32 62.5 -81.5t27.5 -82.5l4 -33q0 -6 -4 -6q-3 0 -9 6q-29 36 -69.5 65.5t-69.5 45t-50 36t-21 44.5q0 19 14 32t33 13zM788 1358
q19 0 33.5 -13.5t14.5 -31.5q0 -24 -21.5 -44.5t-50.5 -36t-69.5 -45t-69.5 -65.5q-6 -6 -9 -6q-4 0 -4 6q0 5 1 14t7 34.5t15.5 48.5t28 51.5t43.5 48.5q44 39 81 39zM580 -16q-143 0 -265 70.5t-193 192t-71 265.5t71 265.5t193 192t265 70.5t264 -70.5t191.5 -192
t70.5 -265.5v-512h-62v276q-66 -131 -190 -211.5t-274 -80.5zM582 39q193 0 329 138t136 335q0 129 -60.5 237.5t-167.5 172t-237 63.5q-197 0 -333 -138t-136 -335q0 -196 137.5 -334.5t331.5 -138.5z" />
    <glyph glyph-name="a.swsh" 
d="M575 1757q12 0 20.5 -8t8.5 -20q0 -11 -8.5 -19t-20.5 -8q-10 0 -18 8t-8 19q0 12 7.5 20t18.5 8zM575 1569q-15 0 -25.5 10t-10.5 25t10.5 25.5t25.5 10.5t26 -10.5t11 -25.5t-11 -25t-26 -10zM575 1401q-23 0 -39 16t-16 39t16 39t39 16q24 0 41 -16t17 -39t-17 -39
t-41 -16zM575 1417q17 0 28 11t11 28t-11 28t-28 11q-15 0 -25.5 -11t-10.5 -28t10.5 -28t25.5 -11zM551 1241l-6 6q-25 32 -64 56.5t-62.5 41t-23.5 37.5q0 14 9.5 23.5t23.5 9.5q25 0 59 -29q28 -23 45 -57.5t20 -58.5l3 -23q0 -6 -4 -6zM762 1382q0 -21 -23.5 -37.5
t-62.5 -41t-64 -56.5q-1 -1 -2 -2.5t-2 -2.5t-2 -1q-4 0 -4 6q1 10 3.5 26t19.5 53t45 60q34 29 59 29q13 0 23 -9.5t10 -23.5zM555 1186q0 -4 -8 -4q-57 0 -137 -41q-14 -8 -36 -22t-35.5 -19.5t-33.5 -5.5q-22 0 -35.5 12.5t-13.5 34.5q0 35 26.5 57.5t61.5 30.5t76 8
q40 0 87.5 -19.5t47.5 -31.5zM901 1141q0 -22 -13.5 -34.5t-35.5 -12.5q-19 0 -33 5.5t-35 19.5t-36 22q-80 41 -138 41q-8 0 -8 4q0 12 47.5 31.5t87.5 19.5q41 0 76 -8t61.5 -30.5t26.5 -57.5zM580 -16q-143 0 -265 70.5t-193 192t-71 265.5t71 265.5t193 192t265 70.5
t264 -70.5t191.5 -192t70.5 -265.5v-512h-62v276q-66 -131 -190 -211.5t-274 -80.5zM582 39q193 0 329 138t136 335q0 129 -60.5 237.5t-167.5 172t-237 63.5q-197 0 -333 -138t-136 -335q0 -196 137.5 -334.5t331.5 -138.5z" />
    <glyph glyph-name="c.salt" horiz-adv-x="1081" 
d="M580 1661q15 0 26.5 -12t11.5 -27t-11.5 -27t-26.5 -12q-17 0 -28 11.5t-11 27.5t11 27.5t28 11.5zM580 1497q22 0 36.5 -14.5t14.5 -36.5t-14.5 -35.5t-36.5 -13.5t-37 14t-15 35q0 22 15 36.5t37 14.5zM580 1319q32 0 54.5 -23t22.5 -55t-22.5 -55t-54.5 -23t-55 23
t-23 55t23 55t55 23zM580 1294q-23 0 -38.5 -15t-15.5 -38t15.5 -38t38.5 -15t38 15t15 38t-15 38t-38 15zM580 -16q-143 0 -265 70.5t-193 192t-71 265.5t71 265.5t193 192t265 70.5q137 0 254.5 -65t187.5 -174h-70q-64 86 -160 135t-210 49q-197 0 -333 -138t-136 -335
q0 -196 137.5 -334.5t331.5 -138.5q115 0 213.5 52t162.5 142h72q-72 -115 -191 -182t-259 -67z" />
    <glyph glyph-name="c.salt2" horiz-adv-x="1081" 
d="M580 1835q15 0 26.5 -12t11.5 -27t-11.5 -27t-26.5 -12q-17 0 -28 11.5t-11 27.5t11 27.5t28 11.5zM580 1671q22 0 36.5 -14.5t14.5 -36.5t-14.5 -35.5t-36.5 -13.5t-37 14t-15 35q0 22 15 36.5t37 14.5zM580 1493q32 0 54.5 -23t22.5 -55t-22.5 -55t-54.5 -23t-55 23
t-23 55t23 55t55 23zM580 1468q-23 0 -38.5 -15t-15.5 -38t15.5 -38t38.5 -15t38 15t15 38t-15 38t-38 15zM369 1358q38 0 82 -39q39 -32 62.5 -81.5t27.5 -82.5l4 -33q0 -6 -4 -6q-3 0 -9 6q-29 36 -69.5 65.5t-69.5 45t-50 36t-21 44.5q0 19 14 32t33 13zM788 1358
q19 0 33.5 -13.5t14.5 -31.5q0 -24 -21.5 -44.5t-50.5 -36t-69.5 -45t-69.5 -65.5q-6 -6 -9 -6q-4 0 -4 6q0 5 1 14t7 34.5t15.5 48.5t28 51.5t43.5 48.5q44 39 81 39zM580 -16q-143 0 -265 70.5t-193 192t-71 265.5t71 265.5t193 192t265 70.5q137 0 254.5 -65t187.5 -174
h-70q-64 86 -160 135t-210 49q-197 0 -333 -138t-136 -335q0 -196 137.5 -334.5t331.5 -138.5q115 0 213.5 52t162.5 142h72q-72 -115 -191 -182t-259 -67z" />
    <glyph glyph-name="c.swsh" horiz-adv-x="1081" 
d="M575 1757q12 0 20.5 -8t8.5 -20q0 -11 -8.5 -19t-20.5 -8q-10 0 -18 8t-8 19q0 12 7.5 20t18.5 8zM575 1569q-15 0 -25.5 10t-10.5 25t10.5 25.5t25.5 10.5t26 -10.5t11 -25.5t-11 -25t-26 -10zM575 1401q-23 0 -39 16t-16 39t16 39t39 16q24 0 41 -16t17 -39t-17 -39
t-41 -16zM575 1417q17 0 28 11t11 28t-11 28t-28 11q-15 0 -25.5 -11t-10.5 -28t10.5 -28t25.5 -11zM551 1241l-6 6q-25 32 -64 56.5t-62.5 41t-23.5 37.5q0 14 9.5 23.5t23.5 9.5q25 0 59 -29q28 -23 45 -57.5t20 -58.5l3 -23q0 -6 -4 -6zM762 1382q0 -21 -23.5 -37.5
t-62.5 -41t-64 -56.5q-1 -1 -2 -2.5t-2 -2.5t-2 -1q-4 0 -4 6q1 10 3.5 26t19.5 53t45 60q34 29 59 29q13 0 23 -9.5t10 -23.5zM555 1186q0 -4 -8 -4q-57 0 -137 -41q-14 -8 -36 -22t-35.5 -19.5t-33.5 -5.5q-22 0 -35.5 12.5t-13.5 34.5q0 35 26.5 57.5t61.5 30.5t76 8
q40 0 87.5 -19.5t47.5 -31.5zM901 1141q0 -22 -13.5 -34.5t-35.5 -12.5q-19 0 -33 5.5t-35 19.5t-36 22q-80 41 -138 41q-8 0 -8 4q0 12 47.5 31.5t87.5 19.5q41 0 76 -8t61.5 -30.5t26.5 -57.5zM580 -16q-143 0 -265 70.5t-193 192t-71 265.5t71 265.5t193 192t265 70.5
q137 0 254.5 -65t187.5 -174h-70q-64 86 -160 135t-210 49q-197 0 -333 -138t-136 -335q0 -196 137.5 -334.5t331.5 -138.5q115 0 213.5 52t162.5 142h72q-72 -115 -191 -182t-259 -67z" />
    <glyph glyph-name="e.salt" horiz-adv-x="1136" 
d="M569 1661q15 0 27 -12t12 -27t-12 -27t-27 -12q-17 0 -28 11.5t-11 27.5t11 27.5t28 11.5zM569 1497q22 0 37 -14.5t15 -36.5q0 -21 -15 -35t-37 -14t-36.5 13.5t-14.5 35.5t14.5 36.5t36.5 14.5zM569 1319q32 0 55 -23t23 -55t-23 -55t-55 -23t-54.5 23t-22.5 55
t22.5 55t54.5 23zM569 1294q-23 0 -38 -15t-15 -38t15 -38t38 -15t38.5 15t15.5 38t-15.5 38t-38.5 15zM51 510q0 222 150 376t370 154q217 0 362.5 -147t151.5 -371v-18h-972q0 -194 131 -329.5t327 -135.5q113 0 218.5 51t173.5 141h77q-74 -115 -201 -181t-268 -66
q-145 0 -264.5 70.5t-187.5 191t-68 264.5zM113 561h907q-21 181 -144.5 302.5t-304.5 121.5q-180 0 -308.5 -123.5t-149.5 -300.5z" />
    <glyph glyph-name="e.salt2" horiz-adv-x="1136" 
d="M573 1835q15 0 27 -12t12 -27t-12 -27t-27 -12q-17 0 -27.5 11.5t-10.5 27.5t10.5 27.5t27.5 11.5zM573 1671q22 0 37 -14.5t15 -36.5q0 -21 -15 -35t-37 -14t-36.5 13.5t-14.5 35.5t14.5 36.5t36.5 14.5zM573 1493q32 0 55 -23t23 -55t-23 -55t-55 -23t-54.5 23
t-22.5 55t22.5 55t54.5 23zM573 1468q-23 0 -38 -15t-15 -38t15 -38t38 -15t38.5 15t15.5 38t-15.5 38t-38.5 15zM362 1358q38 0 82 -39q39 -32 63 -81.5t28 -82.5l4 -33q0 -6 -4 -6q-3 0 -9 6q-29 36 -69.5 65.5t-69.5 45t-50.5 36t-21.5 44.5q0 19 14 32t33 13zM782 1358
q19 0 33 -13t14 -32q0 -24 -21.5 -44.5t-50.5 -36t-69.5 -45t-69.5 -65.5q-6 -6 -8 -6q-4 0 -4 6q0 5 1 14t7 34.5t15 48.5t27.5 51.5t43.5 48.5q44 39 82 39zM51 510q0 222 150 376t370 154q217 0 362.5 -147t151.5 -371v-18h-972q0 -194 131 -329.5t327 -135.5
q113 0 218.5 51t173.5 141h77q-74 -115 -201 -181t-268 -66q-145 0 -264.5 70.5t-187.5 191t-68 264.5zM113 561h907q-21 181 -144.5 302.5t-304.5 121.5q-180 0 -308.5 -123.5t-149.5 -300.5z" />
    <glyph glyph-name="e.swsh" horiz-adv-x="1136" 
d="M565 1757q12 0 20.5 -8t8.5 -20q0 -11 -8.5 -19t-20.5 -8q-10 0 -18 8t-8 19q0 12 7.5 20t18.5 8zM565 1569q-15 0 -26 10t-11 25t11 25.5t26 10.5t26 -10.5t11 -25.5t-11 -25t-26 -10zM565 1401q-23 0 -39 16t-16 39t16 39t39 16q24 0 41 -16t17 -39t-17 -39t-41 -16z
M565 1417q17 0 28 11t11 28t-11 28t-28 11q-15 0 -26 -11t-11 -28t11 -28t26 -11zM541 1241l-6 6q-25 32 -64 56.5t-62.5 41t-23.5 37.5q0 14 9.5 23.5t23.5 9.5q25 0 59 -29q28 -23 45 -57.5t20 -58.5l3 -23q0 -6 -4 -6zM752 1382q0 -21 -23.5 -37.5t-62.5 -41t-64 -56.5
q-1 -1 -2 -2.5t-2 -2.5t-2 -1q-4 0 -4 6q0 10 2.5 26t19.5 53t45 60q34 29 60 29q13 0 23 -9.5t10 -23.5zM545 1186q0 -4 -8 -4q-58 0 -138 -41q-15 -8 -36 -22t-35 -19.5t-33 -5.5q-22 0 -35.5 12.5t-13.5 34.5q0 35 26.5 57.5t61.5 30.5t76 8q40 0 87.5 -19.5t47.5 -31.5z
M891 1141q0 -22 -13.5 -34.5t-35.5 -12.5q-20 0 -33.5 5.5t-35.5 19.5t-36 22q-80 41 -137 41q-8 0 -8 4q0 12 47.5 31.5t87.5 19.5q41 0 76 -8t61.5 -30.5t26.5 -57.5zM51 510q0 222 150 376t370 154q217 0 362.5 -147t151.5 -371v-18h-972q0 -194 131 -329.5t327 -135.5
q113 0 218.5 51t173.5 141h77q-74 -115 -201 -181t-268 -66q-145 0 -264.5 70.5t-187.5 191t-68 264.5zM113 561h907q-21 181 -144.5 302.5t-304.5 121.5q-180 0 -308.5 -123.5t-149.5 -300.5z" />
    <glyph glyph-name="g.salt" horiz-adv-x="1169" 
d="M580 1661q15 0 26.5 -12t11.5 -27t-11.5 -27t-26.5 -12q-17 0 -28 11.5t-11 27.5t11 27.5t28 11.5zM580 1497q22 0 36.5 -14.5t14.5 -36.5t-14.5 -35.5t-36.5 -13.5t-37 14t-15 35q0 22 15 36.5t37 14.5zM580 1319q32 0 54.5 -23t22.5 -55t-22.5 -55t-54.5 -23t-55 23
t-23 55t23 55t55 23zM580 1294q-23 0 -38.5 -15t-15.5 -38t15.5 -38t38.5 -15t38 15t15 38t-15 38t-38 15zM580 -410q-159 0 -290.5 87.5t-193.5 230.5h66q59 -119 171.5 -190.5t248.5 -71.5q193 0 329 138t136 335v145q-67 -128 -192 -204t-275 -76q-143 0 -265 70.5
t-193 192t-71 265.5t71 265.5t193 192t265 70.5q144 0 265.5 -70.5t192 -192t70.5 -265.5v-393q0 -144 -70.5 -266t-192 -192.5t-265.5 -70.5zM582 39q193 0 329 138t136 335q0 129 -60.5 237.5t-167.5 172t-237 63.5q-197 0 -333 -138t-136 -335q0 -196 137.5 -334.5
t331.5 -138.5z" />
    <glyph glyph-name="g.salt2" horiz-adv-x="1169" 
d="M582 1835q15 0 27 -12t12 -27t-12 -27t-27 -12q-17 0 -28 11.5t-11 27.5t11 27.5t28 11.5zM582 1671q22 0 36.5 -14.5t14.5 -36.5t-14.5 -35.5t-36.5 -13.5t-37 14t-15 35q0 22 15 36.5t37 14.5zM582 1493q32 0 54.5 -23t22.5 -55t-22.5 -55t-54.5 -23t-55 23t-23 55
t23 55t55 23zM582 1468q-23 0 -38.5 -15t-15.5 -38t15.5 -38t38.5 -15t38 15t15 38t-15 38t-38 15zM371 1358q38 0 82 -39q39 -32 62.5 -81.5t27.5 -82.5l4 -33q0 -6 -4 -6q-2 0 -8 6q-29 36 -69.5 65.5t-69.5 45t-50.5 36t-21.5 44.5q0 19 14 32t33 13zM791 1358
q19 0 33 -13t14 -32q0 -24 -21.5 -44.5t-50.5 -36t-69.5 -45t-69.5 -65.5q-6 -6 -9 -6q-4 0 -4 6q0 5 1 14t7 34.5t15.5 48.5t28 51.5t43.5 48.5q44 39 82 39zM580 -410q-159 0 -290.5 87.5t-193.5 230.5h66q59 -119 171.5 -190.5t248.5 -71.5q193 0 329 138t136 335v145
q-67 -128 -192 -204t-275 -76q-143 0 -265 70.5t-193 192t-71 265.5t71 265.5t193 192t265 70.5q144 0 265.5 -70.5t192 -192t70.5 -265.5v-393q0 -144 -70.5 -266t-192 -192.5t-265.5 -70.5zM582 39q193 0 329 138t136 335q0 129 -60.5 237.5t-167.5 172t-237 63.5
q-197 0 -333 -138t-136 -335q0 -196 137.5 -334.5t331.5 -138.5z" />
    <glyph glyph-name="g.swsh" horiz-adv-x="1169" 
d="M578 1757q12 0 20 -8t8 -20q0 -11 -8 -19t-20 -8q-10 0 -18.5 8t-8.5 19q0 12 8 20t19 8zM578 1569q-15 0 -26 10t-11 25t11 25.5t26 10.5t25.5 -10.5t10.5 -25.5t-10.5 -25t-25.5 -10zM578 1401q-23 0 -39.5 16t-16.5 39t16.5 39t39.5 16t40 -16t17 -39t-17 -39t-40 -16
zM578 1417q17 0 27.5 11t10.5 28t-10.5 28t-27.5 11q-15 0 -26 -11t-11 -28t11 -28t26 -11zM553 1241l-6 6q-25 32 -64 56.5t-62.5 41t-23.5 37.5q0 14 9.5 23.5t23.5 9.5q25 0 59 -29q28 -23 45 -57.5t20 -58.5l3 -23q0 -6 -4 -6zM764 1382q0 -21 -23.5 -37.5t-62.5 -41
t-64 -56.5q-1 -1 -2 -2.5t-2 -2.5t-2 -1q-4 0 -4 6q1 10 3.5 26t19.5 53t45 60q34 29 59 29q13 0 23 -9.5t10 -23.5zM557 1186q0 -4 -8 -4q-57 0 -137 -41q-14 -8 -36 -22t-35.5 -19.5t-33.5 -5.5q-22 0 -35.5 12.5t-13.5 34.5q0 35 26.5 57.5t61.5 30.5t76 8
q40 0 87.5 -19.5t47.5 -31.5zM903 1141q0 -22 -13.5 -34.5t-35.5 -12.5q-19 0 -33 5.5t-35 19.5t-36 22q-80 41 -138 41q-8 0 -8 4q0 12 47.5 31.5t87.5 19.5q41 0 76 -8t61.5 -30.5t26.5 -57.5zM580 -410q-159 0 -290.5 87.5t-193.5 230.5h66q59 -119 171.5 -190.5
t248.5 -71.5q193 0 329 138t136 335v145q-67 -128 -192 -204t-275 -76q-143 0 -265 70.5t-193 192t-71 265.5t71 265.5t193 192t265 70.5q144 0 265.5 -70.5t192 -192t70.5 -265.5v-393q0 -144 -70.5 -266t-192 -192.5t-265.5 -70.5zM582 39q193 0 329 138t136 335
q0 129 -60.5 237.5t-167.5 172t-237 63.5q-197 0 -333 -138t-136 -335q0 -196 137.5 -334.5t331.5 -138.5z" />
    <glyph glyph-name="n.salt" horiz-adv-x="1024" 
d="M510 1661q15 0 27 -12t12 -27t-12 -27t-27 -12q-17 0 -28 11.5t-11 27.5t11 27.5t28 11.5zM510 1497q22 0 36.5 -14.5t14.5 -36.5t-14.5 -35.5t-36.5 -13.5t-36.5 13.5t-14.5 35.5t14.5 36.5t36.5 14.5zM510 1319q32 0 55 -23t23 -55t-23 -55t-55 -23t-55 23t-23 55
t23 55t55 23zM510 1294q-23 0 -38 -15t-15 -38t15 -38t38 -15t38 15t15 38t-15 38t-38 15zM963 0v539q0 126 -33.5 223t-94 157t-142 90.5t-181.5 30.5t-181.5 -30.5t-142 -90.5t-94 -157t-33.5 -223v-539h62v539q0 219 107.5 332.5t281.5 113.5t281.5 -113.5t107.5 -332.5
v-539h62z" />
    <glyph glyph-name="n.salt2" horiz-adv-x="1024" 
d="M510 1835q15 0 27 -12t12 -27t-12 -27t-27 -12q-17 0 -28 11.5t-11 27.5t11 27.5t28 11.5zM510 1671q22 0 36.5 -14.5t14.5 -36.5t-14.5 -35.5t-36.5 -13.5t-36.5 13.5t-14.5 35.5t14.5 36.5t36.5 14.5zM510 1493q32 0 55 -23t23 -55t-23 -55t-55 -23t-55 23t-23 55
t23 55t55 23zM510 1468q-23 0 -38 -15t-15 -38t15 -38t38 -15t38 15t15 38t-15 38t-38 15zM299 1358q38 0 82 -39q39 -32 62.5 -81.5t27.5 -82.5l4 -33q0 -6 -4 -6q-2 0 -8 6q-29 36 -69.5 65.5t-69.5 45t-50.5 36t-21.5 44.5q0 19 14 32t33 13zM719 1358q19 0 33 -13
t14 -32q0 -24 -21.5 -44.5t-50.5 -36t-69.5 -45t-69.5 -65.5q-6 -6 -8 -6q-4 0 -4 6q0 5 1 14t7 34.5t15 48.5t27.5 51.5t43.5 48.5q44 39 82 39zM963 0v539q0 126 -33.5 223t-94 157t-142 90.5t-181.5 30.5t-181.5 -30.5t-142 -90.5t-94 -157t-33.5 -223v-539h62v539
q0 219 107.5 332.5t281.5 113.5t281.5 -113.5t107.5 -332.5v-539h62z" />
    <glyph glyph-name="n.swsh" horiz-adv-x="1024" 
d="M510 1757q12 0 20.5 -8t8.5 -20q0 -11 -8.5 -19t-20.5 -8q-10 0 -18.5 8t-8.5 19q0 12 8 20t19 8zM510 1569q-15 0 -26 10t-11 25t11 25.5t26 10.5t26 -10.5t11 -25.5t-11 -25t-26 -10zM510 1401q-23 0 -39 16t-16 39t16 39t39 16t40 -16t17 -39t-17 -39t-40 -16z
M510 1417q17 0 28 11t11 28t-11 28t-28 11q-15 0 -26 -11t-11 -28t11 -28t26 -11zM485 1241l-6 6q-25 32 -64 56.5t-62 41t-23 37.5q0 14 9.5 23.5t22.5 9.5q26 0 60 -29q28 -23 45 -57.5t19 -58.5l3 -23q0 -6 -4 -6zM696 1382q0 -21 -23 -37.5t-62 -41t-64 -56.5
q-1 -1 -2 -2.5t-2 -2.5t-2 -1q-4 0 -4 6q0 10 2.5 26t19.5 53t45 60q34 29 60 29q13 0 22.5 -9.5t9.5 -23.5zM489 1186q0 -4 -8 -4q-57 0 -137 -41q-15 -8 -36 -22t-35 -19.5t-33 -5.5q-22 0 -36 13t-14 34q0 35 26.5 57.5t61.5 30.5t76 8q40 0 87.5 -19.5t47.5 -31.5z
M836 1141q0 -21 -14 -34t-36 -13q-19 0 -33 5.5t-35 19.5t-36 22q-80 41 -137 41q-8 0 -8 4q0 12 47.5 31.5t87.5 19.5q41 0 76 -8t61.5 -30.5t26.5 -57.5zM963 0v539q0 126 -33.5 223t-94 157t-142 90.5t-181.5 30.5t-181.5 -30.5t-142 -90.5t-94 -157t-33.5 -223v-539h62
v539q0 219 107.5 332.5t281.5 113.5t281.5 -113.5t107.5 -332.5v-539h62z" />
    <glyph glyph-name="o.salt" horiz-adv-x="1159" 
d="M580 1661q15 0 26.5 -12t11.5 -27t-11.5 -27t-26.5 -12q-17 0 -28 11.5t-11 27.5t11 27.5t28 11.5zM580 1497q22 0 36.5 -14.5t14.5 -36.5t-14.5 -35.5t-36.5 -13.5t-37 14t-15 35q0 22 15 36.5t37 14.5zM580 1319q32 0 54.5 -23t22.5 -55t-22.5 -55t-54.5 -23t-55 23
t-23 55t23 55t55 23zM580 1294q-23 0 -38.5 -15t-15.5 -38t15.5 -38t38.5 -15t38 15t15 38t-15 38t-38 15zM580 1040q144 0 265.5 -70.5t192 -192t70.5 -265.5t-70.5 -265.5t-192 -192t-265.5 -70.5q-143 0 -265 70.5t-193 192t-71 265.5t71 265.5t193 192t265 70.5z
M582 985q-197 0 -333 -138t-136 -335q0 -196 137.5 -334.5t331.5 -138.5q193 0 329 138t136 335q0 129 -60.5 237.5t-167.5 172t-237 63.5z" />
    <glyph glyph-name="o.salt2" horiz-adv-x="1159" 
d="M582 1835q15 0 27 -12t12 -27t-12 -27t-27 -12q-17 0 -28 11.5t-11 27.5t11 27.5t28 11.5zM582 1671q22 0 36.5 -14.5t14.5 -36.5t-14.5 -35.5t-36.5 -13.5t-37 14t-15 35q0 22 15 36.5t37 14.5zM582 1493q32 0 54.5 -23t22.5 -55t-22.5 -55t-54.5 -23t-55 23t-23 55
t23 55t55 23zM582 1468q-23 0 -38.5 -15t-15.5 -38t15.5 -38t38.5 -15t38 15t15 38t-15 38t-38 15zM371 1358q38 0 82 -39q39 -32 62.5 -81.5t27.5 -82.5l4 -33q0 -6 -4 -6q-2 0 -8 6q-29 36 -69.5 65.5t-69.5 45t-50.5 36t-21.5 44.5q0 19 14 32t33 13zM791 1358
q19 0 33 -13t14 -32q0 -24 -21.5 -44.5t-50.5 -36t-69.5 -45t-69.5 -65.5q-6 -6 -9 -6q-4 0 -4 6q0 5 1 14t7 34.5t15.5 48.5t28 51.5t43.5 48.5q44 39 82 39zM580 1040q144 0 265.5 -70.5t192 -192t70.5 -265.5t-70.5 -265.5t-192 -192t-265.5 -70.5q-143 0 -265 70.5
t-193 192t-71 265.5t71 265.5t193 192t265 70.5zM582 985q-197 0 -333 -138t-136 -335q0 -196 137.5 -334.5t331.5 -138.5q193 0 329 138t136 335q0 129 -60.5 237.5t-167.5 172t-237 63.5z" />
    <glyph glyph-name="o.swsh" horiz-adv-x="1159" 
d="M578 1757q12 0 20 -8t8 -20q0 -11 -8 -19t-20 -8q-10 0 -18.5 8t-8.5 19q0 12 8 20t19 8zM578 1569q-15 0 -26 10t-11 25t11 25.5t26 10.5t25.5 -10.5t10.5 -25.5t-10.5 -25t-25.5 -10zM578 1401q-23 0 -39.5 16t-16.5 39t16.5 39t39.5 16t40 -16t17 -39t-17 -39t-40 -16
zM578 1417q17 0 27.5 11t10.5 28t-10.5 28t-27.5 11q-15 0 -26 -11t-11 -28t11 -28t26 -11zM553 1241l-6 6q-25 32 -64 56.5t-62.5 41t-23.5 37.5q0 14 9.5 23.5t23.5 9.5q25 0 59 -29q28 -23 45 -57.5t20 -58.5l3 -23q0 -6 -4 -6zM764 1382q0 -21 -23.5 -37.5t-62.5 -41
t-64 -56.5q-1 -1 -2 -2.5t-2 -2.5t-2 -1q-4 0 -4 6q1 10 3.5 26t19.5 53t45 60q34 29 59 29q13 0 23 -9.5t10 -23.5zM557 1186q0 -4 -8 -4q-57 0 -137 -41q-14 -8 -36 -22t-35.5 -19.5t-33.5 -5.5q-22 0 -35.5 12.5t-13.5 34.5q0 35 26.5 57.5t61.5 30.5t76 8
q40 0 87.5 -19.5t47.5 -31.5zM903 1141q0 -22 -13.5 -34.5t-35.5 -12.5q-19 0 -33 5.5t-35 19.5t-36 22q-80 41 -138 41q-8 0 -8 4q0 12 47.5 31.5t87.5 19.5q41 0 76 -8t61.5 -30.5t26.5 -57.5zM580 1040q144 0 265.5 -70.5t192 -192t70.5 -265.5t-70.5 -265.5t-192 -192
t-265.5 -70.5q-143 0 -265 70.5t-193 192t-71 265.5t71 265.5t193 192t265 70.5zM582 985q-197 0 -333 -138t-136 -335q0 -196 137.5 -334.5t331.5 -138.5q193 0 329 138t136 335q0 129 -60.5 237.5t-167.5 172t-237 63.5z" />
    <glyph glyph-name="p.salt" 
d="M590 1661q15 0 27 -12t12 -27t-12 -27t-27 -12q-17 0 -28 11.5t-11 27.5t11 27.5t28 11.5zM590 1497q22 0 36.5 -14.5t14.5 -36.5t-14.5 -35.5t-36.5 -13.5t-36.5 13.5t-14.5 35.5t14.5 36.5t36.5 14.5zM590 1319q32 0 55 -23t23 -55t-23 -55t-55 -23t-55 23t-23 55
t23 55t55 23zM590 1294q-23 0 -38 -15t-15 -38t15 -38t38 -15t38 15t15 38t-15 38t-38 15zM61 512q0 144 70.5 265.5t192 192t264.5 70.5t264.5 -70.5t192.5 -192t71 -265.5t-71 -265.5t-192.5 -192t-264.5 -70.5q-150 0 -274.5 80.5t-190.5 211.5v-686h-62v922zM586 39
q194 0 331.5 138.5t137.5 334.5q0 197 -136 335t-333 138q-130 0 -237 -63.5t-167.5 -172t-60.5 -237.5q0 -197 136 -335t329 -138z" />
    <glyph glyph-name="p.salt2" 
d="M590 1835q15 0 27 -12t12 -27t-12 -27t-27 -12q-17 0 -28 11.5t-11 27.5t11 27.5t28 11.5zM590 1671q22 0 36.5 -14.5t14.5 -36.5t-14.5 -35.5t-36.5 -13.5t-36.5 13.5t-14.5 35.5t14.5 36.5t36.5 14.5zM590 1493q32 0 55 -23t23 -55t-23 -55t-55 -23t-55 23t-23 55
t23 55t55 23zM590 1468q-23 0 -38 -15t-15 -38t15 -38t38 -15t38 15t15 38t-15 38t-38 15zM379 1358q38 0 82 -39q39 -32 62.5 -81.5t27.5 -82.5l4 -33q0 -6 -4 -6q-2 0 -8 6q-29 36 -69.5 65.5t-69.5 45t-50.5 36t-21.5 44.5q0 19 14 32t33 13zM799 1358q19 0 33 -13
t14 -32q0 -24 -21.5 -44.5t-50.5 -36t-69.5 -45t-69.5 -65.5q-6 -6 -8 -6q-4 0 -4 6q0 5 1 14t7 34.5t15 48.5t27.5 51.5t43.5 48.5q44 39 82 39zM61 512q0 144 70.5 265.5t192 192t264.5 70.5t264.5 -70.5t192.5 -192t71 -265.5t-71 -265.5t-192.5 -192t-264.5 -70.5
q-150 0 -274.5 80.5t-190.5 211.5v-686h-62v922zM586 39q194 0 331.5 138.5t137.5 334.5q0 197 -136 335t-333 138q-130 0 -237 -63.5t-167.5 -172t-60.5 -237.5q0 -197 136 -335t329 -138z" />
    <glyph glyph-name="p.swsh" 
d="M586 1757q12 0 20 -8t8 -20q0 -11 -8 -19t-20 -8q-10 0 -18.5 8t-8.5 19q0 12 8 20t19 8zM586 1569q-15 0 -26 10t-11 25t11 25.5t26 10.5t26 -10.5t11 -25.5t-11 -25t-26 -10zM586 1401q-23 0 -39.5 16t-16.5 39t16.5 39t39.5 16t40 -16t17 -39t-17 -39t-40 -16z
M586 1417q17 0 28 11t11 28t-11 28t-28 11q-15 0 -26 -11t-11 -28t11 -28t26 -11zM561 1241l-6 6q-25 32 -64 56.5t-62 41t-23 37.5q0 14 9.5 23.5t22.5 9.5q26 0 60 -29q28 -23 45 -57.5t19 -58.5l3 -23q0 -6 -4 -6zM772 1382q0 -21 -23 -37.5t-62 -41t-64 -56.5
q-6 -6 -7 -6q-4 0 -4 6q1 10 3.5 26t19.5 53t45 60q34 29 59 29q13 0 23 -9.5t10 -23.5zM565 1186q0 -4 -8 -4q-57 0 -137 -41q-14 -8 -36 -22t-35.5 -19.5t-33.5 -5.5q-22 0 -35.5 12.5t-13.5 34.5q0 35 26.5 57.5t61.5 30.5t76 8q40 0 87.5 -19.5t47.5 -31.5zM911 1141
q0 -22 -13.5 -34.5t-35.5 -12.5q-19 0 -33 5.5t-35 19.5t-36 22q-80 41 -137 41q-9 0 -9 4q0 12 48 31.5t88 19.5q41 0 75.5 -8t61 -30.5t26.5 -57.5zM61 512q0 144 70.5 265.5t192 192t264.5 70.5t264.5 -70.5t192.5 -192t71 -265.5t-71 -265.5t-192.5 -192t-264.5 -70.5
q-150 0 -274.5 80.5t-190.5 211.5v-686h-62v922zM586 39q194 0 331.5 138.5t137.5 334.5q0 197 -136 335t-333 138q-130 0 -237 -63.5t-167.5 -172t-60.5 -237.5q0 -197 136 -335t329 -138z" />
    <glyph glyph-name="q.salt" 
d="M580 1661q15 0 26.5 -12t11.5 -27t-11.5 -27t-26.5 -12q-17 0 -28 11.5t-11 27.5t11 27.5t28 11.5zM580 1497q22 0 36.5 -14.5t14.5 -36.5t-14.5 -35.5t-36.5 -13.5t-37 14t-15 35q0 22 15 36.5t37 14.5zM580 1319q32 0 54.5 -23t22.5 -55t-22.5 -55t-54.5 -23t-55 23
t-23 55t23 55t55 23zM580 1294q-23 0 -38.5 -15t-15.5 -38t15.5 -38t38.5 -15t38 15t15 38t-15 38t-38 15zM1106 512v-922h-62v686q-66 -131 -190 -211.5t-274 -80.5q-143 0 -265 70.5t-193 192t-71 265.5t71 265.5t193 192t265 70.5t264 -70.5t191.5 -192t70.5 -265.5z
M582 39q193 0 329 138t136 335q0 129 -60.5 237.5t-167.5 172t-237 63.5q-197 0 -333 -138t-136 -335q0 -196 137.5 -334.5t331.5 -138.5z" />
    <glyph glyph-name="q.salt2" 
d="M580 1835q15 0 26.5 -12t11.5 -27t-11.5 -27t-26.5 -12q-17 0 -28 11.5t-11 27.5t11 27.5t28 11.5zM580 1671q22 0 36.5 -14.5t14.5 -36.5t-14.5 -35.5t-36.5 -13.5t-37 14t-15 35q0 22 15 36.5t37 14.5zM580 1493q32 0 54.5 -23t22.5 -55t-22.5 -55t-54.5 -23t-55 23
t-23 55t23 55t55 23zM580 1468q-23 0 -38.5 -15t-15.5 -38t15.5 -38t38.5 -15t38 15t15 38t-15 38t-38 15zM369 1358q38 0 82 -39q39 -32 62.5 -81.5t27.5 -82.5l4 -33q0 -6 -4 -6q-3 0 -9 6q-29 36 -69.5 65.5t-69.5 45t-50 36t-21 44.5q0 19 14 32t33 13zM788 1358
q19 0 33.5 -13.5t14.5 -31.5q0 -24 -21.5 -44.5t-50.5 -36t-69.5 -45t-69.5 -65.5q-6 -6 -9 -6q-4 0 -4 6q0 5 1 14t7 34.5t15.5 48.5t28 51.5t43.5 48.5q44 39 81 39zM1106 512v-922h-62v686q-66 -131 -190 -211.5t-274 -80.5q-143 0 -265 70.5t-193 192t-71 265.5
t71 265.5t193 192t265 70.5t264 -70.5t191.5 -192t70.5 -265.5zM582 39q193 0 329 138t136 335q0 129 -60.5 237.5t-167.5 172t-237 63.5q-197 0 -333 -138t-136 -335q0 -196 137.5 -334.5t331.5 -138.5z" />
    <glyph glyph-name="q.swsh" 
d="M575 1757q12 0 20.5 -8t8.5 -20q0 -11 -8.5 -19t-20.5 -8q-10 0 -18 8t-8 19q0 12 7.5 20t18.5 8zM575 1569q-15 0 -25.5 10t-10.5 25t10.5 25.5t25.5 10.5t26 -10.5t11 -25.5t-11 -25t-26 -10zM575 1401q-23 0 -39 16t-16 39t16 39t39 16q24 0 41 -16t17 -39t-17 -39
t-41 -16zM575 1417q17 0 28 11t11 28t-11 28t-28 11q-15 0 -25.5 -11t-10.5 -28t10.5 -28t25.5 -11zM551 1241l-6 6q-25 32 -64 56.5t-62.5 41t-23.5 37.5q0 14 9.5 23.5t23.5 9.5q25 0 59 -29q28 -23 45 -57.5t20 -58.5l3 -23q0 -6 -4 -6zM762 1382q0 -21 -23.5 -37.5
t-62.5 -41t-64 -56.5q-1 -1 -2 -2.5t-2 -2.5t-2 -1q-4 0 -4 6q1 10 3.5 26t19.5 53t45 60q34 29 59 29q13 0 23 -9.5t10 -23.5zM555 1186q0 -4 -8 -4q-57 0 -137 -41q-14 -8 -36 -22t-35.5 -19.5t-33.5 -5.5q-22 0 -35.5 12.5t-13.5 34.5q0 35 26.5 57.5t61.5 30.5t76 8
q40 0 87.5 -19.5t47.5 -31.5zM901 1141q0 -22 -13.5 -34.5t-35.5 -12.5q-19 0 -33 5.5t-35 19.5t-36 22q-80 41 -138 41q-8 0 -8 4q0 12 47.5 31.5t87.5 19.5q41 0 76 -8t61.5 -30.5t26.5 -57.5zM1106 512v-922h-62v686q-66 -131 -190 -211.5t-274 -80.5q-143 0 -265 70.5
t-193 192t-71 265.5t71 265.5t193 192t265 70.5t264 -70.5t191.5 -192t70.5 -265.5zM582 39q193 0 329 138t136 335q0 129 -60.5 237.5t-167.5 172t-237 63.5q-197 0 -333 -138t-136 -335q0 -196 137.5 -334.5t331.5 -138.5z" />
    <glyph glyph-name="w.alt" horiz-adv-x="1699" 
d="M1229 -16q-141 0 -242 75t-137 222q-36 -147 -137 -222t-242 -75q-189 0 -299.5 126t-110.5 375v539h62v-539q0 -219 95.5 -332.5t252.5 -113.5t252.5 113.5t95.5 332.5v539h62v-539q0 -219 95.5 -332.5t252.5 -113.5t252.5 113.5t95.5 332.5v539h61v-539
q0 -250 -110 -375.5t-299 -125.5z" />
    <glyph glyph-name="y.alt" horiz-adv-x="903" 
d="M248 -410l172 410l-420 1024h66l385 -952l387 952h65l-590 -1434h-65z" />
    <glyph glyph-name="zero.osf" horiz-adv-x="968" 
d="M485 1040q181 0 307 -150.5t126 -377.5t-126 -377.5t-307 -150.5t-307.5 150.5t-126.5 377.5t126.5 377.5t307.5 150.5zM485 985q-158 0 -265 -130.5t-107 -342.5t107 -342.5t265 -130.5t264.5 130.5t106.5 342.5t-106.5 342.5t-264.5 130.5z" />
    <glyph glyph-name="one.osf" horiz-adv-x="473" 
d="M309 1024h62v-1024h-62v897q-42 -44 -115 -69.5t-143 -30.5v53q50 5 103.5 23.5t101 59t53.5 91.5z" />
    <glyph glyph-name="two.osf" horiz-adv-x="823" 
d="M51 0v55q0 53 28 100t74 81.5t105 69.5t120 64t120 64.5t105 71t74 84.5t28 104q0 135 -77 213t-218 78t-218 -78t-77 -213h-62q0 156 96 251t261 95t260.5 -95t95.5 -251q0 -74 -36 -135.5t-94 -104t-127.5 -79.5t-139.5 -70.5t-128 -68t-94 -81t-36 -100.5h661v-55
h-721z" />
    <glyph glyph-name="three.osf" horiz-adv-x="946" 
d="M473 -410q-174 0 -298 123t-124 299h62q0 -153 104 -259.5t256 -106.5t256.5 106.5t104.5 259.5q0 151 -105 260t-256 109h-20v55h20q112 0 190 81t78 194t-78 193.5t-190 80.5t-190 -80.5t-78 -193.5h-62q0 136 96.5 232.5t233.5 96.5t233.5 -96.5t96.5 -232.5
q0 -98 -54 -179t-139 -120q124 -38 204.5 -151.5t80.5 -248.5q0 -176 -124 -299t-298 -123z" />
    <glyph glyph-name="four.osf" horiz-adv-x="1003" 
d="M983 55v-55h-180v-410h-62v410h-721v55l721 985h62v-985h180zM92 55h649v887z" />
    <glyph glyph-name="five.osf" horiz-adv-x="1150" 
d="M575 -410q-142 0 -262.5 69.5t-191 190t-70.5 263.5h62q0 -128 62.5 -235.5t169.5 -169.5t233 -62q192 0 326 136t134 331q0 196 -132.5 332.5t-327.5 136.5q-161 0 -289 -101h-60l152 543h604v-55h-559l-115 -404q119 72 264 72q143 0 264 -70t191 -190.5t70 -263.5
t-70 -263.5t-191 -190t-264 -69.5z" />
    <glyph glyph-name="six.osf" horiz-adv-x="1064" 
d="M532 -14q-130 0 -240.5 63t-175.5 174t-65 244q0 124 60.5 263t153 253t205 201.5t214.5 120.5v-56q-145 -60 -263.5 -174t-205.5 -252q133 123 317 123q200 0 341 -140t141 -339q0 -131 -64.5 -241.5t-175.5 -175t-242 -64.5zM535 41q172 0 294.5 124.5t122.5 301.5
q0 176 -120.5 301t-296.5 125q-178 0 -300.5 -122.5t-121.5 -303.5q1 -116 58 -214t153.5 -155t210.5 -57z" />
    <glyph glyph-name="seven.osf" horiz-adv-x="989" 
d="M51 1024h887v-55l-666 -1379h-69l665 1379h-817v55z" />
    <glyph glyph-name="eight.osf" horiz-adv-x="921" 
d="M461 -16q-174 0 -292 115t-118 288q0 132 76.5 235.5t196.5 145.5q-72 37 -116 106.5t-44 151.5q0 121 87.5 205t209.5 84t209.5 -84t87.5 -205q0 -81 -45 -150.5t-117 -107.5q122 -40 198 -143.5t76 -237.5q0 -173 -117.5 -288t-291.5 -115zM461 788q99 0 167 69t68 169
q0 97 -69 165.5t-166 68.5t-166.5 -68.5t-69.5 -165.5q0 -100 68 -169t168 -69zM461 39q153 0 250.5 97.5t97.5 250.5q0 151 -99.5 248.5t-248.5 97.5t-248.5 -97.5t-99.5 -248.5q0 -152 98 -250t250 -98z" />
    <glyph glyph-name="nine.osf" horiz-adv-x="1159" 
d="M549 -410l297 463q-123 -71 -266 -71q-144 0 -266 70.5t-192.5 192t-70.5 265.5t70.5 265.5t192.5 192t266 70.5q143 0 264.5 -70.5t192.5 -192t71 -265.5q0 -169 -98 -307l-392 -613h-69zM578 37q197 0 333 138t136 335q0 196 -137.5 334.5t-331.5 138.5
q-193 0 -329 -138t-136 -335q0 -129 60.5 -237.5t167.5 -172t237 -63.5z" />
    <glyph glyph-name="zero.dnom" horiz-adv-x="677" 
d="M340 -10q-131 0 -210 108t-79 279t79 279t210 108q129 0 208 -108.5t79 -278.5t-79 -278.5t-208 -108.5zM340 45q97 0 161 94t64 238t-64 238t-161 94q-98 0 -162.5 -93.5t-64.5 -238.5t64.5 -238.5t162.5 -93.5z" />
    <glyph glyph-name="two.dnom" horiz-adv-x="575" 
d="M61 -2v57q0 42 22 83.5t57.5 76.5t78.5 70.5t86 70t78.5 67.5t57.5 71t22 75q0 69 -49 109.5t-123 40.5q-69 0 -123.5 -43t-54.5 -107h-62q0 94 69.5 149.5t170.5 55.5q104 0 168.5 -54t64.5 -151q0 -45 -22 -88.5t-57.5 -80t-78 -71.5t-85.5 -68.5t-78.5 -66
t-57.5 -68.5t-22 -71h401v-57h-463z" />
    <glyph glyph-name="three.dnom" horiz-adv-x="585" 
d="M293 -12q-108 0 -180 61.5t-72 163.5h59q0 -78 54.5 -125t138.5 -47q82 0 137 47t55 125q0 79 -56 132.5t-136 53.5h-10v50h10q59 0 101 38.5t42 96.5q0 57 -41 91t-102 34q-62 0 -102.5 -34t-40.5 -91h-60q0 84 57 131t146 47t146 -47t57 -131q0 -61 -33 -103.5
t-72 -54.5q69 -26 111.5 -81.5t42.5 -131.5q0 -102 -72.5 -163.5t-179.5 -61.5z" />
    <glyph glyph-name="four.dnom" horiz-adv-x="561" 
d="M530 260v-55h-79v-205h-62v205h-358v55l358 506h62v-506h79zM104 260h285v399z" />
    <glyph glyph-name="zero.numr" horiz-adv-x="677" 
d="M340 668q-131 0 -210 108t-79 279t79 279t210 108q129 0 208 -108.5t79 -278.5t-79 -278.5t-208 -108.5zM340 723q97 0 161 94t64 238t-64 237.5t-161 93.5q-98 0 -162.5 -93.5t-64.5 -237.5q0 -145 64.5 -238.5t162.5 -93.5z" />
    <glyph glyph-name="one.numr" horiz-adv-x="352" 
d="M188 1434h62v-766h-62v639q-45 -48 -118 -70l-19 53q126 54 137 144z" />
    <glyph glyph-name="two.numr" horiz-adv-x="575" 
d="M61 670v57q0 42 22 83.5t57.5 76.5t78.5 70.5t86 70t78.5 67.5t57.5 71t22 75q0 69 -49 109.5t-123 40.5q-69 0 -123.5 -43t-54.5 -107h-62q0 94 69.5 149.5t170.5 55.5q104 0 168.5 -54t64.5 -151q0 -45 -22 -88.5t-57.5 -80t-78 -71.5t-85.5 -68.5t-78.5 -66
t-57.5 -68.5t-22 -71h401v-57h-463z" />
    <glyph glyph-name="three.numr" horiz-adv-x="585" 
d="M303 668q-108 0 -180 61.5t-72 163.5h60q0 -78 54.5 -125t137.5 -47q82 0 137.5 47t55.5 125q0 79 -56.5 132.5t-136.5 53.5h-10v49h10q59 0 101 39t42 97q0 57 -41 91t-102 34q-62 0 -102.5 -34t-40.5 -91h-60q0 84 57 131t146 47t146 -47t57 -131q0 -61 -33 -103.5
t-72 -54.5q69 -26 111.5 -81.5t42.5 -131.5q0 -102 -72.5 -163.5t-179.5 -61.5z" />
    <glyph glyph-name="LineDotsThick.orn" horiz-adv-x="5079" 
d="M2617 776q0 -32 -22.5 -55t-54.5 -23t-55 23t-23 55t23 55t55 23t54.5 -23t22.5 -55zM2593 776q0 23 -15 38t-38 15t-38.5 -15t-15.5 -38t15.5 -38t38.5 -15t38 15t15 38zM2284 776q0 22 14.5 36.5t36.5 14.5t35.5 -14.5t13.5 -36.5t-13.5 -36.5t-35.5 -14.5t-36.5 14.5
t-14.5 36.5zM2796 776q0 -22 -15 -36.5t-37 -14.5t-35.5 14.5t-13.5 36.5t13.5 36.5t35.5 14.5t37 -14.5t15 -36.5zM2120 776q0 17 11.5 28t27.5 11t27.5 -11t11.5 -28q0 -15 -12 -27t-27 -12t-27 12t-12 27zM2959 776q0 -15 -12 -27t-27 -12t-26.5 12t-11.5 27
q0 17 11.5 28t26.5 11q16 0 27.5 -11t11.5 -28zM1976 805v-55h-1925v55h1925zM5028 805v-55h-1925v55h1925z" />
    <glyph glyph-name="Petals.orn" horiz-adv-x="747" 
d="M371 647q12 0 20 -8.5t8 -20.5q0 -11 -8 -18.5t-20 -7.5q-11 0 -19 8t-8 18q0 12 8 20.5t19 8.5zM371 459q-15 0 -26 10t-11 25t11 25.5t26 10.5t26 -10.5t11 -25.5t-11 -25t-26 -10zM371 291q-23 0 -39.5 16t-16.5 39t16.5 39t39.5 16t40 -16t17 -39t-17 -39t-40 -16z
M371 307q17 0 28 11t11 28t-11 28t-28 11q-15 0 -26 -11t-11 -28t11 -28t26 -11zM346 131l-6 6q-25 32 -64 56.5t-62.5 41t-23.5 37.5q0 14 10 23.5t23 9.5q26 0 60 -29q28 -23 44.5 -57.5t19.5 -58.5l3 -23q0 -6 -4 -6zM557 272q0 -21 -23 -37.5t-62 -41t-64 -56.5
q-6 -6 -7 -6q-4 0 -4 6q1 10 3.5 26t19.5 53t45 60q34 29 59 29q14 0 23.5 -9.5t9.5 -23.5zM350 76q0 -4 -8 -4q-57 0 -137 -41q-14 -8 -36 -22t-35.5 -19.5t-33.5 -5.5q-22 0 -35.5 12.5t-13.5 34.5q0 35 26.5 57.5t61.5 30.5t76 8q40 0 87.5 -19.5t47.5 -31.5zM696 31
q0 -22 -13.5 -34.5t-35.5 -12.5q-19 0 -33 5.5t-35 19.5t-36 22q-80 41 -137 41q-9 0 -9 4q0 12 47.5 31.5t87.5 19.5q41 0 76 -8t61.5 -30.5t26.5 -57.5z" />
    <glyph glyph-name="HorizDots.orn" horiz-adv-x="962" 
d="M559 776q0 -32 -23 -55t-55 -23t-55 23t-23 55t23 55t55 23t55 -23t23 -55zM535 776q0 23 -15.5 38t-38.5 15t-38 -15t-15 -38t15 -38t38 -15t38.5 15t15.5 38zM225 776q0 22 14.5 36.5t36.5 14.5t36 -14.5t14 -36.5t-14 -36.5t-36 -14.5t-36.5 14.5t-14.5 36.5zM737 776
q0 -22 -14.5 -36.5t-36.5 -14.5t-35.5 14.5t-13.5 36.5t13.5 36.5t35.5 14.5t36.5 -14.5t14.5 -36.5zM61 776q0 17 11.5 28t27.5 11t27.5 -11t11.5 -28q0 -15 -12 -27t-27 -12t-27 12t-12 27zM901 776q0 -15 -12 -27t-27 -12t-27 12t-12 27q0 17 11.5 28t27.5 11t27.5 -11
t11.5 -28z" />
    <glyph glyph-name="Dots.orn" horiz-adv-x="258" 
d="M129 909q15 0 27 -12t12 -27t-12 -27t-27 -12q-17 0 -28 11.5t-11 27.5t11 27.5t28 11.5zM129 745q22 0 36.5 -14.5t14.5 -36.5t-14.5 -35.5t-36.5 -13.5t-36.5 13.5t-14.5 35.5t14.5 36.5t36.5 14.5zM129 567q32 0 55 -23t23 -55t-23 -54.5t-55 -22.5t-55 22.5t-23 54.5
t23 55t55 23zM129 543q-23 0 -38 -15.5t-15 -38.5t15 -38t38 -15t38 15t15 38t-15 38.5t-38 15.5z" />
    <glyph glyph-name="Petals2.orn" horiz-adv-x="616" 
d="M309 702q15 0 27 -11.5t12 -26.5t-12 -27t-27 -12q-17 0 -28 11.5t-11 27.5q0 15 11 26.5t28 11.5zM309 539q22 0 36.5 -15t14.5 -37t-14.5 -35.5t-36.5 -13.5t-36.5 13.5t-14.5 35.5t14.5 37t36.5 15zM309 360q32 0 55 -22.5t23 -54.5t-23 -55t-55 -23t-55 23t-23 55
t23 54.5t55 22.5zM309 336q-23 0 -38 -15t-15 -38t15 -38.5t38 -15.5t38 15.5t15 38.5t-15 38t-38 15zM98 225q38 0 82 -39q39 -32 62.5 -81t27.5 -82l4 -33q0 -6 -4 -6q-2 0 -8 6q-29 36 -69.5 65.5t-69.5 44.5t-50.5 35.5t-21.5 44.5q0 19 14 32t33 13zM518 225
q19 0 33 -13t14 -32q0 -24 -21.5 -44.5t-50.5 -35.5t-69.5 -44.5t-69.5 -65.5q-6 -6 -8 -6q-4 0 -4 6q0 5 1 14t7 34t15 48t27.5 51.5t43.5 48.5q44 39 82 39z" />
    <glyph glyph-name="LineDotThin.orn" horiz-adv-x="5079" 
d="M2617 776q0 -32 -22.5 -55t-54.5 -23t-55 23t-23 55t23 55t55 23t54.5 -23t22.5 -55zM2593 776q0 23 -15 38t-38 15t-38.5 -15t-15.5 -38t15.5 -38t38.5 -15t38 15t15 38zM2284 776q0 22 14.5 36.5t36.5 14.5t35.5 -14.5t13.5 -36.5t-13.5 -36.5t-35.5 -14.5t-36.5 14.5
t-14.5 36.5zM2796 776q0 -22 -15 -36.5t-37 -14.5t-35.5 14.5t-13.5 36.5t13.5 36.5t35.5 14.5t37 -14.5t15 -36.5zM2120 776q0 17 11.5 28t27.5 11t27.5 -11t11.5 -28q0 -15 -12 -27t-27 -12t-27 12t-12 27zM2959 776q0 -15 -12 -27t-27 -12t-26.5 12t-11.5 27
q0 17 11.5 28t26.5 11q16 0 27.5 -11t11.5 -28zM1976 795v-35h-1925v35h1925zM5028 795v-35h-1925v35h1925z" />
    <glyph glyph-name="LineSwashThin.orn" horiz-adv-x="4802" 
d="M2398 1391q12 0 20.5 -8.5t8.5 -20.5q0 -11 -8.5 -19t-20.5 -8q-10 0 -18 8t-8 19q0 12 7.5 20.5t18.5 8.5zM2398 1202q-15 0 -26 10t-11 25t11 26t26 11t26 -11t11 -26t-11 -25t-26 -10zM2398 1034q-23 0 -39 16.5t-16 39.5t16 39t39 16q24 0 41 -16t17 -39t-17.5 -39.5
t-40.5 -16.5zM2398 1051q17 0 28 11t11 28t-11 27.5t-28 10.5q-15 0 -26 -10.5t-11 -27.5t11 -28t26 -11zM2374 874l-7 7q-25 32 -64 56.5t-62 41t-23 37.5q0 14 10 23.5t23 9.5q25 0 59 -29q28 -23 45 -57.5t20 -58.5l3 -23q0 -7 -4 -7zM2585 1016q0 -21 -23.5 -37.5
t-62.5 -41t-64 -56.5q-1 -1 -2 -2.5l-2 -3t-2 -1.5q-4 0 -4 7q0 10 2.5 26t19.5 53t45 60q34 29 60 29q14 0 23.5 -9.5t9.5 -23.5zM2378 819q0 -4 -8 -4q-58 0 -138 -41q-15 -8 -36 -22t-35 -19.5t-33 -5.5q-22 0 -35.5 12.5t-13.5 34.5q0 35 26.5 57.5t61.5 30.5t76 8
q40 0 87.5 -19.5t47.5 -31.5zM2724 774q0 -22 -13.5 -34.5t-35.5 -12.5q-20 0 -33.5 5.5t-35.5 19.5t-36 22q-80 41 -137 41q-8 0 -8 4q0 12 47.5 31.5t87.5 19.5q41 0 76 -8t61.5 -30.5t26.5 -57.5zM1976 795v-35h-1925v35h1925zM4751 795v-35h-1925v35h1925z" />
    <glyph glyph-name="LineSwashThinReverse.orn" horiz-adv-x="4802" 
d="M2378 733q0 -12 -47.5 -31.5t-87.5 -19.5q-41 0 -76 8t-61.5 30.5t-26.5 57.5q0 22 13.5 34.5t35.5 12.5q19 0 33 -5.5t35 -19.5t36 -22q80 -41 138 -41q8 0 8 -4zM2724 778q0 -35 -26.5 -57.5t-61.5 -30.5t-76 -8q-40 0 -87.5 19.5t-47.5 31.5q0 4 8 4q57 0 137 41
q14 8 36 22t35.5 19.5t33.5 5.5q22 0 35.5 -12.5t13.5 -34.5zM1976 758h-1925v35h1925v-35zM4751 758h-1925v35h1925v-35zM2374 678q4 0 4 -6q-1 -10 -3.5 -26t-19.5 -53.5t-45 -60.5q-33 -28 -59 -28q-13 0 -23 10t-10 23q0 21 23 37.5t62 41t64 56.5q6 6 7 6zM2585 537
q0 -13 -9.5 -23t-23.5 -10q-27 0 -60 28q-28 23 -45 58t-19 58l-3 24q0 6 4 6l6 -6q25 -32 64 -56.5t62.5 -41t23.5 -37.5zM2398 518q24 0 41 -16t17 -39t-17 -39t-41 -16q-23 0 -39 16t-16 39t16 39t39 16zM2398 502q-15 0 -26 -11t-11 -28t11 -28t26 -11q17 0 28 11t11 28
t-11 28t-28 11zM2398 350q15 0 26 -10t11 -25t-11 -25.5t-26 -10.5t-26 10.5t-11 25.5t11 25t26 10zM2398 162q-11 0 -18.5 8t-7.5 20q0 11 8 19t18 8q12 0 20.5 -8t8.5 -19q0 -12 -8.5 -20t-20.5 -8z" />
    <glyph glyph-name="BranchPetals.orn" horiz-adv-x="1513" 
d="M549 991q-9 4 -23 12t-43 37t-41 64q-15 41 -8 65q5 12 17.5 17.5t25.5 1.5q19 -7 26.5 -34.5t17.5 -73t32 -79.5q4 -4 4 -8q-1 -2 -8 -2zM848 854l-8 4q-8 7 -19 19t-29.5 49t-17.5 73q-3 47 17 62q23 27 49 4q15 -11 12.5 -47t-9.5 -74t3 -80q5 -10 2 -10zM111 971
q-44 16 -56 37q-6 11 -1.5 23t16.5 20q17 11 49.5 -4t73 -35.5t69.5 -20.5q10 0 10 -4q0 -5 -6 -8q-3 -2 -8.5 -4t-23 -7.5t-35 -7.5t-42 0t-46.5 11zM1399 952q-13 0 -24 11t-11 24q0 15 10.5 26t24.5 11q15 0 26 -11t11 -26q0 -14 -11 -24.5t-26 -10.5zM1206 834
q-3 0 -9.5 -0.5t-24.5 0t-35.5 4.5t-39.5 14t-40 25q-31 21 -37 51q-2 15 6 26.5t23 14.5q19 3 38.5 -16.5t51.5 -54t69 -54.5q9 -2 9 -6t-11 -4zM1051 688q-64 0 -130.5 22t-123 54t-112 63.5t-117 53.5t-117.5 22q-103 0 -180.5 -45.5t-120.5 -118.5h-66q40 101 144 160
t223 59q66 0 132 -22t122 -54t110 -63.5t116 -53.5t120 -22q193 0 305 160h61q-54 -98 -147 -156.5t-219 -58.5zM319 618q-10 -10 -24 -8t-25 13q-14 23 -14 63q0 36 16 71t32 51l15 17q1 1 3 2q5 4 6 0l-2 -8q-6 -35 -4 -68t7 -58.5t3.5 -45.5t-13.5 -29zM1409 575
q-22 13 -37 54q-13 41 -11 75.5t11 57.5l10 22q2 4 9 4q2 0 3 -3t1 -6v-3q6 -41 26 -81.5t32.5 -65.5t4.5 -41q-9 -13 -24 -17t-25 4zM557 635q-31 12 -22 47q16 27 45 45q33 19 70 22.5t58 -2.5l21 -6q10 -5 10 -6l-6 -4q-39 -13 -76 -41t-60 -44.5t-40 -10.5zM102 618
q-15 0 -25.5 11t-10.5 26q0 14 10.5 24.5t25.5 10.5q14 0 24.5 -11t10.5 -24q0 -15 -10.5 -26t-24.5 -11zM963 459q-13 -4 -24.5 5t-14.5 23q-3 21 16 64q19 32 51.5 54.5t54.5 28.5l23 7q1 0 2 1q6 2 6 -3l-6 -10q-23 -24 -39.5 -55.5t-23.5 -54t-18 -40t-27 -20.5z" />
    <glyph glyph-name="LineSwashThinDots.orn" horiz-adv-x="5672" 
d="M2832 1335q-10 0 -18 8t-8 19q0 12 7.5 20.5t18.5 8.5q12 0 20.5 -8.5t8.5 -20.5q0 -11 -8.5 -19t-20.5 -8zM2832 1202q-15 0 -25.5 10t-10.5 25t10.5 26t25.5 11t26 -11t11 -26t-11 -25t-26 -10zM2832 1034q-23 0 -39 16.5t-16 39.5t16 39t39 16q24 0 41 -16t17 -39
t-17.5 -39.5t-40.5 -16.5zM2832 1051q17 0 28 11t11 28t-11 27.5t-28 10.5q-15 0 -25.5 -10.5t-10.5 -27.5t10.5 -28t25.5 -11zM2808 874q-1 0 -2 1.5l-2 3t-2 2.5q-25 32 -64 56.5t-62.5 41t-23.5 37.5q0 14 10 23.5t23 9.5q25 0 59 -29q28 -23 45 -57.5t20 -58.5l3 -23
q0 -7 -4 -7zM2863 874q-4 0 -4 7q1 10 3.5 26t19.5 53t45 60q34 29 59 29q14 0 23.5 -9.5t9.5 -23.5q0 -21 -23.5 -37.5t-62.5 -41t-64 -56.5q-1 -1 -2 -2.5l-2 -3t-2 -1.5zM2562 727q-22 0 -35.5 12.5t-13.5 34.5q0 35 26.5 57.5t61.5 30.5t76 8q40 0 87.5 -19.5
t47.5 -31.5q0 -4 -8 -4q-58 0 -138 -41q-15 -8 -36 -22t-35 -19.5t-33 -5.5zM3109 727q-20 0 -33.5 5.5t-35.5 19.5t-36 22q-80 41 -137 41q-8 0 -8 4q0 12 47.5 31.5t87.5 19.5q41 0 76 -8t61.5 -30.5t26.5 -57.5q0 -22 -13.5 -34.5t-35.5 -12.5zM369 721q-25 0 -41.5 17
t-16.5 42t16.5 41.5t41.5 16.5t42 -16.5t17 -41.5t-17 -42t-42 -17zM5304 721q-25 0 -42 17t-17 42t17 41.5t42 16.5t41.5 -16.5t16.5 -41.5t-16.5 -42t-41.5 -17zM215 741q-17 0 -28 11t-11 28q0 16 11 27.5t28 11.5q15 0 26 -12t11 -27q0 -17 -11 -28t-26 -11zM369 739
q19 0 30 11t11 30q0 17 -11 28t-30 11q-17 0 -28 -11t-11 -28q0 -19 11 -30t28 -11zM5304 739q17 0 28 11t11 30q0 17 -11 28t-28 11q-19 0 -30 -11t-11 -28q0 -19 11 -30t30 -11zM5458 741q-15 0 -26 11t-11 28q0 15 11 27t26 12q17 0 28 -11.5t11 -27.5q0 -17 -11 -28
t-28 -11zM82 750q-12 0 -21.5 8.5t-9.5 21.5q0 11 9.5 20t21.5 9q10 0 19.5 -9.5t9.5 -19.5q0 -13 -9 -21.5t-20 -8.5zM5591 750q-11 0 -20 8.5t-9 21.5q0 10 9 19.5t20 9.5q12 0 21.5 -9t9.5 -20q0 -13 -9.5 -21.5t-21.5 -8.5zM485 760v35h1925v-35h-1925zM3260 760v35
h1926v-35h-1926z" />
    <glyph glyph-name="BranchPetalsLg.orn" horiz-adv-x="2799" 
d="M549 991q-9 4 -23 12t-43 37t-41 64q-15 41 -8 65q5 12 17.5 17.5t25.5 1.5q19 -7 26.5 -34.5t17.5 -73t32 -79.5q4 -4 4 -8q-1 -2 -8 -2zM2251 991q-7 0 -8 2q0 4 4 8q22 34 32 79.5t17 73t26 34.5q13 4 25.5 -1.5t17.5 -17.5q7 -24 -8 -65q-12 -35 -38.5 -63t-46.5 -39
zM848 854l-8 4q-8 7 -19 19t-29.5 49t-17.5 73q-3 47 17 62q23 27 49 4q15 -11 12.5 -47t-9.5 -74t3 -80q5 -10 2 -10zM1952 854q-3 0 2 10q6 28 4.5 60t-7 59t-4.5 50t13 32q26 23 49 -4q19 -14 16 -62q1 -36 -15.5 -71.5t-33.5 -52.5l-16 -17zM111 971q-44 16 -56 37
q-6 11 -1.5 23t16.5 20q17 11 49.5 -4t73 -35.5t69.5 -20.5q10 0 10 -4q0 -5 -6 -8q-3 -2 -8.5 -4t-23 -7.5t-35 -7.5t-42 0t-46.5 11zM2689 971q-40 -13 -75 -11.5t-58 10.5l-23 9q-6 3 -6 8q0 4 10 4q29 0 69.5 20.5t73.5 35.5t50 4q12 -7 16 -20t-2 -23q-12 -21 -55 -37z
M1399 932q-13 0 -24 11t-11 24q0 15 10.5 26t24.5 11q15 0 26 -11t11 -26q0 -14 -11 -24.5t-26 -10.5zM1206 834q-3 0 -9.5 -0.5t-24.5 0t-35.5 4.5t-39.5 14t-40 25q-31 21 -37 51q-2 15 6 26.5t23 14.5q19 3 38.5 -16.5t51.5 -54t69 -54.5q9 -2 9 -6t-11 -4zM1593 834
q-10 0 -10 4q0 2 2 3.5t4 2.5h2q37 20 69 54.5t52 54t39 16.5q15 -3 23 -14.5t6 -26.5q-6 -30 -37 -51q-28 -24 -65.5 -35t-61.5 -10zM1051 688q-64 0 -130.5 22t-123 54t-112 63.5t-117 53.5t-117.5 22q-103 0 -180.5 -45.5t-120.5 -118.5h-66q40 101 144 160t223 59
q66 0 132 -22t122 -54t110 -63.5t116 -53.5t120 -22q193 0 305 160h88q112 -160 305 -160q58 0 120 22t116 53.5t110 63.5t122 54t132 22q119 0 223 -59t144 -160h-66q-43 73 -120.5 118.5t-180.5 45.5q-56 0 -117.5 -22t-117 -53.5t-112 -63.5t-123 -54t-130.5 -22
q-117 0 -205 50t-143 136q-123 -186 -350 -186zM319 618q-10 -10 -24 -8t-25 13q-14 23 -14 63q0 36 16 71t32 51l15 17q1 1 3 2q5 4 6 0l-2 -8q-5 -35 -2 -68t9 -58.5t3.5 -45.5t-17.5 -29zM2480 618q-15 12 -13 43t9 69t-2 89q-2 4 -2 8q1 4 5 0q2 -1 3 -2q3 -2 7 -6.5
t15 -19t19.5 -29.5t15.5 -38t7 -46q0 -38 -15 -63q-11 -11 -25 -13t-24 8zM557 635q-31 12 -22 47q16 27 45 45q33 19 70 22.5t58 -2.5l21 -6q10 -5 10 -6l-6 -4q-39 -13 -76 -41t-60 -44.5t-40 -10.5zM2243 635q-17 -6 -40.5 10.5t-60.5 44.5t-76 41q-6 2 -6 4q0 1 11 6
q8 3 22.5 6.5t54 1t72.5 -21.5q29 -18 45 -45q9 -35 -22 -47zM102 618q-15 0 -25.5 11t-10.5 26q0 14 10.5 24.5t25.5 10.5q14 0 24.5 -11t10.5 -24q0 -15 -10.5 -26t-24.5 -11zM2697 618q-14 0 -24.5 11t-10.5 26q0 13 11 24t24 11q15 0 26 -10.5t11 -24.5q0 -15 -11 -26
t-26 -11zM963 459q-13 -4 -24.5 5t-14.5 23q-3 21 16 64q19 32 51.5 54.5t54.5 28.5l23 7q1 0 2 1q6 2 6 -3l-6 -10q-23 -24 -39.5 -55.5t-23.5 -54t-18 -40t-27 -20.5zM1837 459q-16 3 -27 20.5t-18 40t-23.5 54t-39.5 55.5q-7 6 -7 10q1 4 9 2q10 -2 25.5 -7t50 -28
t53.5 -55q19 -43 16 -64q-3 -14 -14.5 -23t-24.5 -5z" />
    <glyph glyph-name="Flower.orn" horiz-adv-x="729" 
d="M236 350q-28 0 -70.5 33.5t-42.5 62.5q0 21 15.5 49.5t15.5 65.5q0 50 -8 68t-31 18q-26 0 -45 21t-19 55q0 35 20.5 52.5t50.5 21t59.5 7t50 18t20.5 46.5q0 59 26.5 90t73.5 31q48 0 68 -42.5t20 -121.5q0 -22 15.5 -36.5t46.5 -14.5q26 0 48 17.5t50 17.5
q34 0 56 -28.5t22 -75.5q0 -46 -19 -67.5t-63 -21.5q-31 0 -48 -11t-19.5 -21t-2.5 -25q0 -19 22.5 -50t22.5 -63q0 -38 -67 -38q-32 0 -67.5 20.5t-65.5 20.5q-15 0 -28.5 -15.5t-24 -34t-32.5 -34t-50 -15.5zM393 545q18 0 29.5 5t18 10.5t9 21.5t3 26t0.5 35q0 33 -25 56
t-53 31.5t-51 8.5q-40 0 -65.5 -27.5t-25.5 -56.5q0 -53 49 -81.5t111 -28.5z" />
    <glyph glyph-name="BorderDotsTopLeft" horiz-adv-x="2396" 
d="M59 1622q7 9 19 9t20 -9q8 -8 8 -19t-8 -20q-8 -7 -20 -7t-19 7q-7 9 -7 20t7 19zM193 1489q-11 -11 -26 -11t-26 11t-11 26t11 25t26 10t26 -10t11 -25t-11 -26zM455 1489q13 -8 12 -32t-8 -44.5t-12.5 -56.5t-2.5 -68v-8q-2 -5 -6 2q-7 7 -16.5 20t-24 51t-10.5 74
q2 41 23 62q9 11 22.5 11t22.5 -11zM311 1370q-17 -15 -40 -15t-40 15q-15 17 -15 40t15 40q18 16 41 16.5t39 -16.5q17 -16 16.5 -39t-16.5 -41zM299 1382q12 12 12 28t-12 28t-27.5 12t-27.5 -12q-11 -10 -10.5 -26t12.5 -28t27.5 -12.5t25.5 10.5zM725 1417
q15 -15 14 -33.5t-16 -33.5q-14 -14 -28 -20t-38.5 -11t-40.5 -10q-85 -26 -127 -68q-4 -4 -8 -4q-8 8 11.5 56t48.5 77q21 21 43.5 36.5t47.5 25.5t49.5 6.5t43.5 -21.5zM2105 1346q-15 0 -26 10.5t-11 25.5t11 26t26 11t26 -11t11 -26t-11 -25.5t-26 -10.5zM2224 1354
q-12 0 -20.5 8t-8.5 20t8.5 20.5t20.5 8.5t20.5 -8.5t8.5 -20.5t-8.5 -20t-20.5 -8zM2322 1360q-9 0 -15.5 6.5t-6.5 15.5t6.5 16t15.5 7t16 -7t7 -16t-7 -15.5t-16 -6.5zM819 1370v27h1188v-27h-1188zM406 1241h-9q-32 3 -67.5 -2.5t-56 -12t-44.5 -7.5t-32 12
q-11 9 -11 22.5t11 22.5q20 20 61 22q36 4 73 -9t56 -27l19 -15q4 -4 0 -6zM449 1204q0 -3 -5 -8q-40 -40 -67 -127q-5 -16 -10 -40t-11 -38t-20 -28q-15 -15 -34 -16t-34 14q-18 19 -21.5 43.5t6.5 49.5t25.5 47.5t36.5 43.5q29 29 77.5 48t56.5 11zM283 -324v1188h26
v-1188h-26zM295 -459q-15 0 -26 11t-11 26t11 26t26 11t26 -11t11 -26t-11 -26t-26 -11zM295 -569q-12 0 -20.5 8t-8.5 20t8.5 20.5t20.5 8.5t20.5 -8.5t8.5 -20.5t-8.5 -20t-20.5 -8zM295 -662q-9 0 -16 7t-7 16t7 16t16 7t15.5 -7t6.5 -16t-6.5 -16t-15.5 -7z" />
    <glyph glyph-name="BorderTopLeft" horiz-adv-x="1445" 
d="M61 1622q8 9 19.5 9t19.5 -9q8 -8 8 -19t-8 -20q-8 -7 -20 -7t-19 7q-7 9 -7 20t7 19zM195 1489q-11 -11 -26 -11t-26 11t-11 26t11 25t26 10t26 -10t11 -25t-11 -26zM457 1489q13 -8 12 -32t-8 -44.5t-12.5 -56.5t-2.5 -68v-8q-2 -5 -6 2q-7 7 -16.5 20t-24 51t-10.5 74
q2 41 23 62q9 11 22.5 11t22.5 -11zM313 1370q-17 -15 -40 -15t-40 15q-15 17 -15 40t15 40q18 16 41 16.5t39 -16.5q17 -16 16.5 -39t-16.5 -41zM301 1382q12 12 12 28t-12 28t-27.5 12t-27.5 -12q-11 -10 -10.5 -26t12.5 -28t27.5 -12.5t25.5 10.5zM727 1417
q15 -15 14 -33.5t-16 -33.5q-14 -14 -28 -20t-38.5 -11t-40.5 -10q-84 -26 -126 -68q-4 -4 -9 -4q-8 8 11.5 56t48.5 77q21 21 43.5 36.5t47.5 25.5t49.5 6.5t43.5 -21.5zM1395 1395v-23h-574v23h574zM408 1241h-9q-32 3 -67.5 -2.5t-56 -12t-44.5 -7.5t-32 12
q-11 9 -11 22.5t11 22.5q20 20 61 22q36 4 73 -9t56 -27l19 -15q4 -4 0 -6zM451 1204q0 -3 -5 -8q-40 -40 -67 -127q-5 -16 -10 -40t-11 -38t-20 -28q-15 -15 -34 -16t-34 14q-18 19 -21.5 43.5t6.5 49.5t25.5 47.5t36.5 43.5q29 29 77.5 48t56.5 11zM287 864h22v-573h-22
v573z" />
    <glyph glyph-name="BorderTopRight" horiz-adv-x="1441" 
d="M1382 1733q9 -7 9 -19t-9 -20q-8 -8 -19 -8t-20 8q-7 8 -7 20t7 19q9 7 20 7t19 -7zM1249 1599q-11 11 -11 26t11 26t26 11t25 -11t10 -26t-10 -26t-25 -11t-26 11zM1001 1386v9q3 32 -2.5 67.5t-12 56t-7.5 44.5t12 32q9 11 22.5 11t22.5 -11q21 -21 23 -61
q4 -36 -9 -73t-28 -56l-14 -19q-5 -5 -7 0zM1130 1481q-15 17 -15 40t15 40q17 15 40 15t40 -15q16 -18 16.5 -41t-16.5 -39q-16 -17 -39 -16.5t-41 16.5zM1143 1493q12 -12 27.5 -12t27.5 12t12 27.5t-12 27.5q-10 11 -25.5 10.5t-27.5 -12.5t-12.5 -27.5t10.5 -25.5z
M965 1343q-4 0 -9 5q-40 40 -127 67q-16 5 -40 10t-38 11t-28 20q-15 15 -16 34t14 34q19 18 43.5 21.5t49.5 -6.5t47.5 -25.5t43.5 -36.5q29 -29 48.5 -77.5t11.5 -56.5zM625 1507v-22h-574v22h574zM1249 1337q-8 -13 -32 -12t-44.5 8t-56 12.5t-67.5 2.5h-9q-5 2 2 6
q7 7 20 16.5t51.5 24t74.5 10.5q40 -2 61 -23q11 -9 11 -22.5t-11 -22.5zM1178 1067q-15 -15 -34 -14t-34 16q-14 14 -20 28t-11 38.5t-10 40.5q-26 85 -68 127q-4 4 -4 8q8 8 56 -11.5t77 -48.5q21 -21 36.5 -43.5t25.5 -47.5t7 -49.5t-21 -43.5zM1155 399h-22v574h22v-574
z" />
    <glyph glyph-name="BorderBottomLeft" horiz-adv-x="1441" 
d="M287 1346h22v-574h-22v574zM264 678q15 15 34 14t34 -16q14 -14 20 -28t11 -38.5t10 -40.5q27 -87 67 -127q4 -4 4 -8q-8 -8 -56 11.5t-77 48.5q-21 21 -36.5 43.5t-25.5 47.5t-6.5 49.5t21.5 43.5zM193 408q8 13 32 12t44.5 -8t56 -12.5t67.5 -2.5h8q5 -3 -2 -6
q-7 -7 -20 -16.5t-51 -24t-74 -10.5q-41 2 -61 22q-11 9 -11 23t11 23zM477 401q4 0 8 -4q40 -40 127 -67q16 -5 40.5 -10t38.5 -11t28 -20q15 -15 16 -34t-14 -34q-19 -18 -43.5 -21.5t-49.5 6.5t-47.5 25.5t-43.5 36.5q-29 29 -48.5 77t-11.5 56zM440 358v-8
q-3 -32 2.5 -67.5t12.5 -56t8 -44.5t-12 -32q-9 -10 -22.5 -10t-22.5 10q-21 21 -23 61q-4 36 9 73t28 56l14 18q4 4 6 0zM311 264q15 -17 15 -40t-15 -40q-17 -15 -40 -15t-40 15q-16 18 -16.5 41t16.5 39q16 17 39 16.5t41 -16.5zM299 252q-12 12 -27.5 12t-27.5 -12
t-12 -27.5t12 -27.5q10 -11 25.5 -10.5t27.5 12.5t12.5 27.5t-10.5 25.5zM817 238v22h574v-22h-574zM193 145q11 -11 11 -26t-11 -25t-26 -10t-26 10t-11 25t11 26t26 11t26 -11zM59 12q-9 8 -9 20t9 19q7 7 18.5 7t20.5 -7q8 -7 8 -19t-8 -20q-9 -8 -20.5 -8t-18.5 8z" />
    <glyph glyph-name="BorderBottomRight" horiz-adv-x="1441" 
d="M1155 772h-22v574h22v-574zM991 432q0 4 4 8q42 42 68 127q5 16 10 40.5t11 38.5t20 28q34 34 67 2q18 -19 21.5 -43.5t-6.5 -49.5t-25.5 -47.5t-36.5 -43.5q-29 -29 -77 -48.5t-56 -11.5zM1034 395h8q32 -3 68 2.5t56.5 12.5t44.5 8t32 -12q11 -9 11 -23t-11 -23
q-20 -20 -61 -22q-36 -4 -73 9t-56 27l-19 15q-4 4 0 6zM715 219q-15 15 -14 34t16 34q14 14 28 20t38 11t40 10q87 27 127 67q4 4 8 4q8 -8 -11 -56t-48 -77q-21 -21 -43.5 -36.5t-47.5 -25.5t-49.5 -6.5t-43.5 21.5zM985 147q-13 8 -12 32t7.5 44.5t12 56.5t2.5 68v8
q3 5 6 -2q7 -7 16.5 -20t24.5 -51t11 -74q-2 -41 -23 -62q-9 -11 -22.5 -11t-22.5 11zM1128 266q17 15 40 15t40 -15q15 -17 15 -40t-15 -40q-18 -16 -41 -16.5t-39 16.5q-17 16 -16.5 39t16.5 41zM1141 254q-12 -12 -12 -27.5t12 -27.5t27.5 -12t27.5 12q11 10 10.5 25.5
t-12.5 27.5t-27.5 12.5t-25.5 -10.5zM47 242v22h574v-22h-574zM1247 147q11 11 26 11t25 -11t10 -26t-10 -25t-25 -10t-26 10t-11 25t11 26zM1380 14q-8 -9 -20 -9t-19 9q-7 8 -7 19t7 20q7 7 19 7t20 -7q8 -9 8 -20t-8 -19z" />
    <glyph glyph-name="BorderDotsTopRight" horiz-adv-x="2398" 
d="M2339 1622q9 -8 9 -20t-9 -19q-7 -7 -18.5 -7t-20.5 7q-8 7 -8 19t8 20q9 8 20.5 8t18.5 -8zM2206 1489q-10 11 -10 26t10 25t25 10t26 -10t11 -25t-11 -26t-26 -11t-25 11zM1958 1276v8q3 32 -2.5 68t-12 56.5t-7.5 44.5t12 32q9 11 22.5 11t22.5 -11q20 -20 22 -62
q4 -36 -9 -73t-28 -56l-14 -18q-4 -4 -6 0zM2087 1370q-15 17 -15 40t15 40q17 15 40 15t40 -15q16 -18 16.5 -41t-16.5 -39q-16 -17 -39 -16.5t-41 16.5zM2099 1382q12 -12 27.5 -12t27.5 12t12 28t-12 28q-10 11 -25.5 10.5t-27.5 -12.5t-12.5 -28t10.5 -26zM1921 1233
q-4 0 -8 4q-42 42 -127 68q-16 5 -40.5 10t-38.5 11t-28 20q-15 15 -16 33.5t14 33.5q25 26 60 21.5t66 -22.5t59 -46q29 -29 48 -77t11 -56zM258 1386q0 15 11 26t26 11t26 -11t11 -26t-11 -25.5t-26 -10.5t-26 10.5t-11 25.5zM147 1386q0 12 8.5 20.5t20.5 8.5t20.5 -8.5
t8.5 -20.5t-8.5 -20t-20.5 -8t-20.5 8t-8.5 20zM55 1386q0 9 7 16t16 7t15.5 -7t6.5 -16t-6.5 -15.5t-15.5 -6.5t-16 6.5t-7 15.5zM393 1399h1188v-27h-1188v27zM2206 1227q-8 -13 -32 -12t-44.5 7.5t-56.5 12t-68 2.5h-8q-5 3 2 6q7 7 20 16.5t51 24t74 10.5q42 -2 62 -22
q10 -9 10 -22.5t-10 -22.5zM2134 956q-15 -15 -34 -14t-34 16q-14 14 -20 28t-11 38.5t-10 40.5q-27 87 -67 127q-4 4 -4 8q8 8 56 -11t77 -48q28 -28 46 -59t22.5 -66t-21.5 -60zM2087 862h27v-1188h-27v1188zM2062 -424q0 15 11 26t26 11t26 -11t11 -26t-11 -26t-26 -11
t-26 11t-11 26zM2071 -543q0 12 8 20.5t20 8.5t20.5 -8.5t8.5 -20.5t-8.5 -20t-20.5 -8t-20 8t-8 20zM2077 -641q0 9 6.5 16t15.5 7t16 -7t7 -16t-7 -16t-16 -7t-15.5 7t-6.5 16z" />
    <glyph glyph-name="BorderDotsBottomLeft" horiz-adv-x="2398" 
d="M322 1868q0 -9 -7 -16t-16 -7t-16 7t-7 16t7 15.5t16 6.5t16 -6.5t7 -15.5zM328 1769q0 -12 -8.5 -20t-20.5 -8t-20.5 8t-8.5 20t8.5 20.5t20.5 8.5t20.5 -8.5t8.5 -20.5zM336 1651q0 -15 -11 -26t-26 -11t-26 11t-11 26t11 26t26 11t26 -11t11 -26zM311 365h-26v1187h26
v-1187zM264 270q15 15 34 14t34 -16q14 -14 20 -28t11 -38t10 -40q27 -87 67 -127q4 -4 4 -8q-8 -8 -56 11t-77 48q-21 21 -36.5 43.5t-25.5 47.5t-6.5 49.5t21.5 43.5zM193 0q8 13 32 12t44.5 -7.5t56 -12t67.5 -2.5h8q5 -2 -2 -6q-7 -7 -20 -16.5t-51 -24.5t-74 -11
q-40 2 -61 23q-11 9 -11 22.5t11 22.5zM477 -6q4 0 8 -4q42 -42 127 -68q16 -5 40.5 -10t38.5 -11t28 -20q15 -15 16 -33.5t-14 -33.5q-19 -18 -43.5 -21.5t-49.5 6.5t-47.5 25.5t-43.5 36.5q-29 29 -48.5 77t-11.5 56zM440 -49v-8q-3 -32 2.5 -68t12.5 -56.5t8 -44.5
t-12 -32q-9 -10 -22.5 -10t-22.5 10q-21 21 -23 61q-4 36 9 73t28 56l14 19q4 4 6 0zM2140 -160q0 -15 -11 -26t-26 -11t-26 11t-11 26t11 26t26 11t26 -11t11 -26zM311 -143q15 -17 15 -40t-15 -40q-17 -15 -40 -15t-40 15q-16 18 -16.5 41t16.5 39q16 17 39 16.5t41 -16.5
zM2251 -160q0 -12 -8.5 -20t-20.5 -8t-20.5 8t-8.5 20t8.5 20.5t20.5 8.5t20.5 -8.5t8.5 -20.5zM2343 -160q0 -9 -7 -15.5t-16 -6.5t-15.5 6.5t-6.5 15.5t6.5 16t15.5 7t16 -7t7 -16zM299 -156q-12 12 -27.5 12t-27.5 -12t-12 -27.5t12 -27.5q10 -11 25.5 -10.5t27.5 12.5
t12.5 27.5t-10.5 25.5zM2005 -172h-1188v27h1188v-27zM193 -262q11 -10 11 -25t-11 -26t-26 -11t-26 11t-11 26t11 25t26 10t26 -10zM59 -395q-9 7 -9 19t9 20q7 8 18.5 8t20.5 -8q8 -8 8 -20t-8 -19q-9 -7 -20.5 -7t-18.5 7z" />
    <glyph glyph-name="BorderDotsBottomRigth" horiz-adv-x="2398" 
d="M2111 1868q0 9 7 15.5t16 6.5t16 -6.5t7 -15.5t-7 -16t-16 -7t-16 7t-7 16zM2105 1769q0 12 8.5 20.5t20.5 8.5t20.5 -8.5t8.5 -20.5t-8.5 -20t-20.5 -8t-20.5 8t-8.5 20zM2097 1651q0 15 11 26t26 11t26 -11t11 -26t-11 -26t-26 -11t-26 11t-11 26zM2122 365v1187h26
v-1187h-26zM2169 270q18 -19 21.5 -43.5t-6.5 -49.5t-25.5 -47.5t-36.5 -43.5q-29 -29 -77 -48t-56 -11q0 4 4 8q40 40 67 127q5 16 10 40t11 38t20 28q15 15 34 16t34 -14zM2241 0q11 -9 11 -22.5t-11 -22.5q-21 -21 -62 -23q-36 -4 -72.5 9t-54.5 28l-18 15q-7 4 -2 6h8
q32 -3 68 2.5t56.5 12t44.5 7.5t32 -12zM1956 -6q8 -8 -11.5 -56t-48.5 -77q-21 -21 -43.5 -36.5t-47.5 -25.5t-49.5 -6.5t-43.5 21.5q-32 32 2 67q14 14 28 20t38.5 11t40.5 10q85 26 127 68q4 4 8 4zM1993 -49q2 4 6 0q7 -7 16.5 -20.5t24 -52.5t10.5 -75q-2 -41 -22 -61
q-9 -10 -23 -10t-23 10q-13 8 -12 32t8 44.5t12.5 56.5t2.5 68v8zM293 -160q0 15 11 26t26 11t26 -11t11 -26t-11 -26t-26 -11t-26 11t-11 26zM2122 -143q18 16 41 16.5t39 -16.5q17 -16 16.5 -39t-16.5 -41q-17 -15 -40 -15t-40 15q-15 17 -15 40t15 40zM182 -160
q0 12 8.5 20.5t20.5 8.5t20.5 -8.5t8.5 -20.5t-8.5 -20t-20.5 -8t-20.5 8t-8.5 20zM90 -160q0 9 7 16t16 7t15.5 -7t6.5 -16t-6.5 -15.5t-15.5 -6.5t-16 6.5t-7 15.5zM2134 -156q-11 -10 -10.5 -25.5t12.5 -27.5t27.5 -12.5t25.5 10.5q12 12 12 27.5t-12 27.5t-27.5 12
t-27.5 -12zM428 -172v27h1188v-27h-1188zM2241 -262q11 10 26 10t25 -10t10 -25t-10 -26t-25 -11t-26 11t-11 26t11 25zM2374 -395q-8 -7 -19 -7t-20 7q-7 7 -7 19t7 20q9 8 20 8t19 -8q9 -8 9 -20t-9 -19z" />
    </font>
</defs>
</svg>
