<svg xmlns="http://www.w3.org/2000/svg" width="26.07" height="26.07" viewBox="0 0 26.07 26.07">
  <path id="circle-xmark-regular" d="M13.035,2.444A10.591,10.591,0,1,1,2.444,13.035,10.591,10.591,0,0,1,13.035,2.444Zm0,23.626A13.035,13.035,0,1,0,0,13.035,13.035,13.035,0,0,0,13.035,26.07ZM8.911,8.911a1.217,1.217,0,0,0,0,1.726L11.3,13.03,8.911,15.423a1.221,1.221,0,1,0,1.726,1.726l2.393-2.393,2.393,2.393a1.221,1.221,0,1,0,1.726-1.726L14.756,13.03l2.393-2.393a1.221,1.221,0,1,0-1.726-1.726L13.03,11.3,10.637,8.911A1.217,1.217,0,0,0,8.911,8.911Z" fill="#263680"/>
</svg>
