<?xml version="1.0" encoding="utf-8"?>
<!-- Generator: Adobe Illustrator 16.0.0, SVG Export Plug-In . SVG Version: 6.00 Build 0)  -->
<!DOCTYPE svg PUBLIC "-//W3C//DTD SVG 1.1//EN" "http://www.w3.org/Graphics/SVG/1.1/DTD/svg11.dtd">
<svg version="1.1" id="Layer_1" xmlns="http://www.w3.org/2000/svg" xmlns:xlink="http://www.w3.org/1999/xlink" x="0px" y="0px"
	 width="100px" height="100px" viewBox="0 0 100 100" enable-background="new 0 0 100 100" xml:space="preserve">
<g>
	<path fill-rule="evenodd" clip-rule="evenodd" fill="#EA295C" d="M50.458,26.009c-11.654-0.15-21.483,9.568-21.443,21.193
		c0.05,11.524,9.479,20.862,21.112,20.891c11.815,0.041,20.853-8.936,20.942-20.801C71.149,35.538,62.083,26.17,50.458,26.009z
		 M50.317,56.049c-5.004,0.08-9.428-4.133-9.458-9.027c-0.04-4.834,4.434-9.237,9.358-9.217c4.794,0.01,8.906,4.032,9.066,8.866
		C59.455,51.826,55.504,55.969,50.317,56.049z"/>
	<path fill-rule="evenodd" clip-rule="evenodd" fill="#EA295C" d="M88.932,24.164C80.527,8.829,66.937,1.125,49.536,0.985
		C28.062,0.805,8.885,17.103,5.635,37.624c-3.58,22.606,8.234,42.968,29.277,50.479c1.153,0.402,2.267,0.893,3.591,1.414
		c-3.029,3.871-7.011,5.809-11.323,9.469c26.157,0.633,46.407-8.545,60.309-29.246C97.187,55.297,97.308,39.419,88.932,24.164z
		 M50.007,79.77c-18.124,0-32.325-14.463-32.376-32.958C17.59,28.166,31.582,13.643,49.666,13.542
		c18.174-0.09,33.089,14.934,32.928,33.168C82.434,65.006,67.88,79.758,50.007,79.77z"/>
	<path fill-rule="evenodd" clip-rule="evenodd" fill="#EA295C" d="M50.458,26.009c-11.654-0.15-21.483,9.568-21.443,21.193
		c0.05,11.524,9.479,20.862,21.112,20.891c11.815,0.041,20.853-8.936,20.942-20.801C71.149,35.538,62.083,26.17,50.458,26.009z
		 M50.317,56.049c-5.004,0.08-9.428-4.133-9.458-9.027c-0.04-4.834,4.434-9.237,9.358-9.217c4.794,0.01,8.906,4.032,9.066,8.866
		C59.455,51.826,55.504,55.969,50.317,56.049z"/>
</g>
</svg>
