<?xml version="1.0" encoding="UTF-8"?><svg id="Layer_2" xmlns="http://www.w3.org/2000/svg" xmlns:xlink="http://www.w3.org/1999/xlink" viewBox="0 0 1000 1000"><defs><style>.cls-1{fill:url(#linear-gradient);}.cls-1,.cls-2,.cls-3,.cls-4,.cls-5,.cls-6,.cls-7,.cls-8,.cls-9,.cls-10,.cls-11,.cls-12,.cls-13,.cls-14,.cls-15,.cls-16,.cls-17,.cls-18,.cls-19,.cls-20,.cls-21,.cls-22,.cls-23,.cls-24,.cls-25,.cls-26,.cls-27,.cls-28,.cls-29,.cls-30,.cls-31,.cls-32,.cls-33,.cls-34,.cls-35,.cls-36,.cls-37,.cls-38,.cls-39,.cls-40,.cls-41,.cls-42,.cls-43,.cls-44,.cls-45,.cls-46,.cls-47,.cls-48,.cls-49,.cls-50,.cls-51,.cls-52,.cls-53,.cls-54,.cls-55,.cls-56,.cls-57,.cls-58,.cls-59,.cls-60,.cls-61,.cls-62{stroke-width:0px;}.cls-2{fill:url(#New_Gradient_Swatch_copy_8-19);}.cls-3{fill:url(#New_Gradient_Swatch_copy_8-11);}.cls-4{fill:url(#New_Gradient_Swatch_copy_8-14);}.cls-5{fill:url(#New_Gradient_Swatch_copy_8-17);}.cls-6{fill:url(#New_Gradient_Swatch_copy_8-16);}.cls-7{fill:url(#New_Gradient_Swatch_copy_8-13);}.cls-8{fill:url(#New_Gradient_Swatch_copy_8-18);}.cls-9{fill:url(#New_Gradient_Swatch_copy_8-10);}.cls-10{fill:url(#New_Gradient_Swatch_copy_8-15);}.cls-11{fill:url(#New_Gradient_Swatch_copy_8-12);}.cls-12{fill:url(#New_Gradient_Swatch_copy_8-21);}.cls-13{fill:url(#New_Gradient_Swatch_copy_8-26);}.cls-14{fill:url(#New_Gradient_Swatch_copy_8-23);}.cls-15{fill:url(#New_Gradient_Swatch_copy_8-20);}.cls-16{fill:url(#New_Gradient_Swatch_copy_8-25);}.cls-17{fill:url(#New_Gradient_Swatch_copy_8-24);}.cls-18{fill:url(#New_Gradient_Swatch_copy_8-28);}.cls-19{fill:url(#New_Gradient_Swatch_copy_8-22);}.cls-20{fill:url(#New_Gradient_Swatch_copy_8-29);}.cls-21{fill:url(#New_Gradient_Swatch_copy_8-27);}.cls-22{fill:url(#New_Gradient_Swatch_copy_8-48);}.cls-23{fill:url(#New_Gradient_Swatch_copy_8-47);}.cls-24{fill:url(#New_Gradient_Swatch_copy_8-49);}.cls-25{fill:url(#New_Gradient_Swatch_copy_8-46);}.cls-26{fill:url(#New_Gradient_Swatch_copy_8-40);}.cls-27{fill:url(#New_Gradient_Swatch_copy_8-41);}.cls-28{fill:url(#New_Gradient_Swatch_copy_8-45);}.cls-29{fill:url(#New_Gradient_Swatch_copy_8-42);}.cls-30{fill:url(#New_Gradient_Swatch_copy_8-43);}.cls-31{fill:url(#New_Gradient_Swatch_copy_8-44);}.cls-32{fill:url(#New_Gradient_Swatch_copy_8-35);}.cls-33{fill:url(#New_Gradient_Swatch_copy_8-37);}.cls-34{fill:url(#New_Gradient_Swatch_copy_8-39);}.cls-35{fill:url(#New_Gradient_Swatch_copy_8-36);}.cls-36{fill:url(#New_Gradient_Swatch_copy_8-30);}.cls-37{fill:url(#New_Gradient_Swatch_copy_8-32);}.cls-38{fill:url(#New_Gradient_Swatch_copy_8-58);}.cls-39{fill:url(#New_Gradient_Swatch_copy_8-53);}.cls-40{fill:url(#New_Gradient_Swatch_copy_8-59);}.cls-41{fill:url(#New_Gradient_Swatch_copy_8-56);}.cls-42{fill:url(#New_Gradient_Swatch_copy_8-50);}.cls-43{fill:url(#New_Gradient_Swatch_copy_8-55);}.cls-44{fill:url(#New_Gradient_Swatch_copy_8-52);}.cls-45{fill:url(#New_Gradient_Swatch_copy_8-51);}.cls-46{fill:url(#New_Gradient_Swatch_copy_8-57);}.cls-47{fill:url(#New_Gradient_Swatch_copy_8-34);}.cls-48{fill:url(#New_Gradient_Swatch_copy_8-31);}.cls-49{fill:url(#New_Gradient_Swatch_copy_8-38);}.cls-50{fill:url(#New_Gradient_Swatch_copy_8-33);}.cls-51{fill:url(#New_Gradient_Swatch_copy_8-54);}.cls-52{fill:url(#New_Gradient_Swatch_copy_8-5);}.cls-53{fill:url(#New_Gradient_Swatch_copy_8-4);}.cls-54{fill:url(#New_Gradient_Swatch_copy_8-2);}.cls-55{fill:url(#New_Gradient_Swatch_copy_8-7);}.cls-56{fill:url(#New_Gradient_Swatch_copy_8-3);}.cls-57{fill:url(#New_Gradient_Swatch_copy_8-6);}.cls-58{fill:url(#New_Gradient_Swatch_copy_8-9);}.cls-59{fill:url(#New_Gradient_Swatch_copy_8-8);}.cls-60{fill:url(#New_Gradient_Swatch_copy_8);}.cls-61{fill:url(#linear-gradient-2);}.cls-62{fill:#a6eddf;}</style><linearGradient id="linear-gradient" x1="282.08" y1="724.24" x2="725.15" y2="-19.86" gradientUnits="userSpaceOnUse"><stop offset=".17" stop-color="#a6eddf"/><stop offset=".36" stop-color="#a3e9dd"/><stop offset=".5" stop-color="#9de0da"/><stop offset=".63" stop-color="#91d0d4"/><stop offset=".74" stop-color="#81b9cc"/><stop offset=".86" stop-color="#6d9bc1"/><stop offset=".96" stop-color="#5477b5"/><stop offset="1" stop-color="#4a69b0"/></linearGradient><linearGradient id="linear-gradient-2" x1="1086.65" y1="457.06" x2="130.26" y2="519.58" gradientUnits="userSpaceOnUse"><stop offset=".22" stop-color="#a6eddf"/><stop offset=".32" stop-color="#99eadb"/><stop offset=".49" stop-color="#77e2d3"/><stop offset=".72" stop-color="#42d6c6"/><stop offset=".96" stop-color="#06c9b7"/></linearGradient><linearGradient id="New_Gradient_Swatch_copy_8" x1="600.03" y1="301.03" x2="-99.77" y2="615.75" gradientUnits="userSpaceOnUse"><stop offset="0" stop-color="#a6eddf"/><stop offset=".14" stop-color="#a0e4db"/><stop offset=".36" stop-color="#8fcdd3"/><stop offset=".63" stop-color="#75a6c6"/><stop offset=".95" stop-color="#5072b3"/><stop offset="1" stop-color="#4a69b0"/></linearGradient><linearGradient id="New_Gradient_Swatch_copy_8-2" x1="599.12" y1="298.99" x2="-100.68" y2="613.71" xlink:href="#New_Gradient_Swatch_copy_8"/><linearGradient id="New_Gradient_Swatch_copy_8-3" x1="637.61" y1="384.6" x2="-62.19" y2="699.31" xlink:href="#New_Gradient_Swatch_copy_8"/><linearGradient id="New_Gradient_Swatch_copy_8-4" x1="644.63" y1="400.2" x2="-55.17" y2="714.91" xlink:href="#New_Gradient_Swatch_copy_8"/><linearGradient id="New_Gradient_Swatch_copy_8-5" x1="599.61" y1="300.09" x2="-100.19" y2="614.8" xlink:href="#New_Gradient_Swatch_copy_8"/><linearGradient id="New_Gradient_Swatch_copy_8-6" x1="627.73" y1="362.62" x2="-72.07" y2="677.33" xlink:href="#New_Gradient_Swatch_copy_8"/><linearGradient id="New_Gradient_Swatch_copy_8-7" x1="617.02" y1="338.8" x2="-82.78" y2="653.52" xlink:href="#New_Gradient_Swatch_copy_8"/><linearGradient id="New_Gradient_Swatch_copy_8-8" x1="630.25" y1="368.23" x2="-69.55" y2="682.95" xlink:href="#New_Gradient_Swatch_copy_8"/><linearGradient id="New_Gradient_Swatch_copy_8-9" x1="621.02" y1="347.7" x2="-78.78" y2="662.41" xlink:href="#New_Gradient_Swatch_copy_8"/><linearGradient id="New_Gradient_Swatch_copy_8-10" x1="624.52" y1="355.48" x2="-75.28" y2="670.19" xlink:href="#New_Gradient_Swatch_copy_8"/><linearGradient id="New_Gradient_Swatch_copy_8-11" x1="603.99" y1="309.83" x2="-95.81" y2="624.54" xlink:href="#New_Gradient_Swatch_copy_8"/><linearGradient id="New_Gradient_Swatch_copy_8-12" x1="601.17" y1="303.55" x2="-98.63" y2="618.27" xlink:href="#New_Gradient_Swatch_copy_8"/><linearGradient id="New_Gradient_Swatch_copy_8-13" x1="612.49" y1="328.74" x2="-87.31" y2="643.46" xlink:href="#New_Gradient_Swatch_copy_8"/><linearGradient id="New_Gradient_Swatch_copy_8-14" x1="607.93" y1="318.59" x2="-91.87" y2="633.3" xlink:href="#New_Gradient_Swatch_copy_8"/><linearGradient id="New_Gradient_Swatch_copy_8-15" x1="650.01" y1="412.17" x2="-49.79" y2="726.89" xlink:href="#New_Gradient_Swatch_copy_8"/><linearGradient id="New_Gradient_Swatch_copy_8-16" x1="647.43" y1="406.43" x2="-52.37" y2="721.14" xlink:href="#New_Gradient_Swatch_copy_8"/><linearGradient id="New_Gradient_Swatch_copy_8-17" x1="675.29" y1="468.38" x2="-24.51" y2="783.1" xlink:href="#New_Gradient_Swatch_copy_8"/><linearGradient id="New_Gradient_Swatch_copy_8-18" x1="633.32" y1="375.05" x2="-66.48" y2="689.77" xlink:href="#New_Gradient_Swatch_copy_8"/><linearGradient id="New_Gradient_Swatch_copy_8-19" x1="716.26" y1="559.48" x2="16.46" y2="874.19" xlink:href="#New_Gradient_Swatch_copy_8"/><linearGradient id="New_Gradient_Swatch_copy_8-20" x1="749.58" y1="633.57" x2="49.78" y2="948.28" xlink:href="#New_Gradient_Swatch_copy_8"/><linearGradient id="New_Gradient_Swatch_copy_8-21" x1="627.58" y1="362.29" x2="-72.22" y2="677.01" xlink:href="#New_Gradient_Swatch_copy_8"/><linearGradient id="New_Gradient_Swatch_copy_8-22" x1="710.56" y1="546.81" x2="10.76" y2="861.52" xlink:href="#New_Gradient_Swatch_copy_8"/><linearGradient id="New_Gradient_Swatch_copy_8-23" x1="654.3" y1="421.71" x2="-45.49" y2="736.43" xlink:href="#New_Gradient_Swatch_copy_8"/><linearGradient id="New_Gradient_Swatch_copy_8-24" x1="660.62" y1="435.75" x2="-39.18" y2="750.47" xlink:href="#New_Gradient_Swatch_copy_8"/><linearGradient id="New_Gradient_Swatch_copy_8-25" x1="657.78" y1="429.45" x2="-42.02" y2="744.16" xlink:href="#New_Gradient_Swatch_copy_8"/><linearGradient id="New_Gradient_Swatch_copy_8-26" x1="599.15" y1="299.07" x2="-100.65" y2="613.79" xlink:href="#New_Gradient_Swatch_copy_8"/><linearGradient id="New_Gradient_Swatch_copy_8-27" x1="662.91" y1="440.84" x2="-36.89" y2="755.56" xlink:href="#New_Gradient_Swatch_copy_8"/><linearGradient id="New_Gradient_Swatch_copy_8-28" x1="611.55" y1="326.65" x2="-88.25" y2="641.37" xlink:href="#New_Gradient_Swatch_copy_8"/><linearGradient id="New_Gradient_Swatch_copy_8-29" x1="664.78" y1="445.02" x2="-35.01" y2="759.73" xlink:href="#New_Gradient_Swatch_copy_8"/><linearGradient id="New_Gradient_Swatch_copy_8-30" x1="602.89" y1="307.39" x2="-96.91" y2="622.1" xlink:href="#New_Gradient_Swatch_copy_8"/><linearGradient id="New_Gradient_Swatch_copy_8-31" x1="721.9" y1="572.01" x2="22.1" y2="886.72" xlink:href="#New_Gradient_Swatch_copy_8"/><linearGradient id="New_Gradient_Swatch_copy_8-32" x1="738.63" y1="609.22" x2="38.83" y2="923.94" xlink:href="#New_Gradient_Swatch_copy_8"/><linearGradient id="New_Gradient_Swatch_copy_8-33" x1="733.06" y1="596.84" x2="33.27" y2="911.56" xlink:href="#New_Gradient_Swatch_copy_8"/><linearGradient id="New_Gradient_Swatch_copy_8-34" x1="727.49" y1="584.45" x2="27.69" y2="899.16" xlink:href="#New_Gradient_Swatch_copy_8"/><linearGradient id="New_Gradient_Swatch_copy_8-35" x1="704.81" y1="534.01" x2="5.01" y2="848.72" xlink:href="#New_Gradient_Swatch_copy_8"/><linearGradient id="New_Gradient_Swatch_copy_8-36" x1="693.13" y1="508.06" x2="-6.66" y2="822.77" xlink:href="#New_Gradient_Swatch_copy_8"/><linearGradient id="New_Gradient_Swatch_copy_8-37" x1="698.99" y1="521.09" x2="-.8" y2="835.8" xlink:href="#New_Gradient_Swatch_copy_8"/><linearGradient id="New_Gradient_Swatch_copy_8-38" x1="667.95" y1="452.06" x2="-31.85" y2="766.78" xlink:href="#New_Gradient_Swatch_copy_8"/><linearGradient id="New_Gradient_Swatch_copy_8-39" x1="687.23" y1="494.92" x2="-12.57" y2="809.64" xlink:href="#New_Gradient_Swatch_copy_8"/><linearGradient id="New_Gradient_Swatch_copy_8-40" x1="948.13" y1="334.72" x2="948.09" y2="334.74" xlink:href="#New_Gradient_Swatch_copy_8"/><linearGradient id="New_Gradient_Swatch_copy_8-41" x1="744.18" y1="621.56" x2="44.38" y2="936.28" xlink:href="#New_Gradient_Swatch_copy_8"/><linearGradient id="New_Gradient_Swatch_copy_8-42" x1="666.43" y1="448.67" x2="-33.37" y2="763.38" xlink:href="#New_Gradient_Swatch_copy_8"/><linearGradient id="New_Gradient_Swatch_copy_8-43" x1="669.46" y1="455.41" x2="-30.34" y2="770.13" xlink:href="#New_Gradient_Swatch_copy_8"/><linearGradient id="New_Gradient_Swatch_copy_8-44" x1="754.91" y1="645.41" x2="55.11" y2="960.13" xlink:href="#New_Gradient_Swatch_copy_8"/><linearGradient id="New_Gradient_Swatch_copy_8-45" x1="652.35" y1="417.38" x2="-47.44" y2="732.09" xlink:href="#New_Gradient_Swatch_copy_8"/><linearGradient id="New_Gradient_Swatch_copy_8-46" x1="635.68" y1="380.29" x2="-64.12" y2="695.01" xlink:href="#New_Gradient_Swatch_copy_8"/><linearGradient id="New_Gradient_Swatch_copy_8-47" x1="633.62" y1="375.72" x2="-66.18" y2="690.43" xlink:href="#New_Gradient_Swatch_copy_8"/><linearGradient id="New_Gradient_Swatch_copy_8-48" x1="634.08" y1="376.74" x2="-65.72" y2="691.45" xlink:href="#New_Gradient_Swatch_copy_8"/><linearGradient id="New_Gradient_Swatch_copy_8-49" x1="634.44" y1="377.55" x2="-65.36" y2="692.26" xlink:href="#New_Gradient_Swatch_copy_8"/><linearGradient id="New_Gradient_Swatch_copy_8-50" x1="636.77" y1="382.73" x2="-63.03" y2="697.44" xlink:href="#New_Gradient_Swatch_copy_8"/><linearGradient id="New_Gradient_Swatch_copy_8-51" x1="681.28" y1="481.7" x2="-18.52" y2="796.41" xlink:href="#New_Gradient_Swatch_copy_8"/><linearGradient id="New_Gradient_Swatch_copy_8-52" x1="635.89" y1="380.77" x2="-63.91" y2="695.49" xlink:href="#New_Gradient_Swatch_copy_8"/><linearGradient id="New_Gradient_Swatch_copy_8-53" x1="636.2" y1="381.45" x2="-63.6" y2="696.16" xlink:href="#New_Gradient_Swatch_copy_8"/><linearGradient id="New_Gradient_Swatch_copy_8-54" x1="639.27" y1="388.29" x2="-60.53" y2="703" xlink:href="#New_Gradient_Swatch_copy_8"/><linearGradient id="New_Gradient_Swatch_copy_8-55" x1="657.71" y1="429.29" x2="-42.09" y2="744" xlink:href="#New_Gradient_Swatch_copy_8"/><linearGradient id="New_Gradient_Swatch_copy_8-56" x1="669.3" y1="455.06" x2="-30.5" y2="769.77" xlink:href="#New_Gradient_Swatch_copy_8"/><linearGradient id="New_Gradient_Swatch_copy_8-57" x1="663.4" y1="441.94" x2="-36.4" y2="756.65" xlink:href="#New_Gradient_Swatch_copy_8"/><linearGradient id="New_Gradient_Swatch_copy_8-58" x1="632.54" y1="373.33" x2="-67.25" y2="688.04" xlink:href="#New_Gradient_Swatch_copy_8"/><linearGradient id="New_Gradient_Swatch_copy_8-59" x1="643.05" y1="396.69" x2="-56.75" y2="711.41" xlink:href="#New_Gradient_Swatch_copy_8"/></defs><path class="cls-1" d="m372.46,686.26c-15.83-10.75-27.14-24.74-38.87-38.25-48.39-55.7-106.88-105.82-173.7-148.83-16.77-10.8-34.21-21.26-47.46-34.59-13.26-13.34-22.16-30.1-19.59-48.04,3.53-24.62,28.44-47.5,57.76-61.22,29.32-13.71,62.61-19.7,95.15-24.08,32.54-4.38,65.46-7.48,97.18-16.33,49.38-13.78,92.36-40.46,133.42-67.06,41.06-26.6,82.59-54.21,130.98-70.63,48.39-16.42,106.05-19.63,143.31,2.18,30.99,18.13,42.46,49.55,50.54,79.69,10.77,40.17,18.09,81.22,21.9,122.81,2.45,26.82,3.28,54.69-9.32,81.47-12.61,26.78-41.58,52.43-77.61,59.15-30.46,5.68-60.13-2.73-90.76.66-65.04,7.18-104.32,57.69-122.52,100.66-12.62,29.8-20.67,62.83-65.98,74.14-32.56,8.12-61.55,3.82-84.41-11.72Z"/><path class="cls-61" d="m594.37,601.39c16.52,7.15,31.22,17.82,46.78,26.88,58.21,33.9,129.5,44.61,195.1,29.3,37.98-8.86,75.34-27.31,98.11-58.97,31.97-44.44,28.46-107.81,1.56-155.49-26.9-47.68-73.47-81.45-122.84-105.11-55.64-26.67-117.36-42.39-178.97-38.97-61.61,3.43-122.99,27.01-166.79,70.47-43.8,43.47-68.17,107.51-58.32,168.42,4.11,25.43,15.44,51.68,37.83,64.41,15.14,8.6,33.56,9.89,50.74,7.03,36.11-6.01,59.56-24.1,96.8-7.97Z"/><path class="cls-62" d="m783.2,772.39c-3.85,1.74-7.25,4.3-10.87,6.49-13.52,8.18-30.2,10.97-45.64,7.63-8.94-1.93-17.78-6.11-23.24-13.45-7.67-10.3-7.09-25.18-.97-36.46,6.12-11.29,16.91-19.39,28.4-25.13,12.95-6.47,27.36-10.4,41.82-9.83,14.46.56,28.95,5.86,39.39,15.88,10.44,10.02,16.41,24.95,14.33,39.27-.87,5.98-3.42,12.18-8.62,15.25-3.52,2.08-7.83,2.45-11.87,1.85-8.49-1.27-14.06-5.42-22.73-1.49Z"/><path class="cls-62" d="m381.89,101.62c-.94.42-1.77,1.05-2.65,1.58-3.29,1.99-7.36,2.67-11.12,1.86-2.18-.47-4.33-1.49-5.66-3.28-1.87-2.51-1.73-6.13-.24-8.88,1.49-2.75,4.12-4.72,6.92-6.12,3.15-1.58,6.66-2.53,10.19-2.4,3.52.14,7.05,1.43,9.59,3.87,2.54,2.44,4,6.08,3.49,9.57-.21,1.46-.83,2.97-2.1,3.71-.86.51-1.91.6-2.89.45-2.07-.31-3.43-1.32-5.54-.36Z"/><path class="cls-62" d="m372.9,168.86c-.08-4.11-.41-8.31-2.02-12.09-1.61-3.78-4.7-7.14-8.7-8.12-5.02-1.24-10.34,1.55-13.6,5.57-3.25,4.02-4.87,9.09-6.41,14.02-6.16,19.69-12.4,40.1-9.96,60.58.87,7.31,5.66,17.61,14.98,14.05,5.41-2.06,7.81-10.86,10.44-15.49,10.12-17.82,15.67-37.97,15.27-58.52Z"/><path class="cls-62" d="m608.45,711.32l-1.69,12.78-4.8-12.15c-.24-.62-.95-.92-1.57-.68-.62.24-.92.95-.68,1.57l4.74,11.99-10.1-8.28c-.51-.42-1.28-.34-1.7.17s-.34,1.28.17,1.7l9.97,8.17-12.85-2.32c-.65-.12-1.28.32-1.4.97-.12.65.32,1.28.97,1.4l13.96,2.52-12.53,7.13c-.58.33-.78,1.07-.45,1.65.33.58,1.07.78,1.65.45l11.21-6.37-6.78,11.16c-.34.57-.16,1.31.41,1.66.57.34,1.31.16,1.66-.41l6.69-11.02-.49,13.05c-.03.66.5,1.23,1.16,1.25.66.03,1.23-.5,1.25-1.16l.49-12.89,5.92,11.65c.3.59,1.03.83,1.62.53.59-.3.83-1.03.53-1.62l-5.84-11.5,10.83,7.3c.55.37,1.31.22,1.68-.33.37-.55.22-1.31-.33-1.68l-10.7-7.2,13.02,1.11c.66.06,1.25-.44,1.31-1.1h0c.06-.66-.44-1.25-1.1-1.31l-12.85-1.09,11.91-5.37c.61-.27.88-.99.6-1.6h0c-.27-.61-.99-.88-1.6-.6l-11.76,5.3,7.8-10.48c.4-.53.28-1.29-.25-1.69h0c-.53-.4-1.29-.28-1.69.25l-7.7,10.35,1.71-12.95c.09-.66-.38-1.27-1.04-1.36s-1.27.38-1.36,1.04Zm-.43,15.7c.08.21.21.4.4.54.12.09.25.15.39.19-.03.22,0,.45.09.67h0c.06.14.15.26.25.36-.14.18-.23.39-.25.63-.01.15,0,.3.05.43-.2.09-.39.23-.52.43-.08.13-.14.26-.17.4-.22-.02-.45.01-.66.12-.13.07-.25.16-.34.27-.18-.13-.4-.21-.64-.22-.15,0-.29.02-.43.07-.1-.2-.25-.38-.45-.5-.13-.08-.27-.13-.41-.15.01-.22-.03-.45-.15-.66-.14-.24-.35-.41-.59-.51.29-.17.52-.46.58-.82.03-.15.02-.29,0-.44.21-.07.41-.19.56-.38.1-.12.16-.25.21-.38.22.04.45.03.67-.06.14-.06.26-.14.37-.23.17.14.38.24.62.28h0c.15.02.3,0,.43-.03Z"/><path class="cls-62" d="m642.39,682.73c-1.7,9.41,4.55,18.41,13.96,20.1,9.41,1.7,18.41-4.55,20.1-13.96,1.7-9.41-4.55-18.41-13.96-20.1-9.41-1.7-18.41,4.55-20.1,13.96Zm29.83,5.38c-1.27,7.07-8.04,11.76-15.1,10.49-7.07-1.27-11.76-8.04-10.49-15.1,1.27-7.07,8.04-11.76,15.1-10.49,7.07,1.27,11.76,8.04,10.49,15.1Z"/><path class="cls-62" d="m548.86,814.38c-1.14,6.31,3.05,12.35,9.36,13.48,6.31,1.14,12.35-3.05,13.48-9.36,1.14-6.31-3.05-12.35-9.36-13.48-6.31-1.14-12.35,3.05-13.48,9.36Zm20.01,3.61c-.86,4.74-5.39,7.89-10.13,7.03-4.74-.86-7.89-5.39-7.03-10.13.86-4.74,5.39-7.89,10.13-7.03,4.74.85,7.89,5.39,7.03,10.13Z"/><path class="cls-62" d="m75.35,356.31l-1.69,12.78-4.8-12.15c-.24-.62-.95-.92-1.57-.68-.62.24-.92.95-.68,1.57l4.74,11.99-10.1-8.28c-.51-.42-1.28-.34-1.7.17-.42.51-.34,1.28.17,1.7l9.97,8.17-12.85-2.32c-.65-.12-1.28.32-1.4.97-.12.65.32,1.28.97,1.4l13.96,2.52-12.53,7.13c-.58.33-.78,1.07-.45,1.65.33.58,1.07.78,1.65.45l11.21-6.37-6.78,11.16c-.34.57-.16,1.31.41,1.66.57.34,1.31.16,1.66-.41l6.69-11.02-.49,13.05c-.03.66.5,1.23,1.16,1.25.66.03,1.23-.5,1.25-1.16l.49-12.89,5.92,11.65c.3.59,1.03.83,1.62.53.59-.3.83-1.03.53-1.62l-5.84-11.5,10.83,7.3c.55.37,1.31.22,1.68-.33.37-.55.22-1.31-.33-1.68l-10.7-7.2,13.02,1.11c.66.06,1.25-.44,1.31-1.1h0c.06-.66-.44-1.25-1.1-1.31l-12.85-1.09,11.91-5.37c.61-.27.88-.99.61-1.6h0c-.27-.61-.99-.88-1.6-.6l-11.76,5.3,7.8-10.48c.4-.53.28-1.29-.25-1.69h0c-.53-.4-1.29-.28-1.69.25l-7.7,10.35,1.71-12.95c.09-.66-.38-1.27-1.04-1.36-.66-.09-1.27.38-1.36,1.04Zm-.43,15.7c.08.21.21.4.4.54.12.09.25.15.39.19-.03.22,0,.45.09.67h0c.06.14.15.26.25.36-.14.18-.23.39-.25.63-.01.15,0,.3.05.43-.2.09-.39.23-.52.43-.08.13-.14.26-.17.4-.22-.02-.45.01-.66.12-.13.07-.25.16-.34.27-.18-.13-.4-.21-.64-.22-.15,0-.29.02-.43.07-.1-.2-.25-.38-.45-.5-.13-.08-.27-.13-.41-.15.01-.22-.03-.45-.15-.66-.14-.24-.35-.41-.59-.51.29-.17.52-.46.58-.82.03-.15.02-.29,0-.44.21-.07.41-.19.56-.38.1-.12.16-.25.21-.38.22.04.45.03.67-.06.14-.06.26-.14.37-.23.17.14.38.24.62.28h0c.15.02.3,0,.43-.03Z"/><path class="cls-62" d="m109.29,327.72c-1.7,9.41,4.55,18.41,13.96,20.1,9.41,1.7,18.41-4.55,20.1-13.96,1.7-9.41-4.55-18.41-13.96-20.1-9.41-1.7-18.41,4.55-20.1,13.96Zm29.83,5.38c-1.27,7.07-8.04,11.76-15.1,10.49-7.07-1.27-11.76-8.04-10.49-15.1,1.27-7.07,8.04-11.76,15.1-10.49,7.07,1.27,11.76,8.04,10.49,15.1Z"/><path class="cls-62" d="m758.77,82.34l2.76-12.6,3.77,12.51c.19.64.87,1,1.5.81s1-.87.81-1.5l-3.72-12.35,9.37,9.1c.48.46,1.25.45,1.71-.03s.45-1.25-.03-1.71l-9.25-8.98,12.62,3.39c.64.17,1.31-.21,1.48-.85.17-.64-.21-1.31-.85-1.48l-13.7-3.68,13.08-6.05c.6-.28.87-1,.59-1.6-.28-.6-1-.87-1.6-.59l-11.7,5.41,7.69-10.56c.39-.54.27-1.3-.26-1.69-.54-.39-1.3-.27-1.69.26l-7.59,10.42,1.59-12.97c.08-.66-.39-1.26-1.05-1.35-.66-.08-1.26.39-1.35,1.05l-1.57,12.8-4.92-12.1c-.25-.62-.96-.91-1.57-.66-.62.25-.91.96-.66,1.57l4.86,11.95-10.18-8.18c-.52-.42-1.28-.33-1.7.19-.42.52-.33,1.28.19,1.7l10.05,8.07-12.88-2.19c-.65-.11-1.28.33-1.39.99h0c-.11.65.33,1.28.99,1.39l12.71,2.16-12.32,4.35c-.63.22-.96.91-.74,1.54h0c.22.63.91.96,1.54.74l12.16-4.29-8.65,9.79c-.44.5-.39,1.26.11,1.7h0c.5.44,1.26.39,1.7-.11l8.54-9.66-2.79,12.76c-.14.65.27,1.3.92,1.44.65.14,1.3-.27,1.44-.92Zm1.74-15.6c-.06-.21-.18-.41-.36-.57-.11-.1-.24-.17-.37-.22.05-.22.05-.45-.03-.67h0c-.05-.14-.13-.27-.22-.38.15-.16.26-.37.3-.61.03-.15.02-.29,0-.43.21-.07.41-.2.56-.38.09-.12.16-.25.2-.38.22.04.45.02.67-.07.14-.06.26-.14.36-.24.17.14.38.24.62.27.15.02.3,0,.43-.03.08.21.22.4.41.54.12.09.26.15.39.19-.03.22,0,.45.1.67.12.25.31.44.54.56-.31.15-.55.42-.65.77-.04.15-.05.29-.03.43-.22.05-.42.16-.59.33-.1.11-.18.23-.24.36-.21-.06-.45-.07-.68,0-.14.04-.27.11-.39.2-.16-.16-.36-.28-.59-.33h0c-.15-.03-.29-.03-.43-.01Z"/><path class="cls-62" d="m722.55,107.98c2.48-9.23-2.99-18.72-12.22-21.2-9.23-2.48-18.72,2.99-21.2,12.22-2.48,9.23,2.99,18.72,12.22,21.2,9.23,2.48,18.72-2.99,21.2-12.22Zm-29.27-7.86c1.86-6.93,8.99-11.05,15.93-9.18,6.93,1.86,11.05,8.99,9.18,15.93-1.86,6.93-8.99,11.05-15.93,9.18-6.93-1.86-11.05-8.99-9.18-15.93Z"/><path class="cls-62" d="m825.48,184.59c-.94.42-1.77,1.05-2.65,1.58-3.29,1.99-7.36,2.67-11.12,1.86-2.18-.47-4.33-1.49-5.66-3.28-1.87-2.51-1.73-6.13-.24-8.88,1.49-2.75,4.12-4.72,6.92-6.12,3.15-1.58,6.66-2.53,10.19-2.4,3.52.14,7.05,1.43,9.59,3.87,2.54,2.44,4,6.08,3.49,9.57-.21,1.46-.83,2.97-2.1,3.71-.86.51-1.91.6-2.89.45-2.07-.31-3.43-1.32-5.54-.36Z"/><path class="cls-60" d="m894.81,457.4L532.63,51.44c-6.01-.96-12.03-1.27-18.04-.94l380.04,407.02c.06-.04.12-.08.18-.12Z"/><path class="cls-54" d="m888.92,460.96L506.45,51.34c-4.9.75-9.77,1.94-14.62,3.57l396.86,406.18c.08-.04.15-.09.23-.13Z"/><path class="cls-56" d="m916.33,441.43l-190.11-256.49c-6.65-4.43-13.26-8.93-19.81-13.5l209.83,270.08s.07-.06.1-.09Z"/><path class="cls-53" d="m921.25,436.88l-163.88-231.91c-5.15-3.19-10.27-6.43-15.37-9.71l179.16,241.71s.07-.06.1-.09Z"/><path class="cls-52" d="m876.42,467.73L467.22,67.47c-3.77,2.81-7.02,5.85-9.81,9.09l418.66,391.34c.12-.06.24-.12.36-.18Z"/><path class="cls-57" d="m911.24,445.73l-223.33-287.46c-9.37-6.81-18.64-13.77-27.79-20.87l251.02,308.41s.07-.06.11-.09Z"/><path class="cls-55" d="m840.3,483.42L441.07,172.9c-.06,4.88-.26,9.85-.59,14.85l398.91,296.02c.3-.12.61-.23.91-.35Z"/><path class="cls-59" d="m805.84,496.31l-379.44-243.44c-1.47,3.61-3.07,7.16-4.81,10.61l382.65,233.43c.53-.2,1.06-.4,1.6-.61Z"/><path class="cls-58" d="m832.13,486.52L439.85,195.42c-.44,4.5-1,9.01-1.69,13.52l392.9,277.98c.36-.13.71-.27,1.07-.4Z"/><path class="cls-9" d="m823.66,489.67L436.95,216.08c-.77,4.17-1.67,8.31-2.69,12.42l388.15,261.63c.41-.15.83-.31,1.24-.46Z"/><path class="cls-3" d="m862.87,474.14L444.76,100.7c-1.36,4.8-2.3,9.78-2.93,14.89l420.5,358.79c.18-.08.36-.16.53-.24Z"/><path class="cls-11" d="m869.79,470.97L453.42,81.77c-2.62,3.85-4.72,7.93-6.39,12.2l422.33,377.21c.15-.07.29-.14.44-.21Z"/><path class="cls-7" d="m848.14,480.34L440.76,148.4c.1,5.42.24,10.85.31,16.23l406.31,316.03c.26-.1.51-.21.77-.31Z"/><path class="cls-4" d="m855.66,477.26L441.1,123.54c-.36,5.37-.46,10.84-.44,16.36l414.36,337.63c.21-.09.43-.18.64-.27Z"/><path class="cls-10" d="m925.99,432.02l-142.12-211.1c-4.17-2.43-8.32-4.89-12.46-7.37l154.47,218.58s.07-.07.11-.11Z"/><path class="cls-6" d="m222.47,423.22c-.07,2.38-.08,4.75-.03,7.12l476.22,134.82c.79-.84,1.58-1.67,2.37-2.5l-478.08-147.13c-.24,2.56-.41,5.12-.48,7.68Z"/><path class="cls-5" d="m247.81,527.27c1.89,4.56,3.82,9.11,5.76,13.65l409.74,67.22c.82-1.1,1.65-2.21,2.48-3.31l-418.32-78.4c.12.28.23.56.35.84Z"/><path class="cls-8" d="m740.94,528.18l-454.02-198.32c-4.45,1.24-8.81,2.77-13.05,4.73-1.73.8-3.41,1.66-5.05,2.58l469.77,192.65c.78-.55,1.56-1.1,2.34-1.64Z"/><path class="cls-2" d="m321.45,677.48c.18.31.35.62.53.93l289.28,1.16c1.22-1.57,2.43-3.15,3.64-4.73l-299.44-7.99c1.98,3.55,3.98,7.1,5.99,10.63Z"/><path class="cls-15" d="m405.03,768.23c4.95,2.21,10.01,4,15.15,5.42l101.04-13.41c5.37-2.68,10.6-5.63,15.66-8.81l-135.85,14.91c1.32.65,2.65,1.28,4.01,1.89Z"/><path class="cls-12" d="m814.88,492.92L432.49,235.17c-1.11,3.88-2.34,7.71-3.7,11.47l384.68,246.8c.47-.18.94-.35,1.41-.53Z"/><path class="cls-19" d="m311.78,660.23l307.94,8.21c1.11-1.49,2.21-2.98,3.31-4.47l-317.75-15.68c2.15,3.99,4.31,7.97,6.5,11.94Z"/><path class="cls-14" d="m930.53,426.76l-123.46-192.67c-3.46-1.91-6.92-3.84-10.37-5.79l133.71,198.6s.08-.1.12-.15Z"/><path class="cls-17" d="m939.08,414.84l-92.56-159.96c-2.53-1.27-5.05-2.55-7.57-3.84l99.97,164.07c.06-.09.11-.18.17-.27Z"/><path class="cls-16" d="m934.9,421.06l-107.12-175.8c-2.94-1.55-5.88-3.11-8.8-4.68l115.78,180.68c.05-.07.09-.13.14-.2Z"/><path class="cls-13" d="m474.69,62.62c-.66.37-1.3.75-1.94,1.14l409.76,400.8c.1-.05.19-.1.29-.15L485.17,57.44c-3.52,1.49-7.02,3.21-10.49,5.18Z"/><path class="cls-21" d="m943.05,407.95l-79.33-144.56c-2.21-1.09-4.41-2.17-6.62-3.25l85.75,148.19c.07-.12.13-.25.2-.37Z"/><path class="cls-18" d="m905.96,449.81L636.18,118.34c-6.33-5.18-12.61-10.43-18.82-15.75-8.74-7.48-17.43-15.13-26.48-22.24l314.96,369.54s.08-.06.12-.09Z"/><path class="cls-20" d="m946.77,400.2l-66.84-128.62c-1.98-1.04-3.97-2.06-5.96-3.08l72.57,132.23c.08-.18.15-.36.23-.54Z"/><path class="cls-36" d="m900.49,453.69L569.75,65.62c-2.27-1.36-4.57-2.66-6.91-3.89-6.37-3.34-12.81-5.96-19.27-7.84l356.77,399.89s.1-.07.15-.1Z"/><path class="cls-48" d="m332.49,696.14l269.56-5.03c1.37-1.67,2.73-3.34,4.08-5.03l-280.37-1.12c2.19,3.74,4.43,7.47,6.73,11.18Z"/><path class="cls-37" d="m371.83,745.99l194.33-16.88c2.34-2.09,4.64-4.22,6.9-6.39l-210.97,13.51c3.13,3.4,6.37,6.66,9.74,9.75Z"/><path class="cls-50" d="m356.64,730.04l223.48-14.31c1.87-1.92,3.73-3.86,5.56-5.82l-237.24,9.81c2.65,3.53,5.37,6.98,8.2,10.33Z"/><path class="cls-47" d="m343.84,713.37l248-10.25c1.57-1.78,3.13-3.58,4.67-5.38l-259.93,4.85c2.35,3.64,4.77,7.25,7.27,10.79Z"/><path class="cls-32" d="m301.7,641.58l325.95,16.09c1.02-1.41,2.05-2.82,3.06-4.24l-335.47-24.19c2.13,4.12,4.28,8.24,6.46,12.34Z"/><path class="cls-35" d="m281.94,602.82l360.48,34.22c.91-1.28,1.82-2.56,2.73-3.83l-369.55-43.54c2.09,4.4,4.2,8.79,6.35,13.16Z"/><path class="cls-33" d="m291.74,622.44l343.43,24.76c.96-1.34,1.92-2.68,2.87-4.03l-352.71-33.48c2.11,4.26,4.24,8.51,6.4,12.74Z"/><path class="cls-49" d="m952.94,380.36l-41.42-89.39c-1.71-1.27-3.43-2.52-5.18-3.72l46.36,94.39c.09-.42.16-.85.24-1.27Z"/><path class="cls-34" d="m272.3,582.7l377.17,44.44c.87-1.22,1.74-2.43,2.62-3.65l-386.06-54.38c2.07,4.54,4.16,9.07,6.28,13.59Z"/><path class="cls-26" d="m947.43,333.17l1.36,3.11c-.43-1.05-.89-2.08-1.36-3.11Z"/><path class="cls-27" d="m391.2,760.85l157.15-17.24c3.17-2.33,6.26-4.73,9.29-7.21l-178.92,15.54c3.98,3.22,8.13,6.2,12.48,8.91Z"/><path class="cls-29" d="m950.14,391.24l-54.44-110.83c-1.82-1.1-3.65-2.17-5.5-3.22l59.68,114.85c.09-.26.17-.53.26-.79Z"/><path class="cls-30" d="m954.43,365.55l-26.1-59.84c-1.66-1.73-3.38-3.42-5.14-5.06l31.18,67.29c.03-.8.05-1.59.06-2.39Z"/><path class="cls-31" d="m497.82,769.93l-56.16,7.45c18.68,1.47,37.84-1.39,56.16-7.45Z"/><path class="cls-28" d="m224.4,452.38l466.95,120.84c.79-.89,1.58-1.78,2.37-2.66l-471-133.34c.33,5.08.9,10.14,1.68,15.17Z"/><path class="cls-25" d="m335.25,322.89l421.35,195.53c.76-.43,1.52-.85,2.29-1.27l-402.71-198.09c-6.84,1.81-13.85,2.95-20.93,3.83Z"/><path class="cls-23" d="m297.65,327.43l449.79,196.47c.64-.4,1.27-.82,1.92-1.22.13-.08.27-.16.4-.24l-427.07-198.19c-8.42.85-16.82,1.68-25.03,3.17Z"/><path class="cls-22" d="m732.43,534.35l-470.37-192.89c-4.33,3.08-8.32,6.59-11.96,10.47l479.96,184.24c.78-.61,1.58-1.21,2.37-1.81Z"/><path class="cls-24" d="m787.18,503.71l-378.68-219.4c-2.44,3.11-5.04,6.09-7.81,8.91l384.55,211.31c.65-.27,1.29-.55,1.94-.82Z"/><path class="cls-42" d="m766.03,513.4c.73-.37,1.47-.74,2.2-1.1l-389.13-202.49c-4.35,2.45-8.99,4.59-13.92,6.42l400.85,197.18Z"/><path class="cls-45" d="m262.84,562.07l393.57,55.44c.84-1.16,1.69-2.32,2.54-3.48l-402.31-66c2.04,4.69,4.11,9.37,6.2,14.04Z"/><path class="cls-44" d="m777.7,507.83l-381.97-209.89c-3.18,2.83-6.57,5.46-10.16,7.88l390.05,202.96c.69-.32,1.39-.63,2.09-.95Z"/><path class="cls-39" d="m724.2,540.9l-478.64-183.73c-3.06,3.82-5.82,7.92-8.28,12.21l484.56,173.51c.78-.67,1.57-1.33,2.36-1.99Z"/><path class="cls-51" d="m716.23,547.82l-482.05-172.61c-2.11,4.3-3.95,8.77-5.5,13.35l485.18,161.43c.78-.73,1.57-1.45,2.36-2.17Z"/><path class="cls-43" d="m229.16,474.73l455.04,106.82c.79-.94,1.58-1.89,2.38-2.83l-460.95-119.29c.99,5.13,2.18,10.22,3.53,15.29Z"/><path class="cls-41" d="m244.52,519.24l425.69,79.78c.81-1.05,1.62-2.1,2.43-3.15l-433.92-91.54c1.86,5,3.8,9.97,5.8,14.91Z"/><path class="cls-46" d="m236.12,497.11l441.04,93.04c.8-1,1.6-1.99,2.41-2.98l-448.38-105.26c1.51,5.1,3.17,10.16,4.94,15.2Z"/><path class="cls-38" d="m796.59,499.89l-378.07-230.64c-1.9,3.37-3.94,6.63-6.13,9.78l382.42,221.57c.59-.24,1.18-.47,1.77-.7Z"/><path class="cls-40" d="m708.52,555.09l-481.75-160.29c-1.29,4.66-2.3,9.4-3.02,14.17l482.4,148.46c.78-.78,1.57-1.56,2.36-2.34Z"/></svg>