<?xml version="1.0" encoding="UTF-8"?><svg id="Layer_2" xmlns="http://www.w3.org/2000/svg" xmlns:xlink="http://www.w3.org/1999/xlink" viewBox="0 0 1000 1000"><defs><style>.cls-1{fill:url(#linear-gradient);}.cls-1,.cls-2,.cls-3,.cls-4,.cls-5,.cls-6,.cls-7,.cls-8,.cls-9,.cls-10,.cls-11,.cls-12,.cls-13,.cls-14,.cls-15,.cls-16,.cls-17,.cls-18,.cls-19,.cls-20,.cls-21,.cls-22,.cls-23,.cls-24,.cls-25,.cls-26,.cls-27,.cls-28,.cls-29,.cls-30,.cls-31,.cls-32,.cls-33,.cls-34,.cls-35,.cls-36,.cls-37,.cls-38,.cls-39,.cls-40,.cls-41,.cls-42,.cls-43,.cls-44,.cls-45,.cls-46,.cls-47,.cls-48,.cls-49,.cls-50,.cls-51,.cls-52,.cls-53,.cls-54,.cls-55,.cls-56,.cls-57,.cls-58,.cls-59,.cls-60,.cls-61,.cls-62,.cls-63{stroke-width:0px;}.cls-2{fill:url(#New_Gradient_Swatch_copy_13-41);}.cls-3{fill:url(#New_Gradient_Swatch_copy_13-40);}.cls-4{fill:url(#New_Gradient_Swatch_copy_13-42);}.cls-5{fill:url(#New_Gradient_Swatch_copy_13-43);}.cls-6{fill:url(#New_Gradient_Swatch_copy_13-29);}.cls-7{fill:url(#New_Gradient_Swatch_copy_13-26);}.cls-8{fill:url(#New_Gradient_Swatch_copy_13-27);}.cls-9{fill:url(#New_Gradient_Swatch_copy_13-24);}.cls-10{fill:url(#New_Gradient_Swatch_copy_13-25);}.cls-11{fill:url(#New_Gradient_Swatch_copy_13-28);}.cls-12{fill:url(#New_Gradient_Swatch_copy_13-23);}.cls-13{fill:url(#New_Gradient_Swatch_copy_13-20);}.cls-14{fill:url(#New_Gradient_Swatch_copy_13-21);}.cls-15{fill:url(#New_Gradient_Swatch_copy_13-22);}.cls-16{fill:url(#New_Gradient_Swatch_copy_13-32);}.cls-17{fill:url(#New_Gradient_Swatch_copy_13-31);}.cls-18{fill:url(#New_Gradient_Swatch_copy_13-30);}.cls-19{fill:url(#New_Gradient_Swatch_copy_13-33);}.cls-20{fill:url(#New_Gradient_Swatch_copy_13-57);}.cls-21{fill:url(#New_Gradient_Swatch_copy_13-56);}.cls-22{fill:url(#New_Gradient_Swatch_copy_13-59);}.cls-23{fill:url(#New_Gradient_Swatch_copy_13-54);}.cls-24{fill:url(#New_Gradient_Swatch_copy_13-58);}.cls-25{fill:url(#New_Gradient_Swatch_copy_13-55);}.cls-26{fill:url(#New_Gradient_Swatch_copy_13-38);}.cls-27{fill:url(#New_Gradient_Swatch_copy_13-37);}.cls-28{fill:url(#New_Gradient_Swatch_copy_13-39);}.cls-29{fill:url(#New_Gradient_Swatch_copy_13-34);}.cls-30{fill:url(#New_Gradient_Swatch_copy_13-36);}.cls-31{fill:url(#New_Gradient_Swatch_copy_13-35);}.cls-32{fill:url(#New_Gradient_Swatch_copy_13-49);}.cls-33{fill:url(#New_Gradient_Swatch_copy_13-48);}.cls-34{fill:url(#New_Gradient_Swatch_copy_13-46);}.cls-35{fill:url(#New_Gradient_Swatch_copy_13-47);}.cls-36{fill:url(#New_Gradient_Swatch_copy_13-45);}.cls-37{fill:url(#New_Gradient_Swatch_copy_13-44);}.cls-38{fill:url(#New_Gradient_Swatch_copy_13-19);}.cls-39{fill:url(#New_Gradient_Swatch_copy_13-18);}.cls-40{fill:url(#New_Gradient_Swatch_copy_13-17);}.cls-41{fill:url(#New_Gradient_Swatch_copy_13-50);}.cls-42{fill:url(#New_Gradient_Swatch_copy_13-51);}.cls-43{fill:url(#New_Gradient_Swatch_copy_13-53);}.cls-44{fill:url(#New_Gradient_Swatch_copy_13-52);}.cls-45{fill:url(#New_Gradient_Swatch_copy_13-12);}.cls-46{fill:url(#New_Gradient_Swatch_copy_13-13);}.cls-47{fill:url(#New_Gradient_Swatch_copy_13-15);}.cls-48{fill:url(#New_Gradient_Swatch_copy_13-16);}.cls-49{fill:url(#New_Gradient_Swatch_copy_13-14);}.cls-50{fill:url(#New_Gradient_Swatch_copy_13-11);}.cls-51{fill:url(#New_Gradient_Swatch_copy_13-10);}.cls-52{fill:url(#New_Gradient_Swatch_copy_13-9);}.cls-53{fill:url(#New_Gradient_Swatch_copy_13-3);}.cls-54{fill:url(#New_Gradient_Swatch_copy_13-4);}.cls-55{fill:url(#New_Gradient_Swatch_copy_13-8);}.cls-56{fill:url(#New_Gradient_Swatch_copy_13-2);}.cls-57{fill:url(#New_Gradient_Swatch_copy_13-5);}.cls-58{fill:url(#New_Gradient_Swatch_copy_13-6);}.cls-59{fill:url(#New_Gradient_Swatch_copy_13-7);}.cls-60{fill:url(#linear-gradient-2);}.cls-61{fill:url(#linear-gradient-3);}.cls-62{fill:url(#New_Gradient_Swatch_copy_13);}.cls-63{fill:#eb2c5b;}</style><linearGradient id="New_Gradient_Swatch_copy_13" x1="211.66" y1="888.44" x2="727.71" y2="458.4" gradientUnits="userSpaceOnUse"><stop offset=".22" stop-color="#c63782"/><stop offset=".38" stop-color="#b63a84"/><stop offset=".68" stop-color="#8d4589"/><stop offset="1" stop-color="#5c5290"/></linearGradient><linearGradient id="New_Gradient_Swatch_copy_13-2" x1="207.05" y1="882.91" x2="723.11" y2="452.87" xlink:href="#New_Gradient_Swatch_copy_13"/><linearGradient id="New_Gradient_Swatch_copy_13-3" x1="204.45" y1="879.79" x2="720.51" y2="449.75" xlink:href="#New_Gradient_Swatch_copy_13"/><linearGradient id="New_Gradient_Swatch_copy_13-4" x1="203.6" y1="878.77" x2="719.65" y2="448.72" xlink:href="#New_Gradient_Swatch_copy_13"/><linearGradient id="New_Gradient_Swatch_copy_13-5" x1="194.74" y1="868.14" x2="710.79" y2="438.09" xlink:href="#New_Gradient_Swatch_copy_13"/><linearGradient id="New_Gradient_Swatch_copy_13-6" x1="207.02" y1="882.87" x2="723.07" y2="452.82" xlink:href="#New_Gradient_Swatch_copy_13"/><linearGradient id="New_Gradient_Swatch_copy_13-7" x1="153.51" y1="818.66" x2="669.56" y2="388.62" xlink:href="#New_Gradient_Swatch_copy_13"/><linearGradient id="New_Gradient_Swatch_copy_13-8" x1="121.68" y1="780.47" x2="637.74" y2="350.42" xlink:href="#New_Gradient_Swatch_copy_13"/><linearGradient id="New_Gradient_Swatch_copy_13-9" x1="145.21" y1="808.7" x2="661.26" y2="378.66" xlink:href="#New_Gradient_Swatch_copy_13"/><linearGradient id="New_Gradient_Swatch_copy_13-10" x1="137.19" y1="799.08" x2="653.24" y2="369.03" xlink:href="#New_Gradient_Swatch_copy_13"/><linearGradient id="New_Gradient_Swatch_copy_13-11" x1="179.48" y1="849.83" x2="695.54" y2="419.78" xlink:href="#New_Gradient_Swatch_copy_13"/><linearGradient id="New_Gradient_Swatch_copy_13-12" x1="187.48" y1="859.42" x2="703.53" y2="429.38" xlink:href="#New_Gradient_Swatch_copy_13"/><linearGradient id="New_Gradient_Swatch_copy_13-13" x1="162.15" y1="829.03" x2="678.2" y2="398.98" xlink:href="#New_Gradient_Swatch_copy_13"/><linearGradient id="New_Gradient_Swatch_copy_13-14" x1="170.93" y1="839.56" x2="686.98" y2="409.52" xlink:href="#New_Gradient_Swatch_copy_13"/><linearGradient id="New_Gradient_Swatch_copy_13-15" x1="203.68" y1="878.86" x2="719.73" y2="448.81" xlink:href="#New_Gradient_Swatch_copy_13"/><linearGradient id="New_Gradient_Swatch_copy_13-16" x1="18.54" y1="656.69" x2="534.59" y2="226.65" xlink:href="#New_Gradient_Swatch_copy_13"/><linearGradient id="New_Gradient_Swatch_copy_13-17" x1="-24.9" y1="604.56" x2="491.15" y2="174.52" xlink:href="#New_Gradient_Swatch_copy_13"/><linearGradient id="New_Gradient_Swatch_copy_13-18" x1="67.59" y1="715.55" x2="583.64" y2="285.51" xlink:href="#New_Gradient_Swatch_copy_13"/><linearGradient id="New_Gradient_Swatch_copy_13-19" x1="-81.32" y1="536.86" x2="434.73" y2="106.81" xlink:href="#New_Gradient_Swatch_copy_13"/><linearGradient id="New_Gradient_Swatch_copy_13-20" x1="-127.61" y1="481.31" x2="388.44" y2="51.27" xlink:href="#New_Gradient_Swatch_copy_13"/><linearGradient id="New_Gradient_Swatch_copy_13-21" x1="129.37" y1="789.69" x2="645.42" y2="359.64" xlink:href="#New_Gradient_Swatch_copy_13"/><linearGradient id="New_Gradient_Swatch_copy_13-22" x1="-73.38" y1="546.39" x2="442.67" y2="116.35" xlink:href="#New_Gradient_Swatch_copy_13"/><linearGradient id="New_Gradient_Swatch_copy_13-23" x1="204.36" y1="879.68" x2="720.42" y2="449.64" xlink:href="#New_Gradient_Swatch_copy_13"/><linearGradient id="New_Gradient_Swatch_copy_13-24" x1="207.01" y1="882.86" x2="723.07" y2="452.82" xlink:href="#New_Gradient_Swatch_copy_13"/><linearGradient id="New_Gradient_Swatch_copy_13-25" x1="205.5" y1="881.05" x2="721.56" y2="451.01" xlink:href="#New_Gradient_Swatch_copy_13"/><linearGradient id="New_Gradient_Swatch_copy_13-26" x1="201.26" y1="875.96" x2="717.32" y2="445.92" xlink:href="#New_Gradient_Swatch_copy_13"/><linearGradient id="New_Gradient_Swatch_copy_13-27" x1="208.86" y1="885.08" x2="724.91" y2="455.04" xlink:href="#New_Gradient_Swatch_copy_13"/><linearGradient id="New_Gradient_Swatch_copy_13-28" x1="213.51" y1="890.66" x2="729.56" y2="460.61" xlink:href="#New_Gradient_Swatch_copy_13"/><linearGradient id="New_Gradient_Swatch_copy_13-29" x1="210.96" y1="887.6" x2="727.01" y2="457.56" xlink:href="#New_Gradient_Swatch_copy_13"/><linearGradient id="New_Gradient_Swatch_copy_13-30" x1="214.04" y1="891.3" x2="730.1" y2="461.25" xlink:href="#New_Gradient_Swatch_copy_13"/><linearGradient id="New_Gradient_Swatch_copy_13-31" x1="-89.28" y1="527.32" x2="426.78" y2="97.27" xlink:href="#New_Gradient_Swatch_copy_13"/><linearGradient id="New_Gradient_Swatch_copy_13-32" x1="-112.91" y1="498.96" x2="403.14" y2="68.91" xlink:href="#New_Gradient_Swatch_copy_13"/><linearGradient id="New_Gradient_Swatch_copy_13-33" x1="-105.11" y1="508.32" x2="410.94" y2="78.27" xlink:href="#New_Gradient_Swatch_copy_13"/><linearGradient id="New_Gradient_Swatch_copy_13-34" x1="-97.21" y1="517.79" x2="418.84" y2="87.74" xlink:href="#New_Gradient_Swatch_copy_13"/><linearGradient id="New_Gradient_Swatch_copy_13-35" x1="-65.44" y1="555.92" x2="450.62" y2="125.88" xlink:href="#New_Gradient_Swatch_copy_13"/><linearGradient id="New_Gradient_Swatch_copy_13-36" x1="-49.44" y1="575.12" x2="466.61" y2="145.07" xlink:href="#New_Gradient_Swatch_copy_13"/><linearGradient id="New_Gradient_Swatch_copy_13-37" x1="-57.46" y1="565.49" x2="458.59" y2="135.45" xlink:href="#New_Gradient_Swatch_copy_13"/><linearGradient id="New_Gradient_Swatch_copy_13-38" x1="215.42" y1="892.95" x2="731.47" y2="462.9" xlink:href="#New_Gradient_Swatch_copy_13"/><linearGradient id="New_Gradient_Swatch_copy_13-39" x1="-41.35" y1="584.83" x2="474.7" y2="154.78" xlink:href="#New_Gradient_Swatch_copy_13"/><linearGradient id="New_Gradient_Swatch_copy_13-40" x1="219.45" y1="897.79" x2="735.5" y2="467.74" xlink:href="#New_Gradient_Swatch_copy_13"/><linearGradient id="New_Gradient_Swatch_copy_13-41" x1="-120.5" y1="489.85" x2="395.56" y2="59.81" xlink:href="#New_Gradient_Swatch_copy_13"/><linearGradient id="New_Gradient_Swatch_copy_13-42" x1="213.18" y1="890.26" x2="729.23" y2="460.22" xlink:href="#New_Gradient_Swatch_copy_13"/><linearGradient id="New_Gradient_Swatch_copy_13-43" x1="217.59" y1="895.55" x2="733.64" y2="465.51" xlink:href="#New_Gradient_Swatch_copy_13"/><linearGradient id="New_Gradient_Swatch_copy_13-44" x1="-135.64" y1="471.68" x2="380.41" y2="41.63" xlink:href="#New_Gradient_Swatch_copy_13"/><linearGradient id="New_Gradient_Swatch_copy_13-45" x1="9.52" y1="645.87" x2="525.57" y2="215.82" xlink:href="#New_Gradient_Swatch_copy_13"/><linearGradient id="New_Gradient_Swatch_copy_13-46" x1="83.69" y1="734.87" x2="599.74" y2="304.83" xlink:href="#New_Gradient_Swatch_copy_13"/><linearGradient id="New_Gradient_Swatch_copy_13-47" x1="75.87" y1="725.49" x2="591.92" y2="295.45" xlink:href="#New_Gradient_Swatch_copy_13"/><linearGradient id="New_Gradient_Swatch_copy_13-48" x1="56.42" y1="702.15" x2="572.47" y2="272.1" xlink:href="#New_Gradient_Swatch_copy_13"/><linearGradient id="New_Gradient_Swatch_copy_13-49" x1="106.52" y1="762.27" x2="622.58" y2="332.23" xlink:href="#New_Gradient_Swatch_copy_13"/><linearGradient id="New_Gradient_Swatch_copy_13-50" x1="91.36" y1="744.08" x2="607.42" y2="314.04" xlink:href="#New_Gradient_Swatch_copy_13"/><linearGradient id="New_Gradient_Swatch_copy_13-51" x1="-33.17" y1="594.64" x2="482.88" y2="164.59" xlink:href="#New_Gradient_Swatch_copy_13"/><linearGradient id="New_Gradient_Swatch_copy_13-52" x1="98.96" y1="753.2" x2="615.02" y2="323.16" xlink:href="#New_Gradient_Swatch_copy_13"/><linearGradient id="New_Gradient_Swatch_copy_13-53" x1="46.12" y1="689.79" x2="562.17" y2="259.74" xlink:href="#New_Gradient_Swatch_copy_13"/><linearGradient id="New_Gradient_Swatch_copy_13-54" x1="36.9" y1="678.73" x2="552.96" y2="248.69" xlink:href="#New_Gradient_Swatch_copy_13"/><linearGradient id="New_Gradient_Swatch_copy_13-55" x1=".66" y1="635.24" x2="516.71" y2="205.19" xlink:href="#New_Gradient_Swatch_copy_13"/><linearGradient id="New_Gradient_Swatch_copy_13-56" x1="-16.53" y1="614.61" x2="499.52" y2="184.57" xlink:href="#New_Gradient_Swatch_copy_13"/><linearGradient id="New_Gradient_Swatch_copy_13-57" x1="-8.02" y1="624.82" x2="508.03" y2="194.78" xlink:href="#New_Gradient_Swatch_copy_13"/><linearGradient id="New_Gradient_Swatch_copy_13-58" x1="114.08" y1="771.35" x2="630.14" y2="341.3" xlink:href="#New_Gradient_Swatch_copy_13"/><linearGradient id="New_Gradient_Swatch_copy_13-59" x1="27.69" y1="667.67" x2="543.74" y2="237.63" xlink:href="#New_Gradient_Swatch_copy_13"/><linearGradient id="linear-gradient" x1="875.09" y1="403.27" x2="197.34" y2="498.37" gradientUnits="userSpaceOnUse"><stop offset=".04" stop-color="#eb2c5b"/><stop offset=".51" stop-color="#d33374"/><stop offset=".8" stop-color="#ca367e"/><stop offset=".81" stop-color="#c3377f"/><stop offset=".94" stop-color="#794a8b"/><stop offset="1" stop-color="#5c5290"/></linearGradient><linearGradient id="linear-gradient-2" x1="281.55" y1="394.17" x2="690.2" y2="394.17" gradientUnits="userSpaceOnUse"><stop offset=".04" stop-color="#eb2c5b"/><stop offset=".32" stop-color="#d33374"/><stop offset=".49" stop-color="#ca367e"/><stop offset=".58" stop-color="#c5377e"/><stop offset=".68" stop-color="#b83a80"/><stop offset=".78" stop-color="#a24084"/><stop offset=".89" stop-color="#834889"/><stop offset="1" stop-color="#5c5290"/></linearGradient><linearGradient id="linear-gradient-3" x1="384.95" y1="361.08" x2="940.34" y2="356.28" gradientUnits="userSpaceOnUse"><stop offset=".02" stop-color="#eb2c5b"/><stop offset=".07" stop-color="#e42e62"/><stop offset=".21" stop-color="#d53271"/><stop offset=".37" stop-color="#cc357b"/><stop offset=".59" stop-color="#ca367e"/><stop offset=".66" stop-color="#c4377e"/><stop offset=".74" stop-color="#b53b81"/><stop offset=".83" stop-color="#9c4185"/><stop offset=".93" stop-color="#794a8b"/><stop offset="1" stop-color="#5c5290"/></linearGradient></defs><path class="cls-62" d="m265.96,694.16l501.34-119.52c3.5-4.58,6.47-9.46,8.9-14.62l-510.25,133.93c0,.07,0,.14.01.21Z"/><path class="cls-56" d="m265.64,687.65l513.51-134.79c1.57-4.42,2.78-9.02,3.59-13.8l-517.12,148.33c0,.08,0,.17,0,.25Z"/><path class="cls-53" d="m269.6,719.28l299.35-43.22c6.69-3.55,13.41-7.04,20.17-10.45l-319.54,53.56s.02.08.03.12Z"/><path class="cls-54" d="m271.19,725.43l267.06-32.4c4.98-2.86,9.98-5.68,15-8.45l-282.09,40.73s.02.08.03.12Z"/><path class="cls-57" d="m265.61,674.18l517.73-161.29c-.65-4.41-1.72-8.48-3.17-12.27l-514.54,173.18c0,.13,0,.25-.01.38Z"/><path class="cls-58" d="m268.31,713.1l340.1-57c9.89-4.75,19.86-9.35,29.89-13.8l-370.02,70.67s.02.09.02.13Z"/><path class="cls-59" d="m268.77,637.01l438.41-193.31c-4.04-2.25-8.1-4.64-12.12-7.17l-426.17,199.57c-.04.31-.08.61-.12.92Z"/><path class="cls-55" d="m273.51,602.48l373.58-206.97c-2.35-2.85-4.59-5.78-6.69-8.78l-366.68,214.14c-.07.53-.14,1.07-.21,1.6Z"/><path class="cls-52" d="m269.86,628.81l419.1-196.25c-3.55-2.38-7.07-4.88-10.51-7.48l-408.43,202.66c-.05.36-.1.71-.15,1.07Z"/><path class="cls-51" d="m271.04,620.32l401.99-199.47c-3.13-2.52-6.18-5.13-9.15-7.82l-392.66,206.05c-.06.41-.12.83-.17,1.24Z"/><path class="cls-50" d="m266.36,660l499.37-180.77c-3.39-3.29-7.12-6.31-11.1-9.13l-488.23,189.35c-.01.18-.03.37-.04.55Z"/><path class="cls-45" d="m265.89,667.19l511.73-172.23c-2.04-3.92-4.5-7.5-7.3-10.81l-504.41,182.59c0,.15-.01.3-.02.46Z"/><path class="cls-46" d="m267.81,644.93l459.95-190.48c-4.56-2.35-9.15-4.67-13.67-7.04l-446.18,196.74c-.03.26-.06.52-.09.78Z"/><path class="cls-49" d="m267,652.59l481.33-186.68c-4.32-2.71-8.83-5.26-13.44-7.72l-467.82,193.74c-.02.22-.04.44-.06.66Z"/><path class="cls-47" d="m273.11,731.57l239.92-23.61c3.9-2.38,7.82-4.74,11.75-7.07l-251.71,30.54s.03.09.05.14Z"/><path class="cls-48" d="m596.72,148.87c-1.95-1.13-3.93-2.2-5.93-3.23l-326.52,336.5c.35,1.03.68,2.07,1.02,3.1l337.61-332.52c-2.03-1.35-4.09-2.64-6.19-3.85Z"/><path class="cls-40" d="m498.56,123.23c-4.65-.47-9.31-.91-13.97-1.33l-240.25,311.45c.55,1.18,1.1,2.37,1.65,3.55L499.42,123.32c-.29-.03-.57-.06-.86-.09Z"/><path class="cls-39" d="m276.11,534.03l369.48-289.44c.97-4.27,1.65-8.59,1.92-13.01.11-1.8.15-3.59.12-5.37l-371.83,305.12c.11.9.22,1.79.31,2.69Z"/><path class="cls-38" d="m340.2,117.11c-.34,0-.68.02-1.01.03l-131.01,240.7c.76,1.72,1.53,3.44,2.31,5.16l141.27-246.11c-3.85.06-7.7.13-11.56.22Z"/><path class="cls-13" d="m226.95,146.01c-4.07,3.13-7.84,6.54-11.33,10.19l-34.24,90.28c-.18,5.68-.07,11.37.3,17.02l48.64-119.98c-1.14.81-2.26,1.63-3.38,2.49Z"/><path class="cls-14" d="m272.28,611.54l386.84-203c-2.73-2.67-5.37-5.42-7.9-8.24l-378.74,209.82c-.07.47-.13.94-.2,1.42Z"/><path class="cls-15" d="m358.93,116.8l-145.29,253.09c.74,1.59,1.49,3.18,2.24,4.77L371.81,116.75c-4.29,0-8.59.01-12.88.05Z"/><path class="cls-12" d="m275.45,737.72l216.16-16.34c3.15-2.03,6.31-4.05,9.49-6.04l-225.72,22.21c.02.06.05.11.07.17Z"/><path class="cls-9" d="m281.54,750.21l175-5.27c2.2-1.54,4.4-3.07,6.6-4.59l-181.76,9.6c.05.09.1.17.15.26Z"/><path class="cls-10" d="m278.24,743.92l194.75-10.29c2.61-1.76,5.23-3.5,7.86-5.24l-202.71,15.32c.03.07.07.14.1.21Z"/><path class="cls-7" d="m784.03,521.3c-.01-.72-.04-1.42-.08-2.13l-518.43,161.51c0,.1,0,.21,0,.31l518.11-148.62c.34-3.6.48-7.29.4-11.07Z"/><path class="cls-8" d="m285.51,756.62l156.21-1.17c1.9-1.35,3.79-2.7,5.69-4.05l-162.12,4.88c.07.11.15.22.22.34Z"/><path class="cls-11" d="m267.28,706.87l397.68-75.95c7.17-2.95,14.37-5.82,21.6-8.61,10.17-3.93,20.45-7.73,30.45-12.08l-449.75,96.51s.01.1.02.14Z"/><path class="cls-6" d="m290.3,763.2l137.3,2.09c1.76-1.18,3.5-2.38,5.24-3.59l-142.89,1.07c.11.15.23.29.35.44Z"/><path class="cls-18" d="m266.5,700.57l472.28-101.34c2.15-1.28,4.27-2.61,6.35-4.02,5.65-3.81,10.73-8,15.2-12.54l-493.85,117.73c0,.06.01.11.02.17Z"/><path class="cls-17" d="m319.68,117.93l-116.99,227.04c.77,1.89,1.56,3.78,2.36,5.66l126.98-233.29c-4.1.15-8.22.33-12.35.58Z"/><path class="cls-16" d="m260.42,128.32l-73.29,169.64c.69,2.89,1.44,5.76,2.23,8.63l83.57-182c-4.24,1.08-8.41,2.32-12.51,3.73Z"/><path class="cls-19" d="m280.55,122.82l-88.53,192.79c.76,2.42,1.54,4.84,2.36,7.25l98.47-202.23c-4.13.62-8.24,1.34-12.3,2.19Z"/><path class="cls-29" d="m300.2,119.64l-102.94,211.41c.78,2.11,1.58,4.21,2.39,6.31l112.81-218.93c-4.1.33-8.19.72-12.26,1.21Z"/><path class="cls-31" d="m379.02,116.78l-159.95,264.57c.72,1.49,1.43,2.97,2.16,4.46L392.21,116.94c-4.4-.08-8.79-.13-13.19-.16Z"/><path class="cls-30" d="m420.22,117.72l-190.59,285.21c.66,1.33,1.31,2.67,1.97,4L434.05,118.35c-4.61-.23-9.22-.44-13.83-.63Z"/><path class="cls-27" d="m399.45,117.08l-175.04,275.25c.69,1.4,1.38,2.81,2.07,4.21L412.95,117.47c-4.5-.15-9-.29-13.51-.39Z"/><path class="cls-26" d="m304.07,777.26l93.17,5.64c1.83-.85,3.64-1.73,5.44-2.65l-99.55-3.77c.31.26.63.52.95.77Z"/><path class="cls-28" d="m441.33,118.73l-206.62,294.53c.62,1.27,1.25,2.55,1.87,3.82L455.49,119.61c-4.72-.32-9.44-.61-14.16-.87Z"/><path class="cls-3" d="m345.9,793.88l-3.21-.27c1.07.11,2.14.2,3.21.27Z"/><path class="cls-2" d="m239.32,137.79l-56.27,138.79c.52,3.69,1.13,7.35,1.83,10.99l67.48-156.18c-4.47,1.87-8.83,3.99-13.04,6.4Z"/><path class="cls-4" d="m296.25,770.04l116.9,4.43c1.73-1.02,3.45-2.07,5.16-3.14l-122.6-1.86c.18.19.36.38.54.57Z"/><path class="cls-5" d="m315.75,785.17l61.63,5.14c2.19-.61,4.37-1.28,6.53-2.01l-70.13-4.25c.65.38,1.3.76,1.96,1.12Z"/><path class="cls-37" d="m183.82,222.62l19.03-50.18c-9.62,14.92-15.86,32.18-19.03,50.18Z"/><path class="cls-36" d="m571.54,137.37l-310.69,335.06c.39,1.06.78,2.11,1.15,3.17l322.93-332.81c-4.38-2.01-8.85-3.81-13.4-5.42Z"/><path class="cls-34" d="m629.68,288.02l-352.47,263.45c.02.83.02,1.65.03,2.48l346.22-246.76c1.57-6.51,3.77-12.88,6.22-19.17Z"/><path class="cls-35" d="m642.8,254.63l-366.04,286.74c.05.72.11,1.43.15,2.15,0,.15.01.29.02.44l357.26-267.03c3.08-7.4,6.16-14.78,8.61-22.3Z"/><path class="cls-33" d="m274.8,524.16l372.31-305.51c-.62-5-1.76-9.9-3.35-14.68l-369.4,317.4c.16.93.3,1.86.45,2.79Z"/><path class="cls-32" d="m275.73,583.59l353.19-217.14c-1.5-3.43-2.81-6.94-3.92-10.51l-349.08,225.67c-.06.66-.12,1.32-.19,1.98Z"/><path class="cls-41" d="m277.16,561.6c-.02.78-.04,1.55-.07,2.33l343.79-233.46c-.08-4.73.21-9.56.91-14.49l-344.62,245.61Z"/><path class="cls-42" d="m462.79,120.12l-223.16,303.27c.59,1.23,1.17,2.45,1.76,3.68L477.28,121.26c-4.83-.41-9.66-.78-14.49-1.14Z"/><path class="cls-44" d="m276.56,573.83l346.74-224.16c-.92-3.93-1.6-7.93-2-12.02l-344.6,234.01c-.05.72-.1,1.44-.15,2.17Z"/><path class="cls-43" d="m273.03,514.35l368.39-316.53c-1.81-4.27-3.99-8.41-6.46-12.39l-362.52,326.06c.21.95.41,1.91.6,2.87Z"/><path class="cls-23" d="m270.84,504.6l360.65-324.37c-2.64-3.7-5.54-7.23-8.66-10.58l-352.73,332.01c.25.98.51,1.96.75,2.94Z"/><path class="cls-25" d="m550.76,131.29l-293.64,331.42c.43,1.08.86,2.17,1.29,3.25l306.69-330.75c-4.72-1.48-9.51-2.78-14.34-3.93Z"/><path class="cls-21" d="m506.74,124.1L248.84,443.21c.51,1.15,1.02,2.29,1.53,3.44L521.78,125.97c-5.01-.7-10.03-1.31-15.04-1.87Z"/><path class="cls-20" d="m528.97,127.04L253.11,452.98c.47,1.11.94,2.23,1.41,3.35l289.35-326.58c-4.93-1.03-9.9-1.92-14.89-2.71Z"/><path class="cls-24" d="m274.69,593.15l362.29-211.58c-1.95-3.1-3.76-6.26-5.4-9.5l-356.68,219.29c-.07.6-.14,1.2-.21,1.79Z"/><path class="cls-22" d="m268.25,494.9l350.23-329.66c-3.3-3.17-6.81-6.14-10.46-8.89l-340.66,335.52c.3,1.01.6,2.01.89,3.02Z"/><path class="cls-1" d="m591.01,237.05c11.4,11.32,19.71,25.31,28.31,38.89,35.44,55.97,77.85,107.53,125.94,153.1,12.07,11.44,24.6,22.62,34.26,36.15,9.66,13.54,16.35,29.93,15,46.51-1.86,22.75-18.8,42.17-39.07,52.66-20.27,10.49-43.53,13.43-66.31,14.94-22.77,1.5-45.85,1.77-67.94,7.51-34.38,8.94-63.93,30.48-92.14,52.08-28.21,21.6-56.71,44.12-90.33,55.62-33.62,11.49-74.09,9.89-100.84-13.48-22.25-19.44-31.12-49.75-37.57-78.58-8.6-38.44-14.78-77.43-18.51-116.64-2.41-25.28-3.7-51.43,4.49-75.47,8.19-24.04,27.91-45.73,53.08-49.14,21.28-2.88,42.36,7.35,63.81,6.63,45.56-1.53,71.91-45.64,83.62-84.39,8.12-26.87,12.94-57.13,44.53-64.09,22.69-5,43.19,1.34,59.67,17.7Z"/><path class="cls-60" d="m649.66,424.54c-12.75,14.54-28.6,26.3-40.07,41.87-15.6,21.16-21.86,47.52-29.62,72.63-10.8,34.92-25.5,69.32-49.17,97.18-23.67,27.86-57.32,48.69-93.81,50.83-36.49,2.14-74.99-17.14-89.83-50.54-13.88-31.23-5.88-67.4,2.98-100.41,8.87-33.01,18.35-68.4,7.01-100.65-8.38-23.85-27-42.35-43.52-61.48-16.52-19.13-32.09-41.61-32.07-66.88.02-29.69,21.49-54.92,44.34-73.87,12.62-10.46,27.73-20.44,44.03-18.65,19.81,2.17,33.35,20.49,50.63,30.43,17.11,9.85,38.89,11.13,57.04,3.36,18.15-7.77,32.25-24.42,36.93-43.6,6.52-26.7-4-57.49,10.47-80.85,11.98-19.33,38.11-26.14,60.32-21.27,22.21,4.87,41.14,19.12,58.04,34.33,16.67,15,32.52,31.87,40.81,52.7,6.24,15.7,7.56,33.19,4.33,49.73-2.72,13.91-12.74,26.48-13.96,40.42-1.24,14.1,6.48,29.23,7.64,43.44,1.39,17.04-.39,34.33-5.15,50.75-5.38,18.54-14.61,36.01-27.36,50.55Z"/><path class="cls-61" d="m538.24,268.77c14.04-9.67,25.76-22.28,38.56-33.54,47.89-42.17,112.2-65.17,175.98-62.95,36.92,1.28,75.03,11.59,101.99,36.85,37.85,35.45,46.19,95,29.92,144.24-16.28,49.24-53.37,89.16-94.93,120.19-46.84,34.97-101.33,60.89-159.22,68.99-57.89,8.09-119.26-2.59-167.93-34.97-48.67-32.38-83.05-87.44-85.04-145.87-.83-24.39,4.88-50.86,23.37-66.79,12.5-10.77,29.39-15.34,45.87-15.82,34.67-1.02,59.78,11.49,91.43-10.31Z"/><path class="cls-63" d="m170.96,636.07c-2.27-3.29-5.23-6.04-7.87-9.04-9.9-11.23-15.3-26.31-14.79-41.27.3-8.66,2.71-17.6,8.63-23.93,8.31-8.88,22.28-10.85,33.83-7.04,11.55,3.81,20.92,12.51,28.2,22.25,8.21,10.98,14.3,23.76,16.2,37.34,1.91,13.58-.59,27.98-8.18,39.4-7.59,11.42-20.5,19.49-34.21,19.97-5.72.2-11.93-1.14-15.67-5.47-2.53-2.93-3.6-6.89-3.72-10.76-.24-8.13,2.69-14.02-2.43-21.45Z"/><path class="cls-63" d="m800.22,104.59c-.55-.8-1.27-1.47-1.92-2.2-2.41-2.73-3.73-6.41-3.6-10.05.07-2.11.66-4.29,2.1-5.83,2.02-2.16,5.43-2.64,8.24-1.71,2.81.93,5.1,3.05,6.87,5.42,2,2.67,3.48,5.79,3.95,9.09.46,3.31-.14,6.81-1.99,9.6-1.85,2.78-4.99,4.75-8.33,4.86-1.39.05-2.91-.28-3.82-1.33-.62-.71-.88-1.68-.91-2.62-.06-1.98.65-3.42-.59-5.22Z"/><path class="cls-63" d="m736.02,107.51c3.82-.77,7.68-1.78,10.94-3.91,3.26-2.14,5.86-5.59,6.11-9.47.31-4.89-3.19-9.38-7.48-11.74-4.29-2.36-9.29-3.01-14.15-3.62-19.39-2.43-39.47-4.82-58.16.9-6.67,2.04-15.46,8.24-10.58,16.33,2.83,4.69,11.44,5.45,16.2,7.13,18.32,6.44,38.03,8.22,57.12,4.4Z"/><path class="cls-63" d="m198.51,462.88l-12.2.57,10.52-6.52c.53-.33.7-1.04.37-1.58-.33-.53-1.04-.7-1.58-.37l-10.38,6.44,6.02-10.81c.31-.55.11-1.25-.44-1.56-.55-.31-1.25-.11-1.56.44l-5.94,10.67v-12.37c0-.63-.51-1.14-1.14-1.14s-1.14.51-1.14,1.14v13.44l-8.75-10.48c-.4-.48-1.13-.55-1.61-.15-.48.4-.55,1.13-.15,1.61l7.83,9.38-11.55-4.44c-.59-.23-1.25.07-1.48.66s.07,1.25.66,1.48l11.4,4.39-12.25,1.73c-.62.09-1.06.67-.97,1.29s.67,1.06,1.29.97l12.1-1.71-9.86,7.48c-.5.38-.6,1.1-.22,1.6.38.5,1.1.6,1.6.22l9.74-7.38-4.98,11.33c-.25.58.01,1.25.59,1.51.58.25,1.25-.01,1.51-.59l4.92-11.18,1.16,12.32c.06.63.62,1.09,1.25,1.03h0c.63-.06,1.09-.62,1.03-1.25l-1.14-12.16,7,10.2c.36.52,1.07.65,1.59.3h0c.52-.36.65-1.07.3-1.59l-6.92-10.07,11.08,5.51c.56.28,1.25.05,1.53-.52h0c.28-.56.05-1.25-.52-1.53l-10.94-5.44,12.36-.58c.63-.03,1.12-.57,1.09-1.2-.03-.63-.57-1.12-1.2-1.09Zm-14.71,2.24c-.18.11-.34.27-.44.47-.06.13-.1.26-.11.4-.21,0-.42.07-.61.2h0c-.12.08-.21.18-.29.29-.19-.1-.4-.15-.63-.12-.14.01-.27.06-.4.12-.12-.18-.28-.32-.49-.41-.13-.06-.27-.08-.4-.09-.02-.21-.09-.42-.23-.6-.09-.11-.19-.2-.31-.28.09-.19.13-.41.09-.63-.02-.14-.07-.27-.13-.39.17-.13.31-.3.39-.51.05-.13.07-.27.07-.41.21-.03.41-.11.59-.25.2-.17.33-.39.38-.63.21.25.52.41.87.41.14,0,.28-.03.4-.08.1.19.25.35.45.46.12.07.26.11.39.13,0,.21.05.43.17.62.08.12.17.22.28.3-.11.18-.16.4-.15.62h0c0,.14.04.28.1.4Z"/><path class="cls-63" d="m230.87,489.71c-9.05,0-16.39,7.34-16.39,16.39s7.34,16.39,16.39,16.39,16.39-7.34,16.39-16.39-7.34-16.39-16.39-16.39Zm0,28.71c-6.8,0-12.32-5.51-12.32-12.32s5.51-12.32,12.32-12.32,12.32,5.51,12.32,12.32-5.51,12.32-12.32,12.32Z"/><polygon class="cls-63" points="440.94 79.4 439.27 77.77 430.32 77.77 430.32 74.9 433.39 76.82 439.9 66.45 437.63 66.99 432.87 74.57 430.32 72.97 430.32 68.82 428.69 67.15 428.69 71.95 425.29 69.82 423.01 70.31 428.69 73.87 428.69 79.4 440.94 79.4"/><path class="cls-63" d="m92.4,424.66c-6.07,0-11,4.92-11,11s4.92,11,11,11,11-4.92,11-11-4.92-11-11-11Zm0,19.26c-4.56,0-8.26-3.7-8.26-8.26s3.7-8.26,8.26-8.26,8.26,3.7,8.26,8.26-3.7,8.26-8.26,8.26Z"/><path class="cls-63" d="m495.48,33.2l-12.2.57,10.52-6.52c.53-.33.7-1.04.37-1.58-.33-.53-1.04-.7-1.58-.37l-10.38,6.44,6.02-10.81c.31-.55.11-1.25-.44-1.56-.55-.31-1.25-.11-1.56.44l-5.94,10.67v-12.37c0-.63-.51-1.14-1.14-1.14s-1.14.51-1.14,1.14v13.44l-8.75-10.48c-.4-.48-1.13-.55-1.61-.15-.48.4-.55,1.13-.15,1.61l7.83,9.38-11.55-4.44c-.59-.23-1.25.07-1.48.66-.23.59.07,1.25.66,1.48l11.4,4.39-12.25,1.73c-.62.09-1.06.67-.97,1.29.09.62.67,1.06,1.29.97l12.1-1.71-9.86,7.48c-.5.38-.6,1.1-.22,1.6.38.5,1.1.6,1.6.22l9.74-7.38-4.98,11.33c-.25.58.01,1.25.59,1.51.58.25,1.25-.01,1.51-.59l4.92-11.18,1.16,12.32c.06.63.62,1.09,1.25,1.03h0c.63-.06,1.09-.62,1.03-1.25l-1.14-12.16,7,10.2c.36.52,1.07.65,1.59.3h0c.52-.36.65-1.07.3-1.59l-6.92-10.07,11.08,5.51c.56.28,1.25.05,1.53-.52h0c.28-.56.05-1.25-.52-1.53l-10.94-5.44,12.36-.58c.63-.03,1.12-.57,1.09-1.2s-.57-1.12-1.2-1.09Zm-14.71,2.24c-.18.11-.34.27-.44.47-.06.13-.1.26-.11.4-.21,0-.42.07-.61.2h0c-.12.08-.21.18-.29.29-.19-.1-.4-.15-.63-.12-.14.01-.27.06-.4.12-.12-.18-.28-.32-.49-.41-.13-.06-.27-.08-.4-.09-.02-.21-.09-.42-.23-.6-.09-.11-.19-.2-.31-.28.09-.19.13-.41.09-.63-.02-.14-.07-.27-.13-.39.17-.12.31-.3.39-.51.05-.13.07-.27.07-.41.21-.03.41-.11.59-.25.2-.17.33-.39.38-.63.21.25.52.41.87.41.14,0,.28-.03.4-.08.1.19.25.35.45.46.12.07.26.11.39.13,0,.21.05.43.17.62.08.12.17.22.28.3-.11.18-.16.4-.15.62h0c0,.14.04.28.1.4Z"/><path class="cls-63" d="m527.85,60.03c-9.05,0-16.39,7.34-16.39,16.39s7.34,16.39,16.39,16.39,16.39-7.34,16.39-16.39-7.34-16.39-16.39-16.39Zm0,28.71c-6.8,0-12.32-5.51-12.32-12.32s5.51-12.32,12.32-12.32,12.32,5.51,12.32,12.32-5.51,12.32-12.32,12.32Z"/><path class="cls-63" d="m862.32,519.3l12.21.45-11.03,5.61c-.56.29-.79.98-.5,1.54.29.56.98.79,1.54.5l10.89-5.54-6.9,10.27c-.35.52-.21,1.24.31,1.59.52.35,1.24.21,1.59-.31l6.82-10.14-1.04,12.33c-.05.63.42,1.18,1.04,1.24.63.05,1.18-.42,1.24-1.04l1.13-13.39,7.84,11.18c.36.52,1.08.64,1.59.28.52-.36.64-1.08.28-1.59l-7.01-10,11.14,5.4c.57.27,1.25.04,1.53-.53.27-.57.04-1.25-.53-1.53l-10.99-5.33,12.35-.7c.63-.04,1.11-.58,1.08-1.21-.04-.63-.58-1.11-1.21-1.08l-12.2.69,10.45-6.62c.53-.34.69-1.05.35-1.58-.34-.53-1.05-.69-1.58-.35l-10.32,6.54,5.91-10.87c.3-.55.09-1.25-.46-1.55-.55-.3-1.25-.09-1.55.46l-5.84,10.73-.12-12.37c0-.63-.53-1.14-1.16-1.13h0c-.63,0-1.14.53-1.13,1.16l.12,12.22-6.12-10.75c-.31-.55-1.01-.74-1.56-.43h0c-.55.31-.74,1.01-.43,1.56l6.05,10.61-10.58-6.42c-.54-.33-1.25-.15-1.57.39h0c-.33.54-.15,1.25.39,1.57l10.45,6.33-12.37-.46c-.63-.02-1.16.47-1.19,1.1s.47,1.16,1.1,1.19Zm14.84-1c.19-.09.36-.24.47-.43.07-.12.12-.25.14-.39.21.01.43-.03.62-.15h0c.12-.07.23-.16.31-.27.18.11.39.18.61.18.14,0,.28-.03.4-.08.1.19.25.35.45.45.13.07.26.11.39.12,0,.21.05.42.17.62.08.12.17.22.28.3-.1.18-.16.4-.15.62,0,.14.05.28.1.4-.18.11-.33.27-.43.47-.06.13-.09.26-.11.4-.21,0-.42.07-.61.2-.22.15-.36.37-.43.6-.19-.26-.48-.45-.83-.48-.14-.01-.28,0-.41.04-.08-.19-.22-.37-.41-.49-.12-.08-.25-.13-.38-.16.02-.21-.01-.43-.12-.63-.06-.13-.15-.23-.25-.33.12-.17.2-.38.2-.61h0c0-.14-.02-.28-.06-.41Z"/><path class="cls-63" d="m832.32,489.85c9.02.76,16.95-5.94,17.71-14.96.76-9.02-5.94-16.95-14.96-17.71-9.02-.76-16.95,5.94-17.71,14.96-.76,9.02,5.94,16.95,14.96,17.71Zm2.41-28.61c6.78.57,11.81,6.53,11.24,13.31-.57,6.78-6.53,11.81-13.31,11.24-6.78-.57-11.81-6.53-11.24-13.31.57-6.78,6.53-11.81,13.31-11.24Z"/><path class="cls-63" d="m778.21,598.69c-.55-.8-1.27-1.47-1.92-2.2-2.41-2.73-3.73-6.41-3.6-10.05.07-2.11.66-4.29,2.1-5.83,2.02-2.16,5.43-2.64,8.24-1.71,2.81.93,5.1,3.05,6.87,5.42,2,2.67,3.48,5.79,3.95,9.09s-.14,6.81-1.99,9.6c-1.85,2.78-4.99,4.75-8.33,4.86-1.39.05-2.91-.28-3.82-1.33-.62-.71-.88-1.68-.91-2.62-.06-1.98.65-3.42-.59-5.22Z"/></svg>