<?xml version="1.0" encoding="UTF-8"?><svg id="Layer_2" xmlns="http://www.w3.org/2000/svg" xmlns:xlink="http://www.w3.org/1999/xlink" viewBox="0 0 1000 1000"><defs><style>.cls-1{fill:url(#New_Gradient_Swatch-8);}.cls-1,.cls-2,.cls-3,.cls-4,.cls-5,.cls-6,.cls-7,.cls-8,.cls-9,.cls-10,.cls-11,.cls-12,.cls-13,.cls-14,.cls-15,.cls-16,.cls-17,.cls-18,.cls-19,.cls-20,.cls-21,.cls-22,.cls-23,.cls-24,.cls-25,.cls-26,.cls-27,.cls-28,.cls-29,.cls-30,.cls-31,.cls-32,.cls-33,.cls-34,.cls-35,.cls-36,.cls-37,.cls-38,.cls-39,.cls-40,.cls-41,.cls-42,.cls-43,.cls-44,.cls-45,.cls-46,.cls-47,.cls-48,.cls-49,.cls-50{stroke-width:0px;}.cls-2{fill:url(#New_Gradient_Swatch-6);}.cls-3{fill:url(#New_Gradient_Swatch-7);}.cls-4{fill:url(#New_Gradient_Swatch-4);}.cls-5{fill:url(#New_Gradient_Swatch-5);}.cls-6{fill:url(#New_Gradient_Swatch-9);}.cls-7{fill:url(#New_Gradient_Swatch-2);}.cls-8{fill:url(#New_Gradient_Swatch-3);}.cls-9{fill:url(#linear-gradient);}.cls-10{fill:url(#New_Gradient_Swatch_copy_2);}.cls-11{fill:url(#New_Gradient_Swatch);}.cls-12{fill:url(#linear-gradient-2);}.cls-13{fill:url(#New_Gradient_Swatch-13);}.cls-14{fill:url(#New_Gradient_Swatch-10);}.cls-15{fill:url(#New_Gradient_Swatch-19);}.cls-16{fill:url(#New_Gradient_Swatch-12);}.cls-17{fill:url(#New_Gradient_Swatch-11);}.cls-18{fill:url(#New_Gradient_Swatch-14);}.cls-19{fill:url(#New_Gradient_Swatch-18);}.cls-20{fill:url(#New_Gradient_Swatch-17);}.cls-21{fill:url(#New_Gradient_Swatch-16);}.cls-22{fill:url(#New_Gradient_Swatch-15);}.cls-23{fill:url(#New_Gradient_Swatch-29);}.cls-24{fill:url(#New_Gradient_Swatch-26);}.cls-25{fill:url(#New_Gradient_Swatch-21);}.cls-26{fill:url(#New_Gradient_Swatch-24);}.cls-27{fill:url(#New_Gradient_Swatch-25);}.cls-28{fill:url(#New_Gradient_Swatch-27);}.cls-29{fill:url(#New_Gradient_Swatch-23);}.cls-30{fill:url(#New_Gradient_Swatch-28);}.cls-31{fill:url(#New_Gradient_Swatch-22);}.cls-32{fill:url(#New_Gradient_Swatch-20);}.cls-33{fill:url(#New_Gradient_Swatch-33);}.cls-34{fill:url(#New_Gradient_Swatch-32);}.cls-35{fill:url(#New_Gradient_Swatch-35);}.cls-36{fill:url(#New_Gradient_Swatch-31);}.cls-37{fill:url(#New_Gradient_Swatch-46);}.cls-38{fill:url(#New_Gradient_Swatch-34);}.cls-39{fill:url(#New_Gradient_Swatch-37);}.cls-40{fill:url(#New_Gradient_Swatch-30);}.cls-41{fill:url(#New_Gradient_Swatch-38);}.cls-42{fill:url(#New_Gradient_Swatch-39);}.cls-43{fill:url(#New_Gradient_Swatch-36);}.cls-44{fill:url(#New_Gradient_Swatch-40);}.cls-45{fill:url(#New_Gradient_Swatch-41);}.cls-46{fill:url(#New_Gradient_Swatch-42);}.cls-47{fill:url(#New_Gradient_Swatch-44);}.cls-48{fill:url(#New_Gradient_Swatch-45);}.cls-49{fill:url(#New_Gradient_Swatch-43);}.cls-50{fill:#4a69b0;}</style><linearGradient id="linear-gradient" x1="225.76" y1="378.59" x2="826.56" y2="378.59" gradientUnits="userSpaceOnUse"><stop offset="0" stop-color="#263680"/><stop offset=".06" stop-color="#2d4089"/><stop offset=".19" stop-color="#3a529a"/><stop offset=".35" stop-color="#435fa6"/><stop offset=".56" stop-color="#4866ad"/><stop offset="1" stop-color="#4a69b0"/></linearGradient><linearGradient id="linear-gradient-2" x1="288.04" y1="262.27" x2="756.13" y2="634.35" gradientUnits="userSpaceOnUse"><stop offset="0" stop-color="#263680"/><stop offset=".18" stop-color="#324790"/><stop offset=".44" stop-color="#3f5aa2"/><stop offset=".71" stop-color="#4765ac"/><stop offset="1" stop-color="#4a69b0"/></linearGradient><linearGradient id="New_Gradient_Swatch" x1="693.26" y1="426.76" x2="867.52" y2="453.37" gradientUnits="userSpaceOnUse"><stop offset="0" stop-color="#27b2d1"/><stop offset="1" stop-color="#1a4d84"/></linearGradient><linearGradient id="New_Gradient_Swatch-2" x1="694.41" y1="419.26" x2="868.66" y2="445.86" xlink:href="#New_Gradient_Swatch"/><linearGradient id="New_Gradient_Swatch-3" x1="695.22" y1="413.97" x2="869.47" y2="440.58" xlink:href="#New_Gradient_Swatch"/><linearGradient id="New_Gradient_Swatch-4" x1="688.23" y1="459.73" x2="862.48" y2="486.33" xlink:href="#New_Gradient_Swatch"/><linearGradient id="New_Gradient_Swatch-5" x1="691.93" y1="435.51" x2="866.18" y2="462.11" xlink:href="#New_Gradient_Swatch"/><linearGradient id="New_Gradient_Swatch-6" x1="695.7" y1="410.81" x2="869.95" y2="437.42" xlink:href="#New_Gradient_Swatch"/><linearGradient id="New_Gradient_Swatch-7" x1="691.53" y1="438.15" x2="865.78" y2="464.75" xlink:href="#New_Gradient_Swatch"/><linearGradient id="New_Gradient_Swatch-8" x1="687.95" y1="461.56" x2="862.2" y2="488.16" xlink:href="#New_Gradient_Swatch"/><linearGradient id="New_Gradient_Swatch-9" x1="689.55" y1="451.07" x2="863.81" y2="477.67" xlink:href="#New_Gradient_Swatch"/><linearGradient id="New_Gradient_Swatch-10" x1="690.63" y1="444" x2="864.88" y2="470.6" xlink:href="#New_Gradient_Swatch"/><linearGradient id="New_Gradient_Swatch-11" x1="688.76" y1="456.27" x2="863.01" y2="482.88" xlink:href="#New_Gradient_Swatch"/><linearGradient id="New_Gradient_Swatch-12" x1="695.36" y1="413.07" x2="869.61" y2="439.67" xlink:href="#New_Gradient_Swatch"/><linearGradient id="New_Gradient_Swatch-13" x1="688.99" y1="454.74" x2="863.24" y2="481.35" xlink:href="#New_Gradient_Swatch"/><linearGradient id="New_Gradient_Swatch-14" x1="689.22" y1="453.24" x2="863.47" y2="479.84" xlink:href="#New_Gradient_Swatch"/><linearGradient id="New_Gradient_Swatch-15" x1="689.31" y1="452.65" x2="863.56" y2="479.25" xlink:href="#New_Gradient_Swatch"/><linearGradient id="New_Gradient_Swatch-16" x1="687.92" y1="461.8" x2="862.17" y2="488.41" xlink:href="#New_Gradient_Swatch"/><linearGradient id="New_Gradient_Swatch-17" x1="688.65" y1="456.99" x2="862.9" y2="483.6" xlink:href="#New_Gradient_Swatch"/><linearGradient id="New_Gradient_Swatch-18" x1="688.2" y1="459.92" x2="862.45" y2="486.52" xlink:href="#New_Gradient_Swatch"/><linearGradient id="New_Gradient_Swatch-19" x1="688.12" y1="460.44" x2="862.38" y2="487.04" xlink:href="#New_Gradient_Swatch"/><linearGradient id="New_Gradient_Swatch-20" x1="688.53" y1="457.78" x2="862.78" y2="484.39" xlink:href="#New_Gradient_Swatch"/><linearGradient id="New_Gradient_Swatch-21" x1="689.23" y1="453.16" x2="863.49" y2="479.77" xlink:href="#New_Gradient_Swatch"/><linearGradient id="New_Gradient_Swatch-22" x1="688.96" y1="454.98" x2="863.21" y2="481.58" xlink:href="#New_Gradient_Swatch"/><linearGradient id="New_Gradient_Swatch-23" x1="687.66" y1="463.47" x2="861.91" y2="490.08" xlink:href="#New_Gradient_Swatch"/><linearGradient id="New_Gradient_Swatch-24" x1="684.17" y1="486.31" x2="858.42" y2="512.92" xlink:href="#New_Gradient_Swatch"/><linearGradient id="New_Gradient_Swatch-25" x1="692.49" y1="431.86" x2="866.74" y2="458.47" xlink:href="#New_Gradient_Swatch"/><linearGradient id="New_Gradient_Swatch-26" x1="693.33" y1="426.33" x2="867.58" y2="452.94" xlink:href="#New_Gradient_Swatch"/><linearGradient id="New_Gradient_Swatch-27" x1="687.7" y1="463.22" x2="861.95" y2="489.83" xlink:href="#New_Gradient_Swatch"/><linearGradient id="New_Gradient_Swatch-28" x1="686.05" y1="474.02" x2="860.3" y2="500.63" xlink:href="#New_Gradient_Swatch"/><linearGradient id="New_Gradient_Swatch-29" x1="689.15" y1="453.72" x2="863.4" y2="480.32" xlink:href="#New_Gradient_Swatch"/><linearGradient id="New_Gradient_Swatch-30" x1="659.4" y1="648.58" x2="833.65" y2="675.18" xlink:href="#New_Gradient_Swatch"/><linearGradient id="New_Gradient_Swatch-31" x1="695.89" y1="409.56" x2="870.14" y2="436.16" xlink:href="#New_Gradient_Swatch"/><linearGradient id="New_Gradient_Swatch-32" x1="695.76" y1="410.4" x2="870.01" y2="437.01" xlink:href="#New_Gradient_Swatch"/><linearGradient id="New_Gradient_Swatch-33" x1="694.07" y1="421.46" x2="868.33" y2="448.06" xlink:href="#New_Gradient_Swatch"/><linearGradient id="New_Gradient_Swatch-34" x1="694.74" y1="417.12" x2="868.99" y2="443.72" xlink:href="#New_Gradient_Swatch"/><linearGradient id="New_Gradient_Swatch-35" x1="690.42" y1="445.38" x2="864.67" y2="471.99" xlink:href="#New_Gradient_Swatch"/><linearGradient id="New_Gradient_Swatch-36" x1="661.89" y1="632.24" x2="836.15" y2="658.84" xlink:href="#New_Gradient_Swatch"/><linearGradient id="New_Gradient_Swatch-37" x1="663.12" y1="624.22" x2="837.37" y2="650.82" xlink:href="#New_Gradient_Swatch"/><linearGradient id="New_Gradient_Swatch-38" x1="665.16" y1="610.87" x2="839.41" y2="637.48" xlink:href="#New_Gradient_Swatch"/><linearGradient id="New_Gradient_Swatch-39" x1="661.07" y1="637.63" x2="835.32" y2="664.23" xlink:href="#New_Gradient_Swatch"/><linearGradient id="New_Gradient_Swatch-40" x1="669.37" y1="583.26" x2="843.62" y2="609.86" xlink:href="#New_Gradient_Swatch"/><linearGradient id="New_Gradient_Swatch-41" x1="675.83" y1="540.95" x2="850.08" y2="567.55" xlink:href="#New_Gradient_Swatch"/><linearGradient id="New_Gradient_Swatch-42" x1="682.01" y1="500.48" x2="856.26" y2="527.09" xlink:href="#New_Gradient_Swatch"/><linearGradient id="New_Gradient_Swatch-43" x1="679.41" y1="517.49" x2="853.67" y2="544.09" xlink:href="#New_Gradient_Swatch"/><linearGradient id="New_Gradient_Swatch-44" x1="660.5" y1="641.39" x2="834.75" y2="667.99" xlink:href="#New_Gradient_Swatch"/><linearGradient id="New_Gradient_Swatch-45" x1="660.1" y1="643.97" x2="834.36" y2="670.57" xlink:href="#New_Gradient_Swatch"/><linearGradient id="New_Gradient_Swatch-46" x1="659.79" y1="646.05" x2="834.04" y2="672.66" xlink:href="#New_Gradient_Swatch"/><linearGradient id="New_Gradient_Swatch_copy_2" x1="-3545.95" y1="-1666.3" x2="-3071.85" y2="-1666.3" gradientTransform="translate(-2245.04 -2015.96) rotate(-163.73)" gradientUnits="userSpaceOnUse"><stop offset="0" stop-color="#263680"/><stop offset="1" stop-color="#4a69b0"/></linearGradient></defs><path class="cls-50" d="m900.61,584.18c-7.42,0-13.44,6.02-13.44,13.44s6.02,13.44,13.44,13.44,13.44-6.02,13.44-13.44-6.02-13.44-13.44-13.44Zm0,26.03c-6.95,0-12.58-5.63-12.58-12.58s5.63-12.58,12.58-12.58,12.58,5.63,12.58,12.58-5.63,12.58-12.58,12.58Z"/><path class="cls-50" d="m768.14,105.77c-7.42,0-13.44,6.02-13.44,13.44s6.02,13.44,13.44,13.44,13.44-6.02,13.44-13.44-6.02-13.44-13.44-13.44Zm0,24.09c-5.88,0-10.65-4.77-10.65-10.65s4.77-10.65,10.65-10.65,10.65,4.77,10.65,10.65-4.77,10.65-10.65,10.65Z"/><path class="cls-50" d="m918.89,626.86c-3.71,0-6.72,3.01-6.72,6.72s3.01,6.72,6.72,6.72,6.72-3.01,6.72-6.72-3.01-6.72-6.72-6.72Zm0,13.01c-3.47,0-6.29-2.82-6.29-6.29s2.82-6.29,6.29-6.29,6.29,2.82,6.29,6.29-2.82,6.29-6.29,6.29Z"/><path class="cls-50" d="m729.92,731.09c-3.71,0-6.72,3.01-6.72,6.72s3.01,6.72,6.72,6.72,6.72-3.01,6.72-6.72-3.01-6.72-6.72-6.72Zm0,13.01c-3.47,0-6.29-2.82-6.29-6.29s2.82-6.29,6.29-6.29,6.29,2.82,6.29,6.29-2.82,6.29-6.29,6.29Z"/><path class="cls-50" d="m766.56,75.44c-2.82,0-5.11,2.29-5.11,5.11s2.29,5.11,5.11,5.11,5.11-2.29,5.11-5.11-2.29-5.11-5.11-5.11Zm0,9.9c-2.64,0-4.79-2.14-4.79-4.79s2.14-4.79,4.79-4.79,4.79,2.14,4.79,4.79-2.14,4.79-4.79,4.79Z"/><path class="cls-50" d="m842.73,693.79c-7.42,0-13.44,6.02-13.44,13.44s6.02,13.44,13.44,13.44,13.44-6.02,13.44-13.44-6.02-13.44-13.44-13.44Zm0,24.09c-5.88,0-10.65-4.77-10.65-10.65s4.77-10.65,10.65-10.65,10.65,4.77,10.65,10.65-4.77,10.65-10.65,10.65Z"/><path class="cls-50" d="m841.15,663.46c-2.82,0-5.11,2.29-5.11,5.11s2.29,5.11,5.11,5.11,5.11-2.29,5.11-5.11-2.29-5.11-5.11-5.11Zm0,9.9c-2.64,0-4.79-2.14-4.79-4.79s2.14-4.79,4.79-4.79,4.79,2.14,4.79,4.79-2.14,4.79-4.79,4.79Z"/><path class="cls-50" d="m229.98,717.34c-14.09,0-25.51,11.42-25.51,25.51s11.42,25.51,25.51,25.51,25.51-11.42,25.51-25.51-11.42-25.51-25.51-25.51Zm0,45.72c-11.16,0-20.21-9.05-20.21-20.21s9.05-20.21,20.21-20.21,20.21,9.05,20.21,20.21-9.05,20.21-20.21,20.21Z"/><path class="cls-50" d="m226.98,659.78c-5.36,0-9.7,4.34-9.7,9.7s4.34,9.7,9.7,9.7,9.7-4.34,9.7-9.7-4.34-9.7-9.7-9.7Zm0,18.78c-5.02,0-9.08-4.07-9.08-9.08s4.07-9.08,9.08-9.08,9.08,4.07,9.08,9.08-4.07,9.08-9.08,9.08Z"/><path class="cls-50" d="m144.28,239.02l6.41-1.39-6.41-1.39,5.17-4.03-6.37,1.53,2.91-5.87-5.08,4.14.07-6.55-2.78,5.94-2.78-5.94.07,6.55-5.08-4.14,2.91,5.87-6.37-1.53,5.17,4.03-6.41,1.39,6.41,1.39-5.17,4.03,6.37-1.53-2.91,5.87,5.08-4.14-.07,6.55,2.78-5.94,2.78,5.94-.07-6.55,5.08,4.14-2.91-5.87,6.37,1.53-5.17-4.03Zm-5.6,2.35c-2.47.31-4.54-1.76-4.23-4.23.21-1.68,1.57-3.04,3.25-3.25,2.47-.31,4.54,1.76,4.23,4.23-.21,1.68-1.57,3.04-3.25,3.25Z"/><path class="cls-50" d="m800,723l4.8-1.04-4.8-1.04,3.87-3.02-4.78,1.14,2.18-4.4-3.81,3.1.05-4.91-2.08,4.45-2.08-4.45.05,4.91-3.81-3.1,2.18,4.4-4.78-1.14,3.87,3.02-4.8,1.04,4.8,1.04-3.87,3.02,4.78-1.14-2.18,4.4,3.81-3.1-.05,4.91,2.08-4.45,2.08,4.45-.05-4.91,3.81,3.1-2.18-4.4,4.78,1.14-3.87-3.02Zm-4.2,1.76c-1.85.23-3.4-1.32-3.17-3.17.16-1.26,1.18-2.28,2.44-2.44,1.85-.23,3.4,1.32,3.17,3.17-.16,1.26-1.18,2.28-2.44,2.44Z"/><path class="cls-50" d="m818.24,117.12l4.8-1.04-4.8-1.04,3.87-3.02-4.78,1.14,2.18-4.4-3.81,3.1.05-4.91-2.08,4.45-2.08-4.45.05,4.91-3.81-3.1,2.18,4.4-4.78-1.14,3.87,3.02-4.8,1.04,4.8,1.04-3.87,3.02,4.78-1.14-2.18,4.4,3.81-3.1-.05,4.91,2.08-4.45,2.08,4.45-.05-4.91,3.81,3.1-2.18-4.4,4.78,1.14-3.87-3.02Zm-4.2,1.76c-1.85.23-3.4-1.32-3.17-3.17.16-1.26,1.18-2.28,2.44-2.44,1.85-.23,3.4,1.32,3.17,3.17-.16,1.26-1.18,2.28-2.44,2.44Z"/><path class="cls-50" d="m634.03,51.14l4.8-1.04-4.8-1.04,3.87-3.02-4.78,1.14,2.18-4.4-3.81,3.1.05-4.91-2.08,4.45-2.08-4.45.05,4.91-3.81-3.1,2.18,4.4-4.78-1.14,3.87,3.02-4.8,1.04,4.8,1.04-3.87,3.02,4.78-1.14-2.18,4.4,3.81-3.1-.05,4.91,2.08-4.45,2.08,4.45-.05-4.91,3.81,3.1-2.18-4.4,4.78,1.14-3.87-3.02Zm-4.2,1.76c-1.85.23-3.4-1.32-3.17-3.17.16-1.26,1.18-2.28,2.44-2.44,1.85-.23,3.4,1.32,3.17,3.17-.16,1.26-1.18,2.28-2.44,2.44Z"/><path class="cls-50" d="m136.88,633.77l4.8-1.04-4.8-1.04,3.87-3.02-4.78,1.14,2.18-4.4-3.81,3.1.05-4.91-2.08,4.45-2.08-4.45.05,4.91-3.81-3.1,2.18,4.4-4.78-1.14,3.87,3.02-4.8,1.04,4.8,1.04-3.87,3.02,4.78-1.14-2.18,4.4,3.81-3.1-.05,4.91,2.08-4.45,2.08,4.45-.05-4.91,3.81,3.1-2.18-4.4,4.78,1.14-3.87-3.02Zm-4.2,1.76c-1.85.23-3.4-1.32-3.17-3.17.16-1.26,1.18-2.28,2.44-2.44,1.85-.23,3.4,1.32,3.17,3.17-.16,1.26-1.18,2.28-2.44,2.44Z"/><path class="cls-50" d="m271.85,766.74l4.8-1.04-4.8-1.04,3.87-3.02-4.78,1.14,2.18-4.4-3.81,3.1.05-4.91-2.08,4.45-2.08-4.45.05,4.91-3.81-3.1,2.18,4.4-4.78-1.14,3.87,3.02-4.8,1.04,4.8,1.04-3.87,3.02,4.78-1.14-2.18,4.4,3.81-3.1-.05,4.91,2.08-4.45,2.08,4.45-.05-4.91,3.81,3.1-2.18-4.4,4.78,1.14-3.87-3.02Zm-4.2,1.76c-1.85.23-3.4-1.32-3.17-3.17.16-1.26,1.18-2.28,2.44-2.44,1.85-.23,3.4,1.32,3.17,3.17-.16,1.26-1.18,2.28-2.44,2.44Z"/><path class="cls-50" d="m595.22,796.25c-.43-2.01-.91-4.08-2.14-5.72l-.35-.2c-.89-.31-1.79-.56-2.71-.76-.96-.21-1.92.04-2.89.13-4.35.39-8.82-2.01-10.9-5.85-2.18-4.04-1.87-9.34-5-12.69-2.85-3.07-7.91-3.36-11.6-1.38-3.69,1.98-6.13,5.79-7.39,9.78-2.26,7.13-1.11,15.27,3.05,21.49,2.15,3.23,5.02,5.91,7.86,8.55,3.14,2.92,6.33,5.89,10.16,7.82,2.64,1.34,5.54,2.15,8.48,2.41,3.25.29,6.69-.15,9.38-1.99,3.22-2.2,4.91-6.14,5.28-10.02.37-3.88-.4-7.77-1.22-11.58Z"/><path class="cls-50" d="m687.96,115.14c-.43-2.01-.91-4.08-2.14-5.72l-.35-.2c-.89-.31-1.79-.56-2.71-.76-.96-.21-1.92.04-2.89.13-4.35.39-8.82-2.01-10.9-5.85-2.18-4.04-1.87-9.34-5-12.69-2.85-3.07-7.91-3.36-11.6-1.38-3.69,1.98-6.13,5.79-7.39,9.78-2.26,7.13-1.11,15.27,3.05,21.49,2.15,3.23,5.02,5.91,7.86,8.55,3.14,2.92,6.33,5.89,10.16,7.82,2.64,1.34,5.54,2.15,8.48,2.41,3.25.29,6.69-.15,9.38-1.99,3.22-2.2,4.91-6.14,5.28-10.02.37-3.88-.4-7.77-1.22-11.58Z"/><path class="cls-50" d="m110.71,517.81c1.09,2.84,2.26,5.76,4.43,7.87l.56.21c1.37.25,2.75.41,4.14.5,1.44.09,2.79-.5,4.19-.85,6.27-1.57,13.36.93,17.27,6.07,4.11,5.41,4.87,13.23,10.2,17.43,4.87,3.84,12.34,3.11,17.29-.63,4.95-3.74,7.64-9.86,8.58-15.99,1.68-10.95-1.86-22.58-9.35-30.74-3.89-4.23-8.69-7.49-13.44-10.72-5.25-3.56-10.6-7.17-16.64-9.13-4.16-1.35-8.59-1.89-12.96-1.6-4.82.32-9.75,1.74-13.27,5.05-4.2,3.96-5.78,10.1-5.44,15.86.34,5.76,2.36,11.28,4.43,16.66Z"/><path class="cls-9" d="m714.93,532.83c-43,34.42-88.77,70.08-143.25,78.16-38.15,5.65-77.88-2.82-115.2,6.89-33.24,8.66-61.04,30.81-91.56,46.56-30.52,15.76-69.05,24.67-98.19,6.49-32.23-20.11-39.09-65.69-28.5-102.17,10.6-36.48,34.34-67.43,52.31-100.9,17.97-33.46,30.3-73.84,16.12-109.08-12.81-31.82-44.17-52.09-62.78-80.9-27.51-42.59-22.68-102.1,7.7-142.69,30.38-40.59,83-61.87,133.6-58.79,50.6,3.08,98.46,28.87,132.93,66.06,20.08,21.67,36.02,47.08,57.54,67.33,21.51,20.25,51.12,35.27,80.04,29.22,28.08-5.87,49.8-30.21,78.07-35.09,28.24-4.88,57.16,11.8,72.96,35.71,15.8,23.91,20.34,53.65,19.81,82.3-1.45,78.15-50.11,162.6-111.59,210.88Z"/><path class="cls-12" d="m220.24,492.21c-32.54-23.02-74.51-33.78-99.77-64.62-18.8-22.95-25.24-55.45-16.61-83.84,8.63-28.38,32.08-51.8,60.47-60.4,38.1-11.53,78.57,2.8,116.62,14.52,38.05,11.71,81.87,20.22,115.64-.86,42.92-26.79,49.54-88.44,87.11-122.32,29.59-26.68,75.08-31.1,112.36-17.04,37.28,14.07,66.8,44.19,87.23,78.4,20.43,34.21,32.7,72.58,44.08,110.76,11.87,39.83,23.08,81.05,18.9,122.4-4.18,41.35-27.08,83.35-65.74,98.62-30.55,12.06-64.76,5.86-97.52,3.59-32.77-2.27-69.94,1.54-90.86,26.86-12.07,14.6-16.68,34.19-28.48,49-19.86,24.93-56.59,30.92-87.43,22.87-27.41-7.15-66.11-25.72-83.24-49.59-7.43-10.36-8.87-23.5-11.69-35.58-4.07-17.4-10.69-33.99-20.17-49.17-10.62-17.01-24.5-32.02-40.88-43.61Z"/><path class="cls-11" d="m511.91,532.08l-37.06,99.14c.37.3.74.61,1.11.91,12.88-33.13,25.83-66.24,38.86-99.32,34.64-88.01,69.76-175.86,105.42-263.53,11.79-28.94,23.63-57.87,35.55-86.77-6.18,4.13-12.28,8.39-18.36,12.73l-26.55,71.26-98.97,265.59Z"/><path class="cls-7" d="m523.05,535.5l-40.32,102.3c.35.3.7.6,1.05.9,13.98-34.16,28.03-68.3,42.16-102.41,36.23-87.47,72.93-174.78,110.17-261.9,15.5-36.19,31.07-72.35,46.78-108.47-6.47,3.55-12.82,7.36-19.08,11.35l-37,94.16-103.77,264.07Z"/><path class="cls-8" d="m534.1,539.12l-43.71,105.41c.33.3.66.6.98.89,15.12-35.19,30.32-70.34,45.6-105.47,37.81-86.91,76.08-173.64,114.89-260.17,18.93-42.14,37.96-84.24,57.2-126.26-6.43,2.58-12.81,5.46-19.09,8.65l-47.34,114.49-108.54,262.47Z"/><path class="cls-4" d="m536.6,257.07c-3.63,1.38-7.26,2.62-10.9,3.73l-70.52,257.33-22.37,81.3c.47.35.95.69,1.42,1.04,7.93-27.3,15.9-54.6,23.93-81.88,25.67-87.28,51.79-174.46,78.44-261.52Z"/><path class="cls-5" d="m500.7,528.87l-33.92,95.9c.39.31.78.61,1.17.92,11.83-32.07,23.71-64.12,35.67-96.15,33.04-88.51,66.56-176.88,100.63-265.08,8.13-21.01,16.28-42,24.47-62.99-5.63,4.06-11.26,8.15-16.9,12.18l-16.99,48.2-94.13,267.01Z"/><path class="cls-2" d="m545.07,542.95l-47.27,108.52c.31.3.61.59.92.89,16.31-36.21,32.72-72.38,49.2-108.52,39.37-86.31,79.2-172.44,119.57-258.36,22.05-46.87,44.23-93.69,66.69-140.4-6.34,1.74-12.66,3.76-18.93,6.07l-.28.65-56.63,130.39-113.26,260.77Z"/><path class="cls-3" d="m787.51,341.3c36.59-55.91,73.36-111.72,110.61-167.24-1.47-1.33-2.97-2.63-4.51-3.9-2.78-2.28-5.66-4.44-8.64-6.49l-31.15,50.94-74.8,122.06-149.6,244.12-85.06,138.49c.17.16.35.32.52.48,28.92-45.98,57.99-91.87,87.2-137.67,51.36-80.52,103.14-160.8,155.41-240.79Z"/><path class="cls-1" d="m517.67,263c-3.36.82-6.72,1.5-10.08,2.04l-63.95,250.93-19.7,76.97c.5.37,1,.73,1.49,1.1,7.03-25.9,14.09-51.79,21.2-77.66,23.23-84.55,46.88-169.01,71.03-253.37Z"/><path class="cls-6" d="m571.97,255.74c2.3-6.64,4.61-13.28,6.92-19.92-4.39,2.69-8.84,5.28-13.35,7.75l-3.1,9.92-84.37,269.6-27.96,89.03c.43.32.86.64,1.3.96,9.82-29.82,19.69-59.63,29.62-89.42,29.81-89.44,60.1-178.74,90.95-267.9Z"/><path class="cls-14" d="m489.42,525.87l-30.89,92.55c.41.31.82.63,1.24.94,10.81-30.97,21.67-61.93,32.6-92.87,31.43-88.99,63.34-177.84,95.8-266.54,4.89-13.32,9.78-26.64,14.69-39.96-4.06,2.84-8.15,5.63-12.27,8.37-.93.62-1.87,1.24-2.82,1.85l-9.08,27.31-89.27,268.35Z"/><path class="cls-17" d="m555.68,251.83c.41-1.25.82-2.49,1.22-3.74-3.96,1.99-7.96,3.86-11.97,5.59l-78.29,266.82-25.12,85.29c.45.33.91.66,1.36,1,8.86-28.61,17.77-57.2,26.73-85.78,28.18-89.85,56.84-179.59,86.06-269.18Z"/><path class="cls-16" d="m704.68,300.48l-127.22,255.17-60.65,121.33c.19.36.38.71.57,1.07,20.84-40.5,41.8-80.95,62.86-121.35,43.98-84.35,88.41-168.5,133.35-252.41,29.89-55.72,59.96-111.35,90.47-166.78-5.94-.36-11.97-.46-18.05-.28l-17.74,35.67-63.61,127.59Z"/><path class="cls-13" d="m381.46,283.84c-3.09,2.13-6.11,4.39-9.05,6.75l-22.58,215.84-1.85,17.52c.78,1.02,1.57,2.03,2.37,3.03.84-6.87,1.69-13.73,2.54-20.59,9.19-74.2,18.7-148.38,28.58-222.55Z"/><path class="cls-18" d="m399.1,273.39c-3.14,1.56-6.25,3.26-9.3,5.08l-28.13,228.39-3.63,29.26c.73.82,1.46,1.63,2.19,2.44,1.49-10.56,2.99-21.12,4.49-31.68,11.09-77.86,22.53-155.69,34.38-233.49Z"/><path class="cls-22" d="m416.61,266.27c-3.15,1-6.29,2.15-9.41,3.44l-33.71,237.82-5.58,39.08c.68.68,1.37,1.36,2.05,2.04,2.18-13.68,4.37-27.37,6.57-41.05,12.96-80.48,26.3-160.92,40.08-241.33Z"/><path class="cls-21" d="m499.87,266.01c-3.16.28-6.31.42-9.44.41l-58.37,247.6-17.11,72.25c.52.39,1.04.78,1.57,1.17,6.15-24.36,12.33-48.72,18.55-73.07,21.17-82.87,42.75-165.66,64.8-248.36Z"/><path class="cls-20" d="m363.81,298.01c-3,2.78-5.9,5.67-8.67,8.65l-17.17,199.55-.26,3c.84,1.34,1.7,2.67,2.58,3.98.25-2.36.49-4.72.74-7.08,7.3-69.38,14.88-138.74,22.79-208.1Z"/><path class="cls-19" d="m343.8,320.35c-2.01,2.73-3.91,5.5-5.72,8.3l-10.9,161.42c.78,1.66,1.58,3.3,2.41,4.92.15.29.3.57.45.86,5.19-59.59,10.59-119.17,16.23-178.75-.84,1.08-1.66,2.16-2.46,3.25Z"/><path class="cls-15" d="m483.03,266.1c-3.03-.25-6.03-.61-9-1.04l-53.59,247.24-14.61,67.06c.55.42,1.1.84,1.65,1.26,5.29-22.68,10.62-45.36,15.98-68.03,19.44-82.23,39.28-164.4,59.58-246.49Z"/><path class="cls-32" d="m466.8,263.96c-2.97-.47-5.95-.92-8.94-1.3l-49.1,248.13-12.19,61.29c.58.46,1.15.92,1.73,1.39,4.47-20.82,8.96-41.63,13.49-62.44,17.92-82.42,36.24-164.77,55.02-247.06Z"/><path class="cls-25" d="m433.83,262.41c-3.12.4-6.25.97-9.37,1.7l-39.18,244.29-7.67,47.49c.64.59,1.29,1.17,1.93,1.75,2.91-16.37,5.83-32.75,8.78-49.12,14.75-82.08,29.91-164.12,45.52-246.11Z"/><path class="cls-31" d="m450.55,261.92c-1.68-.11-3.37-.19-5.08-.21-1.35-.02-2.71,0-4.07.06l-44.37,247.71-9.88,54.82c.61.52,1.21,1.03,1.82,1.54,3.67-18.73,7.37-37.46,11.09-56.18,16.41-82.64,33.22-165.22,50.49-247.74Z"/><path class="cls-29" d="m321.24,362.76l-4.75,96.93c.94,3.82,2.01,7.58,3.19,11.27,2.92-41.99,5.95-83.97,9.1-125.96-2.9,5.84-5.4,11.77-7.54,17.76Z"/><path class="cls-26" d="m849.24,379.7l-170.72,231.01-96.2,129.91c.24.08.48.15.72.23,32.53-42.96,65.19-85.82,97.99-128.58,58.3-76.02,117-151.75,176.16-227.15,28.54-36.33,57.16-72.6,85.96-108.74-.31-7.06-1.05-14.01-2.19-20.81l-6.37,8.64-85.35,115.51Z"/><path class="cls-27" d="m773.04,333.35c36.11-57.33,72.41-114.55,109.22-171.48-4.66-3.04-9.53-5.8-14.59-8.28l-30.6,52.05-72.6,123.25-145.22,246.5-81.16,137.45c.1.12.2.24.31.35.06.07.13.15.2.22,27.64-45.67,55.42-91.26,83.35-136.77,49.91-81.35,100.26-162.45,151.1-243.28Z"/><path class="cls-24" d="m749.75,321.36l-140.79,248.79-76.63,135.1c.16.24.32.47.48.71,26.15-44.94,52.44-89.81,78.87-134.61,48.46-82.14,97.34-164.05,146.73-245.69,35.13-57.99,70.46-115.87,106.31-173.49-5.09-2.35-10.36-4.42-15.78-6.22l-28.8,51-70.39,124.4Z"/><path class="cls-28" d="m821.69,361.69l-162.43,236.49-93.46,135.78c.2.1.41.2.61.3,31.66-44.97,63.47-89.85,95.42-134.63,55.58-77.9,111.57-155.53,168.03-232.84,34.26-46.86,68.66-93.63,103.38-140.18-2.14-5.72-4.62-11.27-7.43-16.6l-22.91,33.43-81.21,118.25Z"/><path class="cls-30" d="m835.56,370.57l-166.6,233.79-95.14,133.22c.22.09.44.18.66.26,32.2-44.09,64.54-88.09,97.02-131.98,56.95-76.97,114.3-153.66,172.12-230.04,31.93-42.12,63.97-84.17,96.26-126.04-1.31-6.36-2.99-12.58-5.03-18.61l-16.01,22.51-83.3,116.9Z"/><path class="cls-23" d="m807.64,353.08l-158.21,239.11-91.21,137.55c.19.12.38.23.57.35,30.93-45.59,62.01-91.09,93.24-136.5,54.19-78.8,108.79-157.34,163.88-235.57,35.74-50.69,71.63-101.28,107.91-151.63-2.87-5.08-6.06-9.96-9.55-14.59l-27.55,41.72-79.1,119.56Z"/><path class="cls-40" d="m803.93,685.59c8.35-7.17,16.71-14.34,25.07-21.5,4.21-4.74,7.94-9.82,11.05-15.27l-52.35,46.67c5.58-3.08,11.02-6.37,16.23-9.9Z"/><path class="cls-36" d="m673.92,287.99l-117.96,258.99-51.07,111.83c.27.32.54.65.81.97,17.6-37.32,35.3-74.61,53.09-111.86,40.92-85.69,82.3-171.19,124.2-256.47,24.92-50.63,49.98-101.19,75.38-151.62-6.24.99-12.5,2.26-18.75,3.81l-6.74,14.84-58.97,129.5Z"/><path class="cls-34" d="m689.37,294.09l-122.61,257.13-55.54,116.18c.23.35.45.71.68,1.06,19.13-38.79,38.35-77.54,57.68-116.25,42.46-85.03,85.37-169.87,128.8-254.48,27.53-53.55,55.23-107.03,83.32-160.34-6.11.3-12.28.88-18.46,1.72l-12.56,26.41-61.3,128.56Z"/><path class="cls-33" d="m734.88,314.12l-136.31,251-71.53,131.41c.16.28.32.57.48.85,24.47-43.77,49.07-87.47,73.8-131.11,46.98-82.9,94.4-165.59,142.32-248.01,33.73-57.93,67.66-115.76,102.09-173.33-5.44-1.68-11.02-3.09-16.73-4.23l-25.96,47.91-68.15,125.5Z"/><path class="cls-38" d="m719.85,307.16l-131.79,253.13-66.1,126.64c.17.33.34.66.5.99,22.66-42.23,45.45-84.41,68.36-126.53,45.49-83.64,91.42-167.07,137.86-250.25,31.97-57.17,64.12-114.25,96.76-171.1-5.72-1.02-11.56-1.77-17.48-2.25l-22.24,42.81-65.89,126.57Z"/><path class="cls-35" d="m900.6,176.37l-30.22,47.54-76.96,120.83-153.93,241.66-88.4,138.48c.18.14.36.27.55.41,30.02-45.94,60.18-91.78,90.49-137.54,52.78-79.68,105.98-159.1,159.67-238.22,36.48-53.7,73.14-107.3,110.24-160.62-3.53-4.42-7.34-8.61-11.44-12.53Z"/><path class="cls-43" d="m664.07,742.08c.75-.15,1.49-.31,2.24-.47,25.81-26.59,51.68-53.13,77.61-79.62,33.83-34.56,67.75-69.03,101.76-103.42-.26-2.62-.49-5.26-.64-7.89l-103.39,109.44-77.57,81.96Z"/><path class="cls-39" d="m648.73,744.77c.6-.08,1.19-.18,1.79-.26,28.21-30.11,56.49-60.15,84.85-90.13,36.37-38.45,72.85-76.8,109.44-115.04.03-1.22.08-2.45.15-3.68.13-2.12.32-4.23.57-6.33l-112.47,123.23-84.33,92.21Z"/><path class="cls-41" d="m635.03,746.24c.49-.04.97-.07,1.46-.11,29.98-33.14,60.04-66.21,90.18-99.2,40.34-44.15,80.82-88.17,121.46-132.06,1.23-5.13,2.77-10.24,4.57-15.33l-128.37,145.6-89.3,101.09Z"/><path class="cls-42" d="m681.46,737.9c.96-.26,1.92-.53,2.89-.8,22.61-22.48,45.26-44.92,67.96-67.32,31.77-31.36,63.61-62.64,95.53-93.85-.32-2.36-.64-4.72-.95-7.09l-96.82,99.02-68.61,70.04Z"/><path class="cls-44" d="m622.66,746.67c.4,0,.81,0,1.22,0,31.22-35.76,62.54-71.43,93.96-107.02,47.79-54.14,95.8-108.11,144.04-161.88,5.3-11,11.47-21.96,17.98-32.91l-164.39,193.06-92.8,108.76Z"/><path class="cls-45" d="m706.43,630.85l-95.03,115.34c.34.03.69.05,1.03.08,32.03-38,64.17-75.91,96.41-113.73,62.24-73,124.85-145.7,187.91-218.04,1.69-1.93,3.38-3.87,5.07-5.8,8.86-14.75,17.28-29.59,23.99-44.65l-36.67,44.6-182.71,222.2Z"/><path class="cls-46" d="m687.96,617.24l-96.6,125.84c.27.06.53.12.8.18,32.63-41.57,65.39-83.05,98.28-124.43,59.63-75.04,119.66-149.78,180.14-224.19,23.68-29.1,47.42-58.16,71.25-87.14,1.01-7.95,1.51-15.85,1.49-23.64l-80.6,105.22-174.77,228.15Z"/><path class="cls-49" d="m697.27,623.96l-96.24,121c.3.05.6.09.9.14,32.48-39.92,65.07-79.76,97.79-119.49,60.95-74.03,122.28-147.77,184.05-221.15,16.28-19.32,32.59-38.62,48.94-57.89,3.27-9.53,5.77-19.13,7.52-28.69l-64.19,80.87-178.77,225.21Z"/><path class="cls-47" d="m701.52,731.82c1.27-.42,2.54-.85,3.81-1.29,18.38-17.63,36.78-35.24,55.21-52.81,29.72-28.35,59.5-56.62,89.35-84.84-.21-2.29-.46-4.57-.73-6.86l-90.8,89.74-56.83,56.05Z"/><path class="cls-48" d="m724.94,723.39c1.72-.66,3.44-1.33,5.15-2,12.83-11.87,25.67-23.73,38.52-35.57,27.25-25.12,54.56-50.18,81.91-75.19.08-2.37.08-4.74.02-7.1l-84.09,80.3-41.52,39.57Z"/><path class="cls-37" d="m752.44,712.27c2.34-.99,4.71-2,7.08-3.03,5.67-5.06,11.34-10.11,17.01-15.16,23.62-21.03,47.28-42.02,70.97-62.97.76-2.73,1.36-5.46,1.83-8.19l-74.91,69.12-21.97,20.23Z"/><path class="cls-10" d="m231.12,487.93c-18.78,30.97-30.05,67.98-23.67,103.64,6.14,34.37,28.63,64.83,58.1,83.56,29.47,18.73,65.34,26.18,100.18,24.01,21.58-1.34,43.25-6.21,64.64-3,33.22,5,60.62,28.59,92.71,38.52,49.99,15.46,109.18-7.69,135.41-52.97,26.23-45.28,16.88-108.14-21.4-143.82-12.51-11.66-27.65-20.65-38.23-34.09-19.42-24.69-19.65-58.88-19.26-90.29.4-31.41-.44-65.74-20.63-89.81-35.7-42.57-116.84-36.22-163.01-17.79-18.35,7.32-29.23,19.76-40.01,35.73-15.52,23.01-33.02,42.26-52.65,61.89-26.17,26.18-52.87,52.56-72.19,84.42Z"/></svg>