<svg xmlns="http://www.w3.org/2000/svg" width="274.498" height="247.051" viewBox="0 0 274.498 247.051">
  <g id="Group_2983" data-name="Group 2983" transform="translate(-278 -8157.426)">
    <g id="Group_2508" data-name="Group 2508" transform="translate(-270.542 6218.445)">
      <circle id="e41ec8f5-a87e-4b16-bc24-7a000bd09eb1" cx="83.787" cy="83.787" r="83.787" transform="translate(634.007 1974.995)" fill="#ececec"/>
      <path id="Path_13086" data-name="Path 13086" d="M145.153,478.505a85.653,85.653,0,1,1,85.653-85.653h0C230.805,440.064,192.364,478.319,145.153,478.505Zm0-167.76a81.92,81.92,0,1,0,81.92,81.92C227.073,347.507,190.311,310.932,145.153,310.746Z" transform="translate(592.234 1631.78)" fill="#2f2e41"/>
    </g>
    <g id="Group_2616" data-name="Group 2616" transform="translate(-32.968 71)">
      <circle id="e41ec8f5-a87e-4b16-bc24-7a000bd09eb1-2" data-name="e41ec8f5-a87e-4b16-bc24-7a000bd09eb1" cx="46.645" cy="46.645" r="46.645" transform="translate(310.968 8240.187)" fill="#fff"/>
      <path id="Path_13086-2" data-name="Path 13086" d="M93.675,375.55a34.175,34.175,0,1,1,34.175-34.175h0A34.271,34.271,0,0,1,93.675,375.55Zm0-66.935A32.686,32.686,0,1,0,126.361,341.3,32.681,32.681,0,0,0,93.675,308.615Z" transform="translate(310.583 7916.148)" fill="#2f2e41"/>
    </g>
    <circle id="af8c7bff-6816-464a-b0a9-6a679aecd372" cx="15.294" cy="15.294" r="15.294" transform="translate(390.171 8361.012)" fill="#3c3c3c"/>
    <circle id="af8c7bff-6816-464a-b0a9-6a679aecd372-2" data-name="af8c7bff-6816-464a-b0a9-6a679aecd372" cx="14.294" cy="14.294" r="14.294" transform="translate(327.438 8298.6)" fill="#263680"/>
  </g>
</svg>
