<svg xmlns="http://www.w3.org/2000/svg" width="289.677" height="285.735" viewBox="0 0 289.677 285.735">
  <g id="Group_2625" data-name="Group 2625" transform="translate(53.449 0)">
    <g id="Group_2507" data-name="Group 2507" transform="translate(88.993 0)">
      <ellipse id="af8c7bff-6816-464a-b0a9-6a679aecd372" cx="65.294" cy="65.294" rx="65.294" ry="65.294" transform="translate(16.647 27.983)" fill="#263680"/>
      <path id="Path_13047" data-name="Path 13047" d="M187.029,170.358A66.729,66.729,0,1,0,120.3,103.629h0A66.695,66.695,0,0,0,187.029,170.358Zm0-130.588a63.859,63.859,0,1,1-63.859,63.859h0A63.816,63.816,0,0,1,187.029,39.77Z" transform="translate(-120.3 -36.9)" fill="#3f3d56"/>
    </g>
    <g id="Group_2615" data-name="Group 2615" transform="translate(0 152.277)">
      <path id="Path_13047-2" data-name="Path 13047" d="M187.029,170.358A66.729,66.729,0,1,0,120.3,103.629h0A66.695,66.695,0,0,0,187.029,170.358Zm0-130.588a63.859,63.859,0,1,1-63.859,63.859h0A63.816,63.816,0,0,1,187.029,39.77Z" transform="translate(-120.3 -36.9)" fill="#3f3d56"/>
    </g>
    <ellipse id="af8c7bff-6816-464a-b0a9-6a679aecd372-2" data-name="af8c7bff-6816-464a-b0a9-6a679aecd372" cx="33.294" cy="33.294" rx="33.294" ry="33.294" transform="translate(96.023 208.171)" fill="#263680"/>
    <ellipse id="af8c7bff-6816-464a-b0a9-6a679aecd372-3" data-name="af8c7bff-6816-464a-b0a9-6a679aecd372" cx="23.294" cy="23.294" rx="23.294" ry="23.294" transform="translate(82.729 142.983)" fill="#3c3c3c"/>
    <ellipse id="e41ec8f5-a87e-4b16-bc24-7a000bd09eb1" cx="50.645" cy="50.645" rx="50.645" ry="50.645" transform="translate(-53.449 116.758)" fill="#fff"/>
  </g>
</svg>
