<svg xmlns="http://www.w3.org/2000/svg" width="293.677" height="285.735" viewBox="0 0 293.677 285.735">
  <g id="Group_2982" data-name="Group 2982" transform="translate(-1025.148 -7651.21)">
    <g id="Group_2507" data-name="Group 2507" transform="translate(909.403 7653.281)">
      <circle id="af8c7bff-6816-464a-b0a9-6a679aecd372" cx="65.294" cy="65.294" r="65.294" transform="translate(115.745 25.913)" fill="#263680"/>
      <path id="Path_13047" data-name="Path 13047" d="M187.029,170.358a66.729,66.729,0,1,1,66.729-66.729h0A66.695,66.695,0,0,1,187.029,170.358Zm0-130.588a63.859,63.859,0,1,0,63.859,63.859h0A63.816,63.816,0,0,0,187.029,39.77Z" transform="translate(9.222 -38.971)" fill="#3f3d56"/>
    </g>
    <g id="Group_2615" data-name="Group 2615" transform="translate(998.396 7805.559)">
      <path id="Path_13047-2" data-name="Path 13047" d="M187.029,170.358a66.729,66.729,0,1,1,66.729-66.729h0A66.695,66.695,0,0,1,187.029,170.358Zm0-130.588a63.859,63.859,0,1,0,63.859,63.859h0A63.816,63.816,0,0,0,187.029,39.77Z" transform="translate(9.222 -38.971)" fill="#3f3d56"/>
    </g>
    <circle id="af8c7bff-6816-464a-b0a9-6a679aecd372-2" data-name="af8c7bff-6816-464a-b0a9-6a679aecd372" cx="33.294" cy="33.294" r="33.294" transform="translate(1098.766 7859.383)" fill="#263680"/>
    <circle id="af8c7bff-6816-464a-b0a9-6a679aecd372-3" data-name="af8c7bff-6816-464a-b0a9-6a679aecd372" cx="23.294" cy="23.294" r="23.294" transform="translate(1132.06 7794.195)" fill="#3c3c3c"/>
    <circle id="e41ec8f5-a87e-4b16-bc24-7a000bd09eb1" cx="50.645" cy="50.645" r="50.645" transform="translate(1217.535 7767.971)" fill="#fff"/>
  </g>
</svg>
