<svg id="Group_2624" data-name="Group 2624" xmlns="http://www.w3.org/2000/svg" width="274.498" height="247.051" viewBox="0 0 274.498 247.051">
  <g id="Group_2508" data-name="Group 2508" transform="translate(0 0)">
    <ellipse id="e41ec8f5-a87e-4b16-bc24-7a000bd09eb1" cx="83.787" cy="83.787" rx="83.787" ry="83.787" transform="translate(21.46 36.014)" fill="#ececec"/>
    <path id="Path_13086" data-name="Path 13086" d="M145.153,478.505A85.653,85.653,0,1,0,59.5,392.853h0C59.5,440.064,97.941,478.319,145.153,478.505Zm0-167.76a81.92,81.92,0,1,1-81.921,81.92C63.232,347.507,99.994,310.932,145.153,310.746Z" transform="translate(-59.5 -307.2)" fill="#2f2e41"/>
  </g>
  <g id="Group_2623" data-name="Group 2623" transform="translate(131.739 136.923)">
    <g id="Group_2616" data-name="Group 2616" transform="translate(15.294)">
      <ellipse id="e41ec8f5-a87e-4b16-bc24-7a000bd09eb1-2" data-name="e41ec8f5-a87e-4b16-bc24-7a000bd09eb1" cx="46.645" cy="46.645" rx="46.645" ry="46.645" transform="translate(34.175 16.838)" fill="#fff"/>
      <path id="Path_13086-2" data-name="Path 13086" d="M93.675,375.55A34.175,34.175,0,1,0,59.5,341.375h0A34.271,34.271,0,0,0,93.675,375.55Zm0-66.935A32.686,32.686,0,1,1,60.989,341.3,32.681,32.681,0,0,1,93.675,308.615Z" transform="translate(-59.5 -307.2)" fill="#2f2e41"/>
    </g>
    <ellipse id="af8c7bff-6816-464a-b0a9-6a679aecd372" cx="15.294" cy="15.294" rx="15.294" ry="15.294" transform="translate(0 66.664)" fill="#3c3c3c"/>
    <ellipse id="af8c7bff-6816-464a-b0a9-6a679aecd372-2" data-name="af8c7bff-6816-464a-b0a9-6a679aecd372" cx="14.294" cy="14.294" rx="14.294" ry="14.294" transform="translate(64.733 4.251)" fill="#263680"/>
  </g>
</svg>
